M48
INCH,TZ
T1C0.024
T2C0.024
T3C0.025
T4C0.031
T5C0.032
T6C0.035
T7C0.035
T8C0.039
T9C0.048
T10C0.120
T11C0.126
%
G90
G05
T1
X64075Y-38386
X64665Y-38386
X65256Y-38386
X65846Y-38386
X66437Y-38386
X67028Y-38386
X67618Y-38386
X68209Y-38386
X68799Y-38386
X69390Y-38386
T2
X45350Y-49291
X48350Y-49291
T3
X50591Y-52874
X50984Y-46732
X52835Y-48976
X52835Y-49724
X52874Y-50394
X52913Y-48150
X53504Y-47874
X54016Y-47638
X54843Y-53740
X55945Y-43150
X56260Y-42244
X57677Y-50039
X58465Y-43780
X58701Y-52283
X59409Y-42244
X59843Y-44685
X60433Y-43504
X60433Y-45236
X60827Y-43307
X60827Y-44370
X60866Y-45630
X61535Y-44331
X61850Y-43976
X62205Y-44291
X62244Y-52283
X63386Y-52323
X63780Y-42717
X65276Y-40472
X65748Y-41043
X65748Y-43012
X65787Y-41535
X66929Y-52362
X68031Y-52362
X68543Y-43110
X70039Y-44055
X70039Y-44843
X71654Y-52362
T4
X58819Y-38386
X58819Y-47480
X74646Y-38386
X74646Y-47480
T5
X46035Y-47835
X47020Y-50512
X47035Y-47835
X48020Y-50512
X48268Y-52413
X48268Y-53413
X52323Y-38657
X52323Y-41657
X53228Y-38657
X53228Y-41657
X53606Y-36417
X54134Y-38657
X54134Y-41657
X54606Y-36417
X54648Y-46848
X55355Y-46141
X55606Y-36417
X56062Y-45434
X56232Y-53740
X56732Y-49642
X56732Y-52642
X56769Y-44727
X57232Y-53740
X57831Y-40354
X58244Y-37402
X59130Y-50394
X60831Y-40354
X61240Y-49173
X61244Y-37402
X62059Y-39382
X62059Y-40382
X62130Y-50394
X62240Y-49173
X63059Y-39382
X63240Y-49173
X63657Y-50394
X64240Y-49173
X64839Y-37520
X65240Y-49173
X66240Y-49173
X66657Y-50394
X67839Y-37520
X68382Y-50394
X68618Y-37520
X71382Y-50394
X71618Y-37520
T6
X56800Y-36300
X57800Y-36300
X58800Y-36300
X59800Y-36300
X60800Y-36300
X61800Y-36300
X62800Y-36300
X63800Y-36300
X64800Y-36300
X65800Y-36300
X66800Y-36300
X67800Y-36300
X68800Y-36300
X69800Y-36300
X70800Y-36300
X71800Y-36300
T7
X49550Y-39550
X49550Y-40550
X49550Y-41550
X49550Y-42550
X50550Y-40050
X50550Y-41050
X50550Y-42050
X50550Y-43050
T8
X45433Y-46063
X46417Y-46063
X47402Y-46063
T9
X59921Y-39154
X73543Y-39154
T10
X45472Y-36811
X45472Y-52953
X73800Y-36600
X73819Y-52953
T11
X47050Y-39050
X47050Y-43550
T0
M30
