G04 (created by PCBNEW (2013-05-18 BZR 4017)-stable) date Tue 31 Dec 2013 13:11:11 CST*
%MOIN*%
G04 Gerber Fmt 3.4, Leading zero omitted, Abs format*
%FSLAX34Y34*%
G01*
G70*
G90*
G04 APERTURE LIST*
%ADD10C,0.00590551*%
%ADD11C,0.055*%
%ADD12C,0.069*%
%ADD13R,0.059X0.0512*%
%ADD14C,0.16*%
%ADD15R,0.055X0.055*%
%ADD16R,0.0826772X0.0551181*%
%ADD17R,0.0492126X0.0295276*%
%ADD18O,0.0551181X0.0984252*%
%ADD19R,0.056X0.056*%
%ADD20C,0.056*%
%ADD21C,0.0708661*%
%ADD22C,0.125984*%
%ADD23O,0.0688976X0.0984252*%
%ADD24C,0.0314961*%
%ADD25O,0.0314961X0.0590551*%
G04 APERTURE END LIST*
G54D10*
G54D11*
X53228Y-38657D03*
X53228Y-41657D03*
X54133Y-41657D03*
X54133Y-38657D03*
X52322Y-41657D03*
X52322Y-38657D03*
X56732Y-49641D03*
X56732Y-52641D03*
G54D12*
X71800Y-36300D03*
X70800Y-36300D03*
X69800Y-36300D03*
X68800Y-36300D03*
X67800Y-36300D03*
X66800Y-36300D03*
X65800Y-36300D03*
X64800Y-36300D03*
X63800Y-36300D03*
X62800Y-36300D03*
X61800Y-36300D03*
X60800Y-36300D03*
X59800Y-36300D03*
X58800Y-36300D03*
X57800Y-36300D03*
X56800Y-36300D03*
G54D13*
X69251Y-44073D03*
X69251Y-44823D03*
G54D10*
G36*
X59667Y-42946D02*
X60085Y-43363D01*
X59723Y-43725D01*
X59305Y-43308D01*
X59667Y-42946D01*
X59667Y-42946D01*
G37*
G36*
X60198Y-42416D02*
X60615Y-42833D01*
X60253Y-43195D01*
X59836Y-42778D01*
X60198Y-42416D01*
X60198Y-42416D01*
G37*
G54D14*
X73818Y-52952D03*
X45472Y-52952D03*
X45472Y-36811D03*
X73800Y-36600D03*
G54D15*
X46035Y-47834D03*
G54D11*
X47035Y-47834D03*
G54D15*
X48267Y-53413D03*
G54D11*
X48267Y-52413D03*
G54D15*
X57232Y-53740D03*
G54D11*
X56232Y-53740D03*
X59129Y-50393D03*
X62129Y-50393D03*
X63657Y-50393D03*
X66657Y-50393D03*
X68381Y-50393D03*
X71381Y-50393D03*
X57830Y-40354D03*
X60830Y-40354D03*
G54D16*
X58641Y-53051D03*
X62224Y-53051D03*
X58641Y-51279D03*
X62224Y-51279D03*
X63366Y-53051D03*
X66948Y-53051D03*
X63366Y-51279D03*
X66948Y-51279D03*
X68090Y-53051D03*
X71673Y-53051D03*
X68090Y-51279D03*
X71673Y-51279D03*
G54D15*
X63059Y-39381D03*
G54D11*
X62059Y-39381D03*
X62059Y-40381D03*
G54D17*
X70866Y-37253D03*
X70866Y-37549D03*
X70866Y-37844D03*
G54D11*
X61244Y-37401D03*
X58244Y-37401D03*
G54D15*
X66240Y-49173D03*
G54D11*
X65240Y-49173D03*
X64240Y-49173D03*
X63240Y-49173D03*
X62240Y-49173D03*
X61240Y-49173D03*
G54D10*
G36*
X54648Y-47236D02*
X54259Y-46848D01*
X54648Y-46459D01*
X55036Y-46848D01*
X54648Y-47236D01*
X54648Y-47236D01*
G37*
G54D11*
X55355Y-46140D03*
X56062Y-45433D03*
X56769Y-44726D03*
G54D15*
X47019Y-50511D03*
G54D11*
X48019Y-50511D03*
X68618Y-37519D03*
X71618Y-37519D03*
X64838Y-37519D03*
X67838Y-37519D03*
G54D18*
X46417Y-46062D03*
X47401Y-46062D03*
X45433Y-46062D03*
G54D19*
X45350Y-49291D03*
G54D20*
X48350Y-49291D03*
G54D15*
X53606Y-36417D03*
G54D11*
X54606Y-36417D03*
X55606Y-36417D03*
G54D21*
X50550Y-40050D03*
X50550Y-41050D03*
X50550Y-42050D03*
X50550Y-43050D03*
X49550Y-39550D03*
X49550Y-40550D03*
X49550Y-41550D03*
X49550Y-42550D03*
G54D22*
X47050Y-39050D03*
X47050Y-43550D03*
G54D23*
X73543Y-39153D03*
X59921Y-39153D03*
G54D24*
X58818Y-38385D03*
X74645Y-38385D03*
X58818Y-47480D03*
X74645Y-47480D03*
G54D25*
X64074Y-38385D03*
X64665Y-38385D03*
X65255Y-38385D03*
X65846Y-38385D03*
X66437Y-38385D03*
X67027Y-38385D03*
X67618Y-38385D03*
X68208Y-38385D03*
X68799Y-38385D03*
X69389Y-38385D03*
M02*
