G04 (created by PCBNEW (2013-05-18 BZR 4017)-stable) date Tue 31 Dec 2013 13:11:11 CST*
%MOIN*%
G04 Gerber Fmt 3.4, Leading zero omitted, Abs format*
%FSLAX34Y34*%
G01*
G70*
G90*
G04 APERTURE LIST*
%ADD10C,0.00590551*%
%ADD11R,0.0456693X0.0314961*%
%ADD12R,0.0456693X0.0629921*%
%ADD13R,0.0456693X0.0787402*%
%ADD14R,0.0492126X0.0413386*%
%ADD15R,0.0984252X0.0393701*%
%ADD16R,0.0866142X0.0393701*%
%ADD17C,0.055*%
%ADD18R,0.0393701X0.0393701*%
%ADD19C,0.069*%
%ADD20R,0.26378X0.26378*%
%ADD21R,0.0629921X0.11811*%
%ADD22R,0.0512X0.059*%
%ADD23R,0.059X0.0512*%
%ADD24C,0.16*%
%ADD25R,0.275591X0.275591*%
%ADD26R,0.0590551X0.0984252*%
%ADD27R,0.055X0.055*%
%ADD28R,0.0728346X0.0291339*%
%ADD29R,0.0610236X0.023622*%
%ADD30R,0.019685X0.0393701*%
%ADD31R,0.025X0.045*%
%ADD32O,0.0551181X0.0984252*%
%ADD33R,0.056X0.056*%
%ADD34C,0.056*%
%ADD35C,0.0708661*%
%ADD36C,0.125984*%
%ADD37O,0.0688976X0.0984252*%
%ADD38C,0.0314961*%
%ADD39O,0.0314961X0.0590551*%
%ADD40C,0.035*%
%ADD41C,0.028*%
%ADD42C,0.04*%
%ADD43C,0.01*%
%ADD44C,0.018*%
%ADD45C,0.008*%
G04 APERTURE END LIST*
G54D10*
G54D11*
X69291Y-42716D03*
X69291Y-43149D03*
X69291Y-43582D03*
X69291Y-44015D03*
X69291Y-44448D03*
X69291Y-44881D03*
X69291Y-45314D03*
X69291Y-45748D03*
G54D12*
X69291Y-46338D03*
G54D13*
X69291Y-41492D03*
G54D14*
X69978Y-46568D03*
X73570Y-46568D03*
G54D15*
X74377Y-40984D03*
G54D16*
X74437Y-46732D03*
G54D17*
X53228Y-38657D03*
X53228Y-41657D03*
X54133Y-41657D03*
X54133Y-38657D03*
X52322Y-41657D03*
X52322Y-38657D03*
X56732Y-49641D03*
X56732Y-52641D03*
G54D18*
X57677Y-52677D03*
X57677Y-51811D03*
G54D19*
X71800Y-36300D03*
X70800Y-36300D03*
X69800Y-36300D03*
X68800Y-36300D03*
X67800Y-36300D03*
X66800Y-36300D03*
X65800Y-36300D03*
X64800Y-36300D03*
X63800Y-36300D03*
X62800Y-36300D03*
X61800Y-36300D03*
X60800Y-36300D03*
X59800Y-36300D03*
X58800Y-36300D03*
X57800Y-36300D03*
X56800Y-36300D03*
G54D20*
X54685Y-49724D03*
G54D21*
X55590Y-52342D03*
X53779Y-52342D03*
G54D10*
G36*
X56178Y-46827D02*
X56512Y-46493D01*
X57487Y-47467D01*
X57153Y-47802D01*
X56178Y-46827D01*
X56178Y-46827D01*
G37*
G36*
X57709Y-48358D02*
X58043Y-48024D01*
X59018Y-48999D01*
X58684Y-49333D01*
X57709Y-48358D01*
X57709Y-48358D01*
G37*
G54D22*
X51475Y-53740D03*
X52225Y-53740D03*
G54D10*
G36*
X58340Y-46395D02*
X58757Y-45977D01*
X59119Y-46339D01*
X58702Y-46757D01*
X58340Y-46395D01*
X58340Y-46395D01*
G37*
G36*
X57809Y-45864D02*
X58226Y-45447D01*
X58589Y-45809D01*
X58171Y-46226D01*
X57809Y-45864D01*
X57809Y-45864D01*
G37*
G36*
X59612Y-46833D02*
X59195Y-47250D01*
X58833Y-46888D01*
X59250Y-46471D01*
X59612Y-46833D01*
X59612Y-46833D01*
G37*
G36*
X60142Y-47363D02*
X59725Y-47780D01*
X59363Y-47418D01*
X59780Y-47001D01*
X60142Y-47363D01*
X60142Y-47363D01*
G37*
G54D23*
X57992Y-42420D03*
X57992Y-43170D03*
G54D10*
G36*
X61029Y-47620D02*
X60612Y-48037D01*
X60250Y-47675D01*
X60667Y-47258D01*
X61029Y-47620D01*
X61029Y-47620D01*
G37*
G36*
X61560Y-48150D02*
X61143Y-48568D01*
X60781Y-48206D01*
X61198Y-47788D01*
X61560Y-48150D01*
X61560Y-48150D01*
G37*
G54D23*
X52637Y-51396D03*
X52637Y-52146D03*
G54D22*
X49664Y-53740D03*
X50414Y-53740D03*
X54115Y-53740D03*
X53365Y-53740D03*
X51987Y-37834D03*
X52737Y-37834D03*
G54D24*
X73818Y-52952D03*
X45472Y-52952D03*
X45472Y-36811D03*
X73800Y-36600D03*
G54D25*
X50511Y-49803D03*
G54D26*
X49606Y-52460D03*
X51417Y-52460D03*
G54D27*
X46035Y-47834D03*
G54D17*
X47035Y-47834D03*
G54D27*
X48267Y-53413D03*
G54D17*
X48267Y-52413D03*
G54D27*
X57232Y-53740D03*
G54D17*
X56232Y-53740D03*
X59129Y-50393D03*
X62129Y-50393D03*
X63657Y-50393D03*
X66657Y-50393D03*
X68381Y-50393D03*
X71381Y-50393D03*
X57830Y-40354D03*
X60830Y-40354D03*
G54D28*
X66486Y-41527D03*
X66486Y-42027D03*
X66486Y-42527D03*
X66486Y-43027D03*
X64812Y-41027D03*
X64812Y-41527D03*
X64812Y-42027D03*
X64812Y-42527D03*
X64812Y-43027D03*
X66486Y-41027D03*
G54D27*
X63059Y-39381D03*
G54D17*
X62059Y-39381D03*
X62059Y-40381D03*
G54D29*
X57047Y-43122D03*
X57047Y-42622D03*
X57047Y-42122D03*
X54960Y-43622D03*
X54960Y-43122D03*
X54960Y-42598D03*
X54960Y-42122D03*
X57047Y-43622D03*
G54D17*
X61244Y-37401D03*
X58244Y-37401D03*
G54D22*
X67144Y-39173D03*
X67894Y-39173D03*
X68719Y-39173D03*
X69469Y-39173D03*
G54D30*
X52490Y-46102D03*
X52785Y-46102D03*
X52490Y-45000D03*
X52785Y-45000D03*
X52490Y-44055D03*
X52785Y-44055D03*
G54D31*
X45851Y-50511D03*
X45251Y-50511D03*
G54D27*
X66240Y-49173D03*
G54D17*
X65240Y-49173D03*
X64240Y-49173D03*
X63240Y-49173D03*
X62240Y-49173D03*
X61240Y-49173D03*
G54D10*
G36*
X54648Y-47236D02*
X54259Y-46848D01*
X54648Y-46459D01*
X55036Y-46848D01*
X54648Y-47236D01*
X54648Y-47236D01*
G37*
G54D17*
X55355Y-46140D03*
X56062Y-45433D03*
X56769Y-44726D03*
G54D27*
X47019Y-50511D03*
G54D17*
X48019Y-50511D03*
X68618Y-37519D03*
X71618Y-37519D03*
X64838Y-37519D03*
X67838Y-37519D03*
G54D32*
X46417Y-46062D03*
X47401Y-46062D03*
X45433Y-46062D03*
G54D33*
X45350Y-49291D03*
G54D34*
X48350Y-49291D03*
G54D27*
X53606Y-36417D03*
G54D17*
X54606Y-36417D03*
X55606Y-36417D03*
G54D10*
G36*
X59267Y-44649D02*
X59331Y-44713D01*
X58939Y-45104D01*
X58875Y-45040D01*
X59267Y-44649D01*
X59267Y-44649D01*
G37*
G36*
X59406Y-44788D02*
X59470Y-44852D01*
X59079Y-45244D01*
X59015Y-45179D01*
X59406Y-44788D01*
X59406Y-44788D01*
G37*
G36*
X59545Y-44927D02*
X59609Y-44991D01*
X59218Y-45383D01*
X59154Y-45319D01*
X59545Y-44927D01*
X59545Y-44927D01*
G37*
G36*
X59684Y-45066D02*
X59748Y-45130D01*
X59357Y-45522D01*
X59293Y-45458D01*
X59684Y-45066D01*
X59684Y-45066D01*
G37*
G36*
X59824Y-45206D02*
X59888Y-45270D01*
X59496Y-45661D01*
X59432Y-45597D01*
X59824Y-45206D01*
X59824Y-45206D01*
G37*
G36*
X59963Y-45345D02*
X60027Y-45409D01*
X59635Y-45800D01*
X59571Y-45736D01*
X59963Y-45345D01*
X59963Y-45345D01*
G37*
G36*
X60102Y-45484D02*
X60166Y-45548D01*
X59775Y-45939D01*
X59711Y-45875D01*
X60102Y-45484D01*
X60102Y-45484D01*
G37*
G36*
X60241Y-45623D02*
X60305Y-45687D01*
X59914Y-46079D01*
X59850Y-46015D01*
X60241Y-45623D01*
X60241Y-45623D01*
G37*
G36*
X60380Y-45762D02*
X60444Y-45826D01*
X60053Y-46218D01*
X59989Y-46154D01*
X60380Y-45762D01*
X60380Y-45762D01*
G37*
G36*
X60520Y-45902D02*
X60584Y-45966D01*
X60192Y-46357D01*
X60128Y-46293D01*
X60520Y-45902D01*
X60520Y-45902D01*
G37*
G36*
X60659Y-46041D02*
X60723Y-46105D01*
X60331Y-46496D01*
X60267Y-46432D01*
X60659Y-46041D01*
X60659Y-46041D01*
G37*
G36*
X60798Y-46180D02*
X60862Y-46244D01*
X60471Y-46635D01*
X60406Y-46571D01*
X60798Y-46180D01*
X60798Y-46180D01*
G37*
G36*
X61184Y-46244D02*
X61248Y-46180D01*
X61640Y-46571D01*
X61576Y-46635D01*
X61184Y-46244D01*
X61184Y-46244D01*
G37*
G36*
X61323Y-46105D02*
X61388Y-46041D01*
X61779Y-46432D01*
X61715Y-46496D01*
X61323Y-46105D01*
X61323Y-46105D01*
G37*
G36*
X61463Y-45966D02*
X61527Y-45902D01*
X61918Y-46293D01*
X61854Y-46357D01*
X61463Y-45966D01*
X61463Y-45966D01*
G37*
G36*
X61602Y-45826D02*
X61666Y-45762D01*
X62057Y-46154D01*
X61993Y-46218D01*
X61602Y-45826D01*
X61602Y-45826D01*
G37*
G36*
X61741Y-45687D02*
X61805Y-45623D01*
X62197Y-46015D01*
X62133Y-46079D01*
X61741Y-45687D01*
X61741Y-45687D01*
G37*
G36*
X61880Y-45548D02*
X61944Y-45484D01*
X62336Y-45875D01*
X62272Y-45939D01*
X61880Y-45548D01*
X61880Y-45548D01*
G37*
G36*
X62019Y-45409D02*
X62083Y-45345D01*
X62475Y-45736D01*
X62411Y-45800D01*
X62019Y-45409D01*
X62019Y-45409D01*
G37*
G36*
X62159Y-45270D02*
X62223Y-45206D01*
X62614Y-45597D01*
X62550Y-45661D01*
X62159Y-45270D01*
X62159Y-45270D01*
G37*
G36*
X62298Y-45130D02*
X62362Y-45066D01*
X62753Y-45458D01*
X62689Y-45522D01*
X62298Y-45130D01*
X62298Y-45130D01*
G37*
G36*
X62437Y-44991D02*
X62501Y-44927D01*
X62893Y-45319D01*
X62828Y-45383D01*
X62437Y-44991D01*
X62437Y-44991D01*
G37*
G36*
X62576Y-44852D02*
X62640Y-44788D01*
X63032Y-45179D01*
X62968Y-45244D01*
X62576Y-44852D01*
X62576Y-44852D01*
G37*
G36*
X62715Y-44713D02*
X62779Y-44649D01*
X63171Y-45040D01*
X63107Y-45104D01*
X62715Y-44713D01*
X62715Y-44713D01*
G37*
G36*
X62779Y-44327D02*
X62715Y-44262D01*
X63107Y-43871D01*
X63171Y-43935D01*
X62779Y-44327D01*
X62779Y-44327D01*
G37*
G36*
X62640Y-44187D02*
X62576Y-44123D01*
X62968Y-43732D01*
X63032Y-43796D01*
X62640Y-44187D01*
X62640Y-44187D01*
G37*
G36*
X62501Y-44048D02*
X62437Y-43984D01*
X62828Y-43593D01*
X62893Y-43657D01*
X62501Y-44048D01*
X62501Y-44048D01*
G37*
G36*
X62362Y-43909D02*
X62298Y-43845D01*
X62689Y-43453D01*
X62753Y-43518D01*
X62362Y-43909D01*
X62362Y-43909D01*
G37*
G36*
X62223Y-43770D02*
X62159Y-43706D01*
X62550Y-43314D01*
X62614Y-43378D01*
X62223Y-43770D01*
X62223Y-43770D01*
G37*
G36*
X62083Y-43631D02*
X62019Y-43567D01*
X62411Y-43175D01*
X62475Y-43239D01*
X62083Y-43631D01*
X62083Y-43631D01*
G37*
G36*
X61944Y-43491D02*
X61880Y-43427D01*
X62272Y-43036D01*
X62336Y-43100D01*
X61944Y-43491D01*
X61944Y-43491D01*
G37*
G36*
X61805Y-43352D02*
X61741Y-43288D01*
X62133Y-42897D01*
X62197Y-42961D01*
X61805Y-43352D01*
X61805Y-43352D01*
G37*
G36*
X61666Y-43213D02*
X61602Y-43149D01*
X61993Y-42758D01*
X62057Y-42822D01*
X61666Y-43213D01*
X61666Y-43213D01*
G37*
G36*
X61527Y-43074D02*
X61463Y-43010D01*
X61854Y-42618D01*
X61918Y-42682D01*
X61527Y-43074D01*
X61527Y-43074D01*
G37*
G36*
X61388Y-42935D02*
X61323Y-42871D01*
X61715Y-42479D01*
X61779Y-42543D01*
X61388Y-42935D01*
X61388Y-42935D01*
G37*
G36*
X61248Y-42795D02*
X61184Y-42731D01*
X61576Y-42340D01*
X61640Y-42404D01*
X61248Y-42795D01*
X61248Y-42795D01*
G37*
G36*
X60862Y-42731D02*
X60798Y-42795D01*
X60406Y-42404D01*
X60471Y-42340D01*
X60862Y-42731D01*
X60862Y-42731D01*
G37*
G36*
X60723Y-42871D02*
X60659Y-42935D01*
X60267Y-42543D01*
X60331Y-42479D01*
X60723Y-42871D01*
X60723Y-42871D01*
G37*
G36*
X60584Y-43010D02*
X60520Y-43074D01*
X60128Y-42682D01*
X60192Y-42618D01*
X60584Y-43010D01*
X60584Y-43010D01*
G37*
G36*
X60444Y-43149D02*
X60380Y-43213D01*
X59989Y-42822D01*
X60053Y-42758D01*
X60444Y-43149D01*
X60444Y-43149D01*
G37*
G36*
X60305Y-43288D02*
X60241Y-43352D01*
X59850Y-42961D01*
X59914Y-42897D01*
X60305Y-43288D01*
X60305Y-43288D01*
G37*
G36*
X60166Y-43427D02*
X60102Y-43491D01*
X59711Y-43100D01*
X59775Y-43036D01*
X60166Y-43427D01*
X60166Y-43427D01*
G37*
G36*
X60027Y-43567D02*
X59963Y-43631D01*
X59571Y-43239D01*
X59635Y-43175D01*
X60027Y-43567D01*
X60027Y-43567D01*
G37*
G36*
X59888Y-43706D02*
X59824Y-43770D01*
X59432Y-43378D01*
X59496Y-43314D01*
X59888Y-43706D01*
X59888Y-43706D01*
G37*
G36*
X59748Y-43845D02*
X59684Y-43909D01*
X59293Y-43518D01*
X59357Y-43453D01*
X59748Y-43845D01*
X59748Y-43845D01*
G37*
G36*
X59609Y-43984D02*
X59545Y-44048D01*
X59154Y-43657D01*
X59218Y-43593D01*
X59609Y-43984D01*
X59609Y-43984D01*
G37*
G36*
X59470Y-44123D02*
X59406Y-44187D01*
X59015Y-43796D01*
X59079Y-43732D01*
X59470Y-44123D01*
X59470Y-44123D01*
G37*
G36*
X59331Y-44262D02*
X59267Y-44327D01*
X58875Y-43935D01*
X58939Y-43871D01*
X59331Y-44262D01*
X59331Y-44262D01*
G37*
G54D35*
X50550Y-40050D03*
X50550Y-41050D03*
X50550Y-42050D03*
X50550Y-43050D03*
X49550Y-39550D03*
X49550Y-40550D03*
X49550Y-41550D03*
X49550Y-42550D03*
G54D36*
X47050Y-39050D03*
X47050Y-43550D03*
G54D37*
X73543Y-39153D03*
X59921Y-39153D03*
G54D38*
X58818Y-38385D03*
X74645Y-38385D03*
X58818Y-47480D03*
X74645Y-47480D03*
G54D39*
X64074Y-38385D03*
X64665Y-38385D03*
X65255Y-38385D03*
X65846Y-38385D03*
X66437Y-38385D03*
X67027Y-38385D03*
X67618Y-38385D03*
X68208Y-38385D03*
X68799Y-38385D03*
X69389Y-38385D03*
G54D40*
X59409Y-42244D03*
X50984Y-46732D03*
X60433Y-45236D03*
X65275Y-40472D03*
X57677Y-50039D03*
X52913Y-48149D03*
X52834Y-48976D03*
X54015Y-47637D03*
X53503Y-47874D03*
X52874Y-50393D03*
X52834Y-49724D03*
X70039Y-44055D03*
X55944Y-43149D03*
X54842Y-53740D03*
X50590Y-52874D03*
X56259Y-42244D03*
X60826Y-44370D03*
X58464Y-43779D03*
X61535Y-44330D03*
X60433Y-43503D03*
X71653Y-52362D03*
X68031Y-52362D03*
X66929Y-52362D03*
X63385Y-52322D03*
X62244Y-52283D03*
X58700Y-52283D03*
X70039Y-44842D03*
X63779Y-42716D03*
X62204Y-44291D03*
X60866Y-45629D03*
X68543Y-43110D03*
X61850Y-43976D03*
X65787Y-41535D03*
X60826Y-43307D03*
X65748Y-41043D03*
X59842Y-44685D03*
X65748Y-43011D03*
G54D41*
X47019Y-50511D02*
X47019Y-51119D01*
X49360Y-52460D02*
X49606Y-52460D01*
X48400Y-51500D02*
X49360Y-52460D01*
X47400Y-51500D02*
X48400Y-51500D01*
X47019Y-51119D02*
X47400Y-51500D01*
X45851Y-50511D02*
X47019Y-50511D01*
G54D42*
X49606Y-52460D02*
X49606Y-53682D01*
X49606Y-53682D02*
X49664Y-53740D01*
G54D43*
X59660Y-43542D02*
X59660Y-43532D01*
X59291Y-42362D02*
X59409Y-42244D01*
X59291Y-43163D02*
X59291Y-42362D01*
X59660Y-43532D02*
X59291Y-43163D01*
G54D42*
X54685Y-49724D02*
X54015Y-49724D01*
X51023Y-46732D02*
X50984Y-46732D01*
X54015Y-49724D02*
X51023Y-46732D01*
G54D43*
X60077Y-45851D02*
X60093Y-45851D01*
X60433Y-45511D02*
X60433Y-45236D01*
X60093Y-45851D02*
X60433Y-45511D01*
X60077Y-45851D02*
X60077Y-45851D01*
X60640Y-47175D02*
X60640Y-47648D01*
X59825Y-46361D02*
X60640Y-47175D01*
X59825Y-46103D02*
X59825Y-46361D01*
X60077Y-45851D02*
X59825Y-46103D01*
G54D44*
X64812Y-41027D02*
X64812Y-40935D01*
X64812Y-40935D02*
X65275Y-40472D01*
G54D42*
X56732Y-49641D02*
X57279Y-49641D01*
X57279Y-49641D02*
X57677Y-50039D01*
X54685Y-49724D02*
X56649Y-49724D01*
X56649Y-49724D02*
X56732Y-49641D01*
X54685Y-49724D02*
X54488Y-49724D01*
X54488Y-49724D02*
X52913Y-48149D01*
X54685Y-49724D02*
X53582Y-49724D01*
X53582Y-49724D02*
X52834Y-48976D01*
X54685Y-49724D02*
X54685Y-48307D01*
X54685Y-48307D02*
X54015Y-47637D01*
X54685Y-49724D02*
X54685Y-49055D01*
X54685Y-49055D02*
X53503Y-47874D01*
X52637Y-51396D02*
X52637Y-50629D01*
X52637Y-50629D02*
X52874Y-50393D01*
X54685Y-49724D02*
X52834Y-49724D01*
X52637Y-51396D02*
X52658Y-51396D01*
X54330Y-49724D02*
X54685Y-49724D01*
X52658Y-51396D02*
X54330Y-49724D01*
G54D43*
X69291Y-44015D02*
X70000Y-44015D01*
X70000Y-44015D02*
X70039Y-44055D01*
G54D44*
X57047Y-42622D02*
X56472Y-42622D01*
X56472Y-42622D02*
X55944Y-43149D01*
X57047Y-42622D02*
X57790Y-42622D01*
X57790Y-42622D02*
X57992Y-42420D01*
X57830Y-40354D02*
X57830Y-42258D01*
X57830Y-42258D02*
X57992Y-42420D01*
G54D42*
X54115Y-53740D02*
X54842Y-53740D01*
X51003Y-52460D02*
X51417Y-52460D01*
X50590Y-52874D02*
X51003Y-52460D01*
X54115Y-53740D02*
X54192Y-53740D01*
X54192Y-53740D02*
X55590Y-52342D01*
G54D43*
X51475Y-53740D02*
X51475Y-53800D01*
X48870Y-54251D02*
X48267Y-53413D01*
X51023Y-54251D02*
X48870Y-54251D01*
X51475Y-53800D02*
X51023Y-54251D01*
G54D42*
X51475Y-53740D02*
X51475Y-52518D01*
X51475Y-52518D02*
X51417Y-52460D01*
G54D43*
X62129Y-50393D02*
X62677Y-50393D01*
X62795Y-46399D02*
X62108Y-45712D01*
X62795Y-48149D02*
X62795Y-46399D01*
X63110Y-48464D02*
X62795Y-48149D01*
X64370Y-48464D02*
X63110Y-48464D01*
X64763Y-48858D02*
X64370Y-48464D01*
X64763Y-49409D02*
X64763Y-48858D01*
X64527Y-49645D02*
X64763Y-49409D01*
X63425Y-49645D02*
X64527Y-49645D01*
X62677Y-50393D02*
X63425Y-49645D01*
X62526Y-45294D02*
X62526Y-45301D01*
X65748Y-49484D02*
X66657Y-50393D01*
X65748Y-48523D02*
X65748Y-49484D01*
X62526Y-45301D02*
X65748Y-48523D01*
X62943Y-44877D02*
X62987Y-44877D01*
X69905Y-48917D02*
X71381Y-50393D01*
X68011Y-48917D02*
X69905Y-48917D01*
X67618Y-48523D02*
X68011Y-48917D01*
X66633Y-48523D02*
X67618Y-48523D01*
X62987Y-44877D02*
X66633Y-48523D01*
X54133Y-41657D02*
X54133Y-41535D01*
X49720Y-39370D02*
X49551Y-39539D01*
X51968Y-39370D02*
X49720Y-39370D01*
X54133Y-41535D02*
X51968Y-39370D01*
X54960Y-42598D02*
X54488Y-42598D01*
X54133Y-42244D02*
X54133Y-41657D01*
X54488Y-42598D02*
X54133Y-42244D01*
X50551Y-40039D02*
X52047Y-40039D01*
X53228Y-41220D02*
X53228Y-41657D01*
X52047Y-40039D02*
X53228Y-41220D01*
X54960Y-43122D02*
X54303Y-43122D01*
X53228Y-42047D02*
X53228Y-41657D01*
X54303Y-43122D02*
X53228Y-42047D01*
X62247Y-45573D02*
X62247Y-45565D01*
X56381Y-42122D02*
X57047Y-42122D01*
X56259Y-42244D02*
X56381Y-42122D01*
X61052Y-44370D02*
X60826Y-44370D01*
X62247Y-45565D02*
X61052Y-44370D01*
X62386Y-45433D02*
X62386Y-45416D01*
X58307Y-43622D02*
X57047Y-43622D01*
X58464Y-43779D02*
X58307Y-43622D01*
X61535Y-44565D02*
X61535Y-44330D01*
X62386Y-45416D02*
X61535Y-44565D01*
X54960Y-42122D02*
X55311Y-42122D01*
X59029Y-44173D02*
X59103Y-44099D01*
X58228Y-44173D02*
X59029Y-44173D01*
X58070Y-44015D02*
X58228Y-44173D01*
X56062Y-44015D02*
X58070Y-44015D01*
X55551Y-43503D02*
X56062Y-44015D01*
X55551Y-42362D02*
X55551Y-43503D01*
X55311Y-42122D02*
X55551Y-42362D01*
X73570Y-46568D02*
X72033Y-46568D01*
X63342Y-43700D02*
X62943Y-44099D01*
X63582Y-43700D02*
X63342Y-43700D01*
X65649Y-45767D02*
X63582Y-43700D01*
X66830Y-45767D02*
X65649Y-45767D01*
X68110Y-47047D02*
X66830Y-45767D01*
X71555Y-47047D02*
X68110Y-47047D01*
X72033Y-46568D02*
X71555Y-47047D01*
X60314Y-43385D02*
X60354Y-43425D01*
X60433Y-43503D02*
X60314Y-43385D01*
X69978Y-46568D02*
X69954Y-46568D01*
X69724Y-46338D02*
X69291Y-46338D01*
X69954Y-46568D02*
X69724Y-46338D01*
X71692Y-52401D02*
X71692Y-52440D01*
X71653Y-52362D02*
X71692Y-52401D01*
X68031Y-52362D02*
X68110Y-52440D01*
X66929Y-52362D02*
X66929Y-52519D01*
X63385Y-52322D02*
X63385Y-52480D01*
X62244Y-52283D02*
X62244Y-52480D01*
X58779Y-52362D02*
X58897Y-52362D01*
X58700Y-52283D02*
X58779Y-52362D01*
X70000Y-44881D02*
X69291Y-44881D01*
X70039Y-44842D02*
X70000Y-44881D01*
X49551Y-41539D02*
X49551Y-41716D01*
X51968Y-45580D02*
X52490Y-46102D01*
X51968Y-42913D02*
X51968Y-45580D01*
X51591Y-42536D02*
X51968Y-42913D01*
X50213Y-42536D02*
X51591Y-42536D01*
X50078Y-42401D02*
X50213Y-42536D01*
X50078Y-42244D02*
X50078Y-42401D01*
X49551Y-41716D02*
X50078Y-42244D01*
G54D45*
X61800Y-36300D02*
X61800Y-36500D01*
X64079Y-37800D02*
X64665Y-38385D01*
X63100Y-37800D02*
X64079Y-37800D01*
X61800Y-36500D02*
X63100Y-37800D01*
G54D43*
X61412Y-42568D02*
X61412Y-42524D01*
X64665Y-39271D02*
X64665Y-38385D01*
X61412Y-42524D02*
X64665Y-39271D01*
G54D45*
X60800Y-36300D02*
X60800Y-36600D01*
X63888Y-38200D02*
X64074Y-38385D01*
X62800Y-38200D02*
X63888Y-38200D01*
X61500Y-36900D02*
X62800Y-38200D01*
X61100Y-36900D02*
X61500Y-36900D01*
X60800Y-36600D02*
X61100Y-36900D01*
G54D43*
X64074Y-38385D02*
X64074Y-39128D01*
X64074Y-39128D02*
X60634Y-42568D01*
G54D45*
X59799Y-43403D02*
X59799Y-43402D01*
X59800Y-37600D02*
X59800Y-36300D01*
X60700Y-38500D02*
X59800Y-37600D01*
X60700Y-39700D02*
X60700Y-38500D01*
X60500Y-39900D02*
X60700Y-39700D01*
X59784Y-40616D02*
X60500Y-39900D01*
X59784Y-42297D02*
X59784Y-40616D01*
X59484Y-42597D02*
X59784Y-42297D01*
X59484Y-43086D02*
X59484Y-42597D01*
X59799Y-43402D02*
X59484Y-43086D01*
X58800Y-36300D02*
X58800Y-36900D01*
X59100Y-43260D02*
X59521Y-43681D01*
X59100Y-41600D02*
X59100Y-43260D01*
X59500Y-41200D02*
X59100Y-41600D01*
X59500Y-40600D02*
X59500Y-41200D01*
X60500Y-39600D02*
X59500Y-40600D01*
X60500Y-38600D02*
X60500Y-39600D01*
X58800Y-36900D02*
X60500Y-38600D01*
X65255Y-38385D02*
X65255Y-37944D01*
X66800Y-36400D02*
X66800Y-36300D01*
X65255Y-37944D02*
X66800Y-36400D01*
G54D43*
X61551Y-42707D02*
X61551Y-42700D01*
X65255Y-38996D02*
X65255Y-38385D01*
X61551Y-42700D02*
X65255Y-38996D01*
G54D45*
X66437Y-38385D02*
X66437Y-37962D01*
X68100Y-37000D02*
X68800Y-36300D01*
X67400Y-37000D02*
X68100Y-37000D01*
X66437Y-37962D02*
X67400Y-37000D01*
G54D43*
X61830Y-42985D02*
X61837Y-42985D01*
X61837Y-42985D02*
X66437Y-38385D01*
G54D45*
X65846Y-38385D02*
X65846Y-38153D01*
X67300Y-36800D02*
X67800Y-36300D01*
X67200Y-36800D02*
X67300Y-36800D01*
X65846Y-38153D02*
X67200Y-36800D01*
G54D43*
X61690Y-42846D02*
X61690Y-42836D01*
X65846Y-38681D02*
X65846Y-38385D01*
X61690Y-42836D02*
X65846Y-38681D01*
X50551Y-42039D02*
X51527Y-42039D01*
X52165Y-44675D02*
X52490Y-45000D01*
X52165Y-42677D02*
X52165Y-44675D01*
X51527Y-42039D02*
X52165Y-42677D01*
X58199Y-45837D02*
X58493Y-45837D01*
X59427Y-45944D02*
X59799Y-45573D01*
X59094Y-45944D02*
X59427Y-45944D01*
X58858Y-45708D02*
X59094Y-45944D01*
X58622Y-45708D02*
X58858Y-45708D01*
X58493Y-45837D02*
X58622Y-45708D01*
X58199Y-45837D02*
X58143Y-45837D01*
X58143Y-45837D02*
X56832Y-47147D01*
X59938Y-45712D02*
X59938Y-45717D01*
X60118Y-47026D02*
X59753Y-47391D01*
X60118Y-46968D02*
X60118Y-47026D01*
X59645Y-46496D02*
X60118Y-46968D01*
X59645Y-46010D02*
X59645Y-46496D01*
X59938Y-45717D02*
X59645Y-46010D01*
X58363Y-48678D02*
X58465Y-48678D01*
X58465Y-48678D02*
X59753Y-47391D01*
X56062Y-45433D02*
X56062Y-45432D01*
X54685Y-44055D02*
X52785Y-44055D01*
X56062Y-45432D02*
X54685Y-44055D01*
X56062Y-45433D02*
X56770Y-45433D01*
X58911Y-44685D02*
X59103Y-44877D01*
X57519Y-44685D02*
X58911Y-44685D01*
X56770Y-45433D02*
X57519Y-44685D01*
X52785Y-45000D02*
X54212Y-45000D01*
X55353Y-46140D02*
X55355Y-46140D01*
X54212Y-45000D02*
X55353Y-46140D01*
X59242Y-45016D02*
X59235Y-45016D01*
X55985Y-46140D02*
X55355Y-46140D01*
X56417Y-45708D02*
X55985Y-46140D01*
X56750Y-45708D02*
X56417Y-45708D01*
X57538Y-44921D02*
X56750Y-45708D01*
X58464Y-44921D02*
X57538Y-44921D01*
X58779Y-45236D02*
X58464Y-44921D01*
X59015Y-45236D02*
X58779Y-45236D01*
X59235Y-45016D02*
X59015Y-45236D01*
X54648Y-46848D02*
X54407Y-46848D01*
X53661Y-46102D02*
X52785Y-46102D01*
X54407Y-46848D02*
X53661Y-46102D01*
X59521Y-45294D02*
X59508Y-45294D01*
X55592Y-46848D02*
X54648Y-46848D01*
X56417Y-46023D02*
X55592Y-46848D01*
X56811Y-46023D02*
X56417Y-46023D01*
X57677Y-45157D02*
X56811Y-46023D01*
X58385Y-45157D02*
X57677Y-45157D01*
X58700Y-45472D02*
X58385Y-45157D01*
X58914Y-45472D02*
X58700Y-45472D01*
X58993Y-45551D02*
X58914Y-45472D01*
X59251Y-45551D02*
X58993Y-45551D01*
X59508Y-45294D02*
X59251Y-45551D01*
X61969Y-45851D02*
X61969Y-45853D01*
X63767Y-48700D02*
X64240Y-49173D01*
X62952Y-48700D02*
X63767Y-48700D01*
X62559Y-48307D02*
X62952Y-48700D01*
X62559Y-46442D02*
X62559Y-48307D01*
X61969Y-45853D02*
X62559Y-46442D01*
X62240Y-49173D02*
X62240Y-48696D01*
X62086Y-46525D02*
X61690Y-46129D01*
X62086Y-48543D02*
X62086Y-46525D01*
X62240Y-48696D02*
X62086Y-48543D01*
X61830Y-45990D02*
X61830Y-46003D01*
X63110Y-49173D02*
X63240Y-49173D01*
X62322Y-48385D02*
X63110Y-49173D01*
X62322Y-46496D02*
X62322Y-48385D01*
X61830Y-46003D02*
X62322Y-46496D01*
X61551Y-46269D02*
X61551Y-46276D01*
X61240Y-49153D02*
X61240Y-49173D01*
X61850Y-48543D02*
X61240Y-49153D01*
X61850Y-46574D02*
X61850Y-48543D01*
X61551Y-46276D02*
X61850Y-46574D01*
G54D45*
X70800Y-36300D02*
X70900Y-36300D01*
X71618Y-37018D02*
X71618Y-37519D01*
X70900Y-36300D02*
X71618Y-37018D01*
X58244Y-37401D02*
X58244Y-37144D01*
X57800Y-36700D02*
X57800Y-36300D01*
X58244Y-37144D02*
X57800Y-36700D01*
G54D43*
X58244Y-37401D02*
X58834Y-37992D01*
X58834Y-37992D02*
X59055Y-37992D01*
X59055Y-37992D02*
X59921Y-38858D01*
X59921Y-38858D02*
X59921Y-39153D01*
X67894Y-39173D02*
X67894Y-39034D01*
X68208Y-38720D02*
X68208Y-38385D01*
X67894Y-39034D02*
X68208Y-38720D01*
X69469Y-39173D02*
X69469Y-38465D01*
X69469Y-38465D02*
X69389Y-38385D01*
X68719Y-39173D02*
X68719Y-38465D01*
X68719Y-38465D02*
X68799Y-38385D01*
X56732Y-52641D02*
X57641Y-52641D01*
X57641Y-52641D02*
X57677Y-52677D01*
X54960Y-43622D02*
X54287Y-43622D01*
X54287Y-43622D02*
X52322Y-41657D01*
X52322Y-38657D02*
X52484Y-38657D01*
X52737Y-38404D02*
X52737Y-37834D01*
X52484Y-38657D02*
X52737Y-38404D01*
X53228Y-38657D02*
X54133Y-38657D01*
X54133Y-38657D02*
X52322Y-38657D01*
G54D41*
X45350Y-49291D02*
X45350Y-49649D01*
X45251Y-49748D02*
X45251Y-50511D01*
X45350Y-49649D02*
X45251Y-49748D01*
G54D45*
X68618Y-37519D02*
X69080Y-37519D01*
X69800Y-36800D02*
X69800Y-36300D01*
X69080Y-37519D02*
X69800Y-36800D01*
G54D43*
X67838Y-37519D02*
X68618Y-37519D01*
X50551Y-41039D02*
X50921Y-41039D01*
X52490Y-42608D02*
X52490Y-44055D01*
X50921Y-41039D02*
X52490Y-42608D01*
X69291Y-45314D02*
X65551Y-45314D01*
X63139Y-43346D02*
X62665Y-43820D01*
X63582Y-43346D02*
X63139Y-43346D01*
X65551Y-45314D02*
X63582Y-43346D01*
X69291Y-43582D02*
X64547Y-43582D01*
X64547Y-43582D02*
X63779Y-42814D01*
X63779Y-42814D02*
X63779Y-42716D01*
X62204Y-44291D02*
X62204Y-43996D01*
X62204Y-43996D02*
X62519Y-43681D01*
X62519Y-43681D02*
X62526Y-43681D01*
X69291Y-44448D02*
X65000Y-44448D01*
X62498Y-42874D02*
X62108Y-43264D01*
X63425Y-42874D02*
X62498Y-42874D01*
X65000Y-44448D02*
X63425Y-42874D01*
X69291Y-43149D02*
X68582Y-43149D01*
X60356Y-46100D02*
X60356Y-46129D01*
X60866Y-45629D02*
X60356Y-46100D01*
X68582Y-43149D02*
X68543Y-43110D01*
X66486Y-41527D02*
X65795Y-41527D01*
X62391Y-43554D02*
X62386Y-43542D01*
X62048Y-43897D02*
X62391Y-43554D01*
X61929Y-43897D02*
X62048Y-43897D01*
X61850Y-43976D02*
X61929Y-43897D01*
X65795Y-41527D02*
X65787Y-41535D01*
X66486Y-41027D02*
X65763Y-41027D01*
X60366Y-42846D02*
X60356Y-42846D01*
X60826Y-43307D02*
X60366Y-42846D01*
X65763Y-41027D02*
X65748Y-41043D01*
X59938Y-43264D02*
X59938Y-43255D01*
X60314Y-40354D02*
X60830Y-40354D01*
X59960Y-40708D02*
X60314Y-40354D01*
X59960Y-42380D02*
X59960Y-40708D01*
X59685Y-42656D02*
X59960Y-42380D01*
X59685Y-43001D02*
X59685Y-42656D01*
X59938Y-43255D02*
X59685Y-43001D01*
X62059Y-39381D02*
X61803Y-39381D01*
X61803Y-39381D02*
X60830Y-40354D01*
X59381Y-43820D02*
X59358Y-43820D01*
X55236Y-37047D02*
X54606Y-36417D01*
X56653Y-37047D02*
X55236Y-37047D01*
X58858Y-39251D02*
X56653Y-37047D01*
X58858Y-43321D02*
X58858Y-39251D01*
X59358Y-43820D02*
X58858Y-43321D01*
X53606Y-36417D02*
X53606Y-36440D01*
X58622Y-43339D02*
X59242Y-43960D01*
X58622Y-39330D02*
X58622Y-43339D01*
X56574Y-37283D02*
X58622Y-39330D01*
X55157Y-37283D02*
X56574Y-37283D01*
X54921Y-37047D02*
X55157Y-37283D01*
X54212Y-37047D02*
X54921Y-37047D01*
X53606Y-36440D02*
X54212Y-37047D01*
G54D45*
X46035Y-47834D02*
X46035Y-46964D01*
X46417Y-46582D02*
X46417Y-46062D01*
X46035Y-46964D02*
X46417Y-46582D01*
G54D43*
X66486Y-43027D02*
X65763Y-43027D01*
X59381Y-45145D02*
X59381Y-45155D01*
X59842Y-44685D02*
X59381Y-45145D01*
X65763Y-43027D02*
X65748Y-43011D01*
G54D10*
G36*
X69635Y-46877D02*
X69271Y-46877D01*
X69271Y-46758D01*
X69271Y-46358D01*
X68957Y-46358D01*
X68922Y-46393D01*
X68922Y-46681D01*
X68944Y-46732D01*
X68983Y-46772D01*
X69035Y-46793D01*
X69090Y-46793D01*
X69236Y-46793D01*
X69271Y-46758D01*
X69271Y-46877D01*
X68180Y-46877D01*
X66950Y-45647D01*
X66895Y-45610D01*
X66830Y-45597D01*
X65720Y-45597D01*
X65607Y-45484D01*
X68942Y-45484D01*
X68942Y-45496D01*
X68957Y-45531D01*
X68943Y-45566D01*
X68942Y-45614D01*
X68942Y-45929D01*
X68947Y-45940D01*
X68944Y-45944D01*
X68922Y-45995D01*
X68922Y-46283D01*
X68957Y-46318D01*
X69271Y-46318D01*
X69271Y-46310D01*
X69311Y-46310D01*
X69311Y-46318D01*
X69319Y-46318D01*
X69319Y-46358D01*
X69311Y-46358D01*
X69311Y-46758D01*
X69346Y-46793D01*
X69491Y-46793D01*
X69547Y-46793D01*
X69592Y-46774D01*
X69592Y-46803D01*
X69613Y-46854D01*
X69635Y-46877D01*
X69635Y-46877D01*
G37*
G54D45*
X69635Y-46877D02*
X69271Y-46877D01*
X69271Y-46758D01*
X69271Y-46358D01*
X68957Y-46358D01*
X68922Y-46393D01*
X68922Y-46681D01*
X68944Y-46732D01*
X68983Y-46772D01*
X69035Y-46793D01*
X69090Y-46793D01*
X69236Y-46793D01*
X69271Y-46758D01*
X69271Y-46877D01*
X68180Y-46877D01*
X66950Y-45647D01*
X66895Y-45610D01*
X66830Y-45597D01*
X65720Y-45597D01*
X65607Y-45484D01*
X68942Y-45484D01*
X68942Y-45496D01*
X68957Y-45531D01*
X68943Y-45566D01*
X68942Y-45614D01*
X68942Y-45929D01*
X68947Y-45940D01*
X68944Y-45944D01*
X68922Y-45995D01*
X68922Y-46283D01*
X68957Y-46318D01*
X69271Y-46318D01*
X69271Y-46310D01*
X69311Y-46310D01*
X69311Y-46318D01*
X69319Y-46318D01*
X69319Y-46358D01*
X69311Y-46358D01*
X69311Y-46758D01*
X69346Y-46793D01*
X69491Y-46793D01*
X69547Y-46793D01*
X69592Y-46774D01*
X69592Y-46803D01*
X69613Y-46854D01*
X69635Y-46877D01*
G54D10*
G36*
X75254Y-54387D02*
X75010Y-54387D01*
X75010Y-46956D01*
X75010Y-46507D01*
X75010Y-41208D01*
X75010Y-40759D01*
X74988Y-40708D01*
X74949Y-40668D01*
X74923Y-40657D01*
X74923Y-38330D01*
X74881Y-38228D01*
X74803Y-38150D01*
X74720Y-38116D01*
X74720Y-36417D01*
X74580Y-36079D01*
X74321Y-35820D01*
X73983Y-35680D01*
X73617Y-35679D01*
X73279Y-35819D01*
X73020Y-36078D01*
X72880Y-36416D01*
X72879Y-36782D01*
X73019Y-37120D01*
X73278Y-37379D01*
X73616Y-37519D01*
X73982Y-37520D01*
X74320Y-37380D01*
X74579Y-37121D01*
X74719Y-36783D01*
X74720Y-36417D01*
X74720Y-38116D01*
X74701Y-38108D01*
X74590Y-38108D01*
X74488Y-38150D01*
X74410Y-38228D01*
X74368Y-38330D01*
X74368Y-38440D01*
X74410Y-38542D01*
X74488Y-38620D01*
X74590Y-38663D01*
X74700Y-38663D01*
X74802Y-38621D01*
X74880Y-38543D01*
X74923Y-38441D01*
X74923Y-38330D01*
X74923Y-40657D01*
X74898Y-40647D01*
X74842Y-40647D01*
X74432Y-40647D01*
X74397Y-40682D01*
X74397Y-40964D01*
X74975Y-40964D01*
X75010Y-40929D01*
X75010Y-40759D01*
X75010Y-41208D01*
X75010Y-41039D01*
X74975Y-41004D01*
X74397Y-41004D01*
X74397Y-41286D01*
X74432Y-41321D01*
X74842Y-41321D01*
X74898Y-41321D01*
X74949Y-41299D01*
X74988Y-41260D01*
X75010Y-41208D01*
X75010Y-46507D01*
X74988Y-46456D01*
X74949Y-46416D01*
X74898Y-46395D01*
X74842Y-46395D01*
X74492Y-46395D01*
X74457Y-46430D01*
X74457Y-46712D01*
X74975Y-46712D01*
X75010Y-46677D01*
X75010Y-46507D01*
X75010Y-46956D01*
X75010Y-46787D01*
X74975Y-46752D01*
X74457Y-46752D01*
X74457Y-47034D01*
X74492Y-47069D01*
X74842Y-47069D01*
X74898Y-47069D01*
X74949Y-47047D01*
X74988Y-47008D01*
X75010Y-46956D01*
X75010Y-54387D01*
X75000Y-54387D01*
X74923Y-54387D01*
X74923Y-47425D01*
X74881Y-47323D01*
X74803Y-47245D01*
X74701Y-47202D01*
X74590Y-47202D01*
X74488Y-47244D01*
X74417Y-47316D01*
X74417Y-47034D01*
X74417Y-46752D01*
X74409Y-46752D01*
X74409Y-46712D01*
X74417Y-46712D01*
X74417Y-46430D01*
X74382Y-46395D01*
X74357Y-46395D01*
X74357Y-41286D01*
X74357Y-41004D01*
X74357Y-40964D01*
X74357Y-40682D01*
X74322Y-40647D01*
X74027Y-40647D01*
X74027Y-39321D01*
X74027Y-39173D01*
X74027Y-39133D01*
X74027Y-38985D01*
X73983Y-38802D01*
X73871Y-38649D01*
X73710Y-38550D01*
X73638Y-38530D01*
X73563Y-38556D01*
X73563Y-39133D01*
X74027Y-39133D01*
X74027Y-39173D01*
X73563Y-39173D01*
X73563Y-39750D01*
X73638Y-39776D01*
X73710Y-39756D01*
X73871Y-39657D01*
X73983Y-39505D01*
X74027Y-39321D01*
X74027Y-40647D01*
X73913Y-40647D01*
X73857Y-40647D01*
X73806Y-40668D01*
X73767Y-40708D01*
X73745Y-40759D01*
X73745Y-40929D01*
X73780Y-40964D01*
X74357Y-40964D01*
X74357Y-41004D01*
X73780Y-41004D01*
X73745Y-41039D01*
X73745Y-41208D01*
X73767Y-41260D01*
X73806Y-41299D01*
X73857Y-41321D01*
X73913Y-41321D01*
X74322Y-41321D01*
X74357Y-41286D01*
X74357Y-46395D01*
X74031Y-46395D01*
X73975Y-46395D01*
X73936Y-46411D01*
X73936Y-46338D01*
X73918Y-46294D01*
X73884Y-46260D01*
X73840Y-46242D01*
X73793Y-46242D01*
X73523Y-46242D01*
X73523Y-39750D01*
X73523Y-39173D01*
X73523Y-39133D01*
X73523Y-38556D01*
X73447Y-38530D01*
X73376Y-38550D01*
X73214Y-38649D01*
X73103Y-38802D01*
X73058Y-38985D01*
X73058Y-39133D01*
X73523Y-39133D01*
X73523Y-39173D01*
X73058Y-39173D01*
X73058Y-39321D01*
X73103Y-39505D01*
X73214Y-39657D01*
X73376Y-39756D01*
X73447Y-39776D01*
X73523Y-39750D01*
X73523Y-46242D01*
X73301Y-46242D01*
X73256Y-46260D01*
X73223Y-46294D01*
X73204Y-46338D01*
X73204Y-46385D01*
X73204Y-46398D01*
X72285Y-46398D01*
X72285Y-36395D01*
X72284Y-36202D01*
X72211Y-36025D01*
X72138Y-35989D01*
X72110Y-36017D01*
X72110Y-35961D01*
X72074Y-35888D01*
X71895Y-35814D01*
X71702Y-35815D01*
X71525Y-35888D01*
X71489Y-35961D01*
X71800Y-36271D01*
X72110Y-35961D01*
X72110Y-36017D01*
X71828Y-36300D01*
X72138Y-36610D01*
X72211Y-36574D01*
X72285Y-36395D01*
X72285Y-46398D01*
X72110Y-46398D01*
X72110Y-36638D01*
X71800Y-36328D01*
X71794Y-36333D01*
X71766Y-36305D01*
X71771Y-36300D01*
X71461Y-35989D01*
X71388Y-36025D01*
X71314Y-36204D01*
X71315Y-36397D01*
X71380Y-36553D01*
X71251Y-36425D01*
X71264Y-36392D01*
X71265Y-36207D01*
X71194Y-36036D01*
X71063Y-35906D01*
X70892Y-35835D01*
X70707Y-35834D01*
X70536Y-35905D01*
X70406Y-36036D01*
X70335Y-36207D01*
X70334Y-36392D01*
X70405Y-36563D01*
X70536Y-36693D01*
X70707Y-36764D01*
X70892Y-36765D01*
X71063Y-36694D01*
X71065Y-36691D01*
X71458Y-37084D01*
X71458Y-37158D01*
X71394Y-37184D01*
X71283Y-37295D01*
X71223Y-37440D01*
X71223Y-37597D01*
X71283Y-37743D01*
X71394Y-37854D01*
X71539Y-37914D01*
X71696Y-37914D01*
X71841Y-37854D01*
X71952Y-37743D01*
X72013Y-37598D01*
X72013Y-37441D01*
X71953Y-37296D01*
X71842Y-37185D01*
X71778Y-37158D01*
X71778Y-37018D01*
X71765Y-36956D01*
X71731Y-36904D01*
X71731Y-36904D01*
X71546Y-36719D01*
X71704Y-36785D01*
X71897Y-36784D01*
X72074Y-36711D01*
X72110Y-36638D01*
X72110Y-46398D01*
X72033Y-46398D01*
X71968Y-46411D01*
X71913Y-46448D01*
X71913Y-46448D01*
X71484Y-46877D01*
X70320Y-46877D01*
X70343Y-46854D01*
X70364Y-46803D01*
X70364Y-46334D01*
X70343Y-46283D01*
X70303Y-46243D01*
X70252Y-46222D01*
X70196Y-46222D01*
X70033Y-46222D01*
X69998Y-46257D01*
X69998Y-46548D01*
X70329Y-46548D01*
X70364Y-46513D01*
X70364Y-46334D01*
X70364Y-46803D01*
X70364Y-46623D01*
X70329Y-46588D01*
X69998Y-46588D01*
X69998Y-46596D01*
X69958Y-46596D01*
X69958Y-46588D01*
X69950Y-46588D01*
X69950Y-46548D01*
X69958Y-46548D01*
X69958Y-46257D01*
X69923Y-46222D01*
X69760Y-46222D01*
X69704Y-46222D01*
X69659Y-46240D01*
X69659Y-45995D01*
X69638Y-45944D01*
X69634Y-45940D01*
X69639Y-45929D01*
X69639Y-45881D01*
X69639Y-45566D01*
X69625Y-45531D01*
X69639Y-45496D01*
X69639Y-45448D01*
X69639Y-45133D01*
X69634Y-45122D01*
X69638Y-45118D01*
X69659Y-45067D01*
X69659Y-44936D01*
X69624Y-44901D01*
X69311Y-44901D01*
X69311Y-44909D01*
X69271Y-44909D01*
X69271Y-44901D01*
X68957Y-44901D01*
X68922Y-44936D01*
X68922Y-45067D01*
X68944Y-45118D01*
X68947Y-45122D01*
X68943Y-45133D01*
X68943Y-45144D01*
X65621Y-45144D01*
X65095Y-44618D01*
X68942Y-44618D01*
X68942Y-44630D01*
X68947Y-44641D01*
X68944Y-44645D01*
X68922Y-44696D01*
X68922Y-44826D01*
X68957Y-44861D01*
X69271Y-44861D01*
X69271Y-44854D01*
X69311Y-44854D01*
X69311Y-44861D01*
X69624Y-44861D01*
X69659Y-44826D01*
X69659Y-44696D01*
X69638Y-44645D01*
X69634Y-44641D01*
X69639Y-44630D01*
X69639Y-44582D01*
X69639Y-44267D01*
X69625Y-44232D01*
X69639Y-44197D01*
X69639Y-44185D01*
X69774Y-44185D01*
X69789Y-44222D01*
X69872Y-44305D01*
X69980Y-44350D01*
X70097Y-44350D01*
X70206Y-44305D01*
X70289Y-44222D01*
X70334Y-44114D01*
X70334Y-43996D01*
X70289Y-43888D01*
X70206Y-43805D01*
X70098Y-43760D01*
X69980Y-43760D01*
X69872Y-43804D01*
X69845Y-43831D01*
X69845Y-39444D01*
X69845Y-38854D01*
X69827Y-38810D01*
X69793Y-38776D01*
X69749Y-38758D01*
X69701Y-38758D01*
X69639Y-38758D01*
X69639Y-38647D01*
X69646Y-38637D01*
X69667Y-38531D01*
X69667Y-38239D01*
X69646Y-38133D01*
X69585Y-38043D01*
X69495Y-37983D01*
X69389Y-37962D01*
X69283Y-37983D01*
X69193Y-38043D01*
X69133Y-38133D01*
X69112Y-38239D01*
X69112Y-38531D01*
X69133Y-38637D01*
X69193Y-38727D01*
X69238Y-38758D01*
X69189Y-38758D01*
X69145Y-38776D01*
X69111Y-38810D01*
X69094Y-38851D01*
X69077Y-38810D01*
X69043Y-38776D01*
X68999Y-38758D01*
X68951Y-38758D01*
X68950Y-38758D01*
X68995Y-38727D01*
X69055Y-38637D01*
X69076Y-38531D01*
X69076Y-38239D01*
X69055Y-38133D01*
X68995Y-38043D01*
X68905Y-37983D01*
X68799Y-37962D01*
X68693Y-37983D01*
X68603Y-38043D01*
X68542Y-38133D01*
X68521Y-38239D01*
X68521Y-38531D01*
X68542Y-38637D01*
X68549Y-38647D01*
X68549Y-38758D01*
X68486Y-38758D01*
X68486Y-38531D01*
X68486Y-38239D01*
X68465Y-38133D01*
X68404Y-38043D01*
X68314Y-37983D01*
X68208Y-37962D01*
X68102Y-37983D01*
X68012Y-38043D01*
X67952Y-38133D01*
X67931Y-38239D01*
X67931Y-38531D01*
X67952Y-38637D01*
X67991Y-38696D01*
X67930Y-38758D01*
X67769Y-38758D01*
X67814Y-38727D01*
X67874Y-38637D01*
X67895Y-38531D01*
X67895Y-38239D01*
X67874Y-38133D01*
X67814Y-38043D01*
X67724Y-37983D01*
X67618Y-37962D01*
X67511Y-37983D01*
X67421Y-38043D01*
X67361Y-38133D01*
X67340Y-38239D01*
X67340Y-38531D01*
X67361Y-38637D01*
X67421Y-38727D01*
X67451Y-38747D01*
X67428Y-38738D01*
X67231Y-38738D01*
X67294Y-38655D01*
X67325Y-38543D01*
X67325Y-38405D01*
X67325Y-38365D01*
X67325Y-38228D01*
X67294Y-38115D01*
X67223Y-38023D01*
X67122Y-37965D01*
X67093Y-37958D01*
X67047Y-37986D01*
X67047Y-38365D01*
X67325Y-38365D01*
X67325Y-38405D01*
X67047Y-38405D01*
X67047Y-38413D01*
X67007Y-38413D01*
X67007Y-38405D01*
X67007Y-38365D01*
X67007Y-37986D01*
X66961Y-37958D01*
X66932Y-37965D01*
X66831Y-38023D01*
X66760Y-38115D01*
X66730Y-38228D01*
X66730Y-38365D01*
X67007Y-38365D01*
X67007Y-38405D01*
X66730Y-38405D01*
X66730Y-38543D01*
X66760Y-38655D01*
X66831Y-38748D01*
X66833Y-38749D01*
X66809Y-38759D01*
X66770Y-38798D01*
X66748Y-38850D01*
X66748Y-38905D01*
X66748Y-39118D01*
X66783Y-39153D01*
X67124Y-39153D01*
X67124Y-39145D01*
X67164Y-39145D01*
X67164Y-39153D01*
X67172Y-39153D01*
X67172Y-39193D01*
X67164Y-39193D01*
X67164Y-39573D01*
X67199Y-39608D01*
X67428Y-39608D01*
X67479Y-39586D01*
X67519Y-39547D01*
X67530Y-39520D01*
X67536Y-39536D01*
X67570Y-39569D01*
X67614Y-39588D01*
X67662Y-39588D01*
X68174Y-39588D01*
X68218Y-39570D01*
X68252Y-39536D01*
X68270Y-39492D01*
X68270Y-39444D01*
X68270Y-38898D01*
X68328Y-38840D01*
X68328Y-38840D01*
X68328Y-38840D01*
X68365Y-38785D01*
X68372Y-38749D01*
X68404Y-38727D01*
X68465Y-38637D01*
X68486Y-38531D01*
X68486Y-38758D01*
X68439Y-38758D01*
X68395Y-38776D01*
X68361Y-38810D01*
X68343Y-38854D01*
X68343Y-38901D01*
X68343Y-39491D01*
X68361Y-39536D01*
X68395Y-39569D01*
X68439Y-39588D01*
X68487Y-39588D01*
X68999Y-39588D01*
X69043Y-39570D01*
X69077Y-39536D01*
X69094Y-39494D01*
X69111Y-39536D01*
X69145Y-39569D01*
X69189Y-39588D01*
X69237Y-39588D01*
X69749Y-39588D01*
X69793Y-39570D01*
X69827Y-39536D01*
X69845Y-39492D01*
X69845Y-39444D01*
X69845Y-43831D01*
X69831Y-43845D01*
X69659Y-43845D01*
X69659Y-41913D01*
X69659Y-41070D01*
X69638Y-41019D01*
X69599Y-40979D01*
X69547Y-40958D01*
X69491Y-40958D01*
X69346Y-40958D01*
X69311Y-40993D01*
X69311Y-41472D01*
X69624Y-41472D01*
X69659Y-41437D01*
X69659Y-41070D01*
X69659Y-41913D01*
X69659Y-41547D01*
X69624Y-41512D01*
X69311Y-41512D01*
X69311Y-41990D01*
X69346Y-42025D01*
X69491Y-42025D01*
X69547Y-42025D01*
X69599Y-42004D01*
X69638Y-41965D01*
X69659Y-41913D01*
X69659Y-43845D01*
X69639Y-43845D01*
X69639Y-43834D01*
X69625Y-43799D01*
X69639Y-43764D01*
X69639Y-43716D01*
X69639Y-43401D01*
X69625Y-43366D01*
X69639Y-43331D01*
X69639Y-43283D01*
X69639Y-42968D01*
X69625Y-42933D01*
X69639Y-42897D01*
X69639Y-42850D01*
X69639Y-42535D01*
X69621Y-42491D01*
X69587Y-42457D01*
X69543Y-42439D01*
X69495Y-42439D01*
X69271Y-42439D01*
X69271Y-41990D01*
X69271Y-41512D01*
X69271Y-41472D01*
X69271Y-40993D01*
X69236Y-40958D01*
X69090Y-40958D01*
X69035Y-40958D01*
X68983Y-40979D01*
X68944Y-41019D01*
X68922Y-41070D01*
X68922Y-41437D01*
X68957Y-41472D01*
X69271Y-41472D01*
X69271Y-41512D01*
X68957Y-41512D01*
X68922Y-41547D01*
X68922Y-41913D01*
X68944Y-41965D01*
X68983Y-42004D01*
X69035Y-42025D01*
X69090Y-42025D01*
X69236Y-42025D01*
X69271Y-41990D01*
X69271Y-42439D01*
X69039Y-42439D01*
X68995Y-42457D01*
X68961Y-42490D01*
X68943Y-42535D01*
X68942Y-42582D01*
X68942Y-42897D01*
X68957Y-42933D01*
X68943Y-42968D01*
X68943Y-42979D01*
X68808Y-42979D01*
X68793Y-42943D01*
X68710Y-42860D01*
X68602Y-42815D01*
X68484Y-42815D01*
X68376Y-42860D01*
X68293Y-42942D01*
X68248Y-43051D01*
X68248Y-43168D01*
X68293Y-43277D01*
X68375Y-43360D01*
X68484Y-43405D01*
X68601Y-43405D01*
X68710Y-43360D01*
X68751Y-43319D01*
X68942Y-43319D01*
X68942Y-43330D01*
X68957Y-43366D01*
X68943Y-43401D01*
X68943Y-43412D01*
X67124Y-43412D01*
X67124Y-39573D01*
X67124Y-39193D01*
X66783Y-39193D01*
X66748Y-39228D01*
X66748Y-39440D01*
X66748Y-39496D01*
X66770Y-39547D01*
X66809Y-39586D01*
X66860Y-39608D01*
X67089Y-39608D01*
X67124Y-39573D01*
X67124Y-43412D01*
X66970Y-43412D01*
X66970Y-43149D01*
X66970Y-42858D01*
X66952Y-42814D01*
X66918Y-42780D01*
X66912Y-42777D01*
X66918Y-42775D01*
X66952Y-42741D01*
X66970Y-42697D01*
X66970Y-42649D01*
X66970Y-42358D01*
X66952Y-42314D01*
X66918Y-42280D01*
X66912Y-42277D01*
X66918Y-42275D01*
X66952Y-42241D01*
X66970Y-42197D01*
X66970Y-42149D01*
X66970Y-41858D01*
X66952Y-41814D01*
X66918Y-41780D01*
X66912Y-41777D01*
X66918Y-41775D01*
X66952Y-41741D01*
X66970Y-41697D01*
X66970Y-41649D01*
X66970Y-41358D01*
X66952Y-41314D01*
X66918Y-41280D01*
X66912Y-41277D01*
X66918Y-41275D01*
X66952Y-41241D01*
X66970Y-41197D01*
X66970Y-41149D01*
X66970Y-40858D01*
X66952Y-40814D01*
X66918Y-40780D01*
X66874Y-40761D01*
X66826Y-40761D01*
X66098Y-40761D01*
X66054Y-40780D01*
X66020Y-40813D01*
X66002Y-40857D01*
X65979Y-40857D01*
X65915Y-40793D01*
X65806Y-40748D01*
X65689Y-40748D01*
X65581Y-40793D01*
X65570Y-40803D01*
X65570Y-40414D01*
X65525Y-40305D01*
X65442Y-40222D01*
X65334Y-40177D01*
X65217Y-40177D01*
X65108Y-40222D01*
X65025Y-40305D01*
X64980Y-40413D01*
X64980Y-40470D01*
X64689Y-40761D01*
X64425Y-40761D01*
X64380Y-40780D01*
X64347Y-40813D01*
X64328Y-40857D01*
X64328Y-40905D01*
X64328Y-41196D01*
X64347Y-41241D01*
X64369Y-41263D01*
X64330Y-41302D01*
X64308Y-41354D01*
X64308Y-41472D01*
X64343Y-41507D01*
X64792Y-41507D01*
X64792Y-41499D01*
X64832Y-41499D01*
X64832Y-41507D01*
X65282Y-41507D01*
X65317Y-41472D01*
X65317Y-41354D01*
X65295Y-41302D01*
X65256Y-41263D01*
X65278Y-41241D01*
X65297Y-41197D01*
X65297Y-41149D01*
X65297Y-40858D01*
X65278Y-40814D01*
X65255Y-40790D01*
X65277Y-40767D01*
X65334Y-40767D01*
X65442Y-40722D01*
X65525Y-40639D01*
X65570Y-40531D01*
X65570Y-40414D01*
X65570Y-40803D01*
X65498Y-40875D01*
X65453Y-40984D01*
X65452Y-41101D01*
X65497Y-41210D01*
X65580Y-41293D01*
X65603Y-41302D01*
X65537Y-41368D01*
X65492Y-41476D01*
X65492Y-41593D01*
X65537Y-41702D01*
X65620Y-41785D01*
X65728Y-41830D01*
X65845Y-41830D01*
X65954Y-41785D01*
X66014Y-41726D01*
X66020Y-41741D01*
X66053Y-41774D01*
X66060Y-41777D01*
X66054Y-41780D01*
X66020Y-41813D01*
X66002Y-41857D01*
X66002Y-41905D01*
X66002Y-42196D01*
X66020Y-42241D01*
X66053Y-42274D01*
X66060Y-42277D01*
X66054Y-42280D01*
X66020Y-42313D01*
X66002Y-42357D01*
X66002Y-42405D01*
X66002Y-42696D01*
X66020Y-42741D01*
X66053Y-42774D01*
X66060Y-42777D01*
X66054Y-42780D01*
X66020Y-42813D01*
X66002Y-42856D01*
X65998Y-42844D01*
X65915Y-42761D01*
X65806Y-42716D01*
X65689Y-42716D01*
X65581Y-42761D01*
X65498Y-42844D01*
X65453Y-42952D01*
X65452Y-43070D01*
X65497Y-43178D01*
X65580Y-43261D01*
X65689Y-43306D01*
X65806Y-43306D01*
X65914Y-43262D01*
X65979Y-43197D01*
X66002Y-43197D01*
X66020Y-43241D01*
X66053Y-43274D01*
X66098Y-43293D01*
X66145Y-43293D01*
X66874Y-43293D01*
X66918Y-43275D01*
X66952Y-43241D01*
X66970Y-43197D01*
X66970Y-43149D01*
X66970Y-43412D01*
X65317Y-43412D01*
X65317Y-43200D01*
X65317Y-42854D01*
X65295Y-42802D01*
X65256Y-42763D01*
X65278Y-42741D01*
X65297Y-42697D01*
X65297Y-42649D01*
X65297Y-42358D01*
X65278Y-42314D01*
X65256Y-42291D01*
X65295Y-42252D01*
X65317Y-42200D01*
X65317Y-41854D01*
X65295Y-41802D01*
X65270Y-41777D01*
X65295Y-41752D01*
X65317Y-41700D01*
X65317Y-41582D01*
X65282Y-41547D01*
X64832Y-41547D01*
X64832Y-41776D01*
X64832Y-41778D01*
X64832Y-42007D01*
X65282Y-42007D01*
X65317Y-41972D01*
X65317Y-41854D01*
X65317Y-42200D01*
X65317Y-42082D01*
X65282Y-42047D01*
X64832Y-42047D01*
X64832Y-42055D01*
X64792Y-42055D01*
X64792Y-42047D01*
X64792Y-42007D01*
X64792Y-41778D01*
X64792Y-41776D01*
X64792Y-41547D01*
X64343Y-41547D01*
X64308Y-41582D01*
X64308Y-41700D01*
X64330Y-41752D01*
X64355Y-41777D01*
X64330Y-41802D01*
X64308Y-41854D01*
X64308Y-41972D01*
X64343Y-42007D01*
X64792Y-42007D01*
X64792Y-42047D01*
X64343Y-42047D01*
X64308Y-42082D01*
X64308Y-42200D01*
X64330Y-42252D01*
X64369Y-42291D01*
X64347Y-42313D01*
X64328Y-42357D01*
X64328Y-42405D01*
X64328Y-42696D01*
X64347Y-42741D01*
X64369Y-42763D01*
X64330Y-42802D01*
X64308Y-42854D01*
X64308Y-42972D01*
X64343Y-43007D01*
X64792Y-43007D01*
X64792Y-42999D01*
X64832Y-42999D01*
X64832Y-43007D01*
X65282Y-43007D01*
X65317Y-42972D01*
X65317Y-42854D01*
X65317Y-43200D01*
X65317Y-43082D01*
X65282Y-43047D01*
X64832Y-43047D01*
X64832Y-43278D01*
X64867Y-43313D01*
X65149Y-43313D01*
X65205Y-43313D01*
X65256Y-43291D01*
X65295Y-43252D01*
X65317Y-43200D01*
X65317Y-43412D01*
X64617Y-43412D01*
X64518Y-43313D01*
X64757Y-43313D01*
X64792Y-43278D01*
X64792Y-43047D01*
X64343Y-43047D01*
X64308Y-43082D01*
X64308Y-43103D01*
X64046Y-42841D01*
X64074Y-42775D01*
X64074Y-42658D01*
X64029Y-42549D01*
X63946Y-42466D01*
X63838Y-42421D01*
X63721Y-42421D01*
X63612Y-42466D01*
X63529Y-42549D01*
X63484Y-42657D01*
X63484Y-42715D01*
X63425Y-42704D01*
X62498Y-42704D01*
X62498Y-42704D01*
X62433Y-42716D01*
X62378Y-42753D01*
X62378Y-42753D01*
X62268Y-42863D01*
X62265Y-42859D01*
X62234Y-42828D01*
X66297Y-38765D01*
X66330Y-38788D01*
X66437Y-38809D01*
X66543Y-38788D01*
X66633Y-38727D01*
X66693Y-38637D01*
X66714Y-38531D01*
X66714Y-38239D01*
X66693Y-38133D01*
X66633Y-38043D01*
X66602Y-38023D01*
X67466Y-37160D01*
X67674Y-37160D01*
X67615Y-37184D01*
X67503Y-37295D01*
X67443Y-37440D01*
X67443Y-37597D01*
X67503Y-37743D01*
X67614Y-37854D01*
X67759Y-37914D01*
X67916Y-37914D01*
X68062Y-37854D01*
X68173Y-37743D01*
X68195Y-37689D01*
X68260Y-37689D01*
X68283Y-37743D01*
X68394Y-37854D01*
X68539Y-37914D01*
X68696Y-37914D01*
X68841Y-37854D01*
X68952Y-37743D01*
X68979Y-37679D01*
X69080Y-37679D01*
X69141Y-37667D01*
X69141Y-37667D01*
X69193Y-37632D01*
X69913Y-36913D01*
X69947Y-36861D01*
X69959Y-36800D01*
X69960Y-36800D01*
X69960Y-36737D01*
X70063Y-36694D01*
X70193Y-36563D01*
X70264Y-36392D01*
X70265Y-36207D01*
X70194Y-36036D01*
X70063Y-35906D01*
X69892Y-35835D01*
X69707Y-35834D01*
X69536Y-35905D01*
X69406Y-36036D01*
X69335Y-36207D01*
X69334Y-36392D01*
X69405Y-36563D01*
X69536Y-36693D01*
X69637Y-36736D01*
X69014Y-37359D01*
X68979Y-37359D01*
X68953Y-37296D01*
X68842Y-37185D01*
X68697Y-37124D01*
X68539Y-37124D01*
X68394Y-37184D01*
X68283Y-37295D01*
X68261Y-37349D01*
X68195Y-37349D01*
X68173Y-37296D01*
X68062Y-37185D01*
X68002Y-37160D01*
X68100Y-37160D01*
X68161Y-37147D01*
X68161Y-37147D01*
X68213Y-37113D01*
X68604Y-36722D01*
X68707Y-36764D01*
X68892Y-36765D01*
X69063Y-36694D01*
X69193Y-36563D01*
X69264Y-36392D01*
X69265Y-36207D01*
X69194Y-36036D01*
X69063Y-35906D01*
X68892Y-35835D01*
X68707Y-35834D01*
X68536Y-35905D01*
X68406Y-36036D01*
X68335Y-36207D01*
X68334Y-36392D01*
X68377Y-36495D01*
X68033Y-36840D01*
X67486Y-36840D01*
X67604Y-36722D01*
X67707Y-36764D01*
X67892Y-36765D01*
X68063Y-36694D01*
X68193Y-36563D01*
X68264Y-36392D01*
X68265Y-36207D01*
X68194Y-36036D01*
X68063Y-35906D01*
X67892Y-35835D01*
X67707Y-35834D01*
X67536Y-35905D01*
X67406Y-36036D01*
X67335Y-36207D01*
X67334Y-36392D01*
X67377Y-36495D01*
X67233Y-36640D01*
X67200Y-36640D01*
X67138Y-36652D01*
X67086Y-36686D01*
X65802Y-37971D01*
X65740Y-37983D01*
X65650Y-38043D01*
X65590Y-38133D01*
X65568Y-38239D01*
X65568Y-38531D01*
X65590Y-38637D01*
X65613Y-38673D01*
X65425Y-38861D01*
X65425Y-38745D01*
X65452Y-38727D01*
X65512Y-38637D01*
X65533Y-38531D01*
X65533Y-38239D01*
X65512Y-38133D01*
X65452Y-38043D01*
X65415Y-38019D01*
X65415Y-38010D01*
X66674Y-36751D01*
X66707Y-36764D01*
X66892Y-36765D01*
X67063Y-36694D01*
X67193Y-36563D01*
X67264Y-36392D01*
X67265Y-36207D01*
X67194Y-36036D01*
X67063Y-35906D01*
X66892Y-35835D01*
X66707Y-35834D01*
X66536Y-35905D01*
X66406Y-36036D01*
X66335Y-36207D01*
X66334Y-36392D01*
X66405Y-36563D01*
X66408Y-36565D01*
X66265Y-36708D01*
X66265Y-36207D01*
X66194Y-36036D01*
X66063Y-35906D01*
X65892Y-35835D01*
X65707Y-35834D01*
X65536Y-35905D01*
X65406Y-36036D01*
X65335Y-36207D01*
X65334Y-36392D01*
X65405Y-36563D01*
X65536Y-36693D01*
X65707Y-36764D01*
X65892Y-36765D01*
X66063Y-36694D01*
X66193Y-36563D01*
X66264Y-36392D01*
X66265Y-36207D01*
X66265Y-36708D01*
X65265Y-37708D01*
X65265Y-36207D01*
X65194Y-36036D01*
X65063Y-35906D01*
X64892Y-35835D01*
X64707Y-35834D01*
X64536Y-35905D01*
X64406Y-36036D01*
X64335Y-36207D01*
X64334Y-36392D01*
X64405Y-36563D01*
X64536Y-36693D01*
X64707Y-36764D01*
X64892Y-36765D01*
X65063Y-36694D01*
X65193Y-36563D01*
X65264Y-36392D01*
X65265Y-36207D01*
X65265Y-37708D01*
X65254Y-37719D01*
X65254Y-37598D01*
X65252Y-37433D01*
X65192Y-37287D01*
X65126Y-37259D01*
X65098Y-37288D01*
X65098Y-37231D01*
X65070Y-37165D01*
X64917Y-37104D01*
X64752Y-37105D01*
X64606Y-37165D01*
X64578Y-37231D01*
X64838Y-37491D01*
X65098Y-37231D01*
X65098Y-37288D01*
X64866Y-37519D01*
X65126Y-37779D01*
X65192Y-37751D01*
X65254Y-37598D01*
X65254Y-37719D01*
X65142Y-37830D01*
X65108Y-37882D01*
X65098Y-37930D01*
X65098Y-37807D01*
X64838Y-37547D01*
X64810Y-37576D01*
X64810Y-37519D01*
X64550Y-37259D01*
X64484Y-37287D01*
X64422Y-37440D01*
X64424Y-37605D01*
X64484Y-37751D01*
X64550Y-37779D01*
X64810Y-37519D01*
X64810Y-37576D01*
X64578Y-37807D01*
X64606Y-37873D01*
X64759Y-37935D01*
X64924Y-37934D01*
X65070Y-37873D01*
X65098Y-37807D01*
X65098Y-37930D01*
X65095Y-37944D01*
X65095Y-38019D01*
X65059Y-38043D01*
X64999Y-38133D01*
X64978Y-38239D01*
X64978Y-38531D01*
X64999Y-38637D01*
X65059Y-38727D01*
X65085Y-38745D01*
X65085Y-38925D01*
X64835Y-39176D01*
X64835Y-38745D01*
X64861Y-38727D01*
X64921Y-38637D01*
X64942Y-38531D01*
X64942Y-38239D01*
X64921Y-38133D01*
X64861Y-38043D01*
X64771Y-37983D01*
X64665Y-37962D01*
X64559Y-37983D01*
X64517Y-38011D01*
X64265Y-37759D01*
X64265Y-36207D01*
X64194Y-36036D01*
X64063Y-35906D01*
X63892Y-35835D01*
X63707Y-35834D01*
X63536Y-35905D01*
X63406Y-36036D01*
X63335Y-36207D01*
X63334Y-36392D01*
X63405Y-36563D01*
X63536Y-36693D01*
X63707Y-36764D01*
X63892Y-36765D01*
X64063Y-36694D01*
X64193Y-36563D01*
X64264Y-36392D01*
X64265Y-36207D01*
X64265Y-37759D01*
X64192Y-37686D01*
X64140Y-37652D01*
X64079Y-37640D01*
X63265Y-37640D01*
X63265Y-36207D01*
X63194Y-36036D01*
X63063Y-35906D01*
X62892Y-35835D01*
X62707Y-35834D01*
X62536Y-35905D01*
X62406Y-36036D01*
X62335Y-36207D01*
X62334Y-36392D01*
X62405Y-36563D01*
X62536Y-36693D01*
X62707Y-36764D01*
X62892Y-36765D01*
X63063Y-36694D01*
X63193Y-36563D01*
X63264Y-36392D01*
X63265Y-36207D01*
X63265Y-37640D01*
X63166Y-37640D01*
X62141Y-36615D01*
X62193Y-36563D01*
X62264Y-36392D01*
X62265Y-36207D01*
X62194Y-36036D01*
X62063Y-35906D01*
X61892Y-35835D01*
X61707Y-35834D01*
X61536Y-35905D01*
X61406Y-36036D01*
X61335Y-36207D01*
X61334Y-36392D01*
X61405Y-36563D01*
X61536Y-36693D01*
X61707Y-36764D01*
X61838Y-36765D01*
X62986Y-37913D01*
X63038Y-37947D01*
X63100Y-37960D01*
X64013Y-37960D01*
X64025Y-37972D01*
X63968Y-37983D01*
X63884Y-38040D01*
X62866Y-38040D01*
X61613Y-36786D01*
X61561Y-36752D01*
X61500Y-36740D01*
X61166Y-36740D01*
X61091Y-36665D01*
X61193Y-36563D01*
X61264Y-36392D01*
X61265Y-36207D01*
X61194Y-36036D01*
X61063Y-35906D01*
X60892Y-35835D01*
X60707Y-35834D01*
X60536Y-35905D01*
X60406Y-36036D01*
X60335Y-36207D01*
X60334Y-36392D01*
X60405Y-36563D01*
X60536Y-36693D01*
X60707Y-36764D01*
X60738Y-36764D01*
X60986Y-37013D01*
X60986Y-37013D01*
X61038Y-37047D01*
X61057Y-37051D01*
X61020Y-37066D01*
X60909Y-37177D01*
X60849Y-37322D01*
X60849Y-37479D01*
X60909Y-37625D01*
X61020Y-37736D01*
X61165Y-37796D01*
X61322Y-37796D01*
X61467Y-37736D01*
X61578Y-37625D01*
X61639Y-37480D01*
X61639Y-37323D01*
X61598Y-37224D01*
X62686Y-38313D01*
X62738Y-38347D01*
X62800Y-38360D01*
X63797Y-38360D01*
X63797Y-38531D01*
X63818Y-38637D01*
X63878Y-38727D01*
X63904Y-38745D01*
X63904Y-39057D01*
X63474Y-39488D01*
X63474Y-39134D01*
X63474Y-39078D01*
X63452Y-39027D01*
X63413Y-38988D01*
X63361Y-38966D01*
X63114Y-38966D01*
X63079Y-39001D01*
X63079Y-39361D01*
X63439Y-39361D01*
X63474Y-39326D01*
X63474Y-39134D01*
X63474Y-39488D01*
X63474Y-39488D01*
X63474Y-39436D01*
X63439Y-39401D01*
X63079Y-39401D01*
X63079Y-39761D01*
X63114Y-39796D01*
X63165Y-39796D01*
X63039Y-39923D01*
X63039Y-39761D01*
X63039Y-39401D01*
X63039Y-39361D01*
X63039Y-39001D01*
X63004Y-38966D01*
X62756Y-38966D01*
X62704Y-38988D01*
X62665Y-39027D01*
X62644Y-39078D01*
X62644Y-39134D01*
X62644Y-39326D01*
X62679Y-39361D01*
X63039Y-39361D01*
X63039Y-39401D01*
X62679Y-39401D01*
X62644Y-39436D01*
X62644Y-39629D01*
X62644Y-39684D01*
X62665Y-39736D01*
X62704Y-39775D01*
X62756Y-39796D01*
X63004Y-39796D01*
X63039Y-39761D01*
X63039Y-39923D01*
X62420Y-40542D01*
X62453Y-40460D01*
X62454Y-40303D01*
X62394Y-40158D01*
X62283Y-40047D01*
X62137Y-39986D01*
X61980Y-39986D01*
X61835Y-40046D01*
X61724Y-40157D01*
X61664Y-40302D01*
X61663Y-40460D01*
X61723Y-40605D01*
X61835Y-40716D01*
X61980Y-40776D01*
X62137Y-40776D01*
X62219Y-40743D01*
X60631Y-42331D01*
X60539Y-42238D01*
X60494Y-42220D01*
X60447Y-42220D01*
X60403Y-42238D01*
X60369Y-42272D01*
X60305Y-42336D01*
X60293Y-42365D01*
X60263Y-42377D01*
X60230Y-42411D01*
X60166Y-42475D01*
X60153Y-42504D01*
X60124Y-42517D01*
X60090Y-42550D01*
X60026Y-42614D01*
X60014Y-42644D01*
X59985Y-42656D01*
X59951Y-42689D01*
X59887Y-42753D01*
X59886Y-42757D01*
X59855Y-42770D01*
X59855Y-42726D01*
X60080Y-42500D01*
X60080Y-42500D01*
X60080Y-42500D01*
X60117Y-42445D01*
X60130Y-42380D01*
X60130Y-40779D01*
X60385Y-40524D01*
X60473Y-40524D01*
X60495Y-40577D01*
X60606Y-40689D01*
X60751Y-40749D01*
X60908Y-40749D01*
X61054Y-40689D01*
X61165Y-40578D01*
X61225Y-40433D01*
X61225Y-40276D01*
X61203Y-40222D01*
X61772Y-39653D01*
X61835Y-39716D01*
X61980Y-39776D01*
X62137Y-39776D01*
X62282Y-39716D01*
X62393Y-39605D01*
X62453Y-39460D01*
X62454Y-39303D01*
X62394Y-39158D01*
X62283Y-39047D01*
X62137Y-38986D01*
X61980Y-38986D01*
X61835Y-39046D01*
X61724Y-39157D01*
X61680Y-39264D01*
X60963Y-39981D01*
X60909Y-39959D01*
X60752Y-39959D01*
X60607Y-40019D01*
X60496Y-40130D01*
X60473Y-40184D01*
X60441Y-40184D01*
X60613Y-40013D01*
X60813Y-39813D01*
X60813Y-39813D01*
X60847Y-39761D01*
X60859Y-39700D01*
X60860Y-39700D01*
X60860Y-38500D01*
X60847Y-38438D01*
X60813Y-38386D01*
X59960Y-37533D01*
X59960Y-36737D01*
X60063Y-36694D01*
X60193Y-36563D01*
X60264Y-36392D01*
X60265Y-36207D01*
X60194Y-36036D01*
X60063Y-35906D01*
X59892Y-35835D01*
X59707Y-35834D01*
X59536Y-35905D01*
X59406Y-36036D01*
X59335Y-36207D01*
X59334Y-36392D01*
X59405Y-36563D01*
X59536Y-36693D01*
X59640Y-36737D01*
X59640Y-37513D01*
X58960Y-36833D01*
X58960Y-36737D01*
X59063Y-36694D01*
X59193Y-36563D01*
X59264Y-36392D01*
X59265Y-36207D01*
X59194Y-36036D01*
X59063Y-35906D01*
X58892Y-35835D01*
X58707Y-35834D01*
X58536Y-35905D01*
X58406Y-36036D01*
X58335Y-36207D01*
X58334Y-36392D01*
X58405Y-36563D01*
X58536Y-36693D01*
X58640Y-36737D01*
X58640Y-36900D01*
X58652Y-36961D01*
X58686Y-37013D01*
X60340Y-38666D01*
X60340Y-38800D01*
X60249Y-38665D01*
X60099Y-38564D01*
X59921Y-38529D01*
X59847Y-38544D01*
X59175Y-37871D01*
X59120Y-37835D01*
X59055Y-37822D01*
X58905Y-37822D01*
X58616Y-37533D01*
X58639Y-37480D01*
X58639Y-37323D01*
X58579Y-37178D01*
X58468Y-37066D01*
X58339Y-37013D01*
X58033Y-36706D01*
X58063Y-36694D01*
X58193Y-36563D01*
X58264Y-36392D01*
X58265Y-36207D01*
X58194Y-36036D01*
X58063Y-35906D01*
X57892Y-35835D01*
X57707Y-35834D01*
X57536Y-35905D01*
X57406Y-36036D01*
X57335Y-36207D01*
X57334Y-36392D01*
X57405Y-36563D01*
X57536Y-36693D01*
X57648Y-36740D01*
X57652Y-36761D01*
X57686Y-36813D01*
X57980Y-37106D01*
X57909Y-37177D01*
X57849Y-37322D01*
X57849Y-37479D01*
X57909Y-37625D01*
X58020Y-37736D01*
X58165Y-37796D01*
X58322Y-37796D01*
X58376Y-37774D01*
X58714Y-38112D01*
X58714Y-38112D01*
X58729Y-38122D01*
X58661Y-38150D01*
X58583Y-38228D01*
X58541Y-38330D01*
X58541Y-38440D01*
X58583Y-38542D01*
X58661Y-38620D01*
X58763Y-38663D01*
X58873Y-38663D01*
X58975Y-38621D01*
X59053Y-38543D01*
X59096Y-38441D01*
X59096Y-38330D01*
X59056Y-38233D01*
X59550Y-38728D01*
X59492Y-38816D01*
X59456Y-38993D01*
X59456Y-39313D01*
X59492Y-39490D01*
X59592Y-39641D01*
X59743Y-39742D01*
X59921Y-39777D01*
X60099Y-39742D01*
X60196Y-39677D01*
X59386Y-40486D01*
X59352Y-40538D01*
X59340Y-40600D01*
X59340Y-41133D01*
X59028Y-41445D01*
X59028Y-39251D01*
X59028Y-39251D01*
X59028Y-39251D01*
X59015Y-39186D01*
X58978Y-39131D01*
X58978Y-39131D01*
X57285Y-37438D01*
X57285Y-36395D01*
X57284Y-36202D01*
X57211Y-36025D01*
X57138Y-35989D01*
X57110Y-36017D01*
X57110Y-35961D01*
X57074Y-35888D01*
X56895Y-35814D01*
X56702Y-35815D01*
X56525Y-35888D01*
X56489Y-35961D01*
X56800Y-36271D01*
X57110Y-35961D01*
X57110Y-36017D01*
X56828Y-36300D01*
X57138Y-36610D01*
X57211Y-36574D01*
X57285Y-36395D01*
X57285Y-37438D01*
X57110Y-37263D01*
X57110Y-36638D01*
X56800Y-36328D01*
X56771Y-36356D01*
X56771Y-36300D01*
X56461Y-35989D01*
X56388Y-36025D01*
X56314Y-36204D01*
X56315Y-36397D01*
X56388Y-36574D01*
X56461Y-36610D01*
X56771Y-36300D01*
X56771Y-36356D01*
X56489Y-36638D01*
X56525Y-36711D01*
X56704Y-36785D01*
X56897Y-36784D01*
X57074Y-36711D01*
X57110Y-36638D01*
X57110Y-37263D01*
X56773Y-36927D01*
X56718Y-36890D01*
X56653Y-36877D01*
X56021Y-36877D01*
X56021Y-36496D01*
X56020Y-36331D01*
X55959Y-36185D01*
X55894Y-36157D01*
X55866Y-36185D01*
X55866Y-36129D01*
X55838Y-36063D01*
X55685Y-36001D01*
X55520Y-36002D01*
X55374Y-36063D01*
X55346Y-36129D01*
X55606Y-36389D01*
X55866Y-36129D01*
X55866Y-36185D01*
X55634Y-36417D01*
X55894Y-36677D01*
X55959Y-36649D01*
X56021Y-36496D01*
X56021Y-36877D01*
X55866Y-36877D01*
X55866Y-36705D01*
X55606Y-36445D01*
X55578Y-36473D01*
X55578Y-36417D01*
X55318Y-36157D01*
X55252Y-36185D01*
X55190Y-36338D01*
X55191Y-36503D01*
X55252Y-36649D01*
X55318Y-36677D01*
X55578Y-36417D01*
X55578Y-36473D01*
X55346Y-36705D01*
X55374Y-36771D01*
X55527Y-36832D01*
X55692Y-36831D01*
X55838Y-36771D01*
X55866Y-36705D01*
X55866Y-36877D01*
X55306Y-36877D01*
X54979Y-36549D01*
X55001Y-36496D01*
X55001Y-36339D01*
X54941Y-36193D01*
X54830Y-36082D01*
X54685Y-36022D01*
X54528Y-36022D01*
X54382Y-36082D01*
X54271Y-36193D01*
X54211Y-36338D01*
X54211Y-36495D01*
X54271Y-36640D01*
X54382Y-36751D01*
X54527Y-36812D01*
X54684Y-36812D01*
X54738Y-36790D01*
X54825Y-36877D01*
X54283Y-36877D01*
X54001Y-36595D01*
X54001Y-36118D01*
X53983Y-36074D01*
X53949Y-36040D01*
X53905Y-36022D01*
X53857Y-36022D01*
X53307Y-36022D01*
X53263Y-36040D01*
X53229Y-36074D01*
X53211Y-36118D01*
X53211Y-36166D01*
X53211Y-36716D01*
X53229Y-36760D01*
X53263Y-36793D01*
X53307Y-36812D01*
X53355Y-36812D01*
X53737Y-36812D01*
X54092Y-37167D01*
X54092Y-37167D01*
X54147Y-37204D01*
X54212Y-37217D01*
X54212Y-37217D01*
X54212Y-37217D01*
X54850Y-37217D01*
X55037Y-37403D01*
X55092Y-37440D01*
X55092Y-37440D01*
X55157Y-37453D01*
X56504Y-37453D01*
X58452Y-39401D01*
X58452Y-43339D01*
X58464Y-43404D01*
X58501Y-43459D01*
X58529Y-43486D01*
X58523Y-43484D01*
X58414Y-43484D01*
X58427Y-43454D01*
X58427Y-43225D01*
X58392Y-43190D01*
X58012Y-43190D01*
X58012Y-43198D01*
X57972Y-43198D01*
X57972Y-43190D01*
X57592Y-43190D01*
X57557Y-43225D01*
X57557Y-43452D01*
X57492Y-43452D01*
X57492Y-43267D01*
X57492Y-42976D01*
X57471Y-42924D01*
X57431Y-42885D01*
X57380Y-42863D01*
X57324Y-42863D01*
X57102Y-42863D01*
X57067Y-42898D01*
X57067Y-43102D01*
X57457Y-43102D01*
X57492Y-43067D01*
X57492Y-42976D01*
X57492Y-43267D01*
X57492Y-43177D01*
X57457Y-43142D01*
X57067Y-43142D01*
X57067Y-43345D01*
X57102Y-43380D01*
X57324Y-43380D01*
X57380Y-43380D01*
X57431Y-43358D01*
X57471Y-43319D01*
X57492Y-43267D01*
X57492Y-43452D01*
X57460Y-43452D01*
X57454Y-43436D01*
X57420Y-43402D01*
X57376Y-43383D01*
X57328Y-43383D01*
X57027Y-43383D01*
X57027Y-43345D01*
X57027Y-43142D01*
X57027Y-43102D01*
X57027Y-42898D01*
X56992Y-42863D01*
X56769Y-42863D01*
X56714Y-42863D01*
X56662Y-42885D01*
X56623Y-42924D01*
X56602Y-42976D01*
X56602Y-43067D01*
X56637Y-43102D01*
X57027Y-43102D01*
X57027Y-43142D01*
X56637Y-43142D01*
X56602Y-43177D01*
X56602Y-43267D01*
X56623Y-43319D01*
X56662Y-43358D01*
X56714Y-43380D01*
X56769Y-43380D01*
X56992Y-43380D01*
X57027Y-43345D01*
X57027Y-43383D01*
X56718Y-43383D01*
X56674Y-43402D01*
X56640Y-43435D01*
X56622Y-43479D01*
X56622Y-43527D01*
X56622Y-43763D01*
X56640Y-43808D01*
X56674Y-43841D01*
X56683Y-43845D01*
X56133Y-43845D01*
X55721Y-43433D01*
X55721Y-43343D01*
X55777Y-43399D01*
X55885Y-43444D01*
X56003Y-43444D01*
X56111Y-43399D01*
X56194Y-43316D01*
X56239Y-43208D01*
X56239Y-43151D01*
X56559Y-42832D01*
X56664Y-42832D01*
X56674Y-42841D01*
X56718Y-42860D01*
X56765Y-42860D01*
X57376Y-42860D01*
X57420Y-42841D01*
X57430Y-42832D01*
X57581Y-42832D01*
X57578Y-42835D01*
X57557Y-42886D01*
X57557Y-43115D01*
X57592Y-43150D01*
X57972Y-43150D01*
X57972Y-43142D01*
X58012Y-43142D01*
X58012Y-43150D01*
X58392Y-43150D01*
X58427Y-43115D01*
X58427Y-42886D01*
X58405Y-42835D01*
X58366Y-42795D01*
X58339Y-42784D01*
X58355Y-42778D01*
X58388Y-42744D01*
X58407Y-42700D01*
X58407Y-42652D01*
X58407Y-42140D01*
X58388Y-42096D01*
X58355Y-42062D01*
X58311Y-42044D01*
X58263Y-42044D01*
X58040Y-42044D01*
X58040Y-40694D01*
X58054Y-40689D01*
X58165Y-40578D01*
X58225Y-40433D01*
X58225Y-40276D01*
X58165Y-40130D01*
X58054Y-40019D01*
X57909Y-39959D01*
X57752Y-39959D01*
X57607Y-40019D01*
X57496Y-40130D01*
X57435Y-40275D01*
X57435Y-40432D01*
X57495Y-40577D01*
X57606Y-40689D01*
X57620Y-40694D01*
X57620Y-42071D01*
X57595Y-42096D01*
X57577Y-42140D01*
X57577Y-42188D01*
X57577Y-42412D01*
X57430Y-42412D01*
X57420Y-42402D01*
X57376Y-42383D01*
X57328Y-42383D01*
X56718Y-42383D01*
X56674Y-42402D01*
X56664Y-42412D01*
X56509Y-42412D01*
X56509Y-42411D01*
X56554Y-42303D01*
X56554Y-42292D01*
X56633Y-42292D01*
X56640Y-42308D01*
X56674Y-42341D01*
X56718Y-42360D01*
X56765Y-42360D01*
X57376Y-42360D01*
X57420Y-42341D01*
X57454Y-42308D01*
X57472Y-42264D01*
X57472Y-42216D01*
X57472Y-41980D01*
X57454Y-41936D01*
X57420Y-41902D01*
X57376Y-41883D01*
X57328Y-41883D01*
X56718Y-41883D01*
X56674Y-41902D01*
X56640Y-41935D01*
X56633Y-41952D01*
X56381Y-41952D01*
X56343Y-41959D01*
X56318Y-41949D01*
X56201Y-41949D01*
X56092Y-41993D01*
X56009Y-42076D01*
X55964Y-42185D01*
X55964Y-42302D01*
X56009Y-42410D01*
X56092Y-42494D01*
X56200Y-42539D01*
X56258Y-42539D01*
X55942Y-42854D01*
X55886Y-42854D01*
X55777Y-42899D01*
X55721Y-42956D01*
X55721Y-42362D01*
X55708Y-42297D01*
X55671Y-42241D01*
X55431Y-42001D01*
X55380Y-41968D01*
X55380Y-41968D01*
X55367Y-41936D01*
X55333Y-41902D01*
X55289Y-41883D01*
X55241Y-41883D01*
X54631Y-41883D01*
X54587Y-41902D01*
X54553Y-41935D01*
X54535Y-41979D01*
X54535Y-42027D01*
X54535Y-42263D01*
X54553Y-42308D01*
X54587Y-42341D01*
X54631Y-42360D01*
X54679Y-42360D01*
X55289Y-42360D01*
X55303Y-42354D01*
X55322Y-42373D01*
X55289Y-42360D01*
X55241Y-42360D01*
X54631Y-42360D01*
X54587Y-42378D01*
X54553Y-42412D01*
X54550Y-42420D01*
X54303Y-42173D01*
X54303Y-42014D01*
X54357Y-41992D01*
X54468Y-41881D01*
X54528Y-41736D01*
X54528Y-41579D01*
X54528Y-38579D01*
X54468Y-38434D01*
X54357Y-38322D01*
X54212Y-38262D01*
X54055Y-38262D01*
X53910Y-38322D01*
X53799Y-38433D01*
X53776Y-38487D01*
X53585Y-38487D01*
X53563Y-38434D01*
X53452Y-38322D01*
X53307Y-38262D01*
X53150Y-38262D01*
X53004Y-38322D01*
X52903Y-38423D01*
X52907Y-38404D01*
X52907Y-38249D01*
X53016Y-38249D01*
X53061Y-38231D01*
X53094Y-38197D01*
X53113Y-38153D01*
X53113Y-38105D01*
X53113Y-37515D01*
X53094Y-37471D01*
X53061Y-37437D01*
X53017Y-37419D01*
X52969Y-37419D01*
X52457Y-37419D01*
X52413Y-37437D01*
X52379Y-37471D01*
X52373Y-37487D01*
X52361Y-37460D01*
X52322Y-37420D01*
X52270Y-37399D01*
X52042Y-37399D01*
X52007Y-37434D01*
X52007Y-37814D01*
X52015Y-37814D01*
X52015Y-37854D01*
X52007Y-37854D01*
X52007Y-38234D01*
X52042Y-38269D01*
X52227Y-38269D01*
X52099Y-38322D01*
X51988Y-38433D01*
X51967Y-38483D01*
X51967Y-38234D01*
X51967Y-37854D01*
X51967Y-37814D01*
X51967Y-37434D01*
X51932Y-37399D01*
X51703Y-37399D01*
X51652Y-37420D01*
X51612Y-37460D01*
X51591Y-37511D01*
X51591Y-37567D01*
X51591Y-37779D01*
X51626Y-37814D01*
X51967Y-37814D01*
X51967Y-37854D01*
X51626Y-37854D01*
X51591Y-37889D01*
X51591Y-38101D01*
X51591Y-38157D01*
X51612Y-38209D01*
X51652Y-38248D01*
X51703Y-38269D01*
X51932Y-38269D01*
X51967Y-38234D01*
X51967Y-38483D01*
X51927Y-38578D01*
X51927Y-38735D01*
X51987Y-38880D01*
X52098Y-38992D01*
X52243Y-39052D01*
X52401Y-39052D01*
X52546Y-38992D01*
X52657Y-38881D01*
X52679Y-38827D01*
X52871Y-38827D01*
X52893Y-38880D01*
X53004Y-38992D01*
X53149Y-39052D01*
X53306Y-39052D01*
X53451Y-38992D01*
X53563Y-38881D01*
X53585Y-38827D01*
X53776Y-38827D01*
X53798Y-38880D01*
X53909Y-38992D01*
X54054Y-39052D01*
X54212Y-39052D01*
X54357Y-38992D01*
X54468Y-38881D01*
X54528Y-38736D01*
X54528Y-38579D01*
X54528Y-41579D01*
X54468Y-41434D01*
X54357Y-41322D01*
X54212Y-41262D01*
X54101Y-41262D01*
X52088Y-39249D01*
X52033Y-39213D01*
X51968Y-39200D01*
X49870Y-39200D01*
X49819Y-39148D01*
X49644Y-39075D01*
X49456Y-39075D01*
X49281Y-39147D01*
X49148Y-39280D01*
X49075Y-39455D01*
X49075Y-39643D01*
X49147Y-39818D01*
X49280Y-39951D01*
X49455Y-40024D01*
X49643Y-40024D01*
X49818Y-39952D01*
X49951Y-39819D01*
X50024Y-39644D01*
X50024Y-39540D01*
X51898Y-39540D01*
X53796Y-41438D01*
X53738Y-41578D01*
X53738Y-41735D01*
X53798Y-41880D01*
X53909Y-41992D01*
X53963Y-42014D01*
X53963Y-42244D01*
X53976Y-42309D01*
X54013Y-42364D01*
X54367Y-42718D01*
X54423Y-42755D01*
X54488Y-42768D01*
X54547Y-42768D01*
X54553Y-42784D01*
X54587Y-42818D01*
X54631Y-42836D01*
X54679Y-42836D01*
X55289Y-42836D01*
X55333Y-42818D01*
X55367Y-42784D01*
X55381Y-42751D01*
X55381Y-42969D01*
X55367Y-42936D01*
X55333Y-42902D01*
X55289Y-42883D01*
X55241Y-42883D01*
X54631Y-42883D01*
X54587Y-42902D01*
X54553Y-42935D01*
X54547Y-42952D01*
X54373Y-42952D01*
X53425Y-42003D01*
X53451Y-41992D01*
X53563Y-41881D01*
X53623Y-41736D01*
X53623Y-41579D01*
X53563Y-41434D01*
X53452Y-41322D01*
X53398Y-41300D01*
X53398Y-41220D01*
X53385Y-41155D01*
X53348Y-41100D01*
X53348Y-41100D01*
X52167Y-39919D01*
X52112Y-39882D01*
X52047Y-39869D01*
X50988Y-39869D01*
X50952Y-39781D01*
X50819Y-39648D01*
X50644Y-39575D01*
X50456Y-39575D01*
X50281Y-39647D01*
X50148Y-39780D01*
X50075Y-39955D01*
X50075Y-40143D01*
X50147Y-40318D01*
X50280Y-40451D01*
X50455Y-40524D01*
X50643Y-40524D01*
X50818Y-40452D01*
X50951Y-40319D01*
X50997Y-40209D01*
X51976Y-40209D01*
X53058Y-41290D01*
X53058Y-41300D01*
X53004Y-41322D01*
X52893Y-41433D01*
X52833Y-41578D01*
X52833Y-41735D01*
X52893Y-41880D01*
X53004Y-41992D01*
X53058Y-42014D01*
X53058Y-42047D01*
X53071Y-42112D01*
X53108Y-42167D01*
X54182Y-43242D01*
X54238Y-43279D01*
X54238Y-43279D01*
X54303Y-43292D01*
X54547Y-43292D01*
X54553Y-43308D01*
X54587Y-43341D01*
X54631Y-43360D01*
X54679Y-43360D01*
X55289Y-43360D01*
X55333Y-43341D01*
X55367Y-43308D01*
X55381Y-43275D01*
X55381Y-43469D01*
X55367Y-43436D01*
X55333Y-43402D01*
X55289Y-43383D01*
X55241Y-43383D01*
X54631Y-43383D01*
X54587Y-43402D01*
X54553Y-43435D01*
X54547Y-43452D01*
X54357Y-43452D01*
X52695Y-41789D01*
X52717Y-41736D01*
X52717Y-41579D01*
X52657Y-41434D01*
X52546Y-41322D01*
X52401Y-41262D01*
X52244Y-41262D01*
X52099Y-41322D01*
X51988Y-41433D01*
X51927Y-41578D01*
X51927Y-41735D01*
X51976Y-41854D01*
X51041Y-40919D01*
X50996Y-40889D01*
X50952Y-40781D01*
X50819Y-40648D01*
X50644Y-40575D01*
X50456Y-40575D01*
X50281Y-40647D01*
X50148Y-40780D01*
X50075Y-40955D01*
X50075Y-41143D01*
X50147Y-41318D01*
X50280Y-41451D01*
X50455Y-41524D01*
X50643Y-41524D01*
X50818Y-41452D01*
X50951Y-41319D01*
X50954Y-41312D01*
X51510Y-41869D01*
X50988Y-41869D01*
X50952Y-41781D01*
X50819Y-41648D01*
X50644Y-41575D01*
X50456Y-41575D01*
X50281Y-41647D01*
X50148Y-41780D01*
X50075Y-41955D01*
X50075Y-42000D01*
X50044Y-41969D01*
X50044Y-40648D01*
X50044Y-40451D01*
X49969Y-40270D01*
X49895Y-40232D01*
X49867Y-40261D01*
X49867Y-40204D01*
X49829Y-40130D01*
X49648Y-40055D01*
X49451Y-40055D01*
X49270Y-40130D01*
X49232Y-40204D01*
X49550Y-40521D01*
X49867Y-40204D01*
X49867Y-40261D01*
X49578Y-40550D01*
X49895Y-40867D01*
X49969Y-40829D01*
X50044Y-40648D01*
X50044Y-41969D01*
X49922Y-41847D01*
X49951Y-41819D01*
X50024Y-41644D01*
X50024Y-41456D01*
X49952Y-41281D01*
X49867Y-41196D01*
X49867Y-40895D01*
X49550Y-40578D01*
X49521Y-40606D01*
X49521Y-40550D01*
X49204Y-40232D01*
X49130Y-40270D01*
X49055Y-40451D01*
X49055Y-40648D01*
X49130Y-40829D01*
X49204Y-40867D01*
X49521Y-40550D01*
X49521Y-40606D01*
X49232Y-40895D01*
X49270Y-40969D01*
X49451Y-41044D01*
X49648Y-41044D01*
X49829Y-40969D01*
X49867Y-40895D01*
X49867Y-41196D01*
X49819Y-41148D01*
X49644Y-41075D01*
X49456Y-41075D01*
X49281Y-41147D01*
X49148Y-41280D01*
X49075Y-41455D01*
X49075Y-41643D01*
X49147Y-41818D01*
X49280Y-41951D01*
X49455Y-42024D01*
X49618Y-42024D01*
X49687Y-42093D01*
X49644Y-42075D01*
X49456Y-42075D01*
X49281Y-42147D01*
X49148Y-42280D01*
X49075Y-42455D01*
X49075Y-42643D01*
X49147Y-42818D01*
X49280Y-42951D01*
X49455Y-43024D01*
X49643Y-43024D01*
X49818Y-42952D01*
X49951Y-42819D01*
X50024Y-42644D01*
X50024Y-42587D01*
X50092Y-42656D01*
X50148Y-42693D01*
X50148Y-42693D01*
X50187Y-42700D01*
X50180Y-42708D01*
X50204Y-42732D01*
X50130Y-42770D01*
X50055Y-42951D01*
X50055Y-43148D01*
X50130Y-43329D01*
X50204Y-43367D01*
X50521Y-43050D01*
X50516Y-43044D01*
X50544Y-43016D01*
X50550Y-43021D01*
X50555Y-43016D01*
X50583Y-43044D01*
X50578Y-43050D01*
X50895Y-43367D01*
X50969Y-43329D01*
X51044Y-43148D01*
X51044Y-42951D01*
X50969Y-42770D01*
X50895Y-42732D01*
X50919Y-42708D01*
X50917Y-42706D01*
X51520Y-42706D01*
X51798Y-42983D01*
X51798Y-45580D01*
X51811Y-45645D01*
X51848Y-45700D01*
X52271Y-46124D01*
X52271Y-46322D01*
X52289Y-46367D01*
X52323Y-46400D01*
X52367Y-46419D01*
X52415Y-46419D01*
X52612Y-46419D01*
X52637Y-46408D01*
X52663Y-46419D01*
X52710Y-46419D01*
X52907Y-46419D01*
X52951Y-46401D01*
X52985Y-46367D01*
X53003Y-46323D01*
X53003Y-46275D01*
X53003Y-46272D01*
X53591Y-46272D01*
X54140Y-46821D01*
X54139Y-46824D01*
X54139Y-46871D01*
X54157Y-46915D01*
X54191Y-46949D01*
X54579Y-47338D01*
X54624Y-47356D01*
X54671Y-47356D01*
X54715Y-47338D01*
X54749Y-47305D01*
X55036Y-47018D01*
X55592Y-47018D01*
X55657Y-47005D01*
X55657Y-47005D01*
X55713Y-46968D01*
X56487Y-46193D01*
X56811Y-46193D01*
X56876Y-46180D01*
X56876Y-46180D01*
X56931Y-46143D01*
X57747Y-45327D01*
X58315Y-45327D01*
X58546Y-45558D01*
X58523Y-45574D01*
X58295Y-45345D01*
X58250Y-45327D01*
X58203Y-45327D01*
X58159Y-45345D01*
X58125Y-45379D01*
X57708Y-45796D01*
X57689Y-45840D01*
X57689Y-45888D01*
X57707Y-45932D01*
X57741Y-45966D01*
X57757Y-45982D01*
X56964Y-46775D01*
X56580Y-46391D01*
X56536Y-46373D01*
X56488Y-46373D01*
X56444Y-46391D01*
X56411Y-46425D01*
X56076Y-46759D01*
X56058Y-46803D01*
X56058Y-46851D01*
X56076Y-46895D01*
X56110Y-46929D01*
X57084Y-47903D01*
X57129Y-47922D01*
X57176Y-47922D01*
X57220Y-47903D01*
X57254Y-47870D01*
X57588Y-47536D01*
X57607Y-47491D01*
X57607Y-47444D01*
X57588Y-47400D01*
X57555Y-47366D01*
X57204Y-47016D01*
X57998Y-46222D01*
X58103Y-46328D01*
X58147Y-46346D01*
X58195Y-46346D01*
X58211Y-46340D01*
X58200Y-46367D01*
X58200Y-46423D01*
X58221Y-46474D01*
X58383Y-46636D01*
X58432Y-46636D01*
X58701Y-46367D01*
X58695Y-46361D01*
X58724Y-46333D01*
X58729Y-46339D01*
X58735Y-46333D01*
X58763Y-46361D01*
X58758Y-46367D01*
X58981Y-46591D01*
X58990Y-46600D01*
X58999Y-46608D01*
X59223Y-46832D01*
X59228Y-46826D01*
X59256Y-46855D01*
X59251Y-46860D01*
X59256Y-46866D01*
X59228Y-46894D01*
X59223Y-46889D01*
X59194Y-46917D01*
X59194Y-46860D01*
X58970Y-46636D01*
X58962Y-46628D01*
X58953Y-46619D01*
X58729Y-46395D01*
X58461Y-46664D01*
X58461Y-46714D01*
X58622Y-46875D01*
X58674Y-46897D01*
X58693Y-46897D01*
X58693Y-46916D01*
X58714Y-46967D01*
X58876Y-47129D01*
X58926Y-47129D01*
X59194Y-46860D01*
X59194Y-46917D01*
X58954Y-47157D01*
X58954Y-47207D01*
X59116Y-47369D01*
X59167Y-47390D01*
X59223Y-47390D01*
X59250Y-47379D01*
X59243Y-47394D01*
X59243Y-47442D01*
X59261Y-47486D01*
X59295Y-47520D01*
X59339Y-47564D01*
X59096Y-47807D01*
X59096Y-47425D01*
X59054Y-47323D01*
X58976Y-47245D01*
X58874Y-47202D01*
X58763Y-47202D01*
X58661Y-47244D01*
X58583Y-47322D01*
X58541Y-47424D01*
X58541Y-47535D01*
X58583Y-47637D01*
X58661Y-47715D01*
X58763Y-47757D01*
X58873Y-47757D01*
X58975Y-47715D01*
X59053Y-47637D01*
X59096Y-47535D01*
X59096Y-47425D01*
X59096Y-47807D01*
X58546Y-48357D01*
X58111Y-47923D01*
X58067Y-47904D01*
X58020Y-47904D01*
X57975Y-47922D01*
X57942Y-47956D01*
X57608Y-48290D01*
X57589Y-48334D01*
X57589Y-48382D01*
X57607Y-48426D01*
X57641Y-48460D01*
X58616Y-49434D01*
X58660Y-49453D01*
X58707Y-49453D01*
X58752Y-49434D01*
X58785Y-49401D01*
X59119Y-49067D01*
X59138Y-49023D01*
X59138Y-48975D01*
X59119Y-48931D01*
X59086Y-48897D01*
X58786Y-48598D01*
X59580Y-47804D01*
X59657Y-47882D01*
X59701Y-47900D01*
X59749Y-47900D01*
X59793Y-47882D01*
X59827Y-47848D01*
X60244Y-47431D01*
X60262Y-47387D01*
X60262Y-47339D01*
X60244Y-47295D01*
X60211Y-47261D01*
X60167Y-47217D01*
X60238Y-47146D01*
X60238Y-47146D01*
X60238Y-47146D01*
X60275Y-47091D01*
X60281Y-47057D01*
X60470Y-47246D01*
X60470Y-47286D01*
X60149Y-47607D01*
X60130Y-47651D01*
X60130Y-47699D01*
X60148Y-47743D01*
X60182Y-47777D01*
X60544Y-48139D01*
X60588Y-48157D01*
X60636Y-48157D01*
X60652Y-48151D01*
X60641Y-48178D01*
X60641Y-48234D01*
X60662Y-48285D01*
X60824Y-48447D01*
X60873Y-48447D01*
X61142Y-48178D01*
X61136Y-48172D01*
X61165Y-48144D01*
X61170Y-48150D01*
X61439Y-47881D01*
X61439Y-47832D01*
X61277Y-47670D01*
X61226Y-47648D01*
X61170Y-47648D01*
X61143Y-47660D01*
X61149Y-47644D01*
X61149Y-47596D01*
X61131Y-47552D01*
X61098Y-47518D01*
X60810Y-47231D01*
X60810Y-47175D01*
X60797Y-47110D01*
X60760Y-47055D01*
X60760Y-47055D01*
X60460Y-46755D01*
X60494Y-46755D01*
X60538Y-46737D01*
X60572Y-46704D01*
X60964Y-46312D01*
X60982Y-46268D01*
X60982Y-46220D01*
X60964Y-46176D01*
X60930Y-46142D01*
X60866Y-46078D01*
X60837Y-46066D01*
X60825Y-46037D01*
X60791Y-46003D01*
X60753Y-45965D01*
X60800Y-45922D01*
X60807Y-45924D01*
X60924Y-45924D01*
X61033Y-45880D01*
X61116Y-45797D01*
X61161Y-45688D01*
X61161Y-45571D01*
X61116Y-45463D01*
X61033Y-45379D01*
X60925Y-45334D01*
X60807Y-45334D01*
X60699Y-45379D01*
X60688Y-45390D01*
X60728Y-45295D01*
X60728Y-45177D01*
X60683Y-45069D01*
X60600Y-44986D01*
X60492Y-44941D01*
X60374Y-44941D01*
X60266Y-44985D01*
X60183Y-45068D01*
X60138Y-45177D01*
X60138Y-45294D01*
X60177Y-45389D01*
X60170Y-45382D01*
X60141Y-45370D01*
X60129Y-45341D01*
X60095Y-45307D01*
X60031Y-45243D01*
X60028Y-45242D01*
X60006Y-45190D01*
X59993Y-45178D01*
X59944Y-45178D01*
X59688Y-45433D01*
X59694Y-45439D01*
X59683Y-45449D01*
X59679Y-45452D01*
X59665Y-45466D01*
X59660Y-45462D01*
X59404Y-45717D01*
X59404Y-45727D01*
X59384Y-45747D01*
X59404Y-45767D01*
X59404Y-45767D01*
X59384Y-45747D01*
X59357Y-45774D01*
X59164Y-45774D01*
X59111Y-45721D01*
X59251Y-45721D01*
X59317Y-45708D01*
X59317Y-45708D01*
X59333Y-45696D01*
X59333Y-45696D01*
X59333Y-45696D01*
X59333Y-45696D01*
X59344Y-45689D01*
X59376Y-45689D01*
X59632Y-45433D01*
X59626Y-45428D01*
X59637Y-45417D01*
X59641Y-45414D01*
X59644Y-45410D01*
X59654Y-45400D01*
X59660Y-45405D01*
X59916Y-45149D01*
X59916Y-45100D01*
X59903Y-45087D01*
X59851Y-45066D01*
X59850Y-45063D01*
X59816Y-45029D01*
X59777Y-44990D01*
X59787Y-44979D01*
X59900Y-44980D01*
X60009Y-44935D01*
X60092Y-44852D01*
X60137Y-44743D01*
X60137Y-44626D01*
X60092Y-44518D01*
X60009Y-44435D01*
X59901Y-44390D01*
X59784Y-44389D01*
X59675Y-44434D01*
X59592Y-44517D01*
X59547Y-44626D01*
X59547Y-44739D01*
X59537Y-44749D01*
X59474Y-44686D01*
X59445Y-44674D01*
X59433Y-44645D01*
X59399Y-44611D01*
X59335Y-44547D01*
X59291Y-44529D01*
X59243Y-44529D01*
X59199Y-44547D01*
X59165Y-44581D01*
X59106Y-44639D01*
X59031Y-44564D01*
X58976Y-44527D01*
X58911Y-44515D01*
X57519Y-44515D01*
X57454Y-44527D01*
X57399Y-44564D01*
X57399Y-44564D01*
X57183Y-44780D01*
X57183Y-44640D01*
X57119Y-44488D01*
X57001Y-44373D01*
X56855Y-44312D01*
X56789Y-44339D01*
X56789Y-44706D01*
X57156Y-44706D01*
X57183Y-44640D01*
X57183Y-44780D01*
X57174Y-44789D01*
X57156Y-44746D01*
X56817Y-44746D01*
X56803Y-44732D01*
X56774Y-44760D01*
X56789Y-44775D01*
X56789Y-45114D01*
X56832Y-45131D01*
X56749Y-45214D01*
X56749Y-45114D01*
X56749Y-44746D01*
X56749Y-44706D01*
X56749Y-44339D01*
X56683Y-44312D01*
X56531Y-44376D01*
X56415Y-44494D01*
X56354Y-44640D01*
X56381Y-44706D01*
X56749Y-44706D01*
X56749Y-44746D01*
X56381Y-44746D01*
X56354Y-44812D01*
X56419Y-44964D01*
X56537Y-45080D01*
X56683Y-45141D01*
X56749Y-45114D01*
X56749Y-45214D01*
X56700Y-45263D01*
X56419Y-45263D01*
X56397Y-45210D01*
X56286Y-45099D01*
X56141Y-45038D01*
X55983Y-45038D01*
X55931Y-45060D01*
X54805Y-43934D01*
X54750Y-43898D01*
X54685Y-43885D01*
X53003Y-43885D01*
X53003Y-43834D01*
X52985Y-43790D01*
X52951Y-43756D01*
X52907Y-43738D01*
X52860Y-43738D01*
X52663Y-43738D01*
X52660Y-43739D01*
X52660Y-42608D01*
X52647Y-42543D01*
X52647Y-42543D01*
X52610Y-42488D01*
X52125Y-42003D01*
X52243Y-42052D01*
X52401Y-42052D01*
X52455Y-42030D01*
X54167Y-43742D01*
X54167Y-43742D01*
X54222Y-43779D01*
X54287Y-43792D01*
X54547Y-43792D01*
X54553Y-43808D01*
X54587Y-43841D01*
X54631Y-43860D01*
X54679Y-43860D01*
X55289Y-43860D01*
X55333Y-43841D01*
X55367Y-43808D01*
X55385Y-43764D01*
X55385Y-43716D01*
X55385Y-43526D01*
X55394Y-43568D01*
X55430Y-43624D01*
X55942Y-44135D01*
X55942Y-44135D01*
X55997Y-44172D01*
X56062Y-44185D01*
X58000Y-44185D01*
X58108Y-44293D01*
X58108Y-44293D01*
X58163Y-44330D01*
X58228Y-44343D01*
X59029Y-44343D01*
X59094Y-44330D01*
X59094Y-44330D01*
X59098Y-44327D01*
X59199Y-44428D01*
X59243Y-44446D01*
X59291Y-44447D01*
X59335Y-44428D01*
X59368Y-44395D01*
X59432Y-44331D01*
X59445Y-44301D01*
X59474Y-44289D01*
X59508Y-44255D01*
X59572Y-44191D01*
X59584Y-44162D01*
X59613Y-44150D01*
X59647Y-44116D01*
X59711Y-44052D01*
X59723Y-44023D01*
X59752Y-44011D01*
X59786Y-43977D01*
X59850Y-43913D01*
X59862Y-43884D01*
X59891Y-43872D01*
X59925Y-43838D01*
X59989Y-43774D01*
X60001Y-43744D01*
X60031Y-43732D01*
X60064Y-43699D01*
X60128Y-43635D01*
X60141Y-43605D01*
X60170Y-43593D01*
X60204Y-43559D01*
X60268Y-43495D01*
X60269Y-43492D01*
X60320Y-43471D01*
X60333Y-43458D01*
X60333Y-43409D01*
X60077Y-43153D01*
X60073Y-43157D01*
X60058Y-43135D01*
X60058Y-43135D01*
X60049Y-43125D01*
X60049Y-43124D01*
X60044Y-43119D01*
X60072Y-43091D01*
X60077Y-43096D01*
X60083Y-43091D01*
X60111Y-43119D01*
X60106Y-43124D01*
X60362Y-43380D01*
X60411Y-43380D01*
X60424Y-43367D01*
X60445Y-43316D01*
X60448Y-43315D01*
X60482Y-43281D01*
X60521Y-43242D01*
X60531Y-43252D01*
X60531Y-43365D01*
X60576Y-43473D01*
X60659Y-43557D01*
X60767Y-43602D01*
X60885Y-43602D01*
X60993Y-43557D01*
X61076Y-43474D01*
X61121Y-43366D01*
X61121Y-43248D01*
X61077Y-43140D01*
X60994Y-43057D01*
X60885Y-43012D01*
X60772Y-43012D01*
X60762Y-43001D01*
X60824Y-42939D01*
X60837Y-42909D01*
X60866Y-42897D01*
X60900Y-42863D01*
X60964Y-42799D01*
X60982Y-42755D01*
X60982Y-42708D01*
X60964Y-42663D01*
X60930Y-42630D01*
X60871Y-42571D01*
X64195Y-39248D01*
X64195Y-39248D01*
X64195Y-39248D01*
X64231Y-39193D01*
X64244Y-39128D01*
X64244Y-38745D01*
X64271Y-38727D01*
X64331Y-38637D01*
X64352Y-38531D01*
X64352Y-38299D01*
X64387Y-38334D01*
X64387Y-38531D01*
X64408Y-38637D01*
X64469Y-38727D01*
X64495Y-38745D01*
X64495Y-39201D01*
X61292Y-42404D01*
X61255Y-42459D01*
X61247Y-42499D01*
X61083Y-42663D01*
X61064Y-42707D01*
X61064Y-42755D01*
X61083Y-42799D01*
X61116Y-42833D01*
X61180Y-42897D01*
X61210Y-42909D01*
X61222Y-42938D01*
X61255Y-42972D01*
X61319Y-43036D01*
X61349Y-43048D01*
X61361Y-43078D01*
X61395Y-43111D01*
X61459Y-43175D01*
X61488Y-43188D01*
X61500Y-43217D01*
X61534Y-43251D01*
X61598Y-43315D01*
X61627Y-43327D01*
X61639Y-43356D01*
X61673Y-43390D01*
X61737Y-43454D01*
X61766Y-43466D01*
X61778Y-43495D01*
X61812Y-43529D01*
X61876Y-43593D01*
X61906Y-43605D01*
X61918Y-43634D01*
X61951Y-43668D01*
X61994Y-43711D01*
X61990Y-43715D01*
X61909Y-43681D01*
X61791Y-43681D01*
X61683Y-43726D01*
X61600Y-43809D01*
X61555Y-43917D01*
X61555Y-44034D01*
X61555Y-44035D01*
X61477Y-44035D01*
X61368Y-44080D01*
X61285Y-44163D01*
X61240Y-44271D01*
X61240Y-44317D01*
X61172Y-44249D01*
X61117Y-44213D01*
X61077Y-44205D01*
X61077Y-44203D01*
X60994Y-44120D01*
X60885Y-44075D01*
X60768Y-44075D01*
X60659Y-44119D01*
X60576Y-44202D01*
X60531Y-44311D01*
X60531Y-44428D01*
X60576Y-44536D01*
X60659Y-44620D01*
X60767Y-44665D01*
X60885Y-44665D01*
X60993Y-44620D01*
X61027Y-44586D01*
X61850Y-45408D01*
X61843Y-45416D01*
X61779Y-45480D01*
X61766Y-45509D01*
X61737Y-45521D01*
X61703Y-45555D01*
X61639Y-45619D01*
X61627Y-45649D01*
X61598Y-45661D01*
X61564Y-45694D01*
X61500Y-45758D01*
X61488Y-45788D01*
X61459Y-45800D01*
X61425Y-45834D01*
X61361Y-45898D01*
X61349Y-45927D01*
X61320Y-45939D01*
X61286Y-45973D01*
X61222Y-46037D01*
X61210Y-46066D01*
X61180Y-46078D01*
X61147Y-46112D01*
X61083Y-46176D01*
X61064Y-46220D01*
X61064Y-46268D01*
X61083Y-46312D01*
X61116Y-46346D01*
X61508Y-46737D01*
X61552Y-46755D01*
X61599Y-46755D01*
X61644Y-46737D01*
X61677Y-46704D01*
X61680Y-46701D01*
X61680Y-48075D01*
X61678Y-48071D01*
X61517Y-47909D01*
X61467Y-47909D01*
X61198Y-48178D01*
X61440Y-48419D01*
X61489Y-48419D01*
X61639Y-48269D01*
X61679Y-48230D01*
X61680Y-48226D01*
X61680Y-48472D01*
X61411Y-48741D01*
X61411Y-48497D01*
X61411Y-48447D01*
X61170Y-48206D01*
X60901Y-48475D01*
X60901Y-48525D01*
X61063Y-48686D01*
X61115Y-48708D01*
X61170Y-48708D01*
X61222Y-48686D01*
X61261Y-48647D01*
X61411Y-48497D01*
X61411Y-48741D01*
X61358Y-48794D01*
X61319Y-48778D01*
X61161Y-48778D01*
X61016Y-48838D01*
X60905Y-48949D01*
X60845Y-49094D01*
X60845Y-49251D01*
X60905Y-49396D01*
X61016Y-49507D01*
X61161Y-49568D01*
X61318Y-49568D01*
X61463Y-49508D01*
X61574Y-49397D01*
X61635Y-49252D01*
X61635Y-49095D01*
X61607Y-49026D01*
X61968Y-48665D01*
X62070Y-48767D01*
X62070Y-48816D01*
X62016Y-48838D01*
X61905Y-48949D01*
X61845Y-49094D01*
X61845Y-49251D01*
X61905Y-49396D01*
X62016Y-49507D01*
X62161Y-49568D01*
X62318Y-49568D01*
X62463Y-49508D01*
X62574Y-49397D01*
X62635Y-49252D01*
X62635Y-49095D01*
X62575Y-48949D01*
X62464Y-48838D01*
X62410Y-48816D01*
X62410Y-48713D01*
X62845Y-49148D01*
X62845Y-49251D01*
X62905Y-49396D01*
X63016Y-49507D01*
X63161Y-49568D01*
X63262Y-49568D01*
X62606Y-50223D01*
X62487Y-50223D01*
X62464Y-50170D01*
X62353Y-50059D01*
X62208Y-49998D01*
X62051Y-49998D01*
X61906Y-50058D01*
X61795Y-50169D01*
X61734Y-50314D01*
X61734Y-50471D01*
X61794Y-50617D01*
X61905Y-50728D01*
X62051Y-50788D01*
X62208Y-50788D01*
X62353Y-50728D01*
X62464Y-50617D01*
X62487Y-50563D01*
X62677Y-50563D01*
X62742Y-50550D01*
X62742Y-50550D01*
X62797Y-50513D01*
X63495Y-49815D01*
X64527Y-49815D01*
X64592Y-49802D01*
X64592Y-49802D01*
X64647Y-49765D01*
X64883Y-49529D01*
X64920Y-49474D01*
X64920Y-49474D01*
X64931Y-49422D01*
X65016Y-49507D01*
X65161Y-49568D01*
X65318Y-49568D01*
X65463Y-49508D01*
X65574Y-49397D01*
X65578Y-49389D01*
X65578Y-49484D01*
X65590Y-49549D01*
X65627Y-49604D01*
X66284Y-50261D01*
X66262Y-50314D01*
X66262Y-50471D01*
X66322Y-50617D01*
X66433Y-50728D01*
X66578Y-50788D01*
X66735Y-50788D01*
X66880Y-50728D01*
X66992Y-50617D01*
X67052Y-50472D01*
X67052Y-50315D01*
X66992Y-50170D01*
X66881Y-50059D01*
X66736Y-49998D01*
X66655Y-49998D01*
X66655Y-49420D01*
X66655Y-48925D01*
X66655Y-48870D01*
X66633Y-48818D01*
X66594Y-48779D01*
X66542Y-48758D01*
X66295Y-48758D01*
X66260Y-48793D01*
X66260Y-49153D01*
X66620Y-49153D01*
X66655Y-49118D01*
X66655Y-48925D01*
X66655Y-49420D01*
X66655Y-49228D01*
X66620Y-49193D01*
X66260Y-49193D01*
X66260Y-49553D01*
X66295Y-49588D01*
X66542Y-49588D01*
X66594Y-49566D01*
X66633Y-49527D01*
X66655Y-49476D01*
X66655Y-49420D01*
X66655Y-49998D01*
X66579Y-49998D01*
X66525Y-50020D01*
X66092Y-49588D01*
X66185Y-49588D01*
X66220Y-49553D01*
X66220Y-49193D01*
X66212Y-49193D01*
X66212Y-49153D01*
X66220Y-49153D01*
X66220Y-48793D01*
X66185Y-48758D01*
X65937Y-48758D01*
X65918Y-48766D01*
X65918Y-48523D01*
X65905Y-48458D01*
X65868Y-48403D01*
X65868Y-48403D01*
X62923Y-45458D01*
X62930Y-45451D01*
X62994Y-45387D01*
X63006Y-45357D01*
X63036Y-45345D01*
X63069Y-45312D01*
X63125Y-45256D01*
X66513Y-48643D01*
X66513Y-48643D01*
X66568Y-48680D01*
X66633Y-48693D01*
X66633Y-48693D01*
X66633Y-48693D01*
X67547Y-48693D01*
X67891Y-49037D01*
X67891Y-49037D01*
X67946Y-49074D01*
X68011Y-49087D01*
X69835Y-49087D01*
X71009Y-50261D01*
X70986Y-50314D01*
X70986Y-50471D01*
X71046Y-50617D01*
X71157Y-50728D01*
X71302Y-50788D01*
X71460Y-50788D01*
X71605Y-50728D01*
X71716Y-50617D01*
X71776Y-50472D01*
X71776Y-50315D01*
X71716Y-50170D01*
X71605Y-50059D01*
X71460Y-49998D01*
X71303Y-49998D01*
X71249Y-50020D01*
X70025Y-48797D01*
X69970Y-48760D01*
X69905Y-48747D01*
X68082Y-48747D01*
X67738Y-48403D01*
X67683Y-48366D01*
X67618Y-48353D01*
X66704Y-48353D01*
X63107Y-44756D01*
X63052Y-44720D01*
X63012Y-44712D01*
X62848Y-44547D01*
X62803Y-44529D01*
X62756Y-44529D01*
X62712Y-44547D01*
X62678Y-44581D01*
X62614Y-44645D01*
X62602Y-44674D01*
X62572Y-44686D01*
X62539Y-44720D01*
X62475Y-44784D01*
X62462Y-44813D01*
X62433Y-44825D01*
X62399Y-44859D01*
X62335Y-44923D01*
X62323Y-44953D01*
X62294Y-44965D01*
X62260Y-44998D01*
X62235Y-45024D01*
X61746Y-44536D01*
X61785Y-44498D01*
X61830Y-44389D01*
X61830Y-44272D01*
X61830Y-44271D01*
X61908Y-44271D01*
X61909Y-44271D01*
X61909Y-44349D01*
X61954Y-44458D01*
X62037Y-44541D01*
X62145Y-44586D01*
X62263Y-44586D01*
X62371Y-44541D01*
X62454Y-44458D01*
X62499Y-44350D01*
X62499Y-44232D01*
X62488Y-44205D01*
X62508Y-44225D01*
X62572Y-44289D01*
X62602Y-44301D01*
X62614Y-44330D01*
X62647Y-44364D01*
X62711Y-44428D01*
X62755Y-44446D01*
X62803Y-44447D01*
X62847Y-44428D01*
X62881Y-44395D01*
X63043Y-44232D01*
X63063Y-44219D01*
X63412Y-43870D01*
X63512Y-43870D01*
X65529Y-45887D01*
X65584Y-45924D01*
X65649Y-45937D01*
X66760Y-45937D01*
X67990Y-47167D01*
X68045Y-47204D01*
X68045Y-47204D01*
X68110Y-47217D01*
X71555Y-47217D01*
X71620Y-47204D01*
X71620Y-47204D01*
X71675Y-47167D01*
X72103Y-46738D01*
X73204Y-46738D01*
X73204Y-46799D01*
X73223Y-46843D01*
X73256Y-46877D01*
X73300Y-46895D01*
X73348Y-46895D01*
X73840Y-46895D01*
X73863Y-46886D01*
X73863Y-46956D01*
X73885Y-47008D01*
X73924Y-47047D01*
X73975Y-47069D01*
X74031Y-47069D01*
X74382Y-47069D01*
X74417Y-47034D01*
X74417Y-47316D01*
X74410Y-47322D01*
X74368Y-47424D01*
X74368Y-47535D01*
X74410Y-47637D01*
X74488Y-47715D01*
X74590Y-47757D01*
X74700Y-47757D01*
X74802Y-47715D01*
X74880Y-47637D01*
X74923Y-47535D01*
X74923Y-47425D01*
X74923Y-54387D01*
X74739Y-54387D01*
X74739Y-52770D01*
X74599Y-52432D01*
X74340Y-52173D01*
X74002Y-52032D01*
X73636Y-52032D01*
X73298Y-52172D01*
X73039Y-52430D01*
X72899Y-52768D01*
X72898Y-53134D01*
X73038Y-53473D01*
X73297Y-53732D01*
X73635Y-53872D01*
X74001Y-53872D01*
X74339Y-53733D01*
X74598Y-53474D01*
X74738Y-53136D01*
X74739Y-52770D01*
X74739Y-54387D01*
X68776Y-54387D01*
X68776Y-50315D01*
X68716Y-50170D01*
X68605Y-50059D01*
X68460Y-49998D01*
X68303Y-49998D01*
X68158Y-50058D01*
X68047Y-50169D01*
X67986Y-50314D01*
X67986Y-50471D01*
X68046Y-50617D01*
X68157Y-50728D01*
X68302Y-50788D01*
X68460Y-50788D01*
X68605Y-50728D01*
X68716Y-50617D01*
X68776Y-50472D01*
X68776Y-50315D01*
X68776Y-54387D01*
X64052Y-54387D01*
X64052Y-50315D01*
X63992Y-50170D01*
X63881Y-50059D01*
X63736Y-49998D01*
X63579Y-49998D01*
X63434Y-50058D01*
X63322Y-50169D01*
X63262Y-50314D01*
X63262Y-50471D01*
X63322Y-50617D01*
X63433Y-50728D01*
X63578Y-50788D01*
X63735Y-50788D01*
X63880Y-50728D01*
X63992Y-50617D01*
X64052Y-50472D01*
X64052Y-50315D01*
X64052Y-54387D01*
X59524Y-54387D01*
X59524Y-50315D01*
X59464Y-50170D01*
X59353Y-50059D01*
X59208Y-49998D01*
X59051Y-49998D01*
X58906Y-50058D01*
X58795Y-50169D01*
X58734Y-50314D01*
X58734Y-50471D01*
X58794Y-50617D01*
X58905Y-50728D01*
X59051Y-50788D01*
X59208Y-50788D01*
X59353Y-50728D01*
X59464Y-50617D01*
X59524Y-50472D01*
X59524Y-50315D01*
X59524Y-54387D01*
X58014Y-54387D01*
X58014Y-52035D01*
X58014Y-51586D01*
X57997Y-51545D01*
X57997Y-50039D01*
X57972Y-49916D01*
X57903Y-49813D01*
X57505Y-49415D01*
X57401Y-49346D01*
X57279Y-49321D01*
X56970Y-49321D01*
X56956Y-49307D01*
X56811Y-49246D01*
X56654Y-49246D01*
X56508Y-49306D01*
X56410Y-49404D01*
X56123Y-49404D01*
X56123Y-48381D01*
X56105Y-48337D01*
X56072Y-48303D01*
X56027Y-48285D01*
X55980Y-48285D01*
X55000Y-48285D01*
X54980Y-48184D01*
X54911Y-48080D01*
X54242Y-47411D01*
X54138Y-47342D01*
X54015Y-47317D01*
X53893Y-47342D01*
X53789Y-47411D01*
X53720Y-47515D01*
X53698Y-47626D01*
X53626Y-47578D01*
X53503Y-47554D01*
X53381Y-47578D01*
X53277Y-47647D01*
X53208Y-47751D01*
X53183Y-47874D01*
X53207Y-47990D01*
X53139Y-47923D01*
X53035Y-47853D01*
X52913Y-47829D01*
X52790Y-47853D01*
X52687Y-47923D01*
X52679Y-47935D01*
X51249Y-46506D01*
X51146Y-46436D01*
X51044Y-46416D01*
X51023Y-46412D01*
X50984Y-46412D01*
X50867Y-46435D01*
X50867Y-43395D01*
X50550Y-43078D01*
X50521Y-43106D01*
X50232Y-43395D01*
X50270Y-43469D01*
X50451Y-43544D01*
X50648Y-43544D01*
X50829Y-43469D01*
X50867Y-43395D01*
X50867Y-46435D01*
X50861Y-46436D01*
X50757Y-46506D01*
X50688Y-46609D01*
X50664Y-46732D01*
X50688Y-46854D01*
X50757Y-46958D01*
X50861Y-47027D01*
X50867Y-47029D01*
X52600Y-48761D01*
X52539Y-48853D01*
X52514Y-48976D01*
X52539Y-49098D01*
X52608Y-49202D01*
X52814Y-49408D01*
X52712Y-49428D01*
X52608Y-49498D01*
X52539Y-49601D01*
X52514Y-49724D01*
X52539Y-49846D01*
X52608Y-49950D01*
X52712Y-50020D01*
X52834Y-50044D01*
X53246Y-50044D01*
X53246Y-50356D01*
X53190Y-50412D01*
X53194Y-50393D01*
X53169Y-50271D01*
X53100Y-50167D01*
X52996Y-50098D01*
X52874Y-50073D01*
X52751Y-50098D01*
X52647Y-50167D01*
X52411Y-50403D01*
X52342Y-50507D01*
X52317Y-50629D01*
X52317Y-51021D01*
X52274Y-51038D01*
X52241Y-51072D01*
X52222Y-51116D01*
X52222Y-51164D01*
X52222Y-51676D01*
X52241Y-51720D01*
X52274Y-51754D01*
X52290Y-51760D01*
X52263Y-51772D01*
X52224Y-51811D01*
X52202Y-51862D01*
X52202Y-52091D01*
X52237Y-52126D01*
X52617Y-52126D01*
X52617Y-52118D01*
X52657Y-52118D01*
X52657Y-52126D01*
X53037Y-52126D01*
X53072Y-52091D01*
X53072Y-51862D01*
X53051Y-51811D01*
X53012Y-51772D01*
X52985Y-51760D01*
X53000Y-51754D01*
X53034Y-51720D01*
X53052Y-51676D01*
X53052Y-51628D01*
X53052Y-51454D01*
X53344Y-51163D01*
X53389Y-51163D01*
X56027Y-51163D01*
X56071Y-51145D01*
X56105Y-51111D01*
X56123Y-51067D01*
X56123Y-51019D01*
X56123Y-50044D01*
X56649Y-50044D01*
X56649Y-50044D01*
X56688Y-50036D01*
X56810Y-50036D01*
X56955Y-49976D01*
X56970Y-49961D01*
X57146Y-49961D01*
X57450Y-50265D01*
X57554Y-50335D01*
X57677Y-50359D01*
X57799Y-50335D01*
X57903Y-50265D01*
X57972Y-50161D01*
X57997Y-50039D01*
X57997Y-51545D01*
X57992Y-51534D01*
X57953Y-51495D01*
X57901Y-51474D01*
X57846Y-51474D01*
X57732Y-51474D01*
X57697Y-51509D01*
X57697Y-51791D01*
X57979Y-51791D01*
X58014Y-51756D01*
X58014Y-51586D01*
X58014Y-52035D01*
X58014Y-51866D01*
X57979Y-51831D01*
X57697Y-51831D01*
X57697Y-52112D01*
X57732Y-52147D01*
X57846Y-52147D01*
X57901Y-52147D01*
X57953Y-52126D01*
X57992Y-52087D01*
X58014Y-52035D01*
X58014Y-54387D01*
X57994Y-54387D01*
X57994Y-52850D01*
X57994Y-52456D01*
X57975Y-52412D01*
X57942Y-52378D01*
X57897Y-52360D01*
X57850Y-52360D01*
X57657Y-52360D01*
X57657Y-52112D01*
X57657Y-51831D01*
X57657Y-51791D01*
X57657Y-51509D01*
X57622Y-51474D01*
X57508Y-51474D01*
X57452Y-51474D01*
X57400Y-51495D01*
X57361Y-51534D01*
X57340Y-51586D01*
X57340Y-51756D01*
X57375Y-51791D01*
X57657Y-51791D01*
X57657Y-51831D01*
X57375Y-51831D01*
X57340Y-51866D01*
X57340Y-52035D01*
X57361Y-52087D01*
X57400Y-52126D01*
X57452Y-52147D01*
X57508Y-52147D01*
X57622Y-52147D01*
X57657Y-52112D01*
X57657Y-52360D01*
X57456Y-52360D01*
X57412Y-52378D01*
X57378Y-52412D01*
X57360Y-52456D01*
X57360Y-52471D01*
X57089Y-52471D01*
X57067Y-52418D01*
X56956Y-52307D01*
X56811Y-52246D01*
X56654Y-52246D01*
X56508Y-52306D01*
X56397Y-52417D01*
X56337Y-52562D01*
X56337Y-52719D01*
X56397Y-52865D01*
X56508Y-52976D01*
X56653Y-53036D01*
X56810Y-53036D01*
X56955Y-52976D01*
X57066Y-52865D01*
X57089Y-52811D01*
X57360Y-52811D01*
X57360Y-52897D01*
X57378Y-52941D01*
X57412Y-52975D01*
X57456Y-52993D01*
X57504Y-52994D01*
X57897Y-52994D01*
X57941Y-52975D01*
X57975Y-52942D01*
X57993Y-52897D01*
X57994Y-52850D01*
X57994Y-54387D01*
X57627Y-54387D01*
X57627Y-53991D01*
X57627Y-53441D01*
X57609Y-53397D01*
X57575Y-53363D01*
X57531Y-53345D01*
X57483Y-53345D01*
X56933Y-53345D01*
X56889Y-53363D01*
X56855Y-53397D01*
X56837Y-53441D01*
X56837Y-53488D01*
X56837Y-54038D01*
X56855Y-54083D01*
X56889Y-54116D01*
X56933Y-54135D01*
X56981Y-54135D01*
X57531Y-54135D01*
X57575Y-54116D01*
X57608Y-54083D01*
X57627Y-54039D01*
X57627Y-53991D01*
X57627Y-54387D01*
X56647Y-54387D01*
X56647Y-53819D01*
X56646Y-53654D01*
X56585Y-53507D01*
X56520Y-53480D01*
X56492Y-53508D01*
X56492Y-53451D01*
X56464Y-53386D01*
X56311Y-53324D01*
X56146Y-53325D01*
X56025Y-53375D01*
X56025Y-52909D01*
X56025Y-51728D01*
X56007Y-51684D01*
X55973Y-51650D01*
X55929Y-51631D01*
X55881Y-51631D01*
X55251Y-51631D01*
X55207Y-51650D01*
X55173Y-51683D01*
X55155Y-51727D01*
X55155Y-51775D01*
X55155Y-52324D01*
X54234Y-53246D01*
X54234Y-52960D01*
X54234Y-51724D01*
X54213Y-51672D01*
X54173Y-51633D01*
X54122Y-51611D01*
X54066Y-51611D01*
X53834Y-51611D01*
X53799Y-51646D01*
X53799Y-52322D01*
X54199Y-52322D01*
X54234Y-52287D01*
X54234Y-51724D01*
X54234Y-52960D01*
X54234Y-52397D01*
X54199Y-52362D01*
X53799Y-52362D01*
X53799Y-53038D01*
X53834Y-53073D01*
X54066Y-53073D01*
X54122Y-53073D01*
X54173Y-53051D01*
X54213Y-53012D01*
X54234Y-52960D01*
X54234Y-53246D01*
X54155Y-53325D01*
X53835Y-53325D01*
X53791Y-53343D01*
X53759Y-53375D01*
X53759Y-53038D01*
X53759Y-52362D01*
X53759Y-52322D01*
X53759Y-51646D01*
X53724Y-51611D01*
X53492Y-51611D01*
X53436Y-51611D01*
X53385Y-51633D01*
X53345Y-51672D01*
X53324Y-51724D01*
X53324Y-52287D01*
X53359Y-52322D01*
X53759Y-52322D01*
X53759Y-52362D01*
X53359Y-52362D01*
X53324Y-52397D01*
X53324Y-52960D01*
X53345Y-53012D01*
X53385Y-53051D01*
X53436Y-53073D01*
X53492Y-53073D01*
X53724Y-53073D01*
X53759Y-53038D01*
X53759Y-53375D01*
X53757Y-53377D01*
X53750Y-53392D01*
X53739Y-53365D01*
X53700Y-53326D01*
X53648Y-53305D01*
X53420Y-53305D01*
X53385Y-53340D01*
X53385Y-53720D01*
X53393Y-53720D01*
X53393Y-53760D01*
X53385Y-53760D01*
X53385Y-54140D01*
X53420Y-54175D01*
X53648Y-54175D01*
X53700Y-54153D01*
X53739Y-54114D01*
X53750Y-54087D01*
X53757Y-54103D01*
X53791Y-54136D01*
X53835Y-54155D01*
X53882Y-54155D01*
X54394Y-54155D01*
X54439Y-54136D01*
X54472Y-54103D01*
X54490Y-54060D01*
X54842Y-54060D01*
X54964Y-54035D01*
X55068Y-53966D01*
X55138Y-53862D01*
X55162Y-53740D01*
X55138Y-53617D01*
X55068Y-53513D01*
X54964Y-53444D01*
X54945Y-53440D01*
X55332Y-53053D01*
X55929Y-53053D01*
X55973Y-53034D01*
X56007Y-53001D01*
X56025Y-52957D01*
X56025Y-52909D01*
X56025Y-53375D01*
X56000Y-53386D01*
X55972Y-53451D01*
X56232Y-53711D01*
X56492Y-53451D01*
X56492Y-53508D01*
X56260Y-53740D01*
X56520Y-54000D01*
X56585Y-53972D01*
X56647Y-53819D01*
X56647Y-54387D01*
X56492Y-54387D01*
X56492Y-54028D01*
X56232Y-53768D01*
X56203Y-53796D01*
X56203Y-53740D01*
X55944Y-53480D01*
X55878Y-53507D01*
X55816Y-53660D01*
X55817Y-53826D01*
X55878Y-53972D01*
X55944Y-54000D01*
X56203Y-53740D01*
X56203Y-53796D01*
X55972Y-54028D01*
X56000Y-54093D01*
X56153Y-54155D01*
X56318Y-54154D01*
X56464Y-54093D01*
X56492Y-54028D01*
X56492Y-54387D01*
X53345Y-54387D01*
X53345Y-54140D01*
X53345Y-53760D01*
X53345Y-53720D01*
X53345Y-53340D01*
X53310Y-53305D01*
X53081Y-53305D01*
X53072Y-53308D01*
X53072Y-52430D01*
X53072Y-52201D01*
X53037Y-52166D01*
X52657Y-52166D01*
X52657Y-52507D01*
X52692Y-52542D01*
X52905Y-52542D01*
X52960Y-52542D01*
X53012Y-52521D01*
X53051Y-52481D01*
X53072Y-52430D01*
X53072Y-53308D01*
X53029Y-53326D01*
X52990Y-53365D01*
X52969Y-53417D01*
X52969Y-53472D01*
X52969Y-53685D01*
X53004Y-53720D01*
X53345Y-53720D01*
X53345Y-53760D01*
X53004Y-53760D01*
X52969Y-53795D01*
X52969Y-54007D01*
X52969Y-54063D01*
X52990Y-54114D01*
X53029Y-54153D01*
X53081Y-54175D01*
X53310Y-54175D01*
X53345Y-54140D01*
X53345Y-54387D01*
X52621Y-54387D01*
X52621Y-54007D01*
X52621Y-53472D01*
X52621Y-53417D01*
X52617Y-53408D01*
X52617Y-52507D01*
X52617Y-52166D01*
X52237Y-52166D01*
X52202Y-52201D01*
X52202Y-52430D01*
X52224Y-52481D01*
X52263Y-52521D01*
X52314Y-52542D01*
X52370Y-52542D01*
X52582Y-52542D01*
X52617Y-52507D01*
X52617Y-53408D01*
X52600Y-53365D01*
X52560Y-53326D01*
X52509Y-53305D01*
X52280Y-53305D01*
X52245Y-53340D01*
X52245Y-53720D01*
X52586Y-53720D01*
X52621Y-53685D01*
X52621Y-53472D01*
X52621Y-54007D01*
X52621Y-53795D01*
X52586Y-53760D01*
X52245Y-53760D01*
X52245Y-54140D01*
X52280Y-54175D01*
X52509Y-54175D01*
X52560Y-54153D01*
X52600Y-54114D01*
X52621Y-54063D01*
X52621Y-54007D01*
X52621Y-54387D01*
X51120Y-54387D01*
X51143Y-54372D01*
X51360Y-54155D01*
X51755Y-54155D01*
X51799Y-54136D01*
X51833Y-54103D01*
X51839Y-54087D01*
X51850Y-54114D01*
X51890Y-54153D01*
X51941Y-54175D01*
X52170Y-54175D01*
X52205Y-54140D01*
X52205Y-53760D01*
X52197Y-53760D01*
X52197Y-53720D01*
X52205Y-53720D01*
X52205Y-53340D01*
X52170Y-53305D01*
X52029Y-53305D01*
X52029Y-51153D01*
X52029Y-48452D01*
X52029Y-48397D01*
X52008Y-48345D01*
X51968Y-48306D01*
X51917Y-48285D01*
X50566Y-48285D01*
X50531Y-48320D01*
X50531Y-49783D01*
X51994Y-49783D01*
X52029Y-49748D01*
X52029Y-48452D01*
X52029Y-51153D01*
X52029Y-49858D01*
X51994Y-49823D01*
X50531Y-49823D01*
X50531Y-51286D01*
X50566Y-51321D01*
X51917Y-51321D01*
X51968Y-51299D01*
X52008Y-51260D01*
X52029Y-51209D01*
X52029Y-51153D01*
X52029Y-53305D01*
X51941Y-53305D01*
X51890Y-53326D01*
X51850Y-53365D01*
X51839Y-53392D01*
X51833Y-53377D01*
X51799Y-53343D01*
X51795Y-53341D01*
X51795Y-53039D01*
X51814Y-53020D01*
X51832Y-52976D01*
X51832Y-52928D01*
X51832Y-51944D01*
X51814Y-51900D01*
X51780Y-51866D01*
X51736Y-51848D01*
X51688Y-51848D01*
X51098Y-51848D01*
X51054Y-51866D01*
X51020Y-51900D01*
X51002Y-51944D01*
X51002Y-51992D01*
X51002Y-52141D01*
X50881Y-52164D01*
X50777Y-52234D01*
X50491Y-52520D01*
X50491Y-51286D01*
X50491Y-49823D01*
X50491Y-49783D01*
X50491Y-48320D01*
X50456Y-48285D01*
X49106Y-48285D01*
X49054Y-48306D01*
X49015Y-48345D01*
X48993Y-48397D01*
X48993Y-48452D01*
X48993Y-49748D01*
X49028Y-49783D01*
X50491Y-49783D01*
X50491Y-49823D01*
X49028Y-49823D01*
X48993Y-49858D01*
X48993Y-51153D01*
X48993Y-51209D01*
X49015Y-51260D01*
X49054Y-51299D01*
X49106Y-51321D01*
X50456Y-51321D01*
X50491Y-51286D01*
X50491Y-52520D01*
X50364Y-52647D01*
X50294Y-52751D01*
X50270Y-52874D01*
X50294Y-52996D01*
X50364Y-53100D01*
X50468Y-53169D01*
X50590Y-53194D01*
X50713Y-53169D01*
X50816Y-53100D01*
X51002Y-52915D01*
X51002Y-52976D01*
X51020Y-53020D01*
X51053Y-53054D01*
X51098Y-53072D01*
X51145Y-53072D01*
X51155Y-53072D01*
X51155Y-53341D01*
X51151Y-53343D01*
X51117Y-53377D01*
X51099Y-53421D01*
X51099Y-53468D01*
X51099Y-53935D01*
X50953Y-54081D01*
X50802Y-54081D01*
X50810Y-54063D01*
X50810Y-54007D01*
X50810Y-53472D01*
X50810Y-53417D01*
X50788Y-53365D01*
X50749Y-53326D01*
X50698Y-53305D01*
X50469Y-53305D01*
X50434Y-53340D01*
X50434Y-53720D01*
X50775Y-53720D01*
X50810Y-53685D01*
X50810Y-53472D01*
X50810Y-54007D01*
X50810Y-53795D01*
X50775Y-53760D01*
X50434Y-53760D01*
X50434Y-53768D01*
X50394Y-53768D01*
X50394Y-53760D01*
X50386Y-53760D01*
X50386Y-53720D01*
X50394Y-53720D01*
X50394Y-53340D01*
X50359Y-53305D01*
X50130Y-53305D01*
X50079Y-53326D01*
X50039Y-53365D01*
X50028Y-53392D01*
X50022Y-53377D01*
X49988Y-53343D01*
X49944Y-53325D01*
X49926Y-53325D01*
X49926Y-53072D01*
X49969Y-53054D01*
X50003Y-53020D01*
X50021Y-52976D01*
X50021Y-52928D01*
X50021Y-51944D01*
X50003Y-51900D01*
X49969Y-51866D01*
X49925Y-51848D01*
X49877Y-51848D01*
X49287Y-51848D01*
X49243Y-51866D01*
X49209Y-51900D01*
X49197Y-51929D01*
X48750Y-51482D01*
X48750Y-49212D01*
X48689Y-49065D01*
X48577Y-48952D01*
X48430Y-48891D01*
X48271Y-48891D01*
X48124Y-48952D01*
X48011Y-49064D01*
X47950Y-49211D01*
X47950Y-49370D01*
X48011Y-49517D01*
X48123Y-49630D01*
X48270Y-49691D01*
X48429Y-49691D01*
X48576Y-49630D01*
X48689Y-49518D01*
X48750Y-49371D01*
X48750Y-49212D01*
X48750Y-51482D01*
X48583Y-51316D01*
X48499Y-51259D01*
X48435Y-51247D01*
X48435Y-50591D01*
X48434Y-50425D01*
X48373Y-50279D01*
X48307Y-50251D01*
X48279Y-50280D01*
X48279Y-50223D01*
X48251Y-50158D01*
X48098Y-50096D01*
X47933Y-50097D01*
X47800Y-50152D01*
X47800Y-43401D01*
X47800Y-38901D01*
X47686Y-38625D01*
X47475Y-38414D01*
X47199Y-38300D01*
X46901Y-38299D01*
X46625Y-38413D01*
X46414Y-38624D01*
X46392Y-38677D01*
X46392Y-36628D01*
X46252Y-36290D01*
X45994Y-36031D01*
X45656Y-35891D01*
X45290Y-35890D01*
X44951Y-36030D01*
X44692Y-36289D01*
X44552Y-36627D01*
X44552Y-36993D01*
X44692Y-37331D01*
X44950Y-37590D01*
X45288Y-37730D01*
X45654Y-37731D01*
X45992Y-37591D01*
X46251Y-37332D01*
X46392Y-36994D01*
X46392Y-36628D01*
X46392Y-38677D01*
X46300Y-38900D01*
X46299Y-39198D01*
X46413Y-39474D01*
X46624Y-39685D01*
X46900Y-39799D01*
X47198Y-39800D01*
X47474Y-39686D01*
X47685Y-39475D01*
X47799Y-39199D01*
X47800Y-38901D01*
X47800Y-43401D01*
X47686Y-43125D01*
X47475Y-42914D01*
X47199Y-42800D01*
X46901Y-42799D01*
X46625Y-42913D01*
X46414Y-43124D01*
X46300Y-43400D01*
X46299Y-43698D01*
X46413Y-43974D01*
X46624Y-44185D01*
X46900Y-44299D01*
X47198Y-44300D01*
X47474Y-44186D01*
X47685Y-43975D01*
X47799Y-43699D01*
X47800Y-43401D01*
X47800Y-50152D01*
X47797Y-50154D01*
X47797Y-46291D01*
X47797Y-45834D01*
X47767Y-45683D01*
X47681Y-45554D01*
X47552Y-45468D01*
X47401Y-45438D01*
X47250Y-45468D01*
X47121Y-45554D01*
X47036Y-45683D01*
X47005Y-45834D01*
X47005Y-46291D01*
X47036Y-46442D01*
X47121Y-46571D01*
X47250Y-46656D01*
X47401Y-46687D01*
X47552Y-46656D01*
X47681Y-46571D01*
X47767Y-46442D01*
X47797Y-46291D01*
X47797Y-50154D01*
X47787Y-50158D01*
X47759Y-50223D01*
X48019Y-50483D01*
X48279Y-50223D01*
X48279Y-50280D01*
X48047Y-50511D01*
X48307Y-50771D01*
X48373Y-50744D01*
X48435Y-50591D01*
X48435Y-51247D01*
X48400Y-51240D01*
X48279Y-51240D01*
X48279Y-50800D01*
X48019Y-50540D01*
X47991Y-50568D01*
X47991Y-50511D01*
X47731Y-50251D01*
X47665Y-50279D01*
X47604Y-50432D01*
X47605Y-50597D01*
X47665Y-50744D01*
X47731Y-50771D01*
X47991Y-50511D01*
X47991Y-50568D01*
X47759Y-50800D01*
X47787Y-50865D01*
X47940Y-50927D01*
X48105Y-50926D01*
X48251Y-50865D01*
X48279Y-50800D01*
X48279Y-51240D01*
X47507Y-51240D01*
X47451Y-51183D01*
X47451Y-47913D01*
X47449Y-47748D01*
X47389Y-47602D01*
X47323Y-47574D01*
X47295Y-47602D01*
X47295Y-47546D01*
X47267Y-47480D01*
X47114Y-47418D01*
X46949Y-47420D01*
X46812Y-47476D01*
X46812Y-46291D01*
X46812Y-45834D01*
X46782Y-45683D01*
X46697Y-45554D01*
X46568Y-45468D01*
X46417Y-45438D01*
X46265Y-45468D01*
X46137Y-45554D01*
X46051Y-45683D01*
X46021Y-45834D01*
X46021Y-46291D01*
X46051Y-46442D01*
X46137Y-46571D01*
X46176Y-46597D01*
X45922Y-46851D01*
X45887Y-46903D01*
X45875Y-46964D01*
X45875Y-47439D01*
X45828Y-47439D01*
X45828Y-46291D01*
X45828Y-45834D01*
X45798Y-45683D01*
X45712Y-45554D01*
X45584Y-45468D01*
X45433Y-45438D01*
X45281Y-45468D01*
X45153Y-45554D01*
X45067Y-45683D01*
X45037Y-45834D01*
X45037Y-46291D01*
X45067Y-46442D01*
X45153Y-46571D01*
X45281Y-46656D01*
X45433Y-46687D01*
X45584Y-46656D01*
X45712Y-46571D01*
X45798Y-46442D01*
X45828Y-46291D01*
X45828Y-47439D01*
X45736Y-47439D01*
X45692Y-47457D01*
X45658Y-47491D01*
X45640Y-47535D01*
X45640Y-47583D01*
X45640Y-48133D01*
X45658Y-48177D01*
X45692Y-48211D01*
X45736Y-48229D01*
X45784Y-48229D01*
X46334Y-48229D01*
X46378Y-48211D01*
X46412Y-48177D01*
X46430Y-48133D01*
X46430Y-48085D01*
X46430Y-47535D01*
X46412Y-47491D01*
X46378Y-47457D01*
X46334Y-47439D01*
X46286Y-47439D01*
X46195Y-47439D01*
X46195Y-47030D01*
X46530Y-46695D01*
X46554Y-46659D01*
X46568Y-46656D01*
X46697Y-46571D01*
X46782Y-46442D01*
X46812Y-46291D01*
X46812Y-47476D01*
X46803Y-47480D01*
X46775Y-47546D01*
X47035Y-47806D01*
X47295Y-47546D01*
X47295Y-47602D01*
X47063Y-47834D01*
X47323Y-48094D01*
X47389Y-48066D01*
X47451Y-47913D01*
X47451Y-51183D01*
X47279Y-51011D01*
X47279Y-50906D01*
X47318Y-50906D01*
X47362Y-50888D01*
X47396Y-50854D01*
X47414Y-50810D01*
X47414Y-50763D01*
X47414Y-50213D01*
X47396Y-50168D01*
X47362Y-50135D01*
X47318Y-50116D01*
X47295Y-50116D01*
X47295Y-48122D01*
X47035Y-47862D01*
X47007Y-47891D01*
X47007Y-47834D01*
X46747Y-47574D01*
X46681Y-47602D01*
X46619Y-47755D01*
X46621Y-47920D01*
X46681Y-48066D01*
X46747Y-48094D01*
X47007Y-47834D01*
X47007Y-47891D01*
X46775Y-48122D01*
X46803Y-48188D01*
X46956Y-48250D01*
X47121Y-48248D01*
X47267Y-48188D01*
X47295Y-48122D01*
X47295Y-50116D01*
X47270Y-50116D01*
X46720Y-50116D01*
X46676Y-50135D01*
X46643Y-50168D01*
X46624Y-50212D01*
X46624Y-50251D01*
X46091Y-50251D01*
X46077Y-50218D01*
X46044Y-50185D01*
X46000Y-50166D01*
X45952Y-50166D01*
X45750Y-50166D01*
X45750Y-49547D01*
X45750Y-48987D01*
X45732Y-48943D01*
X45698Y-48909D01*
X45654Y-48891D01*
X45606Y-48891D01*
X45046Y-48891D01*
X45002Y-48909D01*
X44968Y-48943D01*
X44950Y-48987D01*
X44950Y-49035D01*
X44950Y-49595D01*
X44968Y-49639D01*
X45002Y-49673D01*
X45005Y-49674D01*
X44991Y-49748D01*
X44991Y-50511D01*
X45006Y-50587D01*
X45006Y-50760D01*
X45024Y-50804D01*
X45058Y-50838D01*
X45102Y-50856D01*
X45149Y-50856D01*
X45399Y-50856D01*
X45444Y-50838D01*
X45477Y-50804D01*
X45496Y-50760D01*
X45496Y-50713D01*
X45496Y-50587D01*
X45511Y-50511D01*
X45511Y-49856D01*
X45534Y-49833D01*
X45534Y-49833D01*
X45571Y-49777D01*
X45590Y-49749D01*
X45590Y-49749D01*
X45602Y-49691D01*
X45654Y-49691D01*
X45698Y-49673D01*
X45732Y-49639D01*
X45750Y-49595D01*
X45750Y-49547D01*
X45750Y-50166D01*
X45702Y-50166D01*
X45658Y-50185D01*
X45624Y-50218D01*
X45606Y-50262D01*
X45606Y-50310D01*
X45606Y-50436D01*
X45591Y-50511D01*
X45606Y-50587D01*
X45606Y-50760D01*
X45624Y-50804D01*
X45658Y-50838D01*
X45702Y-50856D01*
X45749Y-50856D01*
X45999Y-50856D01*
X46044Y-50838D01*
X46077Y-50804D01*
X46091Y-50771D01*
X46624Y-50771D01*
X46624Y-50810D01*
X46642Y-50854D01*
X46676Y-50888D01*
X46720Y-50906D01*
X46759Y-50906D01*
X46759Y-51119D01*
X46779Y-51219D01*
X46835Y-51303D01*
X47216Y-51683D01*
X47216Y-51683D01*
X47300Y-51740D01*
X47400Y-51760D01*
X48292Y-51760D01*
X49176Y-52644D01*
X49191Y-52653D01*
X49191Y-52976D01*
X49209Y-53020D01*
X49242Y-53054D01*
X49286Y-53072D01*
X49286Y-53682D01*
X49288Y-53692D01*
X49288Y-54058D01*
X49297Y-54081D01*
X48957Y-54081D01*
X48683Y-53700D01*
X48683Y-52492D01*
X48682Y-52327D01*
X48621Y-52181D01*
X48555Y-52153D01*
X48527Y-52181D01*
X48527Y-52125D01*
X48499Y-52059D01*
X48346Y-51997D01*
X48181Y-51999D01*
X48035Y-52059D01*
X48007Y-52125D01*
X48267Y-52385D01*
X48527Y-52125D01*
X48527Y-52181D01*
X48296Y-52413D01*
X48555Y-52673D01*
X48621Y-52645D01*
X48683Y-52492D01*
X48683Y-53700D01*
X48662Y-53671D01*
X48662Y-53664D01*
X48662Y-53114D01*
X48644Y-53070D01*
X48610Y-53036D01*
X48566Y-53018D01*
X48527Y-53018D01*
X48527Y-52701D01*
X48267Y-52441D01*
X48239Y-52469D01*
X48239Y-52413D01*
X47979Y-52153D01*
X47914Y-52181D01*
X47852Y-52334D01*
X47853Y-52499D01*
X47914Y-52645D01*
X47979Y-52673D01*
X48239Y-52413D01*
X48239Y-52469D01*
X48007Y-52701D01*
X48035Y-52767D01*
X48188Y-52829D01*
X48353Y-52827D01*
X48499Y-52767D01*
X48527Y-52701D01*
X48527Y-53018D01*
X48518Y-53018D01*
X47968Y-53018D01*
X47924Y-53036D01*
X47891Y-53070D01*
X47872Y-53114D01*
X47872Y-53162D01*
X47872Y-53712D01*
X47890Y-53756D01*
X47924Y-53790D01*
X47968Y-53808D01*
X48016Y-53808D01*
X48342Y-53808D01*
X48732Y-54351D01*
X48741Y-54360D01*
X48749Y-54372D01*
X48767Y-54383D01*
X48771Y-54387D01*
X46392Y-54387D01*
X46392Y-52770D01*
X46252Y-52432D01*
X45994Y-52173D01*
X45656Y-52032D01*
X45290Y-52032D01*
X44951Y-52172D01*
X44692Y-52430D01*
X44552Y-52768D01*
X44552Y-53134D01*
X44692Y-53473D01*
X44950Y-53732D01*
X45288Y-53872D01*
X45654Y-53872D01*
X45992Y-53733D01*
X46251Y-53474D01*
X46392Y-53136D01*
X46392Y-52770D01*
X46392Y-54387D01*
X44037Y-54387D01*
X44037Y-35375D01*
X75254Y-35375D01*
X75254Y-54387D01*
X75254Y-54387D01*
G37*
G54D45*
X75254Y-54387D02*
X75010Y-54387D01*
X75010Y-46956D01*
X75010Y-46507D01*
X75010Y-41208D01*
X75010Y-40759D01*
X74988Y-40708D01*
X74949Y-40668D01*
X74923Y-40657D01*
X74923Y-38330D01*
X74881Y-38228D01*
X74803Y-38150D01*
X74720Y-38116D01*
X74720Y-36417D01*
X74580Y-36079D01*
X74321Y-35820D01*
X73983Y-35680D01*
X73617Y-35679D01*
X73279Y-35819D01*
X73020Y-36078D01*
X72880Y-36416D01*
X72879Y-36782D01*
X73019Y-37120D01*
X73278Y-37379D01*
X73616Y-37519D01*
X73982Y-37520D01*
X74320Y-37380D01*
X74579Y-37121D01*
X74719Y-36783D01*
X74720Y-36417D01*
X74720Y-38116D01*
X74701Y-38108D01*
X74590Y-38108D01*
X74488Y-38150D01*
X74410Y-38228D01*
X74368Y-38330D01*
X74368Y-38440D01*
X74410Y-38542D01*
X74488Y-38620D01*
X74590Y-38663D01*
X74700Y-38663D01*
X74802Y-38621D01*
X74880Y-38543D01*
X74923Y-38441D01*
X74923Y-38330D01*
X74923Y-40657D01*
X74898Y-40647D01*
X74842Y-40647D01*
X74432Y-40647D01*
X74397Y-40682D01*
X74397Y-40964D01*
X74975Y-40964D01*
X75010Y-40929D01*
X75010Y-40759D01*
X75010Y-41208D01*
X75010Y-41039D01*
X74975Y-41004D01*
X74397Y-41004D01*
X74397Y-41286D01*
X74432Y-41321D01*
X74842Y-41321D01*
X74898Y-41321D01*
X74949Y-41299D01*
X74988Y-41260D01*
X75010Y-41208D01*
X75010Y-46507D01*
X74988Y-46456D01*
X74949Y-46416D01*
X74898Y-46395D01*
X74842Y-46395D01*
X74492Y-46395D01*
X74457Y-46430D01*
X74457Y-46712D01*
X74975Y-46712D01*
X75010Y-46677D01*
X75010Y-46507D01*
X75010Y-46956D01*
X75010Y-46787D01*
X74975Y-46752D01*
X74457Y-46752D01*
X74457Y-47034D01*
X74492Y-47069D01*
X74842Y-47069D01*
X74898Y-47069D01*
X74949Y-47047D01*
X74988Y-47008D01*
X75010Y-46956D01*
X75010Y-54387D01*
X75000Y-54387D01*
X74923Y-54387D01*
X74923Y-47425D01*
X74881Y-47323D01*
X74803Y-47245D01*
X74701Y-47202D01*
X74590Y-47202D01*
X74488Y-47244D01*
X74417Y-47316D01*
X74417Y-47034D01*
X74417Y-46752D01*
X74409Y-46752D01*
X74409Y-46712D01*
X74417Y-46712D01*
X74417Y-46430D01*
X74382Y-46395D01*
X74357Y-46395D01*
X74357Y-41286D01*
X74357Y-41004D01*
X74357Y-40964D01*
X74357Y-40682D01*
X74322Y-40647D01*
X74027Y-40647D01*
X74027Y-39321D01*
X74027Y-39173D01*
X74027Y-39133D01*
X74027Y-38985D01*
X73983Y-38802D01*
X73871Y-38649D01*
X73710Y-38550D01*
X73638Y-38530D01*
X73563Y-38556D01*
X73563Y-39133D01*
X74027Y-39133D01*
X74027Y-39173D01*
X73563Y-39173D01*
X73563Y-39750D01*
X73638Y-39776D01*
X73710Y-39756D01*
X73871Y-39657D01*
X73983Y-39505D01*
X74027Y-39321D01*
X74027Y-40647D01*
X73913Y-40647D01*
X73857Y-40647D01*
X73806Y-40668D01*
X73767Y-40708D01*
X73745Y-40759D01*
X73745Y-40929D01*
X73780Y-40964D01*
X74357Y-40964D01*
X74357Y-41004D01*
X73780Y-41004D01*
X73745Y-41039D01*
X73745Y-41208D01*
X73767Y-41260D01*
X73806Y-41299D01*
X73857Y-41321D01*
X73913Y-41321D01*
X74322Y-41321D01*
X74357Y-41286D01*
X74357Y-46395D01*
X74031Y-46395D01*
X73975Y-46395D01*
X73936Y-46411D01*
X73936Y-46338D01*
X73918Y-46294D01*
X73884Y-46260D01*
X73840Y-46242D01*
X73793Y-46242D01*
X73523Y-46242D01*
X73523Y-39750D01*
X73523Y-39173D01*
X73523Y-39133D01*
X73523Y-38556D01*
X73447Y-38530D01*
X73376Y-38550D01*
X73214Y-38649D01*
X73103Y-38802D01*
X73058Y-38985D01*
X73058Y-39133D01*
X73523Y-39133D01*
X73523Y-39173D01*
X73058Y-39173D01*
X73058Y-39321D01*
X73103Y-39505D01*
X73214Y-39657D01*
X73376Y-39756D01*
X73447Y-39776D01*
X73523Y-39750D01*
X73523Y-46242D01*
X73301Y-46242D01*
X73256Y-46260D01*
X73223Y-46294D01*
X73204Y-46338D01*
X73204Y-46385D01*
X73204Y-46398D01*
X72285Y-46398D01*
X72285Y-36395D01*
X72284Y-36202D01*
X72211Y-36025D01*
X72138Y-35989D01*
X72110Y-36017D01*
X72110Y-35961D01*
X72074Y-35888D01*
X71895Y-35814D01*
X71702Y-35815D01*
X71525Y-35888D01*
X71489Y-35961D01*
X71800Y-36271D01*
X72110Y-35961D01*
X72110Y-36017D01*
X71828Y-36300D01*
X72138Y-36610D01*
X72211Y-36574D01*
X72285Y-36395D01*
X72285Y-46398D01*
X72110Y-46398D01*
X72110Y-36638D01*
X71800Y-36328D01*
X71794Y-36333D01*
X71766Y-36305D01*
X71771Y-36300D01*
X71461Y-35989D01*
X71388Y-36025D01*
X71314Y-36204D01*
X71315Y-36397D01*
X71380Y-36553D01*
X71251Y-36425D01*
X71264Y-36392D01*
X71265Y-36207D01*
X71194Y-36036D01*
X71063Y-35906D01*
X70892Y-35835D01*
X70707Y-35834D01*
X70536Y-35905D01*
X70406Y-36036D01*
X70335Y-36207D01*
X70334Y-36392D01*
X70405Y-36563D01*
X70536Y-36693D01*
X70707Y-36764D01*
X70892Y-36765D01*
X71063Y-36694D01*
X71065Y-36691D01*
X71458Y-37084D01*
X71458Y-37158D01*
X71394Y-37184D01*
X71283Y-37295D01*
X71223Y-37440D01*
X71223Y-37597D01*
X71283Y-37743D01*
X71394Y-37854D01*
X71539Y-37914D01*
X71696Y-37914D01*
X71841Y-37854D01*
X71952Y-37743D01*
X72013Y-37598D01*
X72013Y-37441D01*
X71953Y-37296D01*
X71842Y-37185D01*
X71778Y-37158D01*
X71778Y-37018D01*
X71765Y-36956D01*
X71731Y-36904D01*
X71731Y-36904D01*
X71546Y-36719D01*
X71704Y-36785D01*
X71897Y-36784D01*
X72074Y-36711D01*
X72110Y-36638D01*
X72110Y-46398D01*
X72033Y-46398D01*
X71968Y-46411D01*
X71913Y-46448D01*
X71913Y-46448D01*
X71484Y-46877D01*
X70320Y-46877D01*
X70343Y-46854D01*
X70364Y-46803D01*
X70364Y-46334D01*
X70343Y-46283D01*
X70303Y-46243D01*
X70252Y-46222D01*
X70196Y-46222D01*
X70033Y-46222D01*
X69998Y-46257D01*
X69998Y-46548D01*
X70329Y-46548D01*
X70364Y-46513D01*
X70364Y-46334D01*
X70364Y-46803D01*
X70364Y-46623D01*
X70329Y-46588D01*
X69998Y-46588D01*
X69998Y-46596D01*
X69958Y-46596D01*
X69958Y-46588D01*
X69950Y-46588D01*
X69950Y-46548D01*
X69958Y-46548D01*
X69958Y-46257D01*
X69923Y-46222D01*
X69760Y-46222D01*
X69704Y-46222D01*
X69659Y-46240D01*
X69659Y-45995D01*
X69638Y-45944D01*
X69634Y-45940D01*
X69639Y-45929D01*
X69639Y-45881D01*
X69639Y-45566D01*
X69625Y-45531D01*
X69639Y-45496D01*
X69639Y-45448D01*
X69639Y-45133D01*
X69634Y-45122D01*
X69638Y-45118D01*
X69659Y-45067D01*
X69659Y-44936D01*
X69624Y-44901D01*
X69311Y-44901D01*
X69311Y-44909D01*
X69271Y-44909D01*
X69271Y-44901D01*
X68957Y-44901D01*
X68922Y-44936D01*
X68922Y-45067D01*
X68944Y-45118D01*
X68947Y-45122D01*
X68943Y-45133D01*
X68943Y-45144D01*
X65621Y-45144D01*
X65095Y-44618D01*
X68942Y-44618D01*
X68942Y-44630D01*
X68947Y-44641D01*
X68944Y-44645D01*
X68922Y-44696D01*
X68922Y-44826D01*
X68957Y-44861D01*
X69271Y-44861D01*
X69271Y-44854D01*
X69311Y-44854D01*
X69311Y-44861D01*
X69624Y-44861D01*
X69659Y-44826D01*
X69659Y-44696D01*
X69638Y-44645D01*
X69634Y-44641D01*
X69639Y-44630D01*
X69639Y-44582D01*
X69639Y-44267D01*
X69625Y-44232D01*
X69639Y-44197D01*
X69639Y-44185D01*
X69774Y-44185D01*
X69789Y-44222D01*
X69872Y-44305D01*
X69980Y-44350D01*
X70097Y-44350D01*
X70206Y-44305D01*
X70289Y-44222D01*
X70334Y-44114D01*
X70334Y-43996D01*
X70289Y-43888D01*
X70206Y-43805D01*
X70098Y-43760D01*
X69980Y-43760D01*
X69872Y-43804D01*
X69845Y-43831D01*
X69845Y-39444D01*
X69845Y-38854D01*
X69827Y-38810D01*
X69793Y-38776D01*
X69749Y-38758D01*
X69701Y-38758D01*
X69639Y-38758D01*
X69639Y-38647D01*
X69646Y-38637D01*
X69667Y-38531D01*
X69667Y-38239D01*
X69646Y-38133D01*
X69585Y-38043D01*
X69495Y-37983D01*
X69389Y-37962D01*
X69283Y-37983D01*
X69193Y-38043D01*
X69133Y-38133D01*
X69112Y-38239D01*
X69112Y-38531D01*
X69133Y-38637D01*
X69193Y-38727D01*
X69238Y-38758D01*
X69189Y-38758D01*
X69145Y-38776D01*
X69111Y-38810D01*
X69094Y-38851D01*
X69077Y-38810D01*
X69043Y-38776D01*
X68999Y-38758D01*
X68951Y-38758D01*
X68950Y-38758D01*
X68995Y-38727D01*
X69055Y-38637D01*
X69076Y-38531D01*
X69076Y-38239D01*
X69055Y-38133D01*
X68995Y-38043D01*
X68905Y-37983D01*
X68799Y-37962D01*
X68693Y-37983D01*
X68603Y-38043D01*
X68542Y-38133D01*
X68521Y-38239D01*
X68521Y-38531D01*
X68542Y-38637D01*
X68549Y-38647D01*
X68549Y-38758D01*
X68486Y-38758D01*
X68486Y-38531D01*
X68486Y-38239D01*
X68465Y-38133D01*
X68404Y-38043D01*
X68314Y-37983D01*
X68208Y-37962D01*
X68102Y-37983D01*
X68012Y-38043D01*
X67952Y-38133D01*
X67931Y-38239D01*
X67931Y-38531D01*
X67952Y-38637D01*
X67991Y-38696D01*
X67930Y-38758D01*
X67769Y-38758D01*
X67814Y-38727D01*
X67874Y-38637D01*
X67895Y-38531D01*
X67895Y-38239D01*
X67874Y-38133D01*
X67814Y-38043D01*
X67724Y-37983D01*
X67618Y-37962D01*
X67511Y-37983D01*
X67421Y-38043D01*
X67361Y-38133D01*
X67340Y-38239D01*
X67340Y-38531D01*
X67361Y-38637D01*
X67421Y-38727D01*
X67451Y-38747D01*
X67428Y-38738D01*
X67231Y-38738D01*
X67294Y-38655D01*
X67325Y-38543D01*
X67325Y-38405D01*
X67325Y-38365D01*
X67325Y-38228D01*
X67294Y-38115D01*
X67223Y-38023D01*
X67122Y-37965D01*
X67093Y-37958D01*
X67047Y-37986D01*
X67047Y-38365D01*
X67325Y-38365D01*
X67325Y-38405D01*
X67047Y-38405D01*
X67047Y-38413D01*
X67007Y-38413D01*
X67007Y-38405D01*
X67007Y-38365D01*
X67007Y-37986D01*
X66961Y-37958D01*
X66932Y-37965D01*
X66831Y-38023D01*
X66760Y-38115D01*
X66730Y-38228D01*
X66730Y-38365D01*
X67007Y-38365D01*
X67007Y-38405D01*
X66730Y-38405D01*
X66730Y-38543D01*
X66760Y-38655D01*
X66831Y-38748D01*
X66833Y-38749D01*
X66809Y-38759D01*
X66770Y-38798D01*
X66748Y-38850D01*
X66748Y-38905D01*
X66748Y-39118D01*
X66783Y-39153D01*
X67124Y-39153D01*
X67124Y-39145D01*
X67164Y-39145D01*
X67164Y-39153D01*
X67172Y-39153D01*
X67172Y-39193D01*
X67164Y-39193D01*
X67164Y-39573D01*
X67199Y-39608D01*
X67428Y-39608D01*
X67479Y-39586D01*
X67519Y-39547D01*
X67530Y-39520D01*
X67536Y-39536D01*
X67570Y-39569D01*
X67614Y-39588D01*
X67662Y-39588D01*
X68174Y-39588D01*
X68218Y-39570D01*
X68252Y-39536D01*
X68270Y-39492D01*
X68270Y-39444D01*
X68270Y-38898D01*
X68328Y-38840D01*
X68328Y-38840D01*
X68328Y-38840D01*
X68365Y-38785D01*
X68372Y-38749D01*
X68404Y-38727D01*
X68465Y-38637D01*
X68486Y-38531D01*
X68486Y-38758D01*
X68439Y-38758D01*
X68395Y-38776D01*
X68361Y-38810D01*
X68343Y-38854D01*
X68343Y-38901D01*
X68343Y-39491D01*
X68361Y-39536D01*
X68395Y-39569D01*
X68439Y-39588D01*
X68487Y-39588D01*
X68999Y-39588D01*
X69043Y-39570D01*
X69077Y-39536D01*
X69094Y-39494D01*
X69111Y-39536D01*
X69145Y-39569D01*
X69189Y-39588D01*
X69237Y-39588D01*
X69749Y-39588D01*
X69793Y-39570D01*
X69827Y-39536D01*
X69845Y-39492D01*
X69845Y-39444D01*
X69845Y-43831D01*
X69831Y-43845D01*
X69659Y-43845D01*
X69659Y-41913D01*
X69659Y-41070D01*
X69638Y-41019D01*
X69599Y-40979D01*
X69547Y-40958D01*
X69491Y-40958D01*
X69346Y-40958D01*
X69311Y-40993D01*
X69311Y-41472D01*
X69624Y-41472D01*
X69659Y-41437D01*
X69659Y-41070D01*
X69659Y-41913D01*
X69659Y-41547D01*
X69624Y-41512D01*
X69311Y-41512D01*
X69311Y-41990D01*
X69346Y-42025D01*
X69491Y-42025D01*
X69547Y-42025D01*
X69599Y-42004D01*
X69638Y-41965D01*
X69659Y-41913D01*
X69659Y-43845D01*
X69639Y-43845D01*
X69639Y-43834D01*
X69625Y-43799D01*
X69639Y-43764D01*
X69639Y-43716D01*
X69639Y-43401D01*
X69625Y-43366D01*
X69639Y-43331D01*
X69639Y-43283D01*
X69639Y-42968D01*
X69625Y-42933D01*
X69639Y-42897D01*
X69639Y-42850D01*
X69639Y-42535D01*
X69621Y-42491D01*
X69587Y-42457D01*
X69543Y-42439D01*
X69495Y-42439D01*
X69271Y-42439D01*
X69271Y-41990D01*
X69271Y-41512D01*
X69271Y-41472D01*
X69271Y-40993D01*
X69236Y-40958D01*
X69090Y-40958D01*
X69035Y-40958D01*
X68983Y-40979D01*
X68944Y-41019D01*
X68922Y-41070D01*
X68922Y-41437D01*
X68957Y-41472D01*
X69271Y-41472D01*
X69271Y-41512D01*
X68957Y-41512D01*
X68922Y-41547D01*
X68922Y-41913D01*
X68944Y-41965D01*
X68983Y-42004D01*
X69035Y-42025D01*
X69090Y-42025D01*
X69236Y-42025D01*
X69271Y-41990D01*
X69271Y-42439D01*
X69039Y-42439D01*
X68995Y-42457D01*
X68961Y-42490D01*
X68943Y-42535D01*
X68942Y-42582D01*
X68942Y-42897D01*
X68957Y-42933D01*
X68943Y-42968D01*
X68943Y-42979D01*
X68808Y-42979D01*
X68793Y-42943D01*
X68710Y-42860D01*
X68602Y-42815D01*
X68484Y-42815D01*
X68376Y-42860D01*
X68293Y-42942D01*
X68248Y-43051D01*
X68248Y-43168D01*
X68293Y-43277D01*
X68375Y-43360D01*
X68484Y-43405D01*
X68601Y-43405D01*
X68710Y-43360D01*
X68751Y-43319D01*
X68942Y-43319D01*
X68942Y-43330D01*
X68957Y-43366D01*
X68943Y-43401D01*
X68943Y-43412D01*
X67124Y-43412D01*
X67124Y-39573D01*
X67124Y-39193D01*
X66783Y-39193D01*
X66748Y-39228D01*
X66748Y-39440D01*
X66748Y-39496D01*
X66770Y-39547D01*
X66809Y-39586D01*
X66860Y-39608D01*
X67089Y-39608D01*
X67124Y-39573D01*
X67124Y-43412D01*
X66970Y-43412D01*
X66970Y-43149D01*
X66970Y-42858D01*
X66952Y-42814D01*
X66918Y-42780D01*
X66912Y-42777D01*
X66918Y-42775D01*
X66952Y-42741D01*
X66970Y-42697D01*
X66970Y-42649D01*
X66970Y-42358D01*
X66952Y-42314D01*
X66918Y-42280D01*
X66912Y-42277D01*
X66918Y-42275D01*
X66952Y-42241D01*
X66970Y-42197D01*
X66970Y-42149D01*
X66970Y-41858D01*
X66952Y-41814D01*
X66918Y-41780D01*
X66912Y-41777D01*
X66918Y-41775D01*
X66952Y-41741D01*
X66970Y-41697D01*
X66970Y-41649D01*
X66970Y-41358D01*
X66952Y-41314D01*
X66918Y-41280D01*
X66912Y-41277D01*
X66918Y-41275D01*
X66952Y-41241D01*
X66970Y-41197D01*
X66970Y-41149D01*
X66970Y-40858D01*
X66952Y-40814D01*
X66918Y-40780D01*
X66874Y-40761D01*
X66826Y-40761D01*
X66098Y-40761D01*
X66054Y-40780D01*
X66020Y-40813D01*
X66002Y-40857D01*
X65979Y-40857D01*
X65915Y-40793D01*
X65806Y-40748D01*
X65689Y-40748D01*
X65581Y-40793D01*
X65570Y-40803D01*
X65570Y-40414D01*
X65525Y-40305D01*
X65442Y-40222D01*
X65334Y-40177D01*
X65217Y-40177D01*
X65108Y-40222D01*
X65025Y-40305D01*
X64980Y-40413D01*
X64980Y-40470D01*
X64689Y-40761D01*
X64425Y-40761D01*
X64380Y-40780D01*
X64347Y-40813D01*
X64328Y-40857D01*
X64328Y-40905D01*
X64328Y-41196D01*
X64347Y-41241D01*
X64369Y-41263D01*
X64330Y-41302D01*
X64308Y-41354D01*
X64308Y-41472D01*
X64343Y-41507D01*
X64792Y-41507D01*
X64792Y-41499D01*
X64832Y-41499D01*
X64832Y-41507D01*
X65282Y-41507D01*
X65317Y-41472D01*
X65317Y-41354D01*
X65295Y-41302D01*
X65256Y-41263D01*
X65278Y-41241D01*
X65297Y-41197D01*
X65297Y-41149D01*
X65297Y-40858D01*
X65278Y-40814D01*
X65255Y-40790D01*
X65277Y-40767D01*
X65334Y-40767D01*
X65442Y-40722D01*
X65525Y-40639D01*
X65570Y-40531D01*
X65570Y-40414D01*
X65570Y-40803D01*
X65498Y-40875D01*
X65453Y-40984D01*
X65452Y-41101D01*
X65497Y-41210D01*
X65580Y-41293D01*
X65603Y-41302D01*
X65537Y-41368D01*
X65492Y-41476D01*
X65492Y-41593D01*
X65537Y-41702D01*
X65620Y-41785D01*
X65728Y-41830D01*
X65845Y-41830D01*
X65954Y-41785D01*
X66014Y-41726D01*
X66020Y-41741D01*
X66053Y-41774D01*
X66060Y-41777D01*
X66054Y-41780D01*
X66020Y-41813D01*
X66002Y-41857D01*
X66002Y-41905D01*
X66002Y-42196D01*
X66020Y-42241D01*
X66053Y-42274D01*
X66060Y-42277D01*
X66054Y-42280D01*
X66020Y-42313D01*
X66002Y-42357D01*
X66002Y-42405D01*
X66002Y-42696D01*
X66020Y-42741D01*
X66053Y-42774D01*
X66060Y-42777D01*
X66054Y-42780D01*
X66020Y-42813D01*
X66002Y-42856D01*
X65998Y-42844D01*
X65915Y-42761D01*
X65806Y-42716D01*
X65689Y-42716D01*
X65581Y-42761D01*
X65498Y-42844D01*
X65453Y-42952D01*
X65452Y-43070D01*
X65497Y-43178D01*
X65580Y-43261D01*
X65689Y-43306D01*
X65806Y-43306D01*
X65914Y-43262D01*
X65979Y-43197D01*
X66002Y-43197D01*
X66020Y-43241D01*
X66053Y-43274D01*
X66098Y-43293D01*
X66145Y-43293D01*
X66874Y-43293D01*
X66918Y-43275D01*
X66952Y-43241D01*
X66970Y-43197D01*
X66970Y-43149D01*
X66970Y-43412D01*
X65317Y-43412D01*
X65317Y-43200D01*
X65317Y-42854D01*
X65295Y-42802D01*
X65256Y-42763D01*
X65278Y-42741D01*
X65297Y-42697D01*
X65297Y-42649D01*
X65297Y-42358D01*
X65278Y-42314D01*
X65256Y-42291D01*
X65295Y-42252D01*
X65317Y-42200D01*
X65317Y-41854D01*
X65295Y-41802D01*
X65270Y-41777D01*
X65295Y-41752D01*
X65317Y-41700D01*
X65317Y-41582D01*
X65282Y-41547D01*
X64832Y-41547D01*
X64832Y-41776D01*
X64832Y-41778D01*
X64832Y-42007D01*
X65282Y-42007D01*
X65317Y-41972D01*
X65317Y-41854D01*
X65317Y-42200D01*
X65317Y-42082D01*
X65282Y-42047D01*
X64832Y-42047D01*
X64832Y-42055D01*
X64792Y-42055D01*
X64792Y-42047D01*
X64792Y-42007D01*
X64792Y-41778D01*
X64792Y-41776D01*
X64792Y-41547D01*
X64343Y-41547D01*
X64308Y-41582D01*
X64308Y-41700D01*
X64330Y-41752D01*
X64355Y-41777D01*
X64330Y-41802D01*
X64308Y-41854D01*
X64308Y-41972D01*
X64343Y-42007D01*
X64792Y-42007D01*
X64792Y-42047D01*
X64343Y-42047D01*
X64308Y-42082D01*
X64308Y-42200D01*
X64330Y-42252D01*
X64369Y-42291D01*
X64347Y-42313D01*
X64328Y-42357D01*
X64328Y-42405D01*
X64328Y-42696D01*
X64347Y-42741D01*
X64369Y-42763D01*
X64330Y-42802D01*
X64308Y-42854D01*
X64308Y-42972D01*
X64343Y-43007D01*
X64792Y-43007D01*
X64792Y-42999D01*
X64832Y-42999D01*
X64832Y-43007D01*
X65282Y-43007D01*
X65317Y-42972D01*
X65317Y-42854D01*
X65317Y-43200D01*
X65317Y-43082D01*
X65282Y-43047D01*
X64832Y-43047D01*
X64832Y-43278D01*
X64867Y-43313D01*
X65149Y-43313D01*
X65205Y-43313D01*
X65256Y-43291D01*
X65295Y-43252D01*
X65317Y-43200D01*
X65317Y-43412D01*
X64617Y-43412D01*
X64518Y-43313D01*
X64757Y-43313D01*
X64792Y-43278D01*
X64792Y-43047D01*
X64343Y-43047D01*
X64308Y-43082D01*
X64308Y-43103D01*
X64046Y-42841D01*
X64074Y-42775D01*
X64074Y-42658D01*
X64029Y-42549D01*
X63946Y-42466D01*
X63838Y-42421D01*
X63721Y-42421D01*
X63612Y-42466D01*
X63529Y-42549D01*
X63484Y-42657D01*
X63484Y-42715D01*
X63425Y-42704D01*
X62498Y-42704D01*
X62498Y-42704D01*
X62433Y-42716D01*
X62378Y-42753D01*
X62378Y-42753D01*
X62268Y-42863D01*
X62265Y-42859D01*
X62234Y-42828D01*
X66297Y-38765D01*
X66330Y-38788D01*
X66437Y-38809D01*
X66543Y-38788D01*
X66633Y-38727D01*
X66693Y-38637D01*
X66714Y-38531D01*
X66714Y-38239D01*
X66693Y-38133D01*
X66633Y-38043D01*
X66602Y-38023D01*
X67466Y-37160D01*
X67674Y-37160D01*
X67615Y-37184D01*
X67503Y-37295D01*
X67443Y-37440D01*
X67443Y-37597D01*
X67503Y-37743D01*
X67614Y-37854D01*
X67759Y-37914D01*
X67916Y-37914D01*
X68062Y-37854D01*
X68173Y-37743D01*
X68195Y-37689D01*
X68260Y-37689D01*
X68283Y-37743D01*
X68394Y-37854D01*
X68539Y-37914D01*
X68696Y-37914D01*
X68841Y-37854D01*
X68952Y-37743D01*
X68979Y-37679D01*
X69080Y-37679D01*
X69141Y-37667D01*
X69141Y-37667D01*
X69193Y-37632D01*
X69913Y-36913D01*
X69947Y-36861D01*
X69959Y-36800D01*
X69960Y-36800D01*
X69960Y-36737D01*
X70063Y-36694D01*
X70193Y-36563D01*
X70264Y-36392D01*
X70265Y-36207D01*
X70194Y-36036D01*
X70063Y-35906D01*
X69892Y-35835D01*
X69707Y-35834D01*
X69536Y-35905D01*
X69406Y-36036D01*
X69335Y-36207D01*
X69334Y-36392D01*
X69405Y-36563D01*
X69536Y-36693D01*
X69637Y-36736D01*
X69014Y-37359D01*
X68979Y-37359D01*
X68953Y-37296D01*
X68842Y-37185D01*
X68697Y-37124D01*
X68539Y-37124D01*
X68394Y-37184D01*
X68283Y-37295D01*
X68261Y-37349D01*
X68195Y-37349D01*
X68173Y-37296D01*
X68062Y-37185D01*
X68002Y-37160D01*
X68100Y-37160D01*
X68161Y-37147D01*
X68161Y-37147D01*
X68213Y-37113D01*
X68604Y-36722D01*
X68707Y-36764D01*
X68892Y-36765D01*
X69063Y-36694D01*
X69193Y-36563D01*
X69264Y-36392D01*
X69265Y-36207D01*
X69194Y-36036D01*
X69063Y-35906D01*
X68892Y-35835D01*
X68707Y-35834D01*
X68536Y-35905D01*
X68406Y-36036D01*
X68335Y-36207D01*
X68334Y-36392D01*
X68377Y-36495D01*
X68033Y-36840D01*
X67486Y-36840D01*
X67604Y-36722D01*
X67707Y-36764D01*
X67892Y-36765D01*
X68063Y-36694D01*
X68193Y-36563D01*
X68264Y-36392D01*
X68265Y-36207D01*
X68194Y-36036D01*
X68063Y-35906D01*
X67892Y-35835D01*
X67707Y-35834D01*
X67536Y-35905D01*
X67406Y-36036D01*
X67335Y-36207D01*
X67334Y-36392D01*
X67377Y-36495D01*
X67233Y-36640D01*
X67200Y-36640D01*
X67138Y-36652D01*
X67086Y-36686D01*
X65802Y-37971D01*
X65740Y-37983D01*
X65650Y-38043D01*
X65590Y-38133D01*
X65568Y-38239D01*
X65568Y-38531D01*
X65590Y-38637D01*
X65613Y-38673D01*
X65425Y-38861D01*
X65425Y-38745D01*
X65452Y-38727D01*
X65512Y-38637D01*
X65533Y-38531D01*
X65533Y-38239D01*
X65512Y-38133D01*
X65452Y-38043D01*
X65415Y-38019D01*
X65415Y-38010D01*
X66674Y-36751D01*
X66707Y-36764D01*
X66892Y-36765D01*
X67063Y-36694D01*
X67193Y-36563D01*
X67264Y-36392D01*
X67265Y-36207D01*
X67194Y-36036D01*
X67063Y-35906D01*
X66892Y-35835D01*
X66707Y-35834D01*
X66536Y-35905D01*
X66406Y-36036D01*
X66335Y-36207D01*
X66334Y-36392D01*
X66405Y-36563D01*
X66408Y-36565D01*
X66265Y-36708D01*
X66265Y-36207D01*
X66194Y-36036D01*
X66063Y-35906D01*
X65892Y-35835D01*
X65707Y-35834D01*
X65536Y-35905D01*
X65406Y-36036D01*
X65335Y-36207D01*
X65334Y-36392D01*
X65405Y-36563D01*
X65536Y-36693D01*
X65707Y-36764D01*
X65892Y-36765D01*
X66063Y-36694D01*
X66193Y-36563D01*
X66264Y-36392D01*
X66265Y-36207D01*
X66265Y-36708D01*
X65265Y-37708D01*
X65265Y-36207D01*
X65194Y-36036D01*
X65063Y-35906D01*
X64892Y-35835D01*
X64707Y-35834D01*
X64536Y-35905D01*
X64406Y-36036D01*
X64335Y-36207D01*
X64334Y-36392D01*
X64405Y-36563D01*
X64536Y-36693D01*
X64707Y-36764D01*
X64892Y-36765D01*
X65063Y-36694D01*
X65193Y-36563D01*
X65264Y-36392D01*
X65265Y-36207D01*
X65265Y-37708D01*
X65254Y-37719D01*
X65254Y-37598D01*
X65252Y-37433D01*
X65192Y-37287D01*
X65126Y-37259D01*
X65098Y-37288D01*
X65098Y-37231D01*
X65070Y-37165D01*
X64917Y-37104D01*
X64752Y-37105D01*
X64606Y-37165D01*
X64578Y-37231D01*
X64838Y-37491D01*
X65098Y-37231D01*
X65098Y-37288D01*
X64866Y-37519D01*
X65126Y-37779D01*
X65192Y-37751D01*
X65254Y-37598D01*
X65254Y-37719D01*
X65142Y-37830D01*
X65108Y-37882D01*
X65098Y-37930D01*
X65098Y-37807D01*
X64838Y-37547D01*
X64810Y-37576D01*
X64810Y-37519D01*
X64550Y-37259D01*
X64484Y-37287D01*
X64422Y-37440D01*
X64424Y-37605D01*
X64484Y-37751D01*
X64550Y-37779D01*
X64810Y-37519D01*
X64810Y-37576D01*
X64578Y-37807D01*
X64606Y-37873D01*
X64759Y-37935D01*
X64924Y-37934D01*
X65070Y-37873D01*
X65098Y-37807D01*
X65098Y-37930D01*
X65095Y-37944D01*
X65095Y-38019D01*
X65059Y-38043D01*
X64999Y-38133D01*
X64978Y-38239D01*
X64978Y-38531D01*
X64999Y-38637D01*
X65059Y-38727D01*
X65085Y-38745D01*
X65085Y-38925D01*
X64835Y-39176D01*
X64835Y-38745D01*
X64861Y-38727D01*
X64921Y-38637D01*
X64942Y-38531D01*
X64942Y-38239D01*
X64921Y-38133D01*
X64861Y-38043D01*
X64771Y-37983D01*
X64665Y-37962D01*
X64559Y-37983D01*
X64517Y-38011D01*
X64265Y-37759D01*
X64265Y-36207D01*
X64194Y-36036D01*
X64063Y-35906D01*
X63892Y-35835D01*
X63707Y-35834D01*
X63536Y-35905D01*
X63406Y-36036D01*
X63335Y-36207D01*
X63334Y-36392D01*
X63405Y-36563D01*
X63536Y-36693D01*
X63707Y-36764D01*
X63892Y-36765D01*
X64063Y-36694D01*
X64193Y-36563D01*
X64264Y-36392D01*
X64265Y-36207D01*
X64265Y-37759D01*
X64192Y-37686D01*
X64140Y-37652D01*
X64079Y-37640D01*
X63265Y-37640D01*
X63265Y-36207D01*
X63194Y-36036D01*
X63063Y-35906D01*
X62892Y-35835D01*
X62707Y-35834D01*
X62536Y-35905D01*
X62406Y-36036D01*
X62335Y-36207D01*
X62334Y-36392D01*
X62405Y-36563D01*
X62536Y-36693D01*
X62707Y-36764D01*
X62892Y-36765D01*
X63063Y-36694D01*
X63193Y-36563D01*
X63264Y-36392D01*
X63265Y-36207D01*
X63265Y-37640D01*
X63166Y-37640D01*
X62141Y-36615D01*
X62193Y-36563D01*
X62264Y-36392D01*
X62265Y-36207D01*
X62194Y-36036D01*
X62063Y-35906D01*
X61892Y-35835D01*
X61707Y-35834D01*
X61536Y-35905D01*
X61406Y-36036D01*
X61335Y-36207D01*
X61334Y-36392D01*
X61405Y-36563D01*
X61536Y-36693D01*
X61707Y-36764D01*
X61838Y-36765D01*
X62986Y-37913D01*
X63038Y-37947D01*
X63100Y-37960D01*
X64013Y-37960D01*
X64025Y-37972D01*
X63968Y-37983D01*
X63884Y-38040D01*
X62866Y-38040D01*
X61613Y-36786D01*
X61561Y-36752D01*
X61500Y-36740D01*
X61166Y-36740D01*
X61091Y-36665D01*
X61193Y-36563D01*
X61264Y-36392D01*
X61265Y-36207D01*
X61194Y-36036D01*
X61063Y-35906D01*
X60892Y-35835D01*
X60707Y-35834D01*
X60536Y-35905D01*
X60406Y-36036D01*
X60335Y-36207D01*
X60334Y-36392D01*
X60405Y-36563D01*
X60536Y-36693D01*
X60707Y-36764D01*
X60738Y-36764D01*
X60986Y-37013D01*
X60986Y-37013D01*
X61038Y-37047D01*
X61057Y-37051D01*
X61020Y-37066D01*
X60909Y-37177D01*
X60849Y-37322D01*
X60849Y-37479D01*
X60909Y-37625D01*
X61020Y-37736D01*
X61165Y-37796D01*
X61322Y-37796D01*
X61467Y-37736D01*
X61578Y-37625D01*
X61639Y-37480D01*
X61639Y-37323D01*
X61598Y-37224D01*
X62686Y-38313D01*
X62738Y-38347D01*
X62800Y-38360D01*
X63797Y-38360D01*
X63797Y-38531D01*
X63818Y-38637D01*
X63878Y-38727D01*
X63904Y-38745D01*
X63904Y-39057D01*
X63474Y-39488D01*
X63474Y-39134D01*
X63474Y-39078D01*
X63452Y-39027D01*
X63413Y-38988D01*
X63361Y-38966D01*
X63114Y-38966D01*
X63079Y-39001D01*
X63079Y-39361D01*
X63439Y-39361D01*
X63474Y-39326D01*
X63474Y-39134D01*
X63474Y-39488D01*
X63474Y-39488D01*
X63474Y-39436D01*
X63439Y-39401D01*
X63079Y-39401D01*
X63079Y-39761D01*
X63114Y-39796D01*
X63165Y-39796D01*
X63039Y-39923D01*
X63039Y-39761D01*
X63039Y-39401D01*
X63039Y-39361D01*
X63039Y-39001D01*
X63004Y-38966D01*
X62756Y-38966D01*
X62704Y-38988D01*
X62665Y-39027D01*
X62644Y-39078D01*
X62644Y-39134D01*
X62644Y-39326D01*
X62679Y-39361D01*
X63039Y-39361D01*
X63039Y-39401D01*
X62679Y-39401D01*
X62644Y-39436D01*
X62644Y-39629D01*
X62644Y-39684D01*
X62665Y-39736D01*
X62704Y-39775D01*
X62756Y-39796D01*
X63004Y-39796D01*
X63039Y-39761D01*
X63039Y-39923D01*
X62420Y-40542D01*
X62453Y-40460D01*
X62454Y-40303D01*
X62394Y-40158D01*
X62283Y-40047D01*
X62137Y-39986D01*
X61980Y-39986D01*
X61835Y-40046D01*
X61724Y-40157D01*
X61664Y-40302D01*
X61663Y-40460D01*
X61723Y-40605D01*
X61835Y-40716D01*
X61980Y-40776D01*
X62137Y-40776D01*
X62219Y-40743D01*
X60631Y-42331D01*
X60539Y-42238D01*
X60494Y-42220D01*
X60447Y-42220D01*
X60403Y-42238D01*
X60369Y-42272D01*
X60305Y-42336D01*
X60293Y-42365D01*
X60263Y-42377D01*
X60230Y-42411D01*
X60166Y-42475D01*
X60153Y-42504D01*
X60124Y-42517D01*
X60090Y-42550D01*
X60026Y-42614D01*
X60014Y-42644D01*
X59985Y-42656D01*
X59951Y-42689D01*
X59887Y-42753D01*
X59886Y-42757D01*
X59855Y-42770D01*
X59855Y-42726D01*
X60080Y-42500D01*
X60080Y-42500D01*
X60080Y-42500D01*
X60117Y-42445D01*
X60130Y-42380D01*
X60130Y-40779D01*
X60385Y-40524D01*
X60473Y-40524D01*
X60495Y-40577D01*
X60606Y-40689D01*
X60751Y-40749D01*
X60908Y-40749D01*
X61054Y-40689D01*
X61165Y-40578D01*
X61225Y-40433D01*
X61225Y-40276D01*
X61203Y-40222D01*
X61772Y-39653D01*
X61835Y-39716D01*
X61980Y-39776D01*
X62137Y-39776D01*
X62282Y-39716D01*
X62393Y-39605D01*
X62453Y-39460D01*
X62454Y-39303D01*
X62394Y-39158D01*
X62283Y-39047D01*
X62137Y-38986D01*
X61980Y-38986D01*
X61835Y-39046D01*
X61724Y-39157D01*
X61680Y-39264D01*
X60963Y-39981D01*
X60909Y-39959D01*
X60752Y-39959D01*
X60607Y-40019D01*
X60496Y-40130D01*
X60473Y-40184D01*
X60441Y-40184D01*
X60613Y-40013D01*
X60813Y-39813D01*
X60813Y-39813D01*
X60847Y-39761D01*
X60859Y-39700D01*
X60860Y-39700D01*
X60860Y-38500D01*
X60847Y-38438D01*
X60813Y-38386D01*
X59960Y-37533D01*
X59960Y-36737D01*
X60063Y-36694D01*
X60193Y-36563D01*
X60264Y-36392D01*
X60265Y-36207D01*
X60194Y-36036D01*
X60063Y-35906D01*
X59892Y-35835D01*
X59707Y-35834D01*
X59536Y-35905D01*
X59406Y-36036D01*
X59335Y-36207D01*
X59334Y-36392D01*
X59405Y-36563D01*
X59536Y-36693D01*
X59640Y-36737D01*
X59640Y-37513D01*
X58960Y-36833D01*
X58960Y-36737D01*
X59063Y-36694D01*
X59193Y-36563D01*
X59264Y-36392D01*
X59265Y-36207D01*
X59194Y-36036D01*
X59063Y-35906D01*
X58892Y-35835D01*
X58707Y-35834D01*
X58536Y-35905D01*
X58406Y-36036D01*
X58335Y-36207D01*
X58334Y-36392D01*
X58405Y-36563D01*
X58536Y-36693D01*
X58640Y-36737D01*
X58640Y-36900D01*
X58652Y-36961D01*
X58686Y-37013D01*
X60340Y-38666D01*
X60340Y-38800D01*
X60249Y-38665D01*
X60099Y-38564D01*
X59921Y-38529D01*
X59847Y-38544D01*
X59175Y-37871D01*
X59120Y-37835D01*
X59055Y-37822D01*
X58905Y-37822D01*
X58616Y-37533D01*
X58639Y-37480D01*
X58639Y-37323D01*
X58579Y-37178D01*
X58468Y-37066D01*
X58339Y-37013D01*
X58033Y-36706D01*
X58063Y-36694D01*
X58193Y-36563D01*
X58264Y-36392D01*
X58265Y-36207D01*
X58194Y-36036D01*
X58063Y-35906D01*
X57892Y-35835D01*
X57707Y-35834D01*
X57536Y-35905D01*
X57406Y-36036D01*
X57335Y-36207D01*
X57334Y-36392D01*
X57405Y-36563D01*
X57536Y-36693D01*
X57648Y-36740D01*
X57652Y-36761D01*
X57686Y-36813D01*
X57980Y-37106D01*
X57909Y-37177D01*
X57849Y-37322D01*
X57849Y-37479D01*
X57909Y-37625D01*
X58020Y-37736D01*
X58165Y-37796D01*
X58322Y-37796D01*
X58376Y-37774D01*
X58714Y-38112D01*
X58714Y-38112D01*
X58729Y-38122D01*
X58661Y-38150D01*
X58583Y-38228D01*
X58541Y-38330D01*
X58541Y-38440D01*
X58583Y-38542D01*
X58661Y-38620D01*
X58763Y-38663D01*
X58873Y-38663D01*
X58975Y-38621D01*
X59053Y-38543D01*
X59096Y-38441D01*
X59096Y-38330D01*
X59056Y-38233D01*
X59550Y-38728D01*
X59492Y-38816D01*
X59456Y-38993D01*
X59456Y-39313D01*
X59492Y-39490D01*
X59592Y-39641D01*
X59743Y-39742D01*
X59921Y-39777D01*
X60099Y-39742D01*
X60196Y-39677D01*
X59386Y-40486D01*
X59352Y-40538D01*
X59340Y-40600D01*
X59340Y-41133D01*
X59028Y-41445D01*
X59028Y-39251D01*
X59028Y-39251D01*
X59028Y-39251D01*
X59015Y-39186D01*
X58978Y-39131D01*
X58978Y-39131D01*
X57285Y-37438D01*
X57285Y-36395D01*
X57284Y-36202D01*
X57211Y-36025D01*
X57138Y-35989D01*
X57110Y-36017D01*
X57110Y-35961D01*
X57074Y-35888D01*
X56895Y-35814D01*
X56702Y-35815D01*
X56525Y-35888D01*
X56489Y-35961D01*
X56800Y-36271D01*
X57110Y-35961D01*
X57110Y-36017D01*
X56828Y-36300D01*
X57138Y-36610D01*
X57211Y-36574D01*
X57285Y-36395D01*
X57285Y-37438D01*
X57110Y-37263D01*
X57110Y-36638D01*
X56800Y-36328D01*
X56771Y-36356D01*
X56771Y-36300D01*
X56461Y-35989D01*
X56388Y-36025D01*
X56314Y-36204D01*
X56315Y-36397D01*
X56388Y-36574D01*
X56461Y-36610D01*
X56771Y-36300D01*
X56771Y-36356D01*
X56489Y-36638D01*
X56525Y-36711D01*
X56704Y-36785D01*
X56897Y-36784D01*
X57074Y-36711D01*
X57110Y-36638D01*
X57110Y-37263D01*
X56773Y-36927D01*
X56718Y-36890D01*
X56653Y-36877D01*
X56021Y-36877D01*
X56021Y-36496D01*
X56020Y-36331D01*
X55959Y-36185D01*
X55894Y-36157D01*
X55866Y-36185D01*
X55866Y-36129D01*
X55838Y-36063D01*
X55685Y-36001D01*
X55520Y-36002D01*
X55374Y-36063D01*
X55346Y-36129D01*
X55606Y-36389D01*
X55866Y-36129D01*
X55866Y-36185D01*
X55634Y-36417D01*
X55894Y-36677D01*
X55959Y-36649D01*
X56021Y-36496D01*
X56021Y-36877D01*
X55866Y-36877D01*
X55866Y-36705D01*
X55606Y-36445D01*
X55578Y-36473D01*
X55578Y-36417D01*
X55318Y-36157D01*
X55252Y-36185D01*
X55190Y-36338D01*
X55191Y-36503D01*
X55252Y-36649D01*
X55318Y-36677D01*
X55578Y-36417D01*
X55578Y-36473D01*
X55346Y-36705D01*
X55374Y-36771D01*
X55527Y-36832D01*
X55692Y-36831D01*
X55838Y-36771D01*
X55866Y-36705D01*
X55866Y-36877D01*
X55306Y-36877D01*
X54979Y-36549D01*
X55001Y-36496D01*
X55001Y-36339D01*
X54941Y-36193D01*
X54830Y-36082D01*
X54685Y-36022D01*
X54528Y-36022D01*
X54382Y-36082D01*
X54271Y-36193D01*
X54211Y-36338D01*
X54211Y-36495D01*
X54271Y-36640D01*
X54382Y-36751D01*
X54527Y-36812D01*
X54684Y-36812D01*
X54738Y-36790D01*
X54825Y-36877D01*
X54283Y-36877D01*
X54001Y-36595D01*
X54001Y-36118D01*
X53983Y-36074D01*
X53949Y-36040D01*
X53905Y-36022D01*
X53857Y-36022D01*
X53307Y-36022D01*
X53263Y-36040D01*
X53229Y-36074D01*
X53211Y-36118D01*
X53211Y-36166D01*
X53211Y-36716D01*
X53229Y-36760D01*
X53263Y-36793D01*
X53307Y-36812D01*
X53355Y-36812D01*
X53737Y-36812D01*
X54092Y-37167D01*
X54092Y-37167D01*
X54147Y-37204D01*
X54212Y-37217D01*
X54212Y-37217D01*
X54212Y-37217D01*
X54850Y-37217D01*
X55037Y-37403D01*
X55092Y-37440D01*
X55092Y-37440D01*
X55157Y-37453D01*
X56504Y-37453D01*
X58452Y-39401D01*
X58452Y-43339D01*
X58464Y-43404D01*
X58501Y-43459D01*
X58529Y-43486D01*
X58523Y-43484D01*
X58414Y-43484D01*
X58427Y-43454D01*
X58427Y-43225D01*
X58392Y-43190D01*
X58012Y-43190D01*
X58012Y-43198D01*
X57972Y-43198D01*
X57972Y-43190D01*
X57592Y-43190D01*
X57557Y-43225D01*
X57557Y-43452D01*
X57492Y-43452D01*
X57492Y-43267D01*
X57492Y-42976D01*
X57471Y-42924D01*
X57431Y-42885D01*
X57380Y-42863D01*
X57324Y-42863D01*
X57102Y-42863D01*
X57067Y-42898D01*
X57067Y-43102D01*
X57457Y-43102D01*
X57492Y-43067D01*
X57492Y-42976D01*
X57492Y-43267D01*
X57492Y-43177D01*
X57457Y-43142D01*
X57067Y-43142D01*
X57067Y-43345D01*
X57102Y-43380D01*
X57324Y-43380D01*
X57380Y-43380D01*
X57431Y-43358D01*
X57471Y-43319D01*
X57492Y-43267D01*
X57492Y-43452D01*
X57460Y-43452D01*
X57454Y-43436D01*
X57420Y-43402D01*
X57376Y-43383D01*
X57328Y-43383D01*
X57027Y-43383D01*
X57027Y-43345D01*
X57027Y-43142D01*
X57027Y-43102D01*
X57027Y-42898D01*
X56992Y-42863D01*
X56769Y-42863D01*
X56714Y-42863D01*
X56662Y-42885D01*
X56623Y-42924D01*
X56602Y-42976D01*
X56602Y-43067D01*
X56637Y-43102D01*
X57027Y-43102D01*
X57027Y-43142D01*
X56637Y-43142D01*
X56602Y-43177D01*
X56602Y-43267D01*
X56623Y-43319D01*
X56662Y-43358D01*
X56714Y-43380D01*
X56769Y-43380D01*
X56992Y-43380D01*
X57027Y-43345D01*
X57027Y-43383D01*
X56718Y-43383D01*
X56674Y-43402D01*
X56640Y-43435D01*
X56622Y-43479D01*
X56622Y-43527D01*
X56622Y-43763D01*
X56640Y-43808D01*
X56674Y-43841D01*
X56683Y-43845D01*
X56133Y-43845D01*
X55721Y-43433D01*
X55721Y-43343D01*
X55777Y-43399D01*
X55885Y-43444D01*
X56003Y-43444D01*
X56111Y-43399D01*
X56194Y-43316D01*
X56239Y-43208D01*
X56239Y-43151D01*
X56559Y-42832D01*
X56664Y-42832D01*
X56674Y-42841D01*
X56718Y-42860D01*
X56765Y-42860D01*
X57376Y-42860D01*
X57420Y-42841D01*
X57430Y-42832D01*
X57581Y-42832D01*
X57578Y-42835D01*
X57557Y-42886D01*
X57557Y-43115D01*
X57592Y-43150D01*
X57972Y-43150D01*
X57972Y-43142D01*
X58012Y-43142D01*
X58012Y-43150D01*
X58392Y-43150D01*
X58427Y-43115D01*
X58427Y-42886D01*
X58405Y-42835D01*
X58366Y-42795D01*
X58339Y-42784D01*
X58355Y-42778D01*
X58388Y-42744D01*
X58407Y-42700D01*
X58407Y-42652D01*
X58407Y-42140D01*
X58388Y-42096D01*
X58355Y-42062D01*
X58311Y-42044D01*
X58263Y-42044D01*
X58040Y-42044D01*
X58040Y-40694D01*
X58054Y-40689D01*
X58165Y-40578D01*
X58225Y-40433D01*
X58225Y-40276D01*
X58165Y-40130D01*
X58054Y-40019D01*
X57909Y-39959D01*
X57752Y-39959D01*
X57607Y-40019D01*
X57496Y-40130D01*
X57435Y-40275D01*
X57435Y-40432D01*
X57495Y-40577D01*
X57606Y-40689D01*
X57620Y-40694D01*
X57620Y-42071D01*
X57595Y-42096D01*
X57577Y-42140D01*
X57577Y-42188D01*
X57577Y-42412D01*
X57430Y-42412D01*
X57420Y-42402D01*
X57376Y-42383D01*
X57328Y-42383D01*
X56718Y-42383D01*
X56674Y-42402D01*
X56664Y-42412D01*
X56509Y-42412D01*
X56509Y-42411D01*
X56554Y-42303D01*
X56554Y-42292D01*
X56633Y-42292D01*
X56640Y-42308D01*
X56674Y-42341D01*
X56718Y-42360D01*
X56765Y-42360D01*
X57376Y-42360D01*
X57420Y-42341D01*
X57454Y-42308D01*
X57472Y-42264D01*
X57472Y-42216D01*
X57472Y-41980D01*
X57454Y-41936D01*
X57420Y-41902D01*
X57376Y-41883D01*
X57328Y-41883D01*
X56718Y-41883D01*
X56674Y-41902D01*
X56640Y-41935D01*
X56633Y-41952D01*
X56381Y-41952D01*
X56343Y-41959D01*
X56318Y-41949D01*
X56201Y-41949D01*
X56092Y-41993D01*
X56009Y-42076D01*
X55964Y-42185D01*
X55964Y-42302D01*
X56009Y-42410D01*
X56092Y-42494D01*
X56200Y-42539D01*
X56258Y-42539D01*
X55942Y-42854D01*
X55886Y-42854D01*
X55777Y-42899D01*
X55721Y-42956D01*
X55721Y-42362D01*
X55708Y-42297D01*
X55671Y-42241D01*
X55431Y-42001D01*
X55380Y-41968D01*
X55380Y-41968D01*
X55367Y-41936D01*
X55333Y-41902D01*
X55289Y-41883D01*
X55241Y-41883D01*
X54631Y-41883D01*
X54587Y-41902D01*
X54553Y-41935D01*
X54535Y-41979D01*
X54535Y-42027D01*
X54535Y-42263D01*
X54553Y-42308D01*
X54587Y-42341D01*
X54631Y-42360D01*
X54679Y-42360D01*
X55289Y-42360D01*
X55303Y-42354D01*
X55322Y-42373D01*
X55289Y-42360D01*
X55241Y-42360D01*
X54631Y-42360D01*
X54587Y-42378D01*
X54553Y-42412D01*
X54550Y-42420D01*
X54303Y-42173D01*
X54303Y-42014D01*
X54357Y-41992D01*
X54468Y-41881D01*
X54528Y-41736D01*
X54528Y-41579D01*
X54528Y-38579D01*
X54468Y-38434D01*
X54357Y-38322D01*
X54212Y-38262D01*
X54055Y-38262D01*
X53910Y-38322D01*
X53799Y-38433D01*
X53776Y-38487D01*
X53585Y-38487D01*
X53563Y-38434D01*
X53452Y-38322D01*
X53307Y-38262D01*
X53150Y-38262D01*
X53004Y-38322D01*
X52903Y-38423D01*
X52907Y-38404D01*
X52907Y-38249D01*
X53016Y-38249D01*
X53061Y-38231D01*
X53094Y-38197D01*
X53113Y-38153D01*
X53113Y-38105D01*
X53113Y-37515D01*
X53094Y-37471D01*
X53061Y-37437D01*
X53017Y-37419D01*
X52969Y-37419D01*
X52457Y-37419D01*
X52413Y-37437D01*
X52379Y-37471D01*
X52373Y-37487D01*
X52361Y-37460D01*
X52322Y-37420D01*
X52270Y-37399D01*
X52042Y-37399D01*
X52007Y-37434D01*
X52007Y-37814D01*
X52015Y-37814D01*
X52015Y-37854D01*
X52007Y-37854D01*
X52007Y-38234D01*
X52042Y-38269D01*
X52227Y-38269D01*
X52099Y-38322D01*
X51988Y-38433D01*
X51967Y-38483D01*
X51967Y-38234D01*
X51967Y-37854D01*
X51967Y-37814D01*
X51967Y-37434D01*
X51932Y-37399D01*
X51703Y-37399D01*
X51652Y-37420D01*
X51612Y-37460D01*
X51591Y-37511D01*
X51591Y-37567D01*
X51591Y-37779D01*
X51626Y-37814D01*
X51967Y-37814D01*
X51967Y-37854D01*
X51626Y-37854D01*
X51591Y-37889D01*
X51591Y-38101D01*
X51591Y-38157D01*
X51612Y-38209D01*
X51652Y-38248D01*
X51703Y-38269D01*
X51932Y-38269D01*
X51967Y-38234D01*
X51967Y-38483D01*
X51927Y-38578D01*
X51927Y-38735D01*
X51987Y-38880D01*
X52098Y-38992D01*
X52243Y-39052D01*
X52401Y-39052D01*
X52546Y-38992D01*
X52657Y-38881D01*
X52679Y-38827D01*
X52871Y-38827D01*
X52893Y-38880D01*
X53004Y-38992D01*
X53149Y-39052D01*
X53306Y-39052D01*
X53451Y-38992D01*
X53563Y-38881D01*
X53585Y-38827D01*
X53776Y-38827D01*
X53798Y-38880D01*
X53909Y-38992D01*
X54054Y-39052D01*
X54212Y-39052D01*
X54357Y-38992D01*
X54468Y-38881D01*
X54528Y-38736D01*
X54528Y-38579D01*
X54528Y-41579D01*
X54468Y-41434D01*
X54357Y-41322D01*
X54212Y-41262D01*
X54101Y-41262D01*
X52088Y-39249D01*
X52033Y-39213D01*
X51968Y-39200D01*
X49870Y-39200D01*
X49819Y-39148D01*
X49644Y-39075D01*
X49456Y-39075D01*
X49281Y-39147D01*
X49148Y-39280D01*
X49075Y-39455D01*
X49075Y-39643D01*
X49147Y-39818D01*
X49280Y-39951D01*
X49455Y-40024D01*
X49643Y-40024D01*
X49818Y-39952D01*
X49951Y-39819D01*
X50024Y-39644D01*
X50024Y-39540D01*
X51898Y-39540D01*
X53796Y-41438D01*
X53738Y-41578D01*
X53738Y-41735D01*
X53798Y-41880D01*
X53909Y-41992D01*
X53963Y-42014D01*
X53963Y-42244D01*
X53976Y-42309D01*
X54013Y-42364D01*
X54367Y-42718D01*
X54423Y-42755D01*
X54488Y-42768D01*
X54547Y-42768D01*
X54553Y-42784D01*
X54587Y-42818D01*
X54631Y-42836D01*
X54679Y-42836D01*
X55289Y-42836D01*
X55333Y-42818D01*
X55367Y-42784D01*
X55381Y-42751D01*
X55381Y-42969D01*
X55367Y-42936D01*
X55333Y-42902D01*
X55289Y-42883D01*
X55241Y-42883D01*
X54631Y-42883D01*
X54587Y-42902D01*
X54553Y-42935D01*
X54547Y-42952D01*
X54373Y-42952D01*
X53425Y-42003D01*
X53451Y-41992D01*
X53563Y-41881D01*
X53623Y-41736D01*
X53623Y-41579D01*
X53563Y-41434D01*
X53452Y-41322D01*
X53398Y-41300D01*
X53398Y-41220D01*
X53385Y-41155D01*
X53348Y-41100D01*
X53348Y-41100D01*
X52167Y-39919D01*
X52112Y-39882D01*
X52047Y-39869D01*
X50988Y-39869D01*
X50952Y-39781D01*
X50819Y-39648D01*
X50644Y-39575D01*
X50456Y-39575D01*
X50281Y-39647D01*
X50148Y-39780D01*
X50075Y-39955D01*
X50075Y-40143D01*
X50147Y-40318D01*
X50280Y-40451D01*
X50455Y-40524D01*
X50643Y-40524D01*
X50818Y-40452D01*
X50951Y-40319D01*
X50997Y-40209D01*
X51976Y-40209D01*
X53058Y-41290D01*
X53058Y-41300D01*
X53004Y-41322D01*
X52893Y-41433D01*
X52833Y-41578D01*
X52833Y-41735D01*
X52893Y-41880D01*
X53004Y-41992D01*
X53058Y-42014D01*
X53058Y-42047D01*
X53071Y-42112D01*
X53108Y-42167D01*
X54182Y-43242D01*
X54238Y-43279D01*
X54238Y-43279D01*
X54303Y-43292D01*
X54547Y-43292D01*
X54553Y-43308D01*
X54587Y-43341D01*
X54631Y-43360D01*
X54679Y-43360D01*
X55289Y-43360D01*
X55333Y-43341D01*
X55367Y-43308D01*
X55381Y-43275D01*
X55381Y-43469D01*
X55367Y-43436D01*
X55333Y-43402D01*
X55289Y-43383D01*
X55241Y-43383D01*
X54631Y-43383D01*
X54587Y-43402D01*
X54553Y-43435D01*
X54547Y-43452D01*
X54357Y-43452D01*
X52695Y-41789D01*
X52717Y-41736D01*
X52717Y-41579D01*
X52657Y-41434D01*
X52546Y-41322D01*
X52401Y-41262D01*
X52244Y-41262D01*
X52099Y-41322D01*
X51988Y-41433D01*
X51927Y-41578D01*
X51927Y-41735D01*
X51976Y-41854D01*
X51041Y-40919D01*
X50996Y-40889D01*
X50952Y-40781D01*
X50819Y-40648D01*
X50644Y-40575D01*
X50456Y-40575D01*
X50281Y-40647D01*
X50148Y-40780D01*
X50075Y-40955D01*
X50075Y-41143D01*
X50147Y-41318D01*
X50280Y-41451D01*
X50455Y-41524D01*
X50643Y-41524D01*
X50818Y-41452D01*
X50951Y-41319D01*
X50954Y-41312D01*
X51510Y-41869D01*
X50988Y-41869D01*
X50952Y-41781D01*
X50819Y-41648D01*
X50644Y-41575D01*
X50456Y-41575D01*
X50281Y-41647D01*
X50148Y-41780D01*
X50075Y-41955D01*
X50075Y-42000D01*
X50044Y-41969D01*
X50044Y-40648D01*
X50044Y-40451D01*
X49969Y-40270D01*
X49895Y-40232D01*
X49867Y-40261D01*
X49867Y-40204D01*
X49829Y-40130D01*
X49648Y-40055D01*
X49451Y-40055D01*
X49270Y-40130D01*
X49232Y-40204D01*
X49550Y-40521D01*
X49867Y-40204D01*
X49867Y-40261D01*
X49578Y-40550D01*
X49895Y-40867D01*
X49969Y-40829D01*
X50044Y-40648D01*
X50044Y-41969D01*
X49922Y-41847D01*
X49951Y-41819D01*
X50024Y-41644D01*
X50024Y-41456D01*
X49952Y-41281D01*
X49867Y-41196D01*
X49867Y-40895D01*
X49550Y-40578D01*
X49521Y-40606D01*
X49521Y-40550D01*
X49204Y-40232D01*
X49130Y-40270D01*
X49055Y-40451D01*
X49055Y-40648D01*
X49130Y-40829D01*
X49204Y-40867D01*
X49521Y-40550D01*
X49521Y-40606D01*
X49232Y-40895D01*
X49270Y-40969D01*
X49451Y-41044D01*
X49648Y-41044D01*
X49829Y-40969D01*
X49867Y-40895D01*
X49867Y-41196D01*
X49819Y-41148D01*
X49644Y-41075D01*
X49456Y-41075D01*
X49281Y-41147D01*
X49148Y-41280D01*
X49075Y-41455D01*
X49075Y-41643D01*
X49147Y-41818D01*
X49280Y-41951D01*
X49455Y-42024D01*
X49618Y-42024D01*
X49687Y-42093D01*
X49644Y-42075D01*
X49456Y-42075D01*
X49281Y-42147D01*
X49148Y-42280D01*
X49075Y-42455D01*
X49075Y-42643D01*
X49147Y-42818D01*
X49280Y-42951D01*
X49455Y-43024D01*
X49643Y-43024D01*
X49818Y-42952D01*
X49951Y-42819D01*
X50024Y-42644D01*
X50024Y-42587D01*
X50092Y-42656D01*
X50148Y-42693D01*
X50148Y-42693D01*
X50187Y-42700D01*
X50180Y-42708D01*
X50204Y-42732D01*
X50130Y-42770D01*
X50055Y-42951D01*
X50055Y-43148D01*
X50130Y-43329D01*
X50204Y-43367D01*
X50521Y-43050D01*
X50516Y-43044D01*
X50544Y-43016D01*
X50550Y-43021D01*
X50555Y-43016D01*
X50583Y-43044D01*
X50578Y-43050D01*
X50895Y-43367D01*
X50969Y-43329D01*
X51044Y-43148D01*
X51044Y-42951D01*
X50969Y-42770D01*
X50895Y-42732D01*
X50919Y-42708D01*
X50917Y-42706D01*
X51520Y-42706D01*
X51798Y-42983D01*
X51798Y-45580D01*
X51811Y-45645D01*
X51848Y-45700D01*
X52271Y-46124D01*
X52271Y-46322D01*
X52289Y-46367D01*
X52323Y-46400D01*
X52367Y-46419D01*
X52415Y-46419D01*
X52612Y-46419D01*
X52637Y-46408D01*
X52663Y-46419D01*
X52710Y-46419D01*
X52907Y-46419D01*
X52951Y-46401D01*
X52985Y-46367D01*
X53003Y-46323D01*
X53003Y-46275D01*
X53003Y-46272D01*
X53591Y-46272D01*
X54140Y-46821D01*
X54139Y-46824D01*
X54139Y-46871D01*
X54157Y-46915D01*
X54191Y-46949D01*
X54579Y-47338D01*
X54624Y-47356D01*
X54671Y-47356D01*
X54715Y-47338D01*
X54749Y-47305D01*
X55036Y-47018D01*
X55592Y-47018D01*
X55657Y-47005D01*
X55657Y-47005D01*
X55713Y-46968D01*
X56487Y-46193D01*
X56811Y-46193D01*
X56876Y-46180D01*
X56876Y-46180D01*
X56931Y-46143D01*
X57747Y-45327D01*
X58315Y-45327D01*
X58546Y-45558D01*
X58523Y-45574D01*
X58295Y-45345D01*
X58250Y-45327D01*
X58203Y-45327D01*
X58159Y-45345D01*
X58125Y-45379D01*
X57708Y-45796D01*
X57689Y-45840D01*
X57689Y-45888D01*
X57707Y-45932D01*
X57741Y-45966D01*
X57757Y-45982D01*
X56964Y-46775D01*
X56580Y-46391D01*
X56536Y-46373D01*
X56488Y-46373D01*
X56444Y-46391D01*
X56411Y-46425D01*
X56076Y-46759D01*
X56058Y-46803D01*
X56058Y-46851D01*
X56076Y-46895D01*
X56110Y-46929D01*
X57084Y-47903D01*
X57129Y-47922D01*
X57176Y-47922D01*
X57220Y-47903D01*
X57254Y-47870D01*
X57588Y-47536D01*
X57607Y-47491D01*
X57607Y-47444D01*
X57588Y-47400D01*
X57555Y-47366D01*
X57204Y-47016D01*
X57998Y-46222D01*
X58103Y-46328D01*
X58147Y-46346D01*
X58195Y-46346D01*
X58211Y-46340D01*
X58200Y-46367D01*
X58200Y-46423D01*
X58221Y-46474D01*
X58383Y-46636D01*
X58432Y-46636D01*
X58701Y-46367D01*
X58695Y-46361D01*
X58724Y-46333D01*
X58729Y-46339D01*
X58735Y-46333D01*
X58763Y-46361D01*
X58758Y-46367D01*
X58981Y-46591D01*
X58990Y-46600D01*
X58999Y-46608D01*
X59223Y-46832D01*
X59228Y-46826D01*
X59256Y-46855D01*
X59251Y-46860D01*
X59256Y-46866D01*
X59228Y-46894D01*
X59223Y-46889D01*
X59194Y-46917D01*
X59194Y-46860D01*
X58970Y-46636D01*
X58962Y-46628D01*
X58953Y-46619D01*
X58729Y-46395D01*
X58461Y-46664D01*
X58461Y-46714D01*
X58622Y-46875D01*
X58674Y-46897D01*
X58693Y-46897D01*
X58693Y-46916D01*
X58714Y-46967D01*
X58876Y-47129D01*
X58926Y-47129D01*
X59194Y-46860D01*
X59194Y-46917D01*
X58954Y-47157D01*
X58954Y-47207D01*
X59116Y-47369D01*
X59167Y-47390D01*
X59223Y-47390D01*
X59250Y-47379D01*
X59243Y-47394D01*
X59243Y-47442D01*
X59261Y-47486D01*
X59295Y-47520D01*
X59339Y-47564D01*
X59096Y-47807D01*
X59096Y-47425D01*
X59054Y-47323D01*
X58976Y-47245D01*
X58874Y-47202D01*
X58763Y-47202D01*
X58661Y-47244D01*
X58583Y-47322D01*
X58541Y-47424D01*
X58541Y-47535D01*
X58583Y-47637D01*
X58661Y-47715D01*
X58763Y-47757D01*
X58873Y-47757D01*
X58975Y-47715D01*
X59053Y-47637D01*
X59096Y-47535D01*
X59096Y-47425D01*
X59096Y-47807D01*
X58546Y-48357D01*
X58111Y-47923D01*
X58067Y-47904D01*
X58020Y-47904D01*
X57975Y-47922D01*
X57942Y-47956D01*
X57608Y-48290D01*
X57589Y-48334D01*
X57589Y-48382D01*
X57607Y-48426D01*
X57641Y-48460D01*
X58616Y-49434D01*
X58660Y-49453D01*
X58707Y-49453D01*
X58752Y-49434D01*
X58785Y-49401D01*
X59119Y-49067D01*
X59138Y-49023D01*
X59138Y-48975D01*
X59119Y-48931D01*
X59086Y-48897D01*
X58786Y-48598D01*
X59580Y-47804D01*
X59657Y-47882D01*
X59701Y-47900D01*
X59749Y-47900D01*
X59793Y-47882D01*
X59827Y-47848D01*
X60244Y-47431D01*
X60262Y-47387D01*
X60262Y-47339D01*
X60244Y-47295D01*
X60211Y-47261D01*
X60167Y-47217D01*
X60238Y-47146D01*
X60238Y-47146D01*
X60238Y-47146D01*
X60275Y-47091D01*
X60281Y-47057D01*
X60470Y-47246D01*
X60470Y-47286D01*
X60149Y-47607D01*
X60130Y-47651D01*
X60130Y-47699D01*
X60148Y-47743D01*
X60182Y-47777D01*
X60544Y-48139D01*
X60588Y-48157D01*
X60636Y-48157D01*
X60652Y-48151D01*
X60641Y-48178D01*
X60641Y-48234D01*
X60662Y-48285D01*
X60824Y-48447D01*
X60873Y-48447D01*
X61142Y-48178D01*
X61136Y-48172D01*
X61165Y-48144D01*
X61170Y-48150D01*
X61439Y-47881D01*
X61439Y-47832D01*
X61277Y-47670D01*
X61226Y-47648D01*
X61170Y-47648D01*
X61143Y-47660D01*
X61149Y-47644D01*
X61149Y-47596D01*
X61131Y-47552D01*
X61098Y-47518D01*
X60810Y-47231D01*
X60810Y-47175D01*
X60797Y-47110D01*
X60760Y-47055D01*
X60760Y-47055D01*
X60460Y-46755D01*
X60494Y-46755D01*
X60538Y-46737D01*
X60572Y-46704D01*
X60964Y-46312D01*
X60982Y-46268D01*
X60982Y-46220D01*
X60964Y-46176D01*
X60930Y-46142D01*
X60866Y-46078D01*
X60837Y-46066D01*
X60825Y-46037D01*
X60791Y-46003D01*
X60753Y-45965D01*
X60800Y-45922D01*
X60807Y-45924D01*
X60924Y-45924D01*
X61033Y-45880D01*
X61116Y-45797D01*
X61161Y-45688D01*
X61161Y-45571D01*
X61116Y-45463D01*
X61033Y-45379D01*
X60925Y-45334D01*
X60807Y-45334D01*
X60699Y-45379D01*
X60688Y-45390D01*
X60728Y-45295D01*
X60728Y-45177D01*
X60683Y-45069D01*
X60600Y-44986D01*
X60492Y-44941D01*
X60374Y-44941D01*
X60266Y-44985D01*
X60183Y-45068D01*
X60138Y-45177D01*
X60138Y-45294D01*
X60177Y-45389D01*
X60170Y-45382D01*
X60141Y-45370D01*
X60129Y-45341D01*
X60095Y-45307D01*
X60031Y-45243D01*
X60028Y-45242D01*
X60006Y-45190D01*
X59993Y-45178D01*
X59944Y-45178D01*
X59688Y-45433D01*
X59694Y-45439D01*
X59683Y-45449D01*
X59679Y-45452D01*
X59665Y-45466D01*
X59660Y-45462D01*
X59404Y-45717D01*
X59404Y-45727D01*
X59384Y-45747D01*
X59404Y-45767D01*
X59404Y-45767D01*
X59384Y-45747D01*
X59357Y-45774D01*
X59164Y-45774D01*
X59111Y-45721D01*
X59251Y-45721D01*
X59317Y-45708D01*
X59317Y-45708D01*
X59333Y-45696D01*
X59333Y-45696D01*
X59333Y-45696D01*
X59333Y-45696D01*
X59344Y-45689D01*
X59376Y-45689D01*
X59632Y-45433D01*
X59626Y-45428D01*
X59637Y-45417D01*
X59641Y-45414D01*
X59644Y-45410D01*
X59654Y-45400D01*
X59660Y-45405D01*
X59916Y-45149D01*
X59916Y-45100D01*
X59903Y-45087D01*
X59851Y-45066D01*
X59850Y-45063D01*
X59816Y-45029D01*
X59777Y-44990D01*
X59787Y-44979D01*
X59900Y-44980D01*
X60009Y-44935D01*
X60092Y-44852D01*
X60137Y-44743D01*
X60137Y-44626D01*
X60092Y-44518D01*
X60009Y-44435D01*
X59901Y-44390D01*
X59784Y-44389D01*
X59675Y-44434D01*
X59592Y-44517D01*
X59547Y-44626D01*
X59547Y-44739D01*
X59537Y-44749D01*
X59474Y-44686D01*
X59445Y-44674D01*
X59433Y-44645D01*
X59399Y-44611D01*
X59335Y-44547D01*
X59291Y-44529D01*
X59243Y-44529D01*
X59199Y-44547D01*
X59165Y-44581D01*
X59106Y-44639D01*
X59031Y-44564D01*
X58976Y-44527D01*
X58911Y-44515D01*
X57519Y-44515D01*
X57454Y-44527D01*
X57399Y-44564D01*
X57399Y-44564D01*
X57183Y-44780D01*
X57183Y-44640D01*
X57119Y-44488D01*
X57001Y-44373D01*
X56855Y-44312D01*
X56789Y-44339D01*
X56789Y-44706D01*
X57156Y-44706D01*
X57183Y-44640D01*
X57183Y-44780D01*
X57174Y-44789D01*
X57156Y-44746D01*
X56817Y-44746D01*
X56803Y-44732D01*
X56774Y-44760D01*
X56789Y-44775D01*
X56789Y-45114D01*
X56832Y-45131D01*
X56749Y-45214D01*
X56749Y-45114D01*
X56749Y-44746D01*
X56749Y-44706D01*
X56749Y-44339D01*
X56683Y-44312D01*
X56531Y-44376D01*
X56415Y-44494D01*
X56354Y-44640D01*
X56381Y-44706D01*
X56749Y-44706D01*
X56749Y-44746D01*
X56381Y-44746D01*
X56354Y-44812D01*
X56419Y-44964D01*
X56537Y-45080D01*
X56683Y-45141D01*
X56749Y-45114D01*
X56749Y-45214D01*
X56700Y-45263D01*
X56419Y-45263D01*
X56397Y-45210D01*
X56286Y-45099D01*
X56141Y-45038D01*
X55983Y-45038D01*
X55931Y-45060D01*
X54805Y-43934D01*
X54750Y-43898D01*
X54685Y-43885D01*
X53003Y-43885D01*
X53003Y-43834D01*
X52985Y-43790D01*
X52951Y-43756D01*
X52907Y-43738D01*
X52860Y-43738D01*
X52663Y-43738D01*
X52660Y-43739D01*
X52660Y-42608D01*
X52647Y-42543D01*
X52647Y-42543D01*
X52610Y-42488D01*
X52125Y-42003D01*
X52243Y-42052D01*
X52401Y-42052D01*
X52455Y-42030D01*
X54167Y-43742D01*
X54167Y-43742D01*
X54222Y-43779D01*
X54287Y-43792D01*
X54547Y-43792D01*
X54553Y-43808D01*
X54587Y-43841D01*
X54631Y-43860D01*
X54679Y-43860D01*
X55289Y-43860D01*
X55333Y-43841D01*
X55367Y-43808D01*
X55385Y-43764D01*
X55385Y-43716D01*
X55385Y-43526D01*
X55394Y-43568D01*
X55430Y-43624D01*
X55942Y-44135D01*
X55942Y-44135D01*
X55997Y-44172D01*
X56062Y-44185D01*
X58000Y-44185D01*
X58108Y-44293D01*
X58108Y-44293D01*
X58163Y-44330D01*
X58228Y-44343D01*
X59029Y-44343D01*
X59094Y-44330D01*
X59094Y-44330D01*
X59098Y-44327D01*
X59199Y-44428D01*
X59243Y-44446D01*
X59291Y-44447D01*
X59335Y-44428D01*
X59368Y-44395D01*
X59432Y-44331D01*
X59445Y-44301D01*
X59474Y-44289D01*
X59508Y-44255D01*
X59572Y-44191D01*
X59584Y-44162D01*
X59613Y-44150D01*
X59647Y-44116D01*
X59711Y-44052D01*
X59723Y-44023D01*
X59752Y-44011D01*
X59786Y-43977D01*
X59850Y-43913D01*
X59862Y-43884D01*
X59891Y-43872D01*
X59925Y-43838D01*
X59989Y-43774D01*
X60001Y-43744D01*
X60031Y-43732D01*
X60064Y-43699D01*
X60128Y-43635D01*
X60141Y-43605D01*
X60170Y-43593D01*
X60204Y-43559D01*
X60268Y-43495D01*
X60269Y-43492D01*
X60320Y-43471D01*
X60333Y-43458D01*
X60333Y-43409D01*
X60077Y-43153D01*
X60073Y-43157D01*
X60058Y-43135D01*
X60058Y-43135D01*
X60049Y-43125D01*
X60049Y-43124D01*
X60044Y-43119D01*
X60072Y-43091D01*
X60077Y-43096D01*
X60083Y-43091D01*
X60111Y-43119D01*
X60106Y-43124D01*
X60362Y-43380D01*
X60411Y-43380D01*
X60424Y-43367D01*
X60445Y-43316D01*
X60448Y-43315D01*
X60482Y-43281D01*
X60521Y-43242D01*
X60531Y-43252D01*
X60531Y-43365D01*
X60576Y-43473D01*
X60659Y-43557D01*
X60767Y-43602D01*
X60885Y-43602D01*
X60993Y-43557D01*
X61076Y-43474D01*
X61121Y-43366D01*
X61121Y-43248D01*
X61077Y-43140D01*
X60994Y-43057D01*
X60885Y-43012D01*
X60772Y-43012D01*
X60762Y-43001D01*
X60824Y-42939D01*
X60837Y-42909D01*
X60866Y-42897D01*
X60900Y-42863D01*
X60964Y-42799D01*
X60982Y-42755D01*
X60982Y-42708D01*
X60964Y-42663D01*
X60930Y-42630D01*
X60871Y-42571D01*
X64195Y-39248D01*
X64195Y-39248D01*
X64195Y-39248D01*
X64231Y-39193D01*
X64244Y-39128D01*
X64244Y-38745D01*
X64271Y-38727D01*
X64331Y-38637D01*
X64352Y-38531D01*
X64352Y-38299D01*
X64387Y-38334D01*
X64387Y-38531D01*
X64408Y-38637D01*
X64469Y-38727D01*
X64495Y-38745D01*
X64495Y-39201D01*
X61292Y-42404D01*
X61255Y-42459D01*
X61247Y-42499D01*
X61083Y-42663D01*
X61064Y-42707D01*
X61064Y-42755D01*
X61083Y-42799D01*
X61116Y-42833D01*
X61180Y-42897D01*
X61210Y-42909D01*
X61222Y-42938D01*
X61255Y-42972D01*
X61319Y-43036D01*
X61349Y-43048D01*
X61361Y-43078D01*
X61395Y-43111D01*
X61459Y-43175D01*
X61488Y-43188D01*
X61500Y-43217D01*
X61534Y-43251D01*
X61598Y-43315D01*
X61627Y-43327D01*
X61639Y-43356D01*
X61673Y-43390D01*
X61737Y-43454D01*
X61766Y-43466D01*
X61778Y-43495D01*
X61812Y-43529D01*
X61876Y-43593D01*
X61906Y-43605D01*
X61918Y-43634D01*
X61951Y-43668D01*
X61994Y-43711D01*
X61990Y-43715D01*
X61909Y-43681D01*
X61791Y-43681D01*
X61683Y-43726D01*
X61600Y-43809D01*
X61555Y-43917D01*
X61555Y-44034D01*
X61555Y-44035D01*
X61477Y-44035D01*
X61368Y-44080D01*
X61285Y-44163D01*
X61240Y-44271D01*
X61240Y-44317D01*
X61172Y-44249D01*
X61117Y-44213D01*
X61077Y-44205D01*
X61077Y-44203D01*
X60994Y-44120D01*
X60885Y-44075D01*
X60768Y-44075D01*
X60659Y-44119D01*
X60576Y-44202D01*
X60531Y-44311D01*
X60531Y-44428D01*
X60576Y-44536D01*
X60659Y-44620D01*
X60767Y-44665D01*
X60885Y-44665D01*
X60993Y-44620D01*
X61027Y-44586D01*
X61850Y-45408D01*
X61843Y-45416D01*
X61779Y-45480D01*
X61766Y-45509D01*
X61737Y-45521D01*
X61703Y-45555D01*
X61639Y-45619D01*
X61627Y-45649D01*
X61598Y-45661D01*
X61564Y-45694D01*
X61500Y-45758D01*
X61488Y-45788D01*
X61459Y-45800D01*
X61425Y-45834D01*
X61361Y-45898D01*
X61349Y-45927D01*
X61320Y-45939D01*
X61286Y-45973D01*
X61222Y-46037D01*
X61210Y-46066D01*
X61180Y-46078D01*
X61147Y-46112D01*
X61083Y-46176D01*
X61064Y-46220D01*
X61064Y-46268D01*
X61083Y-46312D01*
X61116Y-46346D01*
X61508Y-46737D01*
X61552Y-46755D01*
X61599Y-46755D01*
X61644Y-46737D01*
X61677Y-46704D01*
X61680Y-46701D01*
X61680Y-48075D01*
X61678Y-48071D01*
X61517Y-47909D01*
X61467Y-47909D01*
X61198Y-48178D01*
X61440Y-48419D01*
X61489Y-48419D01*
X61639Y-48269D01*
X61679Y-48230D01*
X61680Y-48226D01*
X61680Y-48472D01*
X61411Y-48741D01*
X61411Y-48497D01*
X61411Y-48447D01*
X61170Y-48206D01*
X60901Y-48475D01*
X60901Y-48525D01*
X61063Y-48686D01*
X61115Y-48708D01*
X61170Y-48708D01*
X61222Y-48686D01*
X61261Y-48647D01*
X61411Y-48497D01*
X61411Y-48741D01*
X61358Y-48794D01*
X61319Y-48778D01*
X61161Y-48778D01*
X61016Y-48838D01*
X60905Y-48949D01*
X60845Y-49094D01*
X60845Y-49251D01*
X60905Y-49396D01*
X61016Y-49507D01*
X61161Y-49568D01*
X61318Y-49568D01*
X61463Y-49508D01*
X61574Y-49397D01*
X61635Y-49252D01*
X61635Y-49095D01*
X61607Y-49026D01*
X61968Y-48665D01*
X62070Y-48767D01*
X62070Y-48816D01*
X62016Y-48838D01*
X61905Y-48949D01*
X61845Y-49094D01*
X61845Y-49251D01*
X61905Y-49396D01*
X62016Y-49507D01*
X62161Y-49568D01*
X62318Y-49568D01*
X62463Y-49508D01*
X62574Y-49397D01*
X62635Y-49252D01*
X62635Y-49095D01*
X62575Y-48949D01*
X62464Y-48838D01*
X62410Y-48816D01*
X62410Y-48713D01*
X62845Y-49148D01*
X62845Y-49251D01*
X62905Y-49396D01*
X63016Y-49507D01*
X63161Y-49568D01*
X63262Y-49568D01*
X62606Y-50223D01*
X62487Y-50223D01*
X62464Y-50170D01*
X62353Y-50059D01*
X62208Y-49998D01*
X62051Y-49998D01*
X61906Y-50058D01*
X61795Y-50169D01*
X61734Y-50314D01*
X61734Y-50471D01*
X61794Y-50617D01*
X61905Y-50728D01*
X62051Y-50788D01*
X62208Y-50788D01*
X62353Y-50728D01*
X62464Y-50617D01*
X62487Y-50563D01*
X62677Y-50563D01*
X62742Y-50550D01*
X62742Y-50550D01*
X62797Y-50513D01*
X63495Y-49815D01*
X64527Y-49815D01*
X64592Y-49802D01*
X64592Y-49802D01*
X64647Y-49765D01*
X64883Y-49529D01*
X64920Y-49474D01*
X64920Y-49474D01*
X64931Y-49422D01*
X65016Y-49507D01*
X65161Y-49568D01*
X65318Y-49568D01*
X65463Y-49508D01*
X65574Y-49397D01*
X65578Y-49389D01*
X65578Y-49484D01*
X65590Y-49549D01*
X65627Y-49604D01*
X66284Y-50261D01*
X66262Y-50314D01*
X66262Y-50471D01*
X66322Y-50617D01*
X66433Y-50728D01*
X66578Y-50788D01*
X66735Y-50788D01*
X66880Y-50728D01*
X66992Y-50617D01*
X67052Y-50472D01*
X67052Y-50315D01*
X66992Y-50170D01*
X66881Y-50059D01*
X66736Y-49998D01*
X66655Y-49998D01*
X66655Y-49420D01*
X66655Y-48925D01*
X66655Y-48870D01*
X66633Y-48818D01*
X66594Y-48779D01*
X66542Y-48758D01*
X66295Y-48758D01*
X66260Y-48793D01*
X66260Y-49153D01*
X66620Y-49153D01*
X66655Y-49118D01*
X66655Y-48925D01*
X66655Y-49420D01*
X66655Y-49228D01*
X66620Y-49193D01*
X66260Y-49193D01*
X66260Y-49553D01*
X66295Y-49588D01*
X66542Y-49588D01*
X66594Y-49566D01*
X66633Y-49527D01*
X66655Y-49476D01*
X66655Y-49420D01*
X66655Y-49998D01*
X66579Y-49998D01*
X66525Y-50020D01*
X66092Y-49588D01*
X66185Y-49588D01*
X66220Y-49553D01*
X66220Y-49193D01*
X66212Y-49193D01*
X66212Y-49153D01*
X66220Y-49153D01*
X66220Y-48793D01*
X66185Y-48758D01*
X65937Y-48758D01*
X65918Y-48766D01*
X65918Y-48523D01*
X65905Y-48458D01*
X65868Y-48403D01*
X65868Y-48403D01*
X62923Y-45458D01*
X62930Y-45451D01*
X62994Y-45387D01*
X63006Y-45357D01*
X63036Y-45345D01*
X63069Y-45312D01*
X63125Y-45256D01*
X66513Y-48643D01*
X66513Y-48643D01*
X66568Y-48680D01*
X66633Y-48693D01*
X66633Y-48693D01*
X66633Y-48693D01*
X67547Y-48693D01*
X67891Y-49037D01*
X67891Y-49037D01*
X67946Y-49074D01*
X68011Y-49087D01*
X69835Y-49087D01*
X71009Y-50261D01*
X70986Y-50314D01*
X70986Y-50471D01*
X71046Y-50617D01*
X71157Y-50728D01*
X71302Y-50788D01*
X71460Y-50788D01*
X71605Y-50728D01*
X71716Y-50617D01*
X71776Y-50472D01*
X71776Y-50315D01*
X71716Y-50170D01*
X71605Y-50059D01*
X71460Y-49998D01*
X71303Y-49998D01*
X71249Y-50020D01*
X70025Y-48797D01*
X69970Y-48760D01*
X69905Y-48747D01*
X68082Y-48747D01*
X67738Y-48403D01*
X67683Y-48366D01*
X67618Y-48353D01*
X66704Y-48353D01*
X63107Y-44756D01*
X63052Y-44720D01*
X63012Y-44712D01*
X62848Y-44547D01*
X62803Y-44529D01*
X62756Y-44529D01*
X62712Y-44547D01*
X62678Y-44581D01*
X62614Y-44645D01*
X62602Y-44674D01*
X62572Y-44686D01*
X62539Y-44720D01*
X62475Y-44784D01*
X62462Y-44813D01*
X62433Y-44825D01*
X62399Y-44859D01*
X62335Y-44923D01*
X62323Y-44953D01*
X62294Y-44965D01*
X62260Y-44998D01*
X62235Y-45024D01*
X61746Y-44536D01*
X61785Y-44498D01*
X61830Y-44389D01*
X61830Y-44272D01*
X61830Y-44271D01*
X61908Y-44271D01*
X61909Y-44271D01*
X61909Y-44349D01*
X61954Y-44458D01*
X62037Y-44541D01*
X62145Y-44586D01*
X62263Y-44586D01*
X62371Y-44541D01*
X62454Y-44458D01*
X62499Y-44350D01*
X62499Y-44232D01*
X62488Y-44205D01*
X62508Y-44225D01*
X62572Y-44289D01*
X62602Y-44301D01*
X62614Y-44330D01*
X62647Y-44364D01*
X62711Y-44428D01*
X62755Y-44446D01*
X62803Y-44447D01*
X62847Y-44428D01*
X62881Y-44395D01*
X63043Y-44232D01*
X63063Y-44219D01*
X63412Y-43870D01*
X63512Y-43870D01*
X65529Y-45887D01*
X65584Y-45924D01*
X65649Y-45937D01*
X66760Y-45937D01*
X67990Y-47167D01*
X68045Y-47204D01*
X68045Y-47204D01*
X68110Y-47217D01*
X71555Y-47217D01*
X71620Y-47204D01*
X71620Y-47204D01*
X71675Y-47167D01*
X72103Y-46738D01*
X73204Y-46738D01*
X73204Y-46799D01*
X73223Y-46843D01*
X73256Y-46877D01*
X73300Y-46895D01*
X73348Y-46895D01*
X73840Y-46895D01*
X73863Y-46886D01*
X73863Y-46956D01*
X73885Y-47008D01*
X73924Y-47047D01*
X73975Y-47069D01*
X74031Y-47069D01*
X74382Y-47069D01*
X74417Y-47034D01*
X74417Y-47316D01*
X74410Y-47322D01*
X74368Y-47424D01*
X74368Y-47535D01*
X74410Y-47637D01*
X74488Y-47715D01*
X74590Y-47757D01*
X74700Y-47757D01*
X74802Y-47715D01*
X74880Y-47637D01*
X74923Y-47535D01*
X74923Y-47425D01*
X74923Y-54387D01*
X74739Y-54387D01*
X74739Y-52770D01*
X74599Y-52432D01*
X74340Y-52173D01*
X74002Y-52032D01*
X73636Y-52032D01*
X73298Y-52172D01*
X73039Y-52430D01*
X72899Y-52768D01*
X72898Y-53134D01*
X73038Y-53473D01*
X73297Y-53732D01*
X73635Y-53872D01*
X74001Y-53872D01*
X74339Y-53733D01*
X74598Y-53474D01*
X74738Y-53136D01*
X74739Y-52770D01*
X74739Y-54387D01*
X68776Y-54387D01*
X68776Y-50315D01*
X68716Y-50170D01*
X68605Y-50059D01*
X68460Y-49998D01*
X68303Y-49998D01*
X68158Y-50058D01*
X68047Y-50169D01*
X67986Y-50314D01*
X67986Y-50471D01*
X68046Y-50617D01*
X68157Y-50728D01*
X68302Y-50788D01*
X68460Y-50788D01*
X68605Y-50728D01*
X68716Y-50617D01*
X68776Y-50472D01*
X68776Y-50315D01*
X68776Y-54387D01*
X64052Y-54387D01*
X64052Y-50315D01*
X63992Y-50170D01*
X63881Y-50059D01*
X63736Y-49998D01*
X63579Y-49998D01*
X63434Y-50058D01*
X63322Y-50169D01*
X63262Y-50314D01*
X63262Y-50471D01*
X63322Y-50617D01*
X63433Y-50728D01*
X63578Y-50788D01*
X63735Y-50788D01*
X63880Y-50728D01*
X63992Y-50617D01*
X64052Y-50472D01*
X64052Y-50315D01*
X64052Y-54387D01*
X59524Y-54387D01*
X59524Y-50315D01*
X59464Y-50170D01*
X59353Y-50059D01*
X59208Y-49998D01*
X59051Y-49998D01*
X58906Y-50058D01*
X58795Y-50169D01*
X58734Y-50314D01*
X58734Y-50471D01*
X58794Y-50617D01*
X58905Y-50728D01*
X59051Y-50788D01*
X59208Y-50788D01*
X59353Y-50728D01*
X59464Y-50617D01*
X59524Y-50472D01*
X59524Y-50315D01*
X59524Y-54387D01*
X58014Y-54387D01*
X58014Y-52035D01*
X58014Y-51586D01*
X57997Y-51545D01*
X57997Y-50039D01*
X57972Y-49916D01*
X57903Y-49813D01*
X57505Y-49415D01*
X57401Y-49346D01*
X57279Y-49321D01*
X56970Y-49321D01*
X56956Y-49307D01*
X56811Y-49246D01*
X56654Y-49246D01*
X56508Y-49306D01*
X56410Y-49404D01*
X56123Y-49404D01*
X56123Y-48381D01*
X56105Y-48337D01*
X56072Y-48303D01*
X56027Y-48285D01*
X55980Y-48285D01*
X55000Y-48285D01*
X54980Y-48184D01*
X54911Y-48080D01*
X54242Y-47411D01*
X54138Y-47342D01*
X54015Y-47317D01*
X53893Y-47342D01*
X53789Y-47411D01*
X53720Y-47515D01*
X53698Y-47626D01*
X53626Y-47578D01*
X53503Y-47554D01*
X53381Y-47578D01*
X53277Y-47647D01*
X53208Y-47751D01*
X53183Y-47874D01*
X53207Y-47990D01*
X53139Y-47923D01*
X53035Y-47853D01*
X52913Y-47829D01*
X52790Y-47853D01*
X52687Y-47923D01*
X52679Y-47935D01*
X51249Y-46506D01*
X51146Y-46436D01*
X51044Y-46416D01*
X51023Y-46412D01*
X50984Y-46412D01*
X50867Y-46435D01*
X50867Y-43395D01*
X50550Y-43078D01*
X50521Y-43106D01*
X50232Y-43395D01*
X50270Y-43469D01*
X50451Y-43544D01*
X50648Y-43544D01*
X50829Y-43469D01*
X50867Y-43395D01*
X50867Y-46435D01*
X50861Y-46436D01*
X50757Y-46506D01*
X50688Y-46609D01*
X50664Y-46732D01*
X50688Y-46854D01*
X50757Y-46958D01*
X50861Y-47027D01*
X50867Y-47029D01*
X52600Y-48761D01*
X52539Y-48853D01*
X52514Y-48976D01*
X52539Y-49098D01*
X52608Y-49202D01*
X52814Y-49408D01*
X52712Y-49428D01*
X52608Y-49498D01*
X52539Y-49601D01*
X52514Y-49724D01*
X52539Y-49846D01*
X52608Y-49950D01*
X52712Y-50020D01*
X52834Y-50044D01*
X53246Y-50044D01*
X53246Y-50356D01*
X53190Y-50412D01*
X53194Y-50393D01*
X53169Y-50271D01*
X53100Y-50167D01*
X52996Y-50098D01*
X52874Y-50073D01*
X52751Y-50098D01*
X52647Y-50167D01*
X52411Y-50403D01*
X52342Y-50507D01*
X52317Y-50629D01*
X52317Y-51021D01*
X52274Y-51038D01*
X52241Y-51072D01*
X52222Y-51116D01*
X52222Y-51164D01*
X52222Y-51676D01*
X52241Y-51720D01*
X52274Y-51754D01*
X52290Y-51760D01*
X52263Y-51772D01*
X52224Y-51811D01*
X52202Y-51862D01*
X52202Y-52091D01*
X52237Y-52126D01*
X52617Y-52126D01*
X52617Y-52118D01*
X52657Y-52118D01*
X52657Y-52126D01*
X53037Y-52126D01*
X53072Y-52091D01*
X53072Y-51862D01*
X53051Y-51811D01*
X53012Y-51772D01*
X52985Y-51760D01*
X53000Y-51754D01*
X53034Y-51720D01*
X53052Y-51676D01*
X53052Y-51628D01*
X53052Y-51454D01*
X53344Y-51163D01*
X53389Y-51163D01*
X56027Y-51163D01*
X56071Y-51145D01*
X56105Y-51111D01*
X56123Y-51067D01*
X56123Y-51019D01*
X56123Y-50044D01*
X56649Y-50044D01*
X56649Y-50044D01*
X56688Y-50036D01*
X56810Y-50036D01*
X56955Y-49976D01*
X56970Y-49961D01*
X57146Y-49961D01*
X57450Y-50265D01*
X57554Y-50335D01*
X57677Y-50359D01*
X57799Y-50335D01*
X57903Y-50265D01*
X57972Y-50161D01*
X57997Y-50039D01*
X57997Y-51545D01*
X57992Y-51534D01*
X57953Y-51495D01*
X57901Y-51474D01*
X57846Y-51474D01*
X57732Y-51474D01*
X57697Y-51509D01*
X57697Y-51791D01*
X57979Y-51791D01*
X58014Y-51756D01*
X58014Y-51586D01*
X58014Y-52035D01*
X58014Y-51866D01*
X57979Y-51831D01*
X57697Y-51831D01*
X57697Y-52112D01*
X57732Y-52147D01*
X57846Y-52147D01*
X57901Y-52147D01*
X57953Y-52126D01*
X57992Y-52087D01*
X58014Y-52035D01*
X58014Y-54387D01*
X57994Y-54387D01*
X57994Y-52850D01*
X57994Y-52456D01*
X57975Y-52412D01*
X57942Y-52378D01*
X57897Y-52360D01*
X57850Y-52360D01*
X57657Y-52360D01*
X57657Y-52112D01*
X57657Y-51831D01*
X57657Y-51791D01*
X57657Y-51509D01*
X57622Y-51474D01*
X57508Y-51474D01*
X57452Y-51474D01*
X57400Y-51495D01*
X57361Y-51534D01*
X57340Y-51586D01*
X57340Y-51756D01*
X57375Y-51791D01*
X57657Y-51791D01*
X57657Y-51831D01*
X57375Y-51831D01*
X57340Y-51866D01*
X57340Y-52035D01*
X57361Y-52087D01*
X57400Y-52126D01*
X57452Y-52147D01*
X57508Y-52147D01*
X57622Y-52147D01*
X57657Y-52112D01*
X57657Y-52360D01*
X57456Y-52360D01*
X57412Y-52378D01*
X57378Y-52412D01*
X57360Y-52456D01*
X57360Y-52471D01*
X57089Y-52471D01*
X57067Y-52418D01*
X56956Y-52307D01*
X56811Y-52246D01*
X56654Y-52246D01*
X56508Y-52306D01*
X56397Y-52417D01*
X56337Y-52562D01*
X56337Y-52719D01*
X56397Y-52865D01*
X56508Y-52976D01*
X56653Y-53036D01*
X56810Y-53036D01*
X56955Y-52976D01*
X57066Y-52865D01*
X57089Y-52811D01*
X57360Y-52811D01*
X57360Y-52897D01*
X57378Y-52941D01*
X57412Y-52975D01*
X57456Y-52993D01*
X57504Y-52994D01*
X57897Y-52994D01*
X57941Y-52975D01*
X57975Y-52942D01*
X57993Y-52897D01*
X57994Y-52850D01*
X57994Y-54387D01*
X57627Y-54387D01*
X57627Y-53991D01*
X57627Y-53441D01*
X57609Y-53397D01*
X57575Y-53363D01*
X57531Y-53345D01*
X57483Y-53345D01*
X56933Y-53345D01*
X56889Y-53363D01*
X56855Y-53397D01*
X56837Y-53441D01*
X56837Y-53488D01*
X56837Y-54038D01*
X56855Y-54083D01*
X56889Y-54116D01*
X56933Y-54135D01*
X56981Y-54135D01*
X57531Y-54135D01*
X57575Y-54116D01*
X57608Y-54083D01*
X57627Y-54039D01*
X57627Y-53991D01*
X57627Y-54387D01*
X56647Y-54387D01*
X56647Y-53819D01*
X56646Y-53654D01*
X56585Y-53507D01*
X56520Y-53480D01*
X56492Y-53508D01*
X56492Y-53451D01*
X56464Y-53386D01*
X56311Y-53324D01*
X56146Y-53325D01*
X56025Y-53375D01*
X56025Y-52909D01*
X56025Y-51728D01*
X56007Y-51684D01*
X55973Y-51650D01*
X55929Y-51631D01*
X55881Y-51631D01*
X55251Y-51631D01*
X55207Y-51650D01*
X55173Y-51683D01*
X55155Y-51727D01*
X55155Y-51775D01*
X55155Y-52324D01*
X54234Y-53246D01*
X54234Y-52960D01*
X54234Y-51724D01*
X54213Y-51672D01*
X54173Y-51633D01*
X54122Y-51611D01*
X54066Y-51611D01*
X53834Y-51611D01*
X53799Y-51646D01*
X53799Y-52322D01*
X54199Y-52322D01*
X54234Y-52287D01*
X54234Y-51724D01*
X54234Y-52960D01*
X54234Y-52397D01*
X54199Y-52362D01*
X53799Y-52362D01*
X53799Y-53038D01*
X53834Y-53073D01*
X54066Y-53073D01*
X54122Y-53073D01*
X54173Y-53051D01*
X54213Y-53012D01*
X54234Y-52960D01*
X54234Y-53246D01*
X54155Y-53325D01*
X53835Y-53325D01*
X53791Y-53343D01*
X53759Y-53375D01*
X53759Y-53038D01*
X53759Y-52362D01*
X53759Y-52322D01*
X53759Y-51646D01*
X53724Y-51611D01*
X53492Y-51611D01*
X53436Y-51611D01*
X53385Y-51633D01*
X53345Y-51672D01*
X53324Y-51724D01*
X53324Y-52287D01*
X53359Y-52322D01*
X53759Y-52322D01*
X53759Y-52362D01*
X53359Y-52362D01*
X53324Y-52397D01*
X53324Y-52960D01*
X53345Y-53012D01*
X53385Y-53051D01*
X53436Y-53073D01*
X53492Y-53073D01*
X53724Y-53073D01*
X53759Y-53038D01*
X53759Y-53375D01*
X53757Y-53377D01*
X53750Y-53392D01*
X53739Y-53365D01*
X53700Y-53326D01*
X53648Y-53305D01*
X53420Y-53305D01*
X53385Y-53340D01*
X53385Y-53720D01*
X53393Y-53720D01*
X53393Y-53760D01*
X53385Y-53760D01*
X53385Y-54140D01*
X53420Y-54175D01*
X53648Y-54175D01*
X53700Y-54153D01*
X53739Y-54114D01*
X53750Y-54087D01*
X53757Y-54103D01*
X53791Y-54136D01*
X53835Y-54155D01*
X53882Y-54155D01*
X54394Y-54155D01*
X54439Y-54136D01*
X54472Y-54103D01*
X54490Y-54060D01*
X54842Y-54060D01*
X54964Y-54035D01*
X55068Y-53966D01*
X55138Y-53862D01*
X55162Y-53740D01*
X55138Y-53617D01*
X55068Y-53513D01*
X54964Y-53444D01*
X54945Y-53440D01*
X55332Y-53053D01*
X55929Y-53053D01*
X55973Y-53034D01*
X56007Y-53001D01*
X56025Y-52957D01*
X56025Y-52909D01*
X56025Y-53375D01*
X56000Y-53386D01*
X55972Y-53451D01*
X56232Y-53711D01*
X56492Y-53451D01*
X56492Y-53508D01*
X56260Y-53740D01*
X56520Y-54000D01*
X56585Y-53972D01*
X56647Y-53819D01*
X56647Y-54387D01*
X56492Y-54387D01*
X56492Y-54028D01*
X56232Y-53768D01*
X56203Y-53796D01*
X56203Y-53740D01*
X55944Y-53480D01*
X55878Y-53507D01*
X55816Y-53660D01*
X55817Y-53826D01*
X55878Y-53972D01*
X55944Y-54000D01*
X56203Y-53740D01*
X56203Y-53796D01*
X55972Y-54028D01*
X56000Y-54093D01*
X56153Y-54155D01*
X56318Y-54154D01*
X56464Y-54093D01*
X56492Y-54028D01*
X56492Y-54387D01*
X53345Y-54387D01*
X53345Y-54140D01*
X53345Y-53760D01*
X53345Y-53720D01*
X53345Y-53340D01*
X53310Y-53305D01*
X53081Y-53305D01*
X53072Y-53308D01*
X53072Y-52430D01*
X53072Y-52201D01*
X53037Y-52166D01*
X52657Y-52166D01*
X52657Y-52507D01*
X52692Y-52542D01*
X52905Y-52542D01*
X52960Y-52542D01*
X53012Y-52521D01*
X53051Y-52481D01*
X53072Y-52430D01*
X53072Y-53308D01*
X53029Y-53326D01*
X52990Y-53365D01*
X52969Y-53417D01*
X52969Y-53472D01*
X52969Y-53685D01*
X53004Y-53720D01*
X53345Y-53720D01*
X53345Y-53760D01*
X53004Y-53760D01*
X52969Y-53795D01*
X52969Y-54007D01*
X52969Y-54063D01*
X52990Y-54114D01*
X53029Y-54153D01*
X53081Y-54175D01*
X53310Y-54175D01*
X53345Y-54140D01*
X53345Y-54387D01*
X52621Y-54387D01*
X52621Y-54007D01*
X52621Y-53472D01*
X52621Y-53417D01*
X52617Y-53408D01*
X52617Y-52507D01*
X52617Y-52166D01*
X52237Y-52166D01*
X52202Y-52201D01*
X52202Y-52430D01*
X52224Y-52481D01*
X52263Y-52521D01*
X52314Y-52542D01*
X52370Y-52542D01*
X52582Y-52542D01*
X52617Y-52507D01*
X52617Y-53408D01*
X52600Y-53365D01*
X52560Y-53326D01*
X52509Y-53305D01*
X52280Y-53305D01*
X52245Y-53340D01*
X52245Y-53720D01*
X52586Y-53720D01*
X52621Y-53685D01*
X52621Y-53472D01*
X52621Y-54007D01*
X52621Y-53795D01*
X52586Y-53760D01*
X52245Y-53760D01*
X52245Y-54140D01*
X52280Y-54175D01*
X52509Y-54175D01*
X52560Y-54153D01*
X52600Y-54114D01*
X52621Y-54063D01*
X52621Y-54007D01*
X52621Y-54387D01*
X51120Y-54387D01*
X51143Y-54372D01*
X51360Y-54155D01*
X51755Y-54155D01*
X51799Y-54136D01*
X51833Y-54103D01*
X51839Y-54087D01*
X51850Y-54114D01*
X51890Y-54153D01*
X51941Y-54175D01*
X52170Y-54175D01*
X52205Y-54140D01*
X52205Y-53760D01*
X52197Y-53760D01*
X52197Y-53720D01*
X52205Y-53720D01*
X52205Y-53340D01*
X52170Y-53305D01*
X52029Y-53305D01*
X52029Y-51153D01*
X52029Y-48452D01*
X52029Y-48397D01*
X52008Y-48345D01*
X51968Y-48306D01*
X51917Y-48285D01*
X50566Y-48285D01*
X50531Y-48320D01*
X50531Y-49783D01*
X51994Y-49783D01*
X52029Y-49748D01*
X52029Y-48452D01*
X52029Y-51153D01*
X52029Y-49858D01*
X51994Y-49823D01*
X50531Y-49823D01*
X50531Y-51286D01*
X50566Y-51321D01*
X51917Y-51321D01*
X51968Y-51299D01*
X52008Y-51260D01*
X52029Y-51209D01*
X52029Y-51153D01*
X52029Y-53305D01*
X51941Y-53305D01*
X51890Y-53326D01*
X51850Y-53365D01*
X51839Y-53392D01*
X51833Y-53377D01*
X51799Y-53343D01*
X51795Y-53341D01*
X51795Y-53039D01*
X51814Y-53020D01*
X51832Y-52976D01*
X51832Y-52928D01*
X51832Y-51944D01*
X51814Y-51900D01*
X51780Y-51866D01*
X51736Y-51848D01*
X51688Y-51848D01*
X51098Y-51848D01*
X51054Y-51866D01*
X51020Y-51900D01*
X51002Y-51944D01*
X51002Y-51992D01*
X51002Y-52141D01*
X50881Y-52164D01*
X50777Y-52234D01*
X50491Y-52520D01*
X50491Y-51286D01*
X50491Y-49823D01*
X50491Y-49783D01*
X50491Y-48320D01*
X50456Y-48285D01*
X49106Y-48285D01*
X49054Y-48306D01*
X49015Y-48345D01*
X48993Y-48397D01*
X48993Y-48452D01*
X48993Y-49748D01*
X49028Y-49783D01*
X50491Y-49783D01*
X50491Y-49823D01*
X49028Y-49823D01*
X48993Y-49858D01*
X48993Y-51153D01*
X48993Y-51209D01*
X49015Y-51260D01*
X49054Y-51299D01*
X49106Y-51321D01*
X50456Y-51321D01*
X50491Y-51286D01*
X50491Y-52520D01*
X50364Y-52647D01*
X50294Y-52751D01*
X50270Y-52874D01*
X50294Y-52996D01*
X50364Y-53100D01*
X50468Y-53169D01*
X50590Y-53194D01*
X50713Y-53169D01*
X50816Y-53100D01*
X51002Y-52915D01*
X51002Y-52976D01*
X51020Y-53020D01*
X51053Y-53054D01*
X51098Y-53072D01*
X51145Y-53072D01*
X51155Y-53072D01*
X51155Y-53341D01*
X51151Y-53343D01*
X51117Y-53377D01*
X51099Y-53421D01*
X51099Y-53468D01*
X51099Y-53935D01*
X50953Y-54081D01*
X50802Y-54081D01*
X50810Y-54063D01*
X50810Y-54007D01*
X50810Y-53472D01*
X50810Y-53417D01*
X50788Y-53365D01*
X50749Y-53326D01*
X50698Y-53305D01*
X50469Y-53305D01*
X50434Y-53340D01*
X50434Y-53720D01*
X50775Y-53720D01*
X50810Y-53685D01*
X50810Y-53472D01*
X50810Y-54007D01*
X50810Y-53795D01*
X50775Y-53760D01*
X50434Y-53760D01*
X50434Y-53768D01*
X50394Y-53768D01*
X50394Y-53760D01*
X50386Y-53760D01*
X50386Y-53720D01*
X50394Y-53720D01*
X50394Y-53340D01*
X50359Y-53305D01*
X50130Y-53305D01*
X50079Y-53326D01*
X50039Y-53365D01*
X50028Y-53392D01*
X50022Y-53377D01*
X49988Y-53343D01*
X49944Y-53325D01*
X49926Y-53325D01*
X49926Y-53072D01*
X49969Y-53054D01*
X50003Y-53020D01*
X50021Y-52976D01*
X50021Y-52928D01*
X50021Y-51944D01*
X50003Y-51900D01*
X49969Y-51866D01*
X49925Y-51848D01*
X49877Y-51848D01*
X49287Y-51848D01*
X49243Y-51866D01*
X49209Y-51900D01*
X49197Y-51929D01*
X48750Y-51482D01*
X48750Y-49212D01*
X48689Y-49065D01*
X48577Y-48952D01*
X48430Y-48891D01*
X48271Y-48891D01*
X48124Y-48952D01*
X48011Y-49064D01*
X47950Y-49211D01*
X47950Y-49370D01*
X48011Y-49517D01*
X48123Y-49630D01*
X48270Y-49691D01*
X48429Y-49691D01*
X48576Y-49630D01*
X48689Y-49518D01*
X48750Y-49371D01*
X48750Y-49212D01*
X48750Y-51482D01*
X48583Y-51316D01*
X48499Y-51259D01*
X48435Y-51247D01*
X48435Y-50591D01*
X48434Y-50425D01*
X48373Y-50279D01*
X48307Y-50251D01*
X48279Y-50280D01*
X48279Y-50223D01*
X48251Y-50158D01*
X48098Y-50096D01*
X47933Y-50097D01*
X47800Y-50152D01*
X47800Y-43401D01*
X47800Y-38901D01*
X47686Y-38625D01*
X47475Y-38414D01*
X47199Y-38300D01*
X46901Y-38299D01*
X46625Y-38413D01*
X46414Y-38624D01*
X46392Y-38677D01*
X46392Y-36628D01*
X46252Y-36290D01*
X45994Y-36031D01*
X45656Y-35891D01*
X45290Y-35890D01*
X44951Y-36030D01*
X44692Y-36289D01*
X44552Y-36627D01*
X44552Y-36993D01*
X44692Y-37331D01*
X44950Y-37590D01*
X45288Y-37730D01*
X45654Y-37731D01*
X45992Y-37591D01*
X46251Y-37332D01*
X46392Y-36994D01*
X46392Y-36628D01*
X46392Y-38677D01*
X46300Y-38900D01*
X46299Y-39198D01*
X46413Y-39474D01*
X46624Y-39685D01*
X46900Y-39799D01*
X47198Y-39800D01*
X47474Y-39686D01*
X47685Y-39475D01*
X47799Y-39199D01*
X47800Y-38901D01*
X47800Y-43401D01*
X47686Y-43125D01*
X47475Y-42914D01*
X47199Y-42800D01*
X46901Y-42799D01*
X46625Y-42913D01*
X46414Y-43124D01*
X46300Y-43400D01*
X46299Y-43698D01*
X46413Y-43974D01*
X46624Y-44185D01*
X46900Y-44299D01*
X47198Y-44300D01*
X47474Y-44186D01*
X47685Y-43975D01*
X47799Y-43699D01*
X47800Y-43401D01*
X47800Y-50152D01*
X47797Y-50154D01*
X47797Y-46291D01*
X47797Y-45834D01*
X47767Y-45683D01*
X47681Y-45554D01*
X47552Y-45468D01*
X47401Y-45438D01*
X47250Y-45468D01*
X47121Y-45554D01*
X47036Y-45683D01*
X47005Y-45834D01*
X47005Y-46291D01*
X47036Y-46442D01*
X47121Y-46571D01*
X47250Y-46656D01*
X47401Y-46687D01*
X47552Y-46656D01*
X47681Y-46571D01*
X47767Y-46442D01*
X47797Y-46291D01*
X47797Y-50154D01*
X47787Y-50158D01*
X47759Y-50223D01*
X48019Y-50483D01*
X48279Y-50223D01*
X48279Y-50280D01*
X48047Y-50511D01*
X48307Y-50771D01*
X48373Y-50744D01*
X48435Y-50591D01*
X48435Y-51247D01*
X48400Y-51240D01*
X48279Y-51240D01*
X48279Y-50800D01*
X48019Y-50540D01*
X47991Y-50568D01*
X47991Y-50511D01*
X47731Y-50251D01*
X47665Y-50279D01*
X47604Y-50432D01*
X47605Y-50597D01*
X47665Y-50744D01*
X47731Y-50771D01*
X47991Y-50511D01*
X47991Y-50568D01*
X47759Y-50800D01*
X47787Y-50865D01*
X47940Y-50927D01*
X48105Y-50926D01*
X48251Y-50865D01*
X48279Y-50800D01*
X48279Y-51240D01*
X47507Y-51240D01*
X47451Y-51183D01*
X47451Y-47913D01*
X47449Y-47748D01*
X47389Y-47602D01*
X47323Y-47574D01*
X47295Y-47602D01*
X47295Y-47546D01*
X47267Y-47480D01*
X47114Y-47418D01*
X46949Y-47420D01*
X46812Y-47476D01*
X46812Y-46291D01*
X46812Y-45834D01*
X46782Y-45683D01*
X46697Y-45554D01*
X46568Y-45468D01*
X46417Y-45438D01*
X46265Y-45468D01*
X46137Y-45554D01*
X46051Y-45683D01*
X46021Y-45834D01*
X46021Y-46291D01*
X46051Y-46442D01*
X46137Y-46571D01*
X46176Y-46597D01*
X45922Y-46851D01*
X45887Y-46903D01*
X45875Y-46964D01*
X45875Y-47439D01*
X45828Y-47439D01*
X45828Y-46291D01*
X45828Y-45834D01*
X45798Y-45683D01*
X45712Y-45554D01*
X45584Y-45468D01*
X45433Y-45438D01*
X45281Y-45468D01*
X45153Y-45554D01*
X45067Y-45683D01*
X45037Y-45834D01*
X45037Y-46291D01*
X45067Y-46442D01*
X45153Y-46571D01*
X45281Y-46656D01*
X45433Y-46687D01*
X45584Y-46656D01*
X45712Y-46571D01*
X45798Y-46442D01*
X45828Y-46291D01*
X45828Y-47439D01*
X45736Y-47439D01*
X45692Y-47457D01*
X45658Y-47491D01*
X45640Y-47535D01*
X45640Y-47583D01*
X45640Y-48133D01*
X45658Y-48177D01*
X45692Y-48211D01*
X45736Y-48229D01*
X45784Y-48229D01*
X46334Y-48229D01*
X46378Y-48211D01*
X46412Y-48177D01*
X46430Y-48133D01*
X46430Y-48085D01*
X46430Y-47535D01*
X46412Y-47491D01*
X46378Y-47457D01*
X46334Y-47439D01*
X46286Y-47439D01*
X46195Y-47439D01*
X46195Y-47030D01*
X46530Y-46695D01*
X46554Y-46659D01*
X46568Y-46656D01*
X46697Y-46571D01*
X46782Y-46442D01*
X46812Y-46291D01*
X46812Y-47476D01*
X46803Y-47480D01*
X46775Y-47546D01*
X47035Y-47806D01*
X47295Y-47546D01*
X47295Y-47602D01*
X47063Y-47834D01*
X47323Y-48094D01*
X47389Y-48066D01*
X47451Y-47913D01*
X47451Y-51183D01*
X47279Y-51011D01*
X47279Y-50906D01*
X47318Y-50906D01*
X47362Y-50888D01*
X47396Y-50854D01*
X47414Y-50810D01*
X47414Y-50763D01*
X47414Y-50213D01*
X47396Y-50168D01*
X47362Y-50135D01*
X47318Y-50116D01*
X47295Y-50116D01*
X47295Y-48122D01*
X47035Y-47862D01*
X47007Y-47891D01*
X47007Y-47834D01*
X46747Y-47574D01*
X46681Y-47602D01*
X46619Y-47755D01*
X46621Y-47920D01*
X46681Y-48066D01*
X46747Y-48094D01*
X47007Y-47834D01*
X47007Y-47891D01*
X46775Y-48122D01*
X46803Y-48188D01*
X46956Y-48250D01*
X47121Y-48248D01*
X47267Y-48188D01*
X47295Y-48122D01*
X47295Y-50116D01*
X47270Y-50116D01*
X46720Y-50116D01*
X46676Y-50135D01*
X46643Y-50168D01*
X46624Y-50212D01*
X46624Y-50251D01*
X46091Y-50251D01*
X46077Y-50218D01*
X46044Y-50185D01*
X46000Y-50166D01*
X45952Y-50166D01*
X45750Y-50166D01*
X45750Y-49547D01*
X45750Y-48987D01*
X45732Y-48943D01*
X45698Y-48909D01*
X45654Y-48891D01*
X45606Y-48891D01*
X45046Y-48891D01*
X45002Y-48909D01*
X44968Y-48943D01*
X44950Y-48987D01*
X44950Y-49035D01*
X44950Y-49595D01*
X44968Y-49639D01*
X45002Y-49673D01*
X45005Y-49674D01*
X44991Y-49748D01*
X44991Y-50511D01*
X45006Y-50587D01*
X45006Y-50760D01*
X45024Y-50804D01*
X45058Y-50838D01*
X45102Y-50856D01*
X45149Y-50856D01*
X45399Y-50856D01*
X45444Y-50838D01*
X45477Y-50804D01*
X45496Y-50760D01*
X45496Y-50713D01*
X45496Y-50587D01*
X45511Y-50511D01*
X45511Y-49856D01*
X45534Y-49833D01*
X45534Y-49833D01*
X45571Y-49777D01*
X45590Y-49749D01*
X45590Y-49749D01*
X45602Y-49691D01*
X45654Y-49691D01*
X45698Y-49673D01*
X45732Y-49639D01*
X45750Y-49595D01*
X45750Y-49547D01*
X45750Y-50166D01*
X45702Y-50166D01*
X45658Y-50185D01*
X45624Y-50218D01*
X45606Y-50262D01*
X45606Y-50310D01*
X45606Y-50436D01*
X45591Y-50511D01*
X45606Y-50587D01*
X45606Y-50760D01*
X45624Y-50804D01*
X45658Y-50838D01*
X45702Y-50856D01*
X45749Y-50856D01*
X45999Y-50856D01*
X46044Y-50838D01*
X46077Y-50804D01*
X46091Y-50771D01*
X46624Y-50771D01*
X46624Y-50810D01*
X46642Y-50854D01*
X46676Y-50888D01*
X46720Y-50906D01*
X46759Y-50906D01*
X46759Y-51119D01*
X46779Y-51219D01*
X46835Y-51303D01*
X47216Y-51683D01*
X47216Y-51683D01*
X47300Y-51740D01*
X47400Y-51760D01*
X48292Y-51760D01*
X49176Y-52644D01*
X49191Y-52653D01*
X49191Y-52976D01*
X49209Y-53020D01*
X49242Y-53054D01*
X49286Y-53072D01*
X49286Y-53682D01*
X49288Y-53692D01*
X49288Y-54058D01*
X49297Y-54081D01*
X48957Y-54081D01*
X48683Y-53700D01*
X48683Y-52492D01*
X48682Y-52327D01*
X48621Y-52181D01*
X48555Y-52153D01*
X48527Y-52181D01*
X48527Y-52125D01*
X48499Y-52059D01*
X48346Y-51997D01*
X48181Y-51999D01*
X48035Y-52059D01*
X48007Y-52125D01*
X48267Y-52385D01*
X48527Y-52125D01*
X48527Y-52181D01*
X48296Y-52413D01*
X48555Y-52673D01*
X48621Y-52645D01*
X48683Y-52492D01*
X48683Y-53700D01*
X48662Y-53671D01*
X48662Y-53664D01*
X48662Y-53114D01*
X48644Y-53070D01*
X48610Y-53036D01*
X48566Y-53018D01*
X48527Y-53018D01*
X48527Y-52701D01*
X48267Y-52441D01*
X48239Y-52469D01*
X48239Y-52413D01*
X47979Y-52153D01*
X47914Y-52181D01*
X47852Y-52334D01*
X47853Y-52499D01*
X47914Y-52645D01*
X47979Y-52673D01*
X48239Y-52413D01*
X48239Y-52469D01*
X48007Y-52701D01*
X48035Y-52767D01*
X48188Y-52829D01*
X48353Y-52827D01*
X48499Y-52767D01*
X48527Y-52701D01*
X48527Y-53018D01*
X48518Y-53018D01*
X47968Y-53018D01*
X47924Y-53036D01*
X47891Y-53070D01*
X47872Y-53114D01*
X47872Y-53162D01*
X47872Y-53712D01*
X47890Y-53756D01*
X47924Y-53790D01*
X47968Y-53808D01*
X48016Y-53808D01*
X48342Y-53808D01*
X48732Y-54351D01*
X48741Y-54360D01*
X48749Y-54372D01*
X48767Y-54383D01*
X48771Y-54387D01*
X46392Y-54387D01*
X46392Y-52770D01*
X46252Y-52432D01*
X45994Y-52173D01*
X45656Y-52032D01*
X45290Y-52032D01*
X44951Y-52172D01*
X44692Y-52430D01*
X44552Y-52768D01*
X44552Y-53134D01*
X44692Y-53473D01*
X44950Y-53732D01*
X45288Y-53872D01*
X45654Y-53872D01*
X45992Y-53733D01*
X46251Y-53474D01*
X46392Y-53136D01*
X46392Y-52770D01*
X46392Y-54387D01*
X44037Y-54387D01*
X44037Y-35375D01*
X75254Y-35375D01*
X75254Y-54387D01*
M02*
