G04 (created by PCBNEW (2013-05-18 BZR 4017)-stable) date Tue 31 Dec 2013 13:11:11 CST*
%MOIN*%
G04 Gerber Fmt 3.4, Leading zero omitted, Abs format*
%FSLAX34Y34*%
G01*
G70*
G90*
G04 APERTURE LIST*
%ADD10C,0.00590551*%
%ADD11C,0.055*%
%ADD12C,0.069*%
%ADD13R,0.059X0.0512*%
%ADD14C,0.16*%
%ADD15R,0.055X0.055*%
%ADD16R,0.0826772X0.0551181*%
%ADD17R,0.0393701X0.019685*%
%ADD18O,0.0551181X0.0984252*%
%ADD19R,0.056X0.056*%
%ADD20C,0.056*%
%ADD21C,0.0708661*%
%ADD22C,0.125984*%
%ADD23O,0.0688976X0.0984252*%
%ADD24C,0.0314961*%
%ADD25O,0.0314961X0.0590551*%
%ADD26C,0.035*%
%ADD27C,0.01*%
%ADD28C,0.04*%
%ADD29C,0.018*%
%ADD30C,0.06*%
G04 APERTURE END LIST*
G54D10*
G54D11*
X53228Y-38657D03*
X53228Y-41657D03*
X54133Y-41657D03*
X54133Y-38657D03*
X52322Y-41657D03*
X52322Y-38657D03*
X56732Y-49641D03*
X56732Y-52641D03*
G54D12*
X71800Y-36300D03*
X70800Y-36300D03*
X69800Y-36300D03*
X68800Y-36300D03*
X67800Y-36300D03*
X66800Y-36300D03*
X65800Y-36300D03*
X64800Y-36300D03*
X63800Y-36300D03*
X62800Y-36300D03*
X61800Y-36300D03*
X60800Y-36300D03*
X59800Y-36300D03*
X58800Y-36300D03*
X57800Y-36300D03*
X56800Y-36300D03*
G54D13*
X69251Y-44073D03*
X69251Y-44823D03*
G54D10*
G36*
X59667Y-42946D02*
X60085Y-43363D01*
X59723Y-43725D01*
X59305Y-43308D01*
X59667Y-42946D01*
X59667Y-42946D01*
G37*
G36*
X60198Y-42416D02*
X60615Y-42833D01*
X60253Y-43195D01*
X59836Y-42778D01*
X60198Y-42416D01*
X60198Y-42416D01*
G37*
G54D14*
X73818Y-52952D03*
X45472Y-52952D03*
X45472Y-36811D03*
X73800Y-36600D03*
G54D15*
X46035Y-47834D03*
G54D11*
X47035Y-47834D03*
G54D15*
X48267Y-53413D03*
G54D11*
X48267Y-52413D03*
G54D15*
X57232Y-53740D03*
G54D11*
X56232Y-53740D03*
X59129Y-50393D03*
X62129Y-50393D03*
X63657Y-50393D03*
X66657Y-50393D03*
X68381Y-50393D03*
X71381Y-50393D03*
X57830Y-40354D03*
X60830Y-40354D03*
G54D16*
X58641Y-53051D03*
X62224Y-53051D03*
X58641Y-51279D03*
X62224Y-51279D03*
X63366Y-53051D03*
X66948Y-53051D03*
X63366Y-51279D03*
X66948Y-51279D03*
X68090Y-53051D03*
X71673Y-53051D03*
X68090Y-51279D03*
X71673Y-51279D03*
G54D15*
X63059Y-39381D03*
G54D11*
X62059Y-39381D03*
X62059Y-40381D03*
G54D17*
X70866Y-37253D03*
X70866Y-37549D03*
X70866Y-37844D03*
G54D11*
X61244Y-37401D03*
X58244Y-37401D03*
G54D15*
X66240Y-49173D03*
G54D11*
X65240Y-49173D03*
X64240Y-49173D03*
X63240Y-49173D03*
X62240Y-49173D03*
X61240Y-49173D03*
G54D10*
G36*
X54648Y-47236D02*
X54259Y-46848D01*
X54648Y-46459D01*
X55036Y-46848D01*
X54648Y-47236D01*
X54648Y-47236D01*
G37*
G54D11*
X55355Y-46140D03*
X56062Y-45433D03*
X56769Y-44726D03*
G54D15*
X47019Y-50511D03*
G54D11*
X48019Y-50511D03*
X68618Y-37519D03*
X71618Y-37519D03*
X64838Y-37519D03*
X67838Y-37519D03*
G54D18*
X46417Y-46062D03*
X47401Y-46062D03*
X45433Y-46062D03*
G54D19*
X45350Y-49291D03*
G54D20*
X48350Y-49291D03*
G54D15*
X53606Y-36417D03*
G54D11*
X54606Y-36417D03*
X55606Y-36417D03*
G54D21*
X50550Y-40050D03*
X50550Y-41050D03*
X50550Y-42050D03*
X50550Y-43050D03*
X49550Y-39550D03*
X49550Y-40550D03*
X49550Y-41550D03*
X49550Y-42550D03*
G54D22*
X47050Y-39050D03*
X47050Y-43550D03*
G54D23*
X73543Y-39153D03*
X59921Y-39153D03*
G54D24*
X58818Y-38385D03*
X74645Y-38385D03*
X58818Y-47480D03*
X74645Y-47480D03*
G54D25*
X64074Y-38385D03*
X64665Y-38385D03*
X65255Y-38385D03*
X65846Y-38385D03*
X66437Y-38385D03*
X67027Y-38385D03*
X67618Y-38385D03*
X68208Y-38385D03*
X68799Y-38385D03*
X69389Y-38385D03*
G54D26*
X59409Y-42244D03*
X50984Y-46732D03*
X60433Y-45236D03*
X65275Y-40472D03*
X57677Y-50039D03*
X52913Y-48149D03*
X52834Y-48976D03*
X54015Y-47637D03*
X53503Y-47874D03*
X52874Y-50393D03*
X52834Y-49724D03*
X70039Y-44055D03*
X55944Y-43149D03*
X54842Y-53740D03*
X50590Y-52874D03*
X56259Y-42244D03*
X60826Y-44370D03*
X58464Y-43779D03*
X61535Y-44330D03*
X60433Y-43503D03*
X71653Y-52362D03*
X68031Y-52362D03*
X66929Y-52362D03*
X63385Y-52322D03*
X62244Y-52283D03*
X58700Y-52283D03*
X70039Y-44842D03*
X63779Y-42716D03*
X62204Y-44291D03*
X60866Y-45629D03*
X68543Y-43110D03*
X61850Y-43976D03*
X65787Y-41535D03*
X60826Y-43307D03*
X65748Y-41043D03*
X59842Y-44685D03*
X65748Y-43011D03*
G54D27*
X67618Y-38385D02*
X67618Y-38169D01*
X67618Y-38169D02*
X67362Y-37913D01*
X59409Y-42244D02*
X59409Y-42204D01*
X70866Y-37253D02*
X70364Y-37253D01*
X70364Y-37253D02*
X70314Y-37204D01*
G54D28*
X50984Y-46732D02*
X50984Y-46850D01*
G54D27*
X60433Y-45236D02*
X60511Y-45236D01*
G54D29*
X65275Y-40472D02*
X65314Y-40433D01*
G54D28*
X57637Y-50078D02*
X57637Y-50157D01*
X57677Y-50039D02*
X57637Y-50078D01*
X52795Y-48937D02*
X52795Y-48740D01*
X52834Y-48976D02*
X52795Y-48937D01*
X54015Y-47637D02*
X54133Y-47755D01*
X53425Y-47795D02*
X53385Y-47834D01*
X53503Y-47874D02*
X53425Y-47795D01*
X52874Y-50393D02*
X52874Y-50157D01*
X52834Y-49724D02*
X52834Y-49212D01*
G54D27*
X70020Y-44073D02*
X69251Y-44073D01*
X70039Y-44055D02*
X70020Y-44073D01*
G54D29*
X70866Y-37844D02*
X70866Y-47086D01*
X54842Y-49921D02*
X54842Y-53740D01*
X56535Y-48228D02*
X54842Y-49921D01*
X69724Y-48228D02*
X56535Y-48228D01*
X70866Y-47086D02*
X69724Y-48228D01*
X50590Y-48700D02*
X50590Y-52874D01*
X51968Y-47322D02*
X50590Y-48700D01*
X52795Y-47322D02*
X51968Y-47322D01*
X55944Y-44173D02*
X52795Y-47322D01*
X55944Y-43149D02*
X55944Y-44173D01*
G54D28*
X54842Y-53740D02*
X52874Y-53740D01*
X52874Y-53740D02*
X52007Y-52874D01*
X52007Y-52874D02*
X50590Y-52874D01*
G54D27*
X58641Y-51279D02*
X62224Y-51279D01*
X62224Y-51279D02*
X62224Y-50488D01*
X62224Y-50488D02*
X62129Y-50393D01*
X63366Y-51279D02*
X66948Y-51279D01*
X66948Y-51279D02*
X66948Y-50685D01*
X66948Y-50685D02*
X66657Y-50393D01*
X68090Y-51279D02*
X71673Y-51279D01*
X71673Y-51279D02*
X71673Y-50685D01*
X71673Y-50685D02*
X71381Y-50393D01*
X58149Y-44133D02*
X56259Y-42244D01*
X60590Y-44133D02*
X58149Y-44133D01*
X60826Y-44370D02*
X60590Y-44133D01*
X58543Y-43858D02*
X58464Y-43779D01*
X60669Y-43858D02*
X58543Y-43858D01*
X60866Y-44055D02*
X60669Y-43858D01*
X61259Y-44055D02*
X60866Y-44055D01*
X61535Y-44330D02*
X61259Y-44055D01*
X60225Y-42805D02*
X60225Y-43296D01*
X60225Y-43296D02*
X60433Y-43503D01*
X71673Y-53051D02*
X71673Y-52381D01*
X71673Y-52381D02*
X71653Y-52362D01*
X68090Y-53051D02*
X68090Y-52381D01*
X68070Y-52362D02*
X68031Y-52362D01*
X68090Y-52381D02*
X68070Y-52362D01*
X66948Y-53051D02*
X66948Y-52381D01*
X66948Y-52381D02*
X66929Y-52362D01*
X66948Y-53051D02*
X68090Y-53051D01*
X63366Y-53051D02*
X63366Y-52342D01*
X63366Y-52342D02*
X63385Y-52322D01*
X62224Y-53051D02*
X62224Y-52303D01*
X62224Y-52303D02*
X62244Y-52283D01*
X62224Y-53051D02*
X63366Y-53051D01*
X58641Y-53051D02*
X58641Y-52342D01*
X58641Y-52342D02*
X58700Y-52283D01*
X69251Y-44823D02*
X70020Y-44823D01*
X70020Y-44823D02*
X70039Y-44842D01*
G54D30*
X47401Y-46062D02*
X47562Y-46062D01*
X48350Y-46850D02*
X48350Y-49291D01*
X47562Y-46062D02*
X48350Y-46850D01*
G54D27*
X70866Y-37549D02*
X71431Y-37549D01*
X71431Y-37549D02*
X71578Y-37401D01*
X63779Y-42716D02*
X62204Y-44291D01*
X61456Y-45000D02*
X60866Y-45629D01*
X62637Y-45000D02*
X61456Y-45000D01*
X64212Y-43425D02*
X62637Y-45000D01*
X68228Y-43425D02*
X64212Y-43425D01*
X68543Y-43110D02*
X68228Y-43425D01*
X61929Y-43976D02*
X61850Y-43976D01*
X64370Y-41535D02*
X61929Y-43976D01*
X65787Y-41535D02*
X64370Y-41535D01*
X63188Y-40944D02*
X60826Y-43307D01*
X65649Y-40944D02*
X63188Y-40944D01*
X65748Y-41043D02*
X65649Y-40944D01*
G54D30*
X49551Y-42539D02*
X49551Y-43248D01*
X46417Y-44982D02*
X46417Y-46062D01*
X46600Y-44800D02*
X46417Y-44982D01*
X48000Y-44800D02*
X46600Y-44800D01*
X49551Y-43248D02*
X48000Y-44800D01*
G54D27*
X62500Y-44685D02*
X59842Y-44685D01*
X64173Y-43011D02*
X62500Y-44685D01*
X65748Y-43011D02*
X64173Y-43011D01*
G54D10*
G36*
X75104Y-54237D02*
X75073Y-54237D01*
X75073Y-47395D01*
X75073Y-38301D01*
X75008Y-38143D01*
X74888Y-38023D01*
X74870Y-38016D01*
X74870Y-36388D01*
X74707Y-35994D01*
X74406Y-35693D01*
X74013Y-35530D01*
X73588Y-35529D01*
X73194Y-35692D01*
X72893Y-35993D01*
X72730Y-36386D01*
X72729Y-36811D01*
X72892Y-37205D01*
X73193Y-37506D01*
X73586Y-37669D01*
X74011Y-37670D01*
X74405Y-37507D01*
X74706Y-37206D01*
X74869Y-36813D01*
X74870Y-36388D01*
X74870Y-38016D01*
X74731Y-37958D01*
X74561Y-37958D01*
X74403Y-38023D01*
X74283Y-38143D01*
X74218Y-38300D01*
X74218Y-38470D01*
X74283Y-38627D01*
X74403Y-38748D01*
X74560Y-38813D01*
X74730Y-38813D01*
X74887Y-38748D01*
X75007Y-38628D01*
X75073Y-38471D01*
X75073Y-38301D01*
X75073Y-47395D01*
X75008Y-47238D01*
X74888Y-47118D01*
X74731Y-47052D01*
X74561Y-47052D01*
X74403Y-47117D01*
X74283Y-47237D01*
X74218Y-47394D01*
X74218Y-47564D01*
X74283Y-47722D01*
X74403Y-47842D01*
X74560Y-47907D01*
X74730Y-47907D01*
X74887Y-47842D01*
X75007Y-47722D01*
X75073Y-47565D01*
X75073Y-47395D01*
X75073Y-54237D01*
X75000Y-54237D01*
X74889Y-54237D01*
X74889Y-52740D01*
X74726Y-52347D01*
X74425Y-52046D01*
X74157Y-51934D01*
X74157Y-39316D01*
X74157Y-38990D01*
X74111Y-38755D01*
X73977Y-38556D01*
X73778Y-38423D01*
X73543Y-38376D01*
X73308Y-38423D01*
X73108Y-38556D01*
X72975Y-38755D01*
X72928Y-38990D01*
X72928Y-39316D01*
X72975Y-39551D01*
X73108Y-39750D01*
X73308Y-39883D01*
X73543Y-39930D01*
X73778Y-39883D01*
X73977Y-39750D01*
X74111Y-39551D01*
X74157Y-39316D01*
X74157Y-51934D01*
X74032Y-51882D01*
X73606Y-51882D01*
X73213Y-52045D01*
X72912Y-52345D01*
X72749Y-52738D01*
X72748Y-53164D01*
X72911Y-53558D01*
X73212Y-53859D01*
X73605Y-54022D01*
X74030Y-54022D01*
X74424Y-53860D01*
X74725Y-53559D01*
X74888Y-53166D01*
X74889Y-52740D01*
X74889Y-54237D01*
X72415Y-54237D01*
X72415Y-36178D01*
X72321Y-35952D01*
X72148Y-35778D01*
X71922Y-35685D01*
X71678Y-35684D01*
X71452Y-35778D01*
X71299Y-35930D01*
X71148Y-35778D01*
X70922Y-35685D01*
X70678Y-35684D01*
X70452Y-35778D01*
X70299Y-35930D01*
X70148Y-35778D01*
X69922Y-35685D01*
X69678Y-35684D01*
X69452Y-35778D01*
X69299Y-35930D01*
X69148Y-35778D01*
X68922Y-35685D01*
X68678Y-35684D01*
X68452Y-35778D01*
X68299Y-35930D01*
X68148Y-35778D01*
X67922Y-35685D01*
X67678Y-35684D01*
X67452Y-35778D01*
X67299Y-35930D01*
X67148Y-35778D01*
X66922Y-35685D01*
X66678Y-35684D01*
X66452Y-35778D01*
X66299Y-35930D01*
X66148Y-35778D01*
X65922Y-35685D01*
X65678Y-35684D01*
X65452Y-35778D01*
X65299Y-35930D01*
X65148Y-35778D01*
X64922Y-35685D01*
X64678Y-35684D01*
X64452Y-35778D01*
X64299Y-35930D01*
X64148Y-35778D01*
X63922Y-35685D01*
X63678Y-35684D01*
X63452Y-35778D01*
X63299Y-35930D01*
X63148Y-35778D01*
X62922Y-35685D01*
X62678Y-35684D01*
X62452Y-35778D01*
X62299Y-35930D01*
X62148Y-35778D01*
X61922Y-35685D01*
X61678Y-35684D01*
X61452Y-35778D01*
X61299Y-35930D01*
X61148Y-35778D01*
X60922Y-35685D01*
X60678Y-35684D01*
X60452Y-35778D01*
X60299Y-35930D01*
X60148Y-35778D01*
X59922Y-35685D01*
X59678Y-35684D01*
X59452Y-35778D01*
X59299Y-35930D01*
X59148Y-35778D01*
X58922Y-35685D01*
X58678Y-35684D01*
X58452Y-35778D01*
X58299Y-35930D01*
X58148Y-35778D01*
X57922Y-35685D01*
X57678Y-35684D01*
X57452Y-35778D01*
X57299Y-35930D01*
X57148Y-35778D01*
X56922Y-35685D01*
X56678Y-35684D01*
X56452Y-35778D01*
X56278Y-35951D01*
X56185Y-36177D01*
X56184Y-36421D01*
X56278Y-36647D01*
X56451Y-36821D01*
X56677Y-36914D01*
X56921Y-36915D01*
X57147Y-36821D01*
X57300Y-36669D01*
X57451Y-36821D01*
X57677Y-36914D01*
X57921Y-36915D01*
X58147Y-36821D01*
X58300Y-36669D01*
X58451Y-36821D01*
X58677Y-36914D01*
X58921Y-36915D01*
X59147Y-36821D01*
X59300Y-36669D01*
X59451Y-36821D01*
X59677Y-36914D01*
X59921Y-36915D01*
X60147Y-36821D01*
X60300Y-36669D01*
X60451Y-36821D01*
X60677Y-36914D01*
X60921Y-36915D01*
X61147Y-36821D01*
X61300Y-36669D01*
X61451Y-36821D01*
X61677Y-36914D01*
X61921Y-36915D01*
X62147Y-36821D01*
X62300Y-36669D01*
X62451Y-36821D01*
X62677Y-36914D01*
X62921Y-36915D01*
X63147Y-36821D01*
X63300Y-36669D01*
X63451Y-36821D01*
X63677Y-36914D01*
X63921Y-36915D01*
X64147Y-36821D01*
X64300Y-36669D01*
X64451Y-36821D01*
X64677Y-36914D01*
X64921Y-36915D01*
X65147Y-36821D01*
X65300Y-36669D01*
X65451Y-36821D01*
X65677Y-36914D01*
X65921Y-36915D01*
X66147Y-36821D01*
X66300Y-36669D01*
X66451Y-36821D01*
X66677Y-36914D01*
X66921Y-36915D01*
X67147Y-36821D01*
X67300Y-36669D01*
X67451Y-36821D01*
X67677Y-36914D01*
X67921Y-36915D01*
X68147Y-36821D01*
X68300Y-36669D01*
X68451Y-36821D01*
X68677Y-36914D01*
X68921Y-36915D01*
X69147Y-36821D01*
X69300Y-36669D01*
X69451Y-36821D01*
X69677Y-36914D01*
X69921Y-36915D01*
X70147Y-36821D01*
X70300Y-36669D01*
X70451Y-36821D01*
X70584Y-36876D01*
X70504Y-36909D01*
X70423Y-36991D01*
X70379Y-37098D01*
X70379Y-37171D01*
X70451Y-37243D01*
X70494Y-37243D01*
X70474Y-37263D01*
X70451Y-37263D01*
X70379Y-37336D01*
X70379Y-37409D01*
X70399Y-37458D01*
X70399Y-37504D01*
X70399Y-37701D01*
X70399Y-37701D01*
X70399Y-37799D01*
X70399Y-37996D01*
X70440Y-38095D01*
X70506Y-38161D01*
X70506Y-46937D01*
X70484Y-46959D01*
X70484Y-44754D01*
X70416Y-44590D01*
X70291Y-44465D01*
X70128Y-44397D01*
X69951Y-44397D01*
X69808Y-44456D01*
X69837Y-44387D01*
X69837Y-43760D01*
X69817Y-43712D01*
X69817Y-38534D01*
X69817Y-38236D01*
X69784Y-38073D01*
X69692Y-37934D01*
X69553Y-37842D01*
X69389Y-37809D01*
X69226Y-37842D01*
X69094Y-37930D01*
X69025Y-37883D01*
X69079Y-37828D01*
X69163Y-37628D01*
X69163Y-37411D01*
X69080Y-37211D01*
X68927Y-37057D01*
X68726Y-36974D01*
X68510Y-36974D01*
X68309Y-37057D01*
X68228Y-37138D01*
X68147Y-37057D01*
X67947Y-36974D01*
X67730Y-36974D01*
X67530Y-37057D01*
X67376Y-37210D01*
X67293Y-37410D01*
X67293Y-37627D01*
X67376Y-37827D01*
X67408Y-37860D01*
X67311Y-37922D01*
X67191Y-37842D01*
X67027Y-37809D01*
X66863Y-37842D01*
X66732Y-37930D01*
X66600Y-37842D01*
X66437Y-37809D01*
X66273Y-37842D01*
X66141Y-37930D01*
X66010Y-37842D01*
X65846Y-37809D01*
X65682Y-37842D01*
X65551Y-37930D01*
X65419Y-37842D01*
X65304Y-37819D01*
X65383Y-37628D01*
X65383Y-37411D01*
X65300Y-37211D01*
X65147Y-37057D01*
X64947Y-36974D01*
X64730Y-36974D01*
X64530Y-37057D01*
X64376Y-37210D01*
X64293Y-37410D01*
X64293Y-37627D01*
X64376Y-37827D01*
X64434Y-37886D01*
X64370Y-37930D01*
X64238Y-37842D01*
X64074Y-37809D01*
X63911Y-37842D01*
X63772Y-37934D01*
X63679Y-38073D01*
X63647Y-38236D01*
X63647Y-38534D01*
X63679Y-38698D01*
X63772Y-38836D01*
X63911Y-38929D01*
X64074Y-38962D01*
X64238Y-38929D01*
X64370Y-38841D01*
X64501Y-38929D01*
X64665Y-38962D01*
X64828Y-38929D01*
X64960Y-38841D01*
X65092Y-38929D01*
X65255Y-38962D01*
X65419Y-38929D01*
X65551Y-38841D01*
X65682Y-38929D01*
X65846Y-38962D01*
X66010Y-38929D01*
X66141Y-38841D01*
X66273Y-38929D01*
X66437Y-38962D01*
X66600Y-38929D01*
X66732Y-38841D01*
X66863Y-38929D01*
X67027Y-38962D01*
X67191Y-38929D01*
X67311Y-38849D01*
X67456Y-38940D01*
X67538Y-38963D01*
X67608Y-38898D01*
X67608Y-38395D01*
X67600Y-38395D01*
X67600Y-38375D01*
X67608Y-38375D01*
X67608Y-38367D01*
X67628Y-38367D01*
X67628Y-38375D01*
X67635Y-38375D01*
X67635Y-38395D01*
X67628Y-38395D01*
X67628Y-38898D01*
X67697Y-38963D01*
X67780Y-38940D01*
X67924Y-38849D01*
X68045Y-38929D01*
X68208Y-38962D01*
X68372Y-38929D01*
X68503Y-38841D01*
X68635Y-38929D01*
X68799Y-38962D01*
X68962Y-38929D01*
X69094Y-38841D01*
X69226Y-38929D01*
X69389Y-38962D01*
X69553Y-38929D01*
X69692Y-38836D01*
X69784Y-38698D01*
X69817Y-38534D01*
X69817Y-43712D01*
X69792Y-43653D01*
X69711Y-43572D01*
X69604Y-43527D01*
X69489Y-43527D01*
X69334Y-43527D01*
X69261Y-43600D01*
X69261Y-44063D01*
X69764Y-44063D01*
X69836Y-43991D01*
X69837Y-43760D01*
X69837Y-44387D01*
X69836Y-44156D01*
X69764Y-44083D01*
X69261Y-44083D01*
X69261Y-44091D01*
X69241Y-44091D01*
X69241Y-44083D01*
X69241Y-44063D01*
X69241Y-43600D01*
X69169Y-43527D01*
X69014Y-43527D01*
X68988Y-43527D01*
X68988Y-43022D01*
X68920Y-42858D01*
X68795Y-42733D01*
X68632Y-42665D01*
X68455Y-42665D01*
X68291Y-42732D01*
X68166Y-42857D01*
X68098Y-43021D01*
X68098Y-43102D01*
X68095Y-43105D01*
X66191Y-43105D01*
X66192Y-43100D01*
X66193Y-42923D01*
X66125Y-42760D01*
X66000Y-42634D01*
X65836Y-42566D01*
X65659Y-42566D01*
X65496Y-42634D01*
X65438Y-42691D01*
X64224Y-42691D01*
X64224Y-42628D01*
X64157Y-42464D01*
X64031Y-42339D01*
X64022Y-42335D01*
X64502Y-41855D01*
X65478Y-41855D01*
X65535Y-41912D01*
X65698Y-41980D01*
X65875Y-41980D01*
X66039Y-41912D01*
X66164Y-41787D01*
X66232Y-41624D01*
X66232Y-41447D01*
X66164Y-41283D01*
X66140Y-41259D01*
X66192Y-41132D01*
X66193Y-40955D01*
X66125Y-40791D01*
X66000Y-40666D01*
X65836Y-40598D01*
X65659Y-40598D01*
X65595Y-40624D01*
X63604Y-40624D01*
X63604Y-39603D01*
X63604Y-39053D01*
X63563Y-38954D01*
X63487Y-38878D01*
X63387Y-38836D01*
X63280Y-38836D01*
X62730Y-38836D01*
X62631Y-38877D01*
X62555Y-38953D01*
X62514Y-39052D01*
X62514Y-39066D01*
X62368Y-38920D01*
X62167Y-38836D01*
X61951Y-38836D01*
X61811Y-38894D01*
X61811Y-37301D01*
X61729Y-37092D01*
X61715Y-37071D01*
X61607Y-37052D01*
X61593Y-37066D01*
X61593Y-37038D01*
X61574Y-36929D01*
X61368Y-36839D01*
X61144Y-36834D01*
X60934Y-36915D01*
X60913Y-36929D01*
X60895Y-37038D01*
X61244Y-37387D01*
X61593Y-37038D01*
X61593Y-37066D01*
X61258Y-37401D01*
X61607Y-37750D01*
X61715Y-37732D01*
X61806Y-37526D01*
X61811Y-37301D01*
X61811Y-38894D01*
X61750Y-38919D01*
X61597Y-39072D01*
X61593Y-39083D01*
X61593Y-37764D01*
X61244Y-37415D01*
X61229Y-37429D01*
X61229Y-37401D01*
X60881Y-37052D01*
X60772Y-37071D01*
X60681Y-37276D01*
X60676Y-37501D01*
X60758Y-37711D01*
X60772Y-37732D01*
X60881Y-37750D01*
X61229Y-37401D01*
X61229Y-37429D01*
X60895Y-37764D01*
X60913Y-37873D01*
X61119Y-37963D01*
X61344Y-37968D01*
X61553Y-37887D01*
X61574Y-37873D01*
X61593Y-37764D01*
X61593Y-39083D01*
X61514Y-39273D01*
X61513Y-39489D01*
X61596Y-39690D01*
X61749Y-39843D01*
X61842Y-39881D01*
X61750Y-39919D01*
X61597Y-40072D01*
X61514Y-40273D01*
X61513Y-40489D01*
X61596Y-40690D01*
X61749Y-40843D01*
X61950Y-40926D01*
X62166Y-40926D01*
X62367Y-40844D01*
X62520Y-40691D01*
X62603Y-40490D01*
X62604Y-40273D01*
X62521Y-40073D01*
X62368Y-39920D01*
X62276Y-39881D01*
X62367Y-39844D01*
X62514Y-39697D01*
X62514Y-39710D01*
X62555Y-39809D01*
X62630Y-39885D01*
X62730Y-39926D01*
X62837Y-39926D01*
X63387Y-39926D01*
X63486Y-39885D01*
X63562Y-39810D01*
X63604Y-39710D01*
X63604Y-39603D01*
X63604Y-40624D01*
X63188Y-40624D01*
X63066Y-40649D01*
X62962Y-40718D01*
X61375Y-42305D01*
X61375Y-40246D01*
X61293Y-40046D01*
X61139Y-39892D01*
X60939Y-39809D01*
X60722Y-39809D01*
X60535Y-39886D01*
X60535Y-39316D01*
X60535Y-38990D01*
X60488Y-38755D01*
X60355Y-38556D01*
X60156Y-38423D01*
X59921Y-38376D01*
X59686Y-38423D01*
X59486Y-38556D01*
X59353Y-38755D01*
X59306Y-38990D01*
X59306Y-39316D01*
X59353Y-39551D01*
X59486Y-39750D01*
X59686Y-39883D01*
X59921Y-39930D01*
X60156Y-39883D01*
X60355Y-39750D01*
X60488Y-39551D01*
X60535Y-39316D01*
X60535Y-39886D01*
X60522Y-39892D01*
X60368Y-40045D01*
X60285Y-40245D01*
X60285Y-40462D01*
X60368Y-40662D01*
X60521Y-40816D01*
X60721Y-40899D01*
X60938Y-40899D01*
X61139Y-40816D01*
X61292Y-40663D01*
X61375Y-40463D01*
X61375Y-40246D01*
X61375Y-42305D01*
X60885Y-42795D01*
X60885Y-42779D01*
X60844Y-42680D01*
X60768Y-42604D01*
X60351Y-42187D01*
X60252Y-42146D01*
X60144Y-42146D01*
X60045Y-42187D01*
X59969Y-42262D01*
X59607Y-42624D01*
X59591Y-42664D01*
X59503Y-42700D01*
X59340Y-42864D01*
X59340Y-42966D01*
X59695Y-43321D01*
X59701Y-43316D01*
X59715Y-43330D01*
X59709Y-43336D01*
X59715Y-43341D01*
X59701Y-43355D01*
X59695Y-43350D01*
X59689Y-43355D01*
X59675Y-43341D01*
X59681Y-43336D01*
X59326Y-42980D01*
X59246Y-42980D01*
X59246Y-38301D01*
X59181Y-38143D01*
X59061Y-38023D01*
X58904Y-37958D01*
X58789Y-37958D01*
X58789Y-37293D01*
X58706Y-37093D01*
X58553Y-36939D01*
X58352Y-36856D01*
X58136Y-36856D01*
X57935Y-36939D01*
X57782Y-37092D01*
X57699Y-37292D01*
X57699Y-37509D01*
X57781Y-37709D01*
X57934Y-37863D01*
X58135Y-37946D01*
X58352Y-37946D01*
X58552Y-37863D01*
X58705Y-37710D01*
X58788Y-37510D01*
X58789Y-37293D01*
X58789Y-37958D01*
X58734Y-37958D01*
X58577Y-38023D01*
X58456Y-38143D01*
X58391Y-38300D01*
X58391Y-38470D01*
X58456Y-38627D01*
X58576Y-38748D01*
X58733Y-38813D01*
X58903Y-38813D01*
X59060Y-38748D01*
X59181Y-38628D01*
X59246Y-38471D01*
X59246Y-38301D01*
X59246Y-42980D01*
X59223Y-42980D01*
X59060Y-43143D01*
X59015Y-43250D01*
X59015Y-43365D01*
X59059Y-43472D01*
X59125Y-43538D01*
X58846Y-43538D01*
X58842Y-43527D01*
X58716Y-43402D01*
X58553Y-43334D01*
X58376Y-43334D01*
X58375Y-43334D01*
X58375Y-40246D01*
X58293Y-40046D01*
X58139Y-39892D01*
X57939Y-39809D01*
X57722Y-39809D01*
X57522Y-39892D01*
X57368Y-40045D01*
X57285Y-40245D01*
X57285Y-40462D01*
X57368Y-40662D01*
X57521Y-40816D01*
X57721Y-40899D01*
X57938Y-40899D01*
X58139Y-40816D01*
X58292Y-40663D01*
X58375Y-40463D01*
X58375Y-40246D01*
X58375Y-43334D01*
X58212Y-43402D01*
X58087Y-43527D01*
X58060Y-43592D01*
X56704Y-42236D01*
X56704Y-42155D01*
X56637Y-41992D01*
X56512Y-41867D01*
X56348Y-41799D01*
X56171Y-41799D01*
X56151Y-41807D01*
X56151Y-36309D01*
X56068Y-36109D01*
X55915Y-35955D01*
X55715Y-35872D01*
X55498Y-35872D01*
X55297Y-35955D01*
X55144Y-36108D01*
X55106Y-36200D01*
X55068Y-36109D01*
X54915Y-35955D01*
X54715Y-35872D01*
X54498Y-35872D01*
X54297Y-35955D01*
X54151Y-36101D01*
X54151Y-36088D01*
X54110Y-35989D01*
X54034Y-35913D01*
X53935Y-35872D01*
X53827Y-35872D01*
X53277Y-35872D01*
X53178Y-35913D01*
X53102Y-35989D01*
X53061Y-36088D01*
X53061Y-36195D01*
X53061Y-36745D01*
X53102Y-36845D01*
X53178Y-36921D01*
X53277Y-36962D01*
X53384Y-36962D01*
X53934Y-36962D01*
X54034Y-36921D01*
X54110Y-36845D01*
X54151Y-36746D01*
X54151Y-36732D01*
X54297Y-36879D01*
X54497Y-36962D01*
X54714Y-36962D01*
X54914Y-36879D01*
X55068Y-36726D01*
X55106Y-36634D01*
X55144Y-36725D01*
X55297Y-36879D01*
X55497Y-36962D01*
X55714Y-36962D01*
X55914Y-36879D01*
X56068Y-36726D01*
X56151Y-36526D01*
X56151Y-36309D01*
X56151Y-41807D01*
X56008Y-41866D01*
X55882Y-41991D01*
X55814Y-42155D01*
X55814Y-42332D01*
X55882Y-42495D01*
X56007Y-42621D01*
X56170Y-42689D01*
X56252Y-42689D01*
X57923Y-44360D01*
X58027Y-44429D01*
X58149Y-44453D01*
X59456Y-44453D01*
X59397Y-44596D01*
X59397Y-44773D01*
X59465Y-44936D01*
X59590Y-45062D01*
X59753Y-45129D01*
X59930Y-45130D01*
X60094Y-45062D01*
X60151Y-45005D01*
X61013Y-45005D01*
X60845Y-45184D01*
X60778Y-45184D01*
X60614Y-45252D01*
X60489Y-45377D01*
X60421Y-45541D01*
X60421Y-45718D01*
X60488Y-45881D01*
X60613Y-46006D01*
X60777Y-46074D01*
X60954Y-46074D01*
X61117Y-46007D01*
X61243Y-45882D01*
X61311Y-45718D01*
X61311Y-45623D01*
X61596Y-45320D01*
X62637Y-45320D01*
X62637Y-45319D01*
X62760Y-45295D01*
X62864Y-45226D01*
X64345Y-43745D01*
X68228Y-43745D01*
X68228Y-43745D01*
X68350Y-43720D01*
X68454Y-43651D01*
X68550Y-43555D01*
X68631Y-43555D01*
X68795Y-43487D01*
X68920Y-43362D01*
X68988Y-43199D01*
X68988Y-43022D01*
X68988Y-43527D01*
X68899Y-43527D01*
X68792Y-43572D01*
X68710Y-43653D01*
X68666Y-43760D01*
X68666Y-43991D01*
X68739Y-44063D01*
X69241Y-44063D01*
X69241Y-44083D01*
X68739Y-44083D01*
X68666Y-44156D01*
X68666Y-44387D01*
X68703Y-44474D01*
X68687Y-44513D01*
X68686Y-44621D01*
X68686Y-45133D01*
X68727Y-45232D01*
X68803Y-45308D01*
X68903Y-45349D01*
X69010Y-45349D01*
X69600Y-45349D01*
X69699Y-45308D01*
X69775Y-45232D01*
X69782Y-45215D01*
X69786Y-45219D01*
X69950Y-45287D01*
X70127Y-45287D01*
X70291Y-45219D01*
X70416Y-45094D01*
X70484Y-44931D01*
X70484Y-44754D01*
X70484Y-46959D01*
X69575Y-47868D01*
X58999Y-47868D01*
X59060Y-47842D01*
X59181Y-47722D01*
X59246Y-47565D01*
X59246Y-47395D01*
X59181Y-47238D01*
X59061Y-47118D01*
X58904Y-47052D01*
X58734Y-47052D01*
X58577Y-47117D01*
X58456Y-47237D01*
X58391Y-47394D01*
X58391Y-47564D01*
X58456Y-47722D01*
X58576Y-47842D01*
X58638Y-47868D01*
X57314Y-47868D01*
X57314Y-44618D01*
X57231Y-44418D01*
X57078Y-44264D01*
X56878Y-44181D01*
X56661Y-44181D01*
X56461Y-44264D01*
X56307Y-44417D01*
X56224Y-44617D01*
X56224Y-44834D01*
X56262Y-44926D01*
X56171Y-44888D01*
X55954Y-44888D01*
X55753Y-44971D01*
X55600Y-45124D01*
X55517Y-45324D01*
X55517Y-45541D01*
X55555Y-45633D01*
X55463Y-45596D01*
X55247Y-45595D01*
X55046Y-45678D01*
X54893Y-45831D01*
X54810Y-46032D01*
X54810Y-46239D01*
X54801Y-46230D01*
X54701Y-46189D01*
X54594Y-46189D01*
X54495Y-46230D01*
X54419Y-46306D01*
X54030Y-46694D01*
X53989Y-46794D01*
X53989Y-46901D01*
X54030Y-47000D01*
X54105Y-47076D01*
X54494Y-47465D01*
X54594Y-47506D01*
X54701Y-47507D01*
X54800Y-47465D01*
X54876Y-47390D01*
X55265Y-47001D01*
X55306Y-46902D01*
X55306Y-46794D01*
X55265Y-46695D01*
X55256Y-46685D01*
X55463Y-46686D01*
X55663Y-46603D01*
X55816Y-46450D01*
X55900Y-46249D01*
X55900Y-46033D01*
X55862Y-45940D01*
X55953Y-45978D01*
X56170Y-45978D01*
X56370Y-45896D01*
X56523Y-45742D01*
X56607Y-45542D01*
X56607Y-45325D01*
X56569Y-45233D01*
X56660Y-45271D01*
X56877Y-45271D01*
X57077Y-45189D01*
X57231Y-45035D01*
X57314Y-44835D01*
X57314Y-44618D01*
X57314Y-47868D01*
X56535Y-47868D01*
X56397Y-47895D01*
X56339Y-47934D01*
X56280Y-47973D01*
X54587Y-49666D01*
X54509Y-49783D01*
X54482Y-49921D01*
X54482Y-53270D01*
X53068Y-53270D01*
X52340Y-52541D01*
X52187Y-52439D01*
X52007Y-52404D01*
X50950Y-52404D01*
X50950Y-48849D01*
X52117Y-47682D01*
X52795Y-47682D01*
X52795Y-47682D01*
X52933Y-47655D01*
X52933Y-47655D01*
X53049Y-47577D01*
X56199Y-44427D01*
X56199Y-44427D01*
X56277Y-44310D01*
X56304Y-44173D01*
X56304Y-44173D01*
X56304Y-43419D01*
X56321Y-43402D01*
X56389Y-43238D01*
X56389Y-43061D01*
X56322Y-42897D01*
X56197Y-42772D01*
X56033Y-42704D01*
X55856Y-42704D01*
X55693Y-42772D01*
X55567Y-42897D01*
X55499Y-43060D01*
X55499Y-43237D01*
X55567Y-43401D01*
X55584Y-43418D01*
X55584Y-44024D01*
X54678Y-44930D01*
X54678Y-41549D01*
X54678Y-38549D01*
X54596Y-38349D01*
X54442Y-38195D01*
X54242Y-38112D01*
X54025Y-38112D01*
X53825Y-38195D01*
X53680Y-38339D01*
X53537Y-38195D01*
X53337Y-38112D01*
X53120Y-38112D01*
X52920Y-38195D01*
X52775Y-38339D01*
X52631Y-38195D01*
X52431Y-38112D01*
X52214Y-38112D01*
X52014Y-38195D01*
X51861Y-38348D01*
X51777Y-38548D01*
X51777Y-38765D01*
X51860Y-38965D01*
X52013Y-39119D01*
X52213Y-39202D01*
X52430Y-39202D01*
X52631Y-39119D01*
X52775Y-38975D01*
X52919Y-39119D01*
X53119Y-39202D01*
X53336Y-39202D01*
X53536Y-39119D01*
X53681Y-38975D01*
X53824Y-39119D01*
X54024Y-39202D01*
X54241Y-39202D01*
X54442Y-39119D01*
X54595Y-38966D01*
X54678Y-38766D01*
X54678Y-38549D01*
X54678Y-41549D01*
X54596Y-41349D01*
X54442Y-41195D01*
X54242Y-41112D01*
X54025Y-41112D01*
X53825Y-41195D01*
X53680Y-41339D01*
X53537Y-41195D01*
X53337Y-41112D01*
X53120Y-41112D01*
X52920Y-41195D01*
X52775Y-41339D01*
X52631Y-41195D01*
X52431Y-41112D01*
X52214Y-41112D01*
X52014Y-41195D01*
X51861Y-41348D01*
X51777Y-41548D01*
X51777Y-41765D01*
X51860Y-41965D01*
X52013Y-42119D01*
X52213Y-42202D01*
X52430Y-42202D01*
X52631Y-42119D01*
X52775Y-41975D01*
X52919Y-42119D01*
X53119Y-42202D01*
X53336Y-42202D01*
X53536Y-42119D01*
X53681Y-41975D01*
X53824Y-42119D01*
X54024Y-42202D01*
X54241Y-42202D01*
X54442Y-42119D01*
X54595Y-41966D01*
X54678Y-41766D01*
X54678Y-41549D01*
X54678Y-44930D01*
X52646Y-46962D01*
X51968Y-46962D01*
X51830Y-46990D01*
X51713Y-47068D01*
X51174Y-47607D01*
X51174Y-42926D01*
X51079Y-42696D01*
X50932Y-42549D01*
X51078Y-42404D01*
X51174Y-42174D01*
X51174Y-41926D01*
X51079Y-41696D01*
X50932Y-41549D01*
X51078Y-41404D01*
X51174Y-41174D01*
X51174Y-40926D01*
X51079Y-40696D01*
X50932Y-40549D01*
X51078Y-40404D01*
X51174Y-40174D01*
X51174Y-39926D01*
X51079Y-39696D01*
X50904Y-39521D01*
X50674Y-39425D01*
X50426Y-39425D01*
X50196Y-39520D01*
X50174Y-39542D01*
X50174Y-39426D01*
X50079Y-39196D01*
X49904Y-39021D01*
X49674Y-38925D01*
X49426Y-38925D01*
X49196Y-39020D01*
X49021Y-39195D01*
X48925Y-39425D01*
X48925Y-39673D01*
X49020Y-39903D01*
X49167Y-40050D01*
X49021Y-40195D01*
X48925Y-40425D01*
X48925Y-40673D01*
X49020Y-40903D01*
X49167Y-41050D01*
X49021Y-41195D01*
X48925Y-41425D01*
X48925Y-41673D01*
X49020Y-41903D01*
X49167Y-42050D01*
X49021Y-42195D01*
X48925Y-42425D01*
X48925Y-42673D01*
X48981Y-42808D01*
X48981Y-43012D01*
X47763Y-44230D01*
X47642Y-44230D01*
X47812Y-44060D01*
X47949Y-43729D01*
X47950Y-43371D01*
X47950Y-38871D01*
X47813Y-38540D01*
X47560Y-38287D01*
X47229Y-38150D01*
X46871Y-38149D01*
X46542Y-38285D01*
X46542Y-36599D01*
X46380Y-36205D01*
X46079Y-35904D01*
X45686Y-35741D01*
X45260Y-35740D01*
X44867Y-35903D01*
X44565Y-36204D01*
X44402Y-36597D01*
X44402Y-37022D01*
X44564Y-37416D01*
X44865Y-37717D01*
X45258Y-37880D01*
X45684Y-37881D01*
X46077Y-37718D01*
X46379Y-37417D01*
X46542Y-37024D01*
X46542Y-36599D01*
X46542Y-38285D01*
X46540Y-38286D01*
X46287Y-38539D01*
X46150Y-38870D01*
X46149Y-39228D01*
X46286Y-39559D01*
X46539Y-39812D01*
X46870Y-39949D01*
X47228Y-39950D01*
X47559Y-39813D01*
X47812Y-39560D01*
X47949Y-39229D01*
X47950Y-38871D01*
X47950Y-43371D01*
X47813Y-43040D01*
X47560Y-42787D01*
X47229Y-42650D01*
X46871Y-42649D01*
X46540Y-42786D01*
X46287Y-43039D01*
X46150Y-43370D01*
X46149Y-43728D01*
X46286Y-44059D01*
X46480Y-44253D01*
X46381Y-44273D01*
X46196Y-44396D01*
X46014Y-44579D01*
X45890Y-44764D01*
X45847Y-44982D01*
X45847Y-45488D01*
X45818Y-45445D01*
X45641Y-45327D01*
X45433Y-45285D01*
X45224Y-45327D01*
X45047Y-45445D01*
X44929Y-45622D01*
X44887Y-45831D01*
X44887Y-46294D01*
X44929Y-46503D01*
X45047Y-46680D01*
X45224Y-46798D01*
X45433Y-46840D01*
X45641Y-46798D01*
X45818Y-46680D01*
X45925Y-46521D01*
X46031Y-46680D01*
X46208Y-46798D01*
X46417Y-46840D01*
X46626Y-46798D01*
X46803Y-46680D01*
X46909Y-46521D01*
X47015Y-46680D01*
X47192Y-46798D01*
X47401Y-46840D01*
X47511Y-46818D01*
X47780Y-47086D01*
X47780Y-49291D01*
X47800Y-49391D01*
X47800Y-49400D01*
X47803Y-49408D01*
X47823Y-49509D01*
X47880Y-49594D01*
X47883Y-49602D01*
X47890Y-49608D01*
X47947Y-49694D01*
X48032Y-49751D01*
X48038Y-49757D01*
X48046Y-49760D01*
X48132Y-49817D01*
X48232Y-49837D01*
X48240Y-49841D01*
X48249Y-49841D01*
X48350Y-49861D01*
X48450Y-49841D01*
X48459Y-49841D01*
X48467Y-49838D01*
X48568Y-49817D01*
X48653Y-49761D01*
X48661Y-49757D01*
X48667Y-49751D01*
X48753Y-49694D01*
X48810Y-49609D01*
X48816Y-49603D01*
X48819Y-49595D01*
X48877Y-49509D01*
X48896Y-49409D01*
X48900Y-49401D01*
X48900Y-49392D01*
X48920Y-49291D01*
X48920Y-46850D01*
X48877Y-46632D01*
X48753Y-46447D01*
X47966Y-45659D01*
X47901Y-45617D01*
X47787Y-45445D01*
X47674Y-45370D01*
X48000Y-45370D01*
X48218Y-45326D01*
X48403Y-45203D01*
X49954Y-43651D01*
X49954Y-43651D01*
X50077Y-43466D01*
X50077Y-43466D01*
X50078Y-43461D01*
X50195Y-43578D01*
X50425Y-43674D01*
X50673Y-43674D01*
X50903Y-43579D01*
X51078Y-43404D01*
X51174Y-43174D01*
X51174Y-42926D01*
X51174Y-47607D01*
X50335Y-48446D01*
X50257Y-48563D01*
X50230Y-48700D01*
X50230Y-52583D01*
X50156Y-52694D01*
X50120Y-52874D01*
X50156Y-53053D01*
X50258Y-53206D01*
X50410Y-53308D01*
X50590Y-53344D01*
X51813Y-53344D01*
X52541Y-54072D01*
X52541Y-54072D01*
X52694Y-54174D01*
X52694Y-54174D01*
X52874Y-54210D01*
X52874Y-54210D01*
X54842Y-54210D01*
X55022Y-54174D01*
X55174Y-54072D01*
X55276Y-53920D01*
X55312Y-53740D01*
X55276Y-53560D01*
X55202Y-53449D01*
X55202Y-50070D01*
X56684Y-48588D01*
X69724Y-48588D01*
X69724Y-48588D01*
X69862Y-48560D01*
X69862Y-48560D01*
X69978Y-48482D01*
X71120Y-47341D01*
X71120Y-47341D01*
X71159Y-47282D01*
X71198Y-47224D01*
X71198Y-47224D01*
X71226Y-47086D01*
X71226Y-47086D01*
X71226Y-38161D01*
X71291Y-38096D01*
X71332Y-37996D01*
X71332Y-37991D01*
X71509Y-38064D01*
X71726Y-38064D01*
X71926Y-37981D01*
X72079Y-37828D01*
X72163Y-37628D01*
X72163Y-37411D01*
X72080Y-37211D01*
X71927Y-37057D01*
X71726Y-36974D01*
X71510Y-36974D01*
X71332Y-37048D01*
X71308Y-36991D01*
X71227Y-36909D01*
X71120Y-36865D01*
X71041Y-36865D01*
X71147Y-36821D01*
X71300Y-36669D01*
X71451Y-36821D01*
X71677Y-36914D01*
X71921Y-36915D01*
X72147Y-36821D01*
X72321Y-36648D01*
X72414Y-36422D01*
X72415Y-36178D01*
X72415Y-54237D01*
X72356Y-54237D01*
X72356Y-53273D01*
X72356Y-52722D01*
X72356Y-51501D01*
X72356Y-50950D01*
X72315Y-50851D01*
X72239Y-50775D01*
X72140Y-50733D01*
X72033Y-50733D01*
X71993Y-50733D01*
X71993Y-50685D01*
X71968Y-50562D01*
X71926Y-50499D01*
X71926Y-50285D01*
X71844Y-50085D01*
X71691Y-49931D01*
X71490Y-49848D01*
X71273Y-49848D01*
X71073Y-49931D01*
X70920Y-50084D01*
X70836Y-50284D01*
X70836Y-50501D01*
X70919Y-50702D01*
X71049Y-50832D01*
X71031Y-50850D01*
X70989Y-50949D01*
X70989Y-50959D01*
X68949Y-50959D01*
X68949Y-50293D01*
X68867Y-50084D01*
X68853Y-50063D01*
X68744Y-50044D01*
X68730Y-50058D01*
X68730Y-50030D01*
X68712Y-49921D01*
X68506Y-49831D01*
X68281Y-49826D01*
X68072Y-49907D01*
X68051Y-49921D01*
X68032Y-50030D01*
X68381Y-50379D01*
X68730Y-50030D01*
X68730Y-50058D01*
X68396Y-50393D01*
X68744Y-50742D01*
X68853Y-50724D01*
X68944Y-50518D01*
X68949Y-50293D01*
X68949Y-50959D01*
X68773Y-50959D01*
X68773Y-50950D01*
X68732Y-50851D01*
X68717Y-50835D01*
X68730Y-50756D01*
X68381Y-50407D01*
X68376Y-50413D01*
X68362Y-50399D01*
X68367Y-50393D01*
X68018Y-50044D01*
X67910Y-50063D01*
X67819Y-50268D01*
X67814Y-50493D01*
X67896Y-50703D01*
X67910Y-50724D01*
X67967Y-50733D01*
X67623Y-50733D01*
X67524Y-50774D01*
X67519Y-50779D01*
X67515Y-50775D01*
X67416Y-50733D01*
X67308Y-50733D01*
X67268Y-50733D01*
X67268Y-50685D01*
X67244Y-50562D01*
X67202Y-50499D01*
X67202Y-50285D01*
X67119Y-50085D01*
X66966Y-49931D01*
X66785Y-49856D01*
X66785Y-49394D01*
X66785Y-48844D01*
X66744Y-48745D01*
X66668Y-48669D01*
X66569Y-48628D01*
X66461Y-48628D01*
X65911Y-48628D01*
X65812Y-48669D01*
X65736Y-48745D01*
X65696Y-48840D01*
X65603Y-48824D01*
X65589Y-48838D01*
X65589Y-48810D01*
X65570Y-48701D01*
X65364Y-48610D01*
X65140Y-48605D01*
X64930Y-48687D01*
X64909Y-48701D01*
X64891Y-48810D01*
X65240Y-49159D01*
X65589Y-48810D01*
X65589Y-48838D01*
X65254Y-49173D01*
X65603Y-49522D01*
X65696Y-49506D01*
X65736Y-49600D01*
X65812Y-49676D01*
X65911Y-49718D01*
X66018Y-49718D01*
X66568Y-49718D01*
X66667Y-49677D01*
X66743Y-49601D01*
X66785Y-49502D01*
X66785Y-49394D01*
X66785Y-49856D01*
X66766Y-49848D01*
X66549Y-49848D01*
X66349Y-49931D01*
X66195Y-50084D01*
X66112Y-50284D01*
X66112Y-50501D01*
X66195Y-50702D01*
X66325Y-50832D01*
X66306Y-50850D01*
X66265Y-50949D01*
X66265Y-50959D01*
X65589Y-50959D01*
X65589Y-49536D01*
X65240Y-49187D01*
X65226Y-49201D01*
X65226Y-49173D01*
X64877Y-48824D01*
X64768Y-48842D01*
X64729Y-48930D01*
X64702Y-48864D01*
X64549Y-48711D01*
X64349Y-48628D01*
X64132Y-48628D01*
X63931Y-48710D01*
X63778Y-48864D01*
X63740Y-48956D01*
X63702Y-48864D01*
X63549Y-48711D01*
X63349Y-48628D01*
X63132Y-48628D01*
X62931Y-48710D01*
X62778Y-48864D01*
X62740Y-48956D01*
X62702Y-48864D01*
X62549Y-48711D01*
X62349Y-48628D01*
X62132Y-48628D01*
X61931Y-48710D01*
X61778Y-48864D01*
X61740Y-48956D01*
X61702Y-48864D01*
X61549Y-48711D01*
X61349Y-48628D01*
X61132Y-48628D01*
X60931Y-48710D01*
X60778Y-48864D01*
X60695Y-49064D01*
X60695Y-49281D01*
X60777Y-49481D01*
X60931Y-49634D01*
X61131Y-49718D01*
X61348Y-49718D01*
X61548Y-49635D01*
X61701Y-49482D01*
X61740Y-49390D01*
X61777Y-49481D01*
X61931Y-49634D01*
X62131Y-49718D01*
X62348Y-49718D01*
X62548Y-49635D01*
X62701Y-49482D01*
X62740Y-49390D01*
X62777Y-49481D01*
X62931Y-49634D01*
X63131Y-49718D01*
X63348Y-49718D01*
X63548Y-49635D01*
X63701Y-49482D01*
X63740Y-49390D01*
X63777Y-49481D01*
X63931Y-49634D01*
X64131Y-49718D01*
X64348Y-49718D01*
X64548Y-49635D01*
X64701Y-49482D01*
X64728Y-49417D01*
X64754Y-49482D01*
X64768Y-49503D01*
X64877Y-49522D01*
X65226Y-49173D01*
X65226Y-49201D01*
X64891Y-49536D01*
X64909Y-49645D01*
X65115Y-49735D01*
X65340Y-49740D01*
X65549Y-49659D01*
X65570Y-49645D01*
X65589Y-49536D01*
X65589Y-50959D01*
X64224Y-50959D01*
X64224Y-50293D01*
X64143Y-50084D01*
X64129Y-50063D01*
X64020Y-50044D01*
X64006Y-50058D01*
X64006Y-50030D01*
X63987Y-49921D01*
X63782Y-49831D01*
X63557Y-49826D01*
X63348Y-49907D01*
X63327Y-49921D01*
X63308Y-50030D01*
X63657Y-50379D01*
X64006Y-50030D01*
X64006Y-50058D01*
X63671Y-50393D01*
X64020Y-50742D01*
X64129Y-50724D01*
X64219Y-50518D01*
X64224Y-50293D01*
X64224Y-50959D01*
X64049Y-50959D01*
X64049Y-50950D01*
X64008Y-50851D01*
X63993Y-50835D01*
X64006Y-50756D01*
X63657Y-50407D01*
X63651Y-50413D01*
X63637Y-50399D01*
X63643Y-50393D01*
X63294Y-50044D01*
X63185Y-50063D01*
X63095Y-50268D01*
X63090Y-50493D01*
X63171Y-50703D01*
X63185Y-50724D01*
X63242Y-50733D01*
X62899Y-50733D01*
X62800Y-50774D01*
X62795Y-50779D01*
X62790Y-50775D01*
X62691Y-50733D01*
X62584Y-50733D01*
X62560Y-50733D01*
X62591Y-50702D01*
X62674Y-50502D01*
X62675Y-50285D01*
X62592Y-50085D01*
X62439Y-49931D01*
X62238Y-49848D01*
X62021Y-49848D01*
X61821Y-49931D01*
X61668Y-50084D01*
X61585Y-50284D01*
X61584Y-50501D01*
X61667Y-50702D01*
X61716Y-50750D01*
X61658Y-50774D01*
X61582Y-50850D01*
X61541Y-50949D01*
X61541Y-50959D01*
X59697Y-50959D01*
X59697Y-50293D01*
X59615Y-50084D01*
X59601Y-50063D01*
X59492Y-50044D01*
X59478Y-50058D01*
X59478Y-50030D01*
X59460Y-49921D01*
X59254Y-49831D01*
X59029Y-49826D01*
X58820Y-49907D01*
X58799Y-49921D01*
X58780Y-50030D01*
X59129Y-50379D01*
X59478Y-50030D01*
X59478Y-50058D01*
X59144Y-50393D01*
X59492Y-50742D01*
X59601Y-50724D01*
X59692Y-50518D01*
X59697Y-50293D01*
X59697Y-50959D01*
X59325Y-50959D01*
X59325Y-50950D01*
X59315Y-50927D01*
X59439Y-50879D01*
X59460Y-50865D01*
X59478Y-50756D01*
X59129Y-50407D01*
X59124Y-50413D01*
X59110Y-50399D01*
X59115Y-50393D01*
X58766Y-50044D01*
X58658Y-50063D01*
X58567Y-50268D01*
X58562Y-50493D01*
X58644Y-50703D01*
X58658Y-50724D01*
X58715Y-50733D01*
X58174Y-50733D01*
X58075Y-50774D01*
X57999Y-50850D01*
X57958Y-50949D01*
X57958Y-51057D01*
X57958Y-51608D01*
X57999Y-51707D01*
X58075Y-51783D01*
X58174Y-51825D01*
X58281Y-51825D01*
X59108Y-51825D01*
X59207Y-51784D01*
X59283Y-51708D01*
X59325Y-51609D01*
X59325Y-51599D01*
X61540Y-51599D01*
X61540Y-51608D01*
X61581Y-51707D01*
X61657Y-51783D01*
X61757Y-51825D01*
X61864Y-51825D01*
X62691Y-51825D01*
X62790Y-51784D01*
X62795Y-51779D01*
X62799Y-51783D01*
X62898Y-51825D01*
X63006Y-51825D01*
X63832Y-51825D01*
X63932Y-51784D01*
X64008Y-51708D01*
X64049Y-51609D01*
X64049Y-51599D01*
X66265Y-51599D01*
X66265Y-51608D01*
X66306Y-51707D01*
X66382Y-51783D01*
X66481Y-51825D01*
X66588Y-51825D01*
X67415Y-51825D01*
X67514Y-51784D01*
X67519Y-51779D01*
X67524Y-51783D01*
X67623Y-51825D01*
X67730Y-51825D01*
X68557Y-51825D01*
X68656Y-51784D01*
X68732Y-51708D01*
X68773Y-51609D01*
X68773Y-51599D01*
X70989Y-51599D01*
X70989Y-51608D01*
X71030Y-51707D01*
X71106Y-51783D01*
X71205Y-51825D01*
X71313Y-51825D01*
X72140Y-51825D01*
X72239Y-51784D01*
X72315Y-51708D01*
X72356Y-51609D01*
X72356Y-51501D01*
X72356Y-52722D01*
X72315Y-52622D01*
X72239Y-52546D01*
X72140Y-52505D01*
X72075Y-52505D01*
X72098Y-52451D01*
X72098Y-52274D01*
X72031Y-52110D01*
X71905Y-51985D01*
X71742Y-51917D01*
X71565Y-51917D01*
X71401Y-51984D01*
X71276Y-52109D01*
X71208Y-52273D01*
X71208Y-52450D01*
X71231Y-52505D01*
X71206Y-52505D01*
X71107Y-52546D01*
X71031Y-52622D01*
X70989Y-52721D01*
X70989Y-52829D01*
X70989Y-53380D01*
X71030Y-53479D01*
X71106Y-53555D01*
X71205Y-53596D01*
X71313Y-53596D01*
X72140Y-53596D01*
X72239Y-53555D01*
X72315Y-53479D01*
X72356Y-53380D01*
X72356Y-53273D01*
X72356Y-54237D01*
X68773Y-54237D01*
X68773Y-53273D01*
X68773Y-52722D01*
X68732Y-52622D01*
X68657Y-52546D01*
X68557Y-52505D01*
X68453Y-52505D01*
X68476Y-52451D01*
X68476Y-52274D01*
X68408Y-52110D01*
X68283Y-51985D01*
X68120Y-51917D01*
X67943Y-51917D01*
X67779Y-51984D01*
X67654Y-52109D01*
X67586Y-52273D01*
X67586Y-52450D01*
X67611Y-52510D01*
X67524Y-52546D01*
X67519Y-52551D01*
X67515Y-52546D01*
X67416Y-52505D01*
X67351Y-52505D01*
X67374Y-52451D01*
X67374Y-52274D01*
X67306Y-52110D01*
X67181Y-51985D01*
X67018Y-51917D01*
X66841Y-51917D01*
X66677Y-51984D01*
X66552Y-52109D01*
X66484Y-52273D01*
X66484Y-52450D01*
X66506Y-52505D01*
X66481Y-52505D01*
X66382Y-52546D01*
X66306Y-52622D01*
X66265Y-52721D01*
X66265Y-52829D01*
X66265Y-53380D01*
X66306Y-53479D01*
X66382Y-53555D01*
X66481Y-53596D01*
X66588Y-53596D01*
X67415Y-53596D01*
X67514Y-53555D01*
X67519Y-53551D01*
X67524Y-53555D01*
X67623Y-53596D01*
X67730Y-53596D01*
X68557Y-53596D01*
X68656Y-53555D01*
X68732Y-53479D01*
X68773Y-53380D01*
X68773Y-53273D01*
X68773Y-54237D01*
X64049Y-54237D01*
X64049Y-53273D01*
X64049Y-52722D01*
X64008Y-52622D01*
X63932Y-52546D01*
X63833Y-52505D01*
X63791Y-52505D01*
X63830Y-52411D01*
X63830Y-52234D01*
X63763Y-52071D01*
X63638Y-51945D01*
X63474Y-51877D01*
X63297Y-51877D01*
X63134Y-51945D01*
X63008Y-52070D01*
X62940Y-52233D01*
X62940Y-52410D01*
X62979Y-52505D01*
X62899Y-52505D01*
X62800Y-52546D01*
X62795Y-52551D01*
X62790Y-52546D01*
X62691Y-52505D01*
X62633Y-52505D01*
X62689Y-52372D01*
X62689Y-52195D01*
X62621Y-52031D01*
X62496Y-51906D01*
X62332Y-51838D01*
X62155Y-51838D01*
X61992Y-51905D01*
X61867Y-52031D01*
X61799Y-52194D01*
X61799Y-52371D01*
X61854Y-52505D01*
X61757Y-52505D01*
X61658Y-52546D01*
X61582Y-52622D01*
X61541Y-52721D01*
X61540Y-52829D01*
X61540Y-53380D01*
X61581Y-53479D01*
X61657Y-53555D01*
X61757Y-53596D01*
X61864Y-53596D01*
X62691Y-53596D01*
X62790Y-53555D01*
X62795Y-53551D01*
X62799Y-53555D01*
X62898Y-53596D01*
X63006Y-53596D01*
X63832Y-53596D01*
X63932Y-53555D01*
X64008Y-53479D01*
X64049Y-53380D01*
X64049Y-53273D01*
X64049Y-54237D01*
X59325Y-54237D01*
X59325Y-53273D01*
X59325Y-52722D01*
X59284Y-52622D01*
X59208Y-52546D01*
X59109Y-52505D01*
X59090Y-52505D01*
X59145Y-52372D01*
X59145Y-52195D01*
X59078Y-52031D01*
X58953Y-51906D01*
X58789Y-51838D01*
X58612Y-51838D01*
X58449Y-51905D01*
X58323Y-52031D01*
X58255Y-52194D01*
X58255Y-52371D01*
X58311Y-52505D01*
X58174Y-52505D01*
X58075Y-52546D01*
X57999Y-52622D01*
X57958Y-52721D01*
X57958Y-52829D01*
X57958Y-53380D01*
X57999Y-53479D01*
X58075Y-53555D01*
X58174Y-53596D01*
X58281Y-53596D01*
X59108Y-53596D01*
X59207Y-53555D01*
X59283Y-53479D01*
X59325Y-53380D01*
X59325Y-53273D01*
X59325Y-54237D01*
X57694Y-54237D01*
X57752Y-54179D01*
X57797Y-54073D01*
X57797Y-53957D01*
X57797Y-53522D01*
X57797Y-53407D01*
X57752Y-53300D01*
X57671Y-53219D01*
X57564Y-53175D01*
X57314Y-53175D01*
X57299Y-53190D01*
X57299Y-49541D01*
X57218Y-49332D01*
X57204Y-49311D01*
X57095Y-49292D01*
X57081Y-49306D01*
X57081Y-49278D01*
X57062Y-49169D01*
X56857Y-49079D01*
X56632Y-49074D01*
X56422Y-49155D01*
X56401Y-49169D01*
X56383Y-49278D01*
X56732Y-49627D01*
X57081Y-49278D01*
X57081Y-49306D01*
X56746Y-49641D01*
X57095Y-49990D01*
X57204Y-49972D01*
X57294Y-49766D01*
X57299Y-49541D01*
X57299Y-53190D01*
X57277Y-53212D01*
X57277Y-52533D01*
X57194Y-52333D01*
X57081Y-52219D01*
X57081Y-50004D01*
X56732Y-49655D01*
X56718Y-49670D01*
X56718Y-49641D01*
X56369Y-49292D01*
X56260Y-49311D01*
X56169Y-49516D01*
X56164Y-49741D01*
X56246Y-49951D01*
X56260Y-49972D01*
X56369Y-49990D01*
X56718Y-49641D01*
X56718Y-49670D01*
X56383Y-50004D01*
X56401Y-50113D01*
X56607Y-50204D01*
X56832Y-50209D01*
X57041Y-50127D01*
X57062Y-50113D01*
X57081Y-50004D01*
X57081Y-52219D01*
X57041Y-52179D01*
X56841Y-52096D01*
X56624Y-52096D01*
X56423Y-52179D01*
X56270Y-52332D01*
X56187Y-52532D01*
X56187Y-52749D01*
X56269Y-52950D01*
X56423Y-53103D01*
X56623Y-53186D01*
X56840Y-53186D01*
X57040Y-53104D01*
X57194Y-52950D01*
X57277Y-52750D01*
X57277Y-52533D01*
X57277Y-53212D01*
X57242Y-53247D01*
X57242Y-53730D01*
X57724Y-53730D01*
X57797Y-53657D01*
X57797Y-53522D01*
X57797Y-53957D01*
X57797Y-53822D01*
X57724Y-53750D01*
X57242Y-53750D01*
X57242Y-53758D01*
X57222Y-53758D01*
X57222Y-53750D01*
X57214Y-53750D01*
X57214Y-53730D01*
X57222Y-53730D01*
X57222Y-53247D01*
X57149Y-53175D01*
X56899Y-53175D01*
X56793Y-53219D01*
X56711Y-53300D01*
X56668Y-53405D01*
X56541Y-53278D01*
X56341Y-53195D01*
X56124Y-53195D01*
X55923Y-53277D01*
X55770Y-53431D01*
X55687Y-53631D01*
X55687Y-53848D01*
X55769Y-54048D01*
X55923Y-54201D01*
X56009Y-54237D01*
X48812Y-54237D01*
X48812Y-52305D01*
X48730Y-52105D01*
X48576Y-51951D01*
X48564Y-51946D01*
X48564Y-50403D01*
X48481Y-50203D01*
X48328Y-50050D01*
X48128Y-49966D01*
X47911Y-49966D01*
X47711Y-50049D01*
X47580Y-50180D01*
X47580Y-47726D01*
X47497Y-47526D01*
X47344Y-47372D01*
X47144Y-47289D01*
X46927Y-47289D01*
X46727Y-47372D01*
X46580Y-47518D01*
X46580Y-47506D01*
X46539Y-47406D01*
X46463Y-47330D01*
X46364Y-47289D01*
X46256Y-47289D01*
X45706Y-47289D01*
X45607Y-47330D01*
X45531Y-47406D01*
X45490Y-47505D01*
X45490Y-47613D01*
X45490Y-48163D01*
X45531Y-48262D01*
X45607Y-48338D01*
X45706Y-48379D01*
X45813Y-48379D01*
X46363Y-48379D01*
X46463Y-48338D01*
X46539Y-48262D01*
X46580Y-48163D01*
X46580Y-48150D01*
X46726Y-48296D01*
X46926Y-48379D01*
X47143Y-48379D01*
X47343Y-48296D01*
X47497Y-48143D01*
X47580Y-47943D01*
X47580Y-47726D01*
X47580Y-50180D01*
X47564Y-50195D01*
X47564Y-50183D01*
X47523Y-50084D01*
X47447Y-50008D01*
X47348Y-49966D01*
X47241Y-49966D01*
X46691Y-49966D01*
X46591Y-50007D01*
X46515Y-50083D01*
X46474Y-50182D01*
X46474Y-50290D01*
X46474Y-50840D01*
X46515Y-50939D01*
X46591Y-51015D01*
X46690Y-51056D01*
X46798Y-51056D01*
X47348Y-51056D01*
X47447Y-51015D01*
X47523Y-50939D01*
X47564Y-50840D01*
X47564Y-50827D01*
X47710Y-50973D01*
X47910Y-51056D01*
X48127Y-51056D01*
X48327Y-50974D01*
X48481Y-50820D01*
X48564Y-50620D01*
X48564Y-50403D01*
X48564Y-51946D01*
X48376Y-51868D01*
X48159Y-51868D01*
X47959Y-51951D01*
X47805Y-52104D01*
X47722Y-52304D01*
X47722Y-52521D01*
X47805Y-52721D01*
X47951Y-52868D01*
X47939Y-52868D01*
X47839Y-52909D01*
X47763Y-52985D01*
X47722Y-53084D01*
X47722Y-53191D01*
X47722Y-53741D01*
X47763Y-53841D01*
X47839Y-53917D01*
X47938Y-53958D01*
X48046Y-53958D01*
X48596Y-53958D01*
X48695Y-53917D01*
X48771Y-53841D01*
X48812Y-53742D01*
X48812Y-53634D01*
X48812Y-53084D01*
X48771Y-52985D01*
X48695Y-52909D01*
X48596Y-52868D01*
X48583Y-52868D01*
X48729Y-52722D01*
X48812Y-52522D01*
X48812Y-52305D01*
X48812Y-54237D01*
X46542Y-54237D01*
X46542Y-52740D01*
X46380Y-52347D01*
X46079Y-52046D01*
X45900Y-51971D01*
X45900Y-49517D01*
X45900Y-48957D01*
X45859Y-48858D01*
X45783Y-48782D01*
X45684Y-48741D01*
X45576Y-48741D01*
X45016Y-48741D01*
X44917Y-48782D01*
X44841Y-48858D01*
X44800Y-48957D01*
X44800Y-49064D01*
X44800Y-49624D01*
X44841Y-49724D01*
X44917Y-49800D01*
X45016Y-49841D01*
X45123Y-49841D01*
X45683Y-49841D01*
X45783Y-49800D01*
X45859Y-49724D01*
X45900Y-49625D01*
X45900Y-49517D01*
X45900Y-51971D01*
X45686Y-51882D01*
X45260Y-51882D01*
X44867Y-52045D01*
X44565Y-52345D01*
X44402Y-52738D01*
X44402Y-53164D01*
X44564Y-53558D01*
X44865Y-53859D01*
X45258Y-54022D01*
X45684Y-54022D01*
X46077Y-53860D01*
X46379Y-53559D01*
X46542Y-53166D01*
X46542Y-52740D01*
X46542Y-54237D01*
X44187Y-54237D01*
X44187Y-35525D01*
X75104Y-35525D01*
X75104Y-54237D01*
X75104Y-54237D01*
G37*
G54D29*
X75104Y-54237D02*
X75073Y-54237D01*
X75073Y-47395D01*
X75073Y-38301D01*
X75008Y-38143D01*
X74888Y-38023D01*
X74870Y-38016D01*
X74870Y-36388D01*
X74707Y-35994D01*
X74406Y-35693D01*
X74013Y-35530D01*
X73588Y-35529D01*
X73194Y-35692D01*
X72893Y-35993D01*
X72730Y-36386D01*
X72729Y-36811D01*
X72892Y-37205D01*
X73193Y-37506D01*
X73586Y-37669D01*
X74011Y-37670D01*
X74405Y-37507D01*
X74706Y-37206D01*
X74869Y-36813D01*
X74870Y-36388D01*
X74870Y-38016D01*
X74731Y-37958D01*
X74561Y-37958D01*
X74403Y-38023D01*
X74283Y-38143D01*
X74218Y-38300D01*
X74218Y-38470D01*
X74283Y-38627D01*
X74403Y-38748D01*
X74560Y-38813D01*
X74730Y-38813D01*
X74887Y-38748D01*
X75007Y-38628D01*
X75073Y-38471D01*
X75073Y-38301D01*
X75073Y-47395D01*
X75008Y-47238D01*
X74888Y-47118D01*
X74731Y-47052D01*
X74561Y-47052D01*
X74403Y-47117D01*
X74283Y-47237D01*
X74218Y-47394D01*
X74218Y-47564D01*
X74283Y-47722D01*
X74403Y-47842D01*
X74560Y-47907D01*
X74730Y-47907D01*
X74887Y-47842D01*
X75007Y-47722D01*
X75073Y-47565D01*
X75073Y-47395D01*
X75073Y-54237D01*
X75000Y-54237D01*
X74889Y-54237D01*
X74889Y-52740D01*
X74726Y-52347D01*
X74425Y-52046D01*
X74157Y-51934D01*
X74157Y-39316D01*
X74157Y-38990D01*
X74111Y-38755D01*
X73977Y-38556D01*
X73778Y-38423D01*
X73543Y-38376D01*
X73308Y-38423D01*
X73108Y-38556D01*
X72975Y-38755D01*
X72928Y-38990D01*
X72928Y-39316D01*
X72975Y-39551D01*
X73108Y-39750D01*
X73308Y-39883D01*
X73543Y-39930D01*
X73778Y-39883D01*
X73977Y-39750D01*
X74111Y-39551D01*
X74157Y-39316D01*
X74157Y-51934D01*
X74032Y-51882D01*
X73606Y-51882D01*
X73213Y-52045D01*
X72912Y-52345D01*
X72749Y-52738D01*
X72748Y-53164D01*
X72911Y-53558D01*
X73212Y-53859D01*
X73605Y-54022D01*
X74030Y-54022D01*
X74424Y-53860D01*
X74725Y-53559D01*
X74888Y-53166D01*
X74889Y-52740D01*
X74889Y-54237D01*
X72415Y-54237D01*
X72415Y-36178D01*
X72321Y-35952D01*
X72148Y-35778D01*
X71922Y-35685D01*
X71678Y-35684D01*
X71452Y-35778D01*
X71299Y-35930D01*
X71148Y-35778D01*
X70922Y-35685D01*
X70678Y-35684D01*
X70452Y-35778D01*
X70299Y-35930D01*
X70148Y-35778D01*
X69922Y-35685D01*
X69678Y-35684D01*
X69452Y-35778D01*
X69299Y-35930D01*
X69148Y-35778D01*
X68922Y-35685D01*
X68678Y-35684D01*
X68452Y-35778D01*
X68299Y-35930D01*
X68148Y-35778D01*
X67922Y-35685D01*
X67678Y-35684D01*
X67452Y-35778D01*
X67299Y-35930D01*
X67148Y-35778D01*
X66922Y-35685D01*
X66678Y-35684D01*
X66452Y-35778D01*
X66299Y-35930D01*
X66148Y-35778D01*
X65922Y-35685D01*
X65678Y-35684D01*
X65452Y-35778D01*
X65299Y-35930D01*
X65148Y-35778D01*
X64922Y-35685D01*
X64678Y-35684D01*
X64452Y-35778D01*
X64299Y-35930D01*
X64148Y-35778D01*
X63922Y-35685D01*
X63678Y-35684D01*
X63452Y-35778D01*
X63299Y-35930D01*
X63148Y-35778D01*
X62922Y-35685D01*
X62678Y-35684D01*
X62452Y-35778D01*
X62299Y-35930D01*
X62148Y-35778D01*
X61922Y-35685D01*
X61678Y-35684D01*
X61452Y-35778D01*
X61299Y-35930D01*
X61148Y-35778D01*
X60922Y-35685D01*
X60678Y-35684D01*
X60452Y-35778D01*
X60299Y-35930D01*
X60148Y-35778D01*
X59922Y-35685D01*
X59678Y-35684D01*
X59452Y-35778D01*
X59299Y-35930D01*
X59148Y-35778D01*
X58922Y-35685D01*
X58678Y-35684D01*
X58452Y-35778D01*
X58299Y-35930D01*
X58148Y-35778D01*
X57922Y-35685D01*
X57678Y-35684D01*
X57452Y-35778D01*
X57299Y-35930D01*
X57148Y-35778D01*
X56922Y-35685D01*
X56678Y-35684D01*
X56452Y-35778D01*
X56278Y-35951D01*
X56185Y-36177D01*
X56184Y-36421D01*
X56278Y-36647D01*
X56451Y-36821D01*
X56677Y-36914D01*
X56921Y-36915D01*
X57147Y-36821D01*
X57300Y-36669D01*
X57451Y-36821D01*
X57677Y-36914D01*
X57921Y-36915D01*
X58147Y-36821D01*
X58300Y-36669D01*
X58451Y-36821D01*
X58677Y-36914D01*
X58921Y-36915D01*
X59147Y-36821D01*
X59300Y-36669D01*
X59451Y-36821D01*
X59677Y-36914D01*
X59921Y-36915D01*
X60147Y-36821D01*
X60300Y-36669D01*
X60451Y-36821D01*
X60677Y-36914D01*
X60921Y-36915D01*
X61147Y-36821D01*
X61300Y-36669D01*
X61451Y-36821D01*
X61677Y-36914D01*
X61921Y-36915D01*
X62147Y-36821D01*
X62300Y-36669D01*
X62451Y-36821D01*
X62677Y-36914D01*
X62921Y-36915D01*
X63147Y-36821D01*
X63300Y-36669D01*
X63451Y-36821D01*
X63677Y-36914D01*
X63921Y-36915D01*
X64147Y-36821D01*
X64300Y-36669D01*
X64451Y-36821D01*
X64677Y-36914D01*
X64921Y-36915D01*
X65147Y-36821D01*
X65300Y-36669D01*
X65451Y-36821D01*
X65677Y-36914D01*
X65921Y-36915D01*
X66147Y-36821D01*
X66300Y-36669D01*
X66451Y-36821D01*
X66677Y-36914D01*
X66921Y-36915D01*
X67147Y-36821D01*
X67300Y-36669D01*
X67451Y-36821D01*
X67677Y-36914D01*
X67921Y-36915D01*
X68147Y-36821D01*
X68300Y-36669D01*
X68451Y-36821D01*
X68677Y-36914D01*
X68921Y-36915D01*
X69147Y-36821D01*
X69300Y-36669D01*
X69451Y-36821D01*
X69677Y-36914D01*
X69921Y-36915D01*
X70147Y-36821D01*
X70300Y-36669D01*
X70451Y-36821D01*
X70584Y-36876D01*
X70504Y-36909D01*
X70423Y-36991D01*
X70379Y-37098D01*
X70379Y-37171D01*
X70451Y-37243D01*
X70494Y-37243D01*
X70474Y-37263D01*
X70451Y-37263D01*
X70379Y-37336D01*
X70379Y-37409D01*
X70399Y-37458D01*
X70399Y-37504D01*
X70399Y-37701D01*
X70399Y-37701D01*
X70399Y-37799D01*
X70399Y-37996D01*
X70440Y-38095D01*
X70506Y-38161D01*
X70506Y-46937D01*
X70484Y-46959D01*
X70484Y-44754D01*
X70416Y-44590D01*
X70291Y-44465D01*
X70128Y-44397D01*
X69951Y-44397D01*
X69808Y-44456D01*
X69837Y-44387D01*
X69837Y-43760D01*
X69817Y-43712D01*
X69817Y-38534D01*
X69817Y-38236D01*
X69784Y-38073D01*
X69692Y-37934D01*
X69553Y-37842D01*
X69389Y-37809D01*
X69226Y-37842D01*
X69094Y-37930D01*
X69025Y-37883D01*
X69079Y-37828D01*
X69163Y-37628D01*
X69163Y-37411D01*
X69080Y-37211D01*
X68927Y-37057D01*
X68726Y-36974D01*
X68510Y-36974D01*
X68309Y-37057D01*
X68228Y-37138D01*
X68147Y-37057D01*
X67947Y-36974D01*
X67730Y-36974D01*
X67530Y-37057D01*
X67376Y-37210D01*
X67293Y-37410D01*
X67293Y-37627D01*
X67376Y-37827D01*
X67408Y-37860D01*
X67311Y-37922D01*
X67191Y-37842D01*
X67027Y-37809D01*
X66863Y-37842D01*
X66732Y-37930D01*
X66600Y-37842D01*
X66437Y-37809D01*
X66273Y-37842D01*
X66141Y-37930D01*
X66010Y-37842D01*
X65846Y-37809D01*
X65682Y-37842D01*
X65551Y-37930D01*
X65419Y-37842D01*
X65304Y-37819D01*
X65383Y-37628D01*
X65383Y-37411D01*
X65300Y-37211D01*
X65147Y-37057D01*
X64947Y-36974D01*
X64730Y-36974D01*
X64530Y-37057D01*
X64376Y-37210D01*
X64293Y-37410D01*
X64293Y-37627D01*
X64376Y-37827D01*
X64434Y-37886D01*
X64370Y-37930D01*
X64238Y-37842D01*
X64074Y-37809D01*
X63911Y-37842D01*
X63772Y-37934D01*
X63679Y-38073D01*
X63647Y-38236D01*
X63647Y-38534D01*
X63679Y-38698D01*
X63772Y-38836D01*
X63911Y-38929D01*
X64074Y-38962D01*
X64238Y-38929D01*
X64370Y-38841D01*
X64501Y-38929D01*
X64665Y-38962D01*
X64828Y-38929D01*
X64960Y-38841D01*
X65092Y-38929D01*
X65255Y-38962D01*
X65419Y-38929D01*
X65551Y-38841D01*
X65682Y-38929D01*
X65846Y-38962D01*
X66010Y-38929D01*
X66141Y-38841D01*
X66273Y-38929D01*
X66437Y-38962D01*
X66600Y-38929D01*
X66732Y-38841D01*
X66863Y-38929D01*
X67027Y-38962D01*
X67191Y-38929D01*
X67311Y-38849D01*
X67456Y-38940D01*
X67538Y-38963D01*
X67608Y-38898D01*
X67608Y-38395D01*
X67600Y-38395D01*
X67600Y-38375D01*
X67608Y-38375D01*
X67608Y-38367D01*
X67628Y-38367D01*
X67628Y-38375D01*
X67635Y-38375D01*
X67635Y-38395D01*
X67628Y-38395D01*
X67628Y-38898D01*
X67697Y-38963D01*
X67780Y-38940D01*
X67924Y-38849D01*
X68045Y-38929D01*
X68208Y-38962D01*
X68372Y-38929D01*
X68503Y-38841D01*
X68635Y-38929D01*
X68799Y-38962D01*
X68962Y-38929D01*
X69094Y-38841D01*
X69226Y-38929D01*
X69389Y-38962D01*
X69553Y-38929D01*
X69692Y-38836D01*
X69784Y-38698D01*
X69817Y-38534D01*
X69817Y-43712D01*
X69792Y-43653D01*
X69711Y-43572D01*
X69604Y-43527D01*
X69489Y-43527D01*
X69334Y-43527D01*
X69261Y-43600D01*
X69261Y-44063D01*
X69764Y-44063D01*
X69836Y-43991D01*
X69837Y-43760D01*
X69837Y-44387D01*
X69836Y-44156D01*
X69764Y-44083D01*
X69261Y-44083D01*
X69261Y-44091D01*
X69241Y-44091D01*
X69241Y-44083D01*
X69241Y-44063D01*
X69241Y-43600D01*
X69169Y-43527D01*
X69014Y-43527D01*
X68988Y-43527D01*
X68988Y-43022D01*
X68920Y-42858D01*
X68795Y-42733D01*
X68632Y-42665D01*
X68455Y-42665D01*
X68291Y-42732D01*
X68166Y-42857D01*
X68098Y-43021D01*
X68098Y-43102D01*
X68095Y-43105D01*
X66191Y-43105D01*
X66192Y-43100D01*
X66193Y-42923D01*
X66125Y-42760D01*
X66000Y-42634D01*
X65836Y-42566D01*
X65659Y-42566D01*
X65496Y-42634D01*
X65438Y-42691D01*
X64224Y-42691D01*
X64224Y-42628D01*
X64157Y-42464D01*
X64031Y-42339D01*
X64022Y-42335D01*
X64502Y-41855D01*
X65478Y-41855D01*
X65535Y-41912D01*
X65698Y-41980D01*
X65875Y-41980D01*
X66039Y-41912D01*
X66164Y-41787D01*
X66232Y-41624D01*
X66232Y-41447D01*
X66164Y-41283D01*
X66140Y-41259D01*
X66192Y-41132D01*
X66193Y-40955D01*
X66125Y-40791D01*
X66000Y-40666D01*
X65836Y-40598D01*
X65659Y-40598D01*
X65595Y-40624D01*
X63604Y-40624D01*
X63604Y-39603D01*
X63604Y-39053D01*
X63563Y-38954D01*
X63487Y-38878D01*
X63387Y-38836D01*
X63280Y-38836D01*
X62730Y-38836D01*
X62631Y-38877D01*
X62555Y-38953D01*
X62514Y-39052D01*
X62514Y-39066D01*
X62368Y-38920D01*
X62167Y-38836D01*
X61951Y-38836D01*
X61811Y-38894D01*
X61811Y-37301D01*
X61729Y-37092D01*
X61715Y-37071D01*
X61607Y-37052D01*
X61593Y-37066D01*
X61593Y-37038D01*
X61574Y-36929D01*
X61368Y-36839D01*
X61144Y-36834D01*
X60934Y-36915D01*
X60913Y-36929D01*
X60895Y-37038D01*
X61244Y-37387D01*
X61593Y-37038D01*
X61593Y-37066D01*
X61258Y-37401D01*
X61607Y-37750D01*
X61715Y-37732D01*
X61806Y-37526D01*
X61811Y-37301D01*
X61811Y-38894D01*
X61750Y-38919D01*
X61597Y-39072D01*
X61593Y-39083D01*
X61593Y-37764D01*
X61244Y-37415D01*
X61229Y-37429D01*
X61229Y-37401D01*
X60881Y-37052D01*
X60772Y-37071D01*
X60681Y-37276D01*
X60676Y-37501D01*
X60758Y-37711D01*
X60772Y-37732D01*
X60881Y-37750D01*
X61229Y-37401D01*
X61229Y-37429D01*
X60895Y-37764D01*
X60913Y-37873D01*
X61119Y-37963D01*
X61344Y-37968D01*
X61553Y-37887D01*
X61574Y-37873D01*
X61593Y-37764D01*
X61593Y-39083D01*
X61514Y-39273D01*
X61513Y-39489D01*
X61596Y-39690D01*
X61749Y-39843D01*
X61842Y-39881D01*
X61750Y-39919D01*
X61597Y-40072D01*
X61514Y-40273D01*
X61513Y-40489D01*
X61596Y-40690D01*
X61749Y-40843D01*
X61950Y-40926D01*
X62166Y-40926D01*
X62367Y-40844D01*
X62520Y-40691D01*
X62603Y-40490D01*
X62604Y-40273D01*
X62521Y-40073D01*
X62368Y-39920D01*
X62276Y-39881D01*
X62367Y-39844D01*
X62514Y-39697D01*
X62514Y-39710D01*
X62555Y-39809D01*
X62630Y-39885D01*
X62730Y-39926D01*
X62837Y-39926D01*
X63387Y-39926D01*
X63486Y-39885D01*
X63562Y-39810D01*
X63604Y-39710D01*
X63604Y-39603D01*
X63604Y-40624D01*
X63188Y-40624D01*
X63066Y-40649D01*
X62962Y-40718D01*
X61375Y-42305D01*
X61375Y-40246D01*
X61293Y-40046D01*
X61139Y-39892D01*
X60939Y-39809D01*
X60722Y-39809D01*
X60535Y-39886D01*
X60535Y-39316D01*
X60535Y-38990D01*
X60488Y-38755D01*
X60355Y-38556D01*
X60156Y-38423D01*
X59921Y-38376D01*
X59686Y-38423D01*
X59486Y-38556D01*
X59353Y-38755D01*
X59306Y-38990D01*
X59306Y-39316D01*
X59353Y-39551D01*
X59486Y-39750D01*
X59686Y-39883D01*
X59921Y-39930D01*
X60156Y-39883D01*
X60355Y-39750D01*
X60488Y-39551D01*
X60535Y-39316D01*
X60535Y-39886D01*
X60522Y-39892D01*
X60368Y-40045D01*
X60285Y-40245D01*
X60285Y-40462D01*
X60368Y-40662D01*
X60521Y-40816D01*
X60721Y-40899D01*
X60938Y-40899D01*
X61139Y-40816D01*
X61292Y-40663D01*
X61375Y-40463D01*
X61375Y-40246D01*
X61375Y-42305D01*
X60885Y-42795D01*
X60885Y-42779D01*
X60844Y-42680D01*
X60768Y-42604D01*
X60351Y-42187D01*
X60252Y-42146D01*
X60144Y-42146D01*
X60045Y-42187D01*
X59969Y-42262D01*
X59607Y-42624D01*
X59591Y-42664D01*
X59503Y-42700D01*
X59340Y-42864D01*
X59340Y-42966D01*
X59695Y-43321D01*
X59701Y-43316D01*
X59715Y-43330D01*
X59709Y-43336D01*
X59715Y-43341D01*
X59701Y-43355D01*
X59695Y-43350D01*
X59689Y-43355D01*
X59675Y-43341D01*
X59681Y-43336D01*
X59326Y-42980D01*
X59246Y-42980D01*
X59246Y-38301D01*
X59181Y-38143D01*
X59061Y-38023D01*
X58904Y-37958D01*
X58789Y-37958D01*
X58789Y-37293D01*
X58706Y-37093D01*
X58553Y-36939D01*
X58352Y-36856D01*
X58136Y-36856D01*
X57935Y-36939D01*
X57782Y-37092D01*
X57699Y-37292D01*
X57699Y-37509D01*
X57781Y-37709D01*
X57934Y-37863D01*
X58135Y-37946D01*
X58352Y-37946D01*
X58552Y-37863D01*
X58705Y-37710D01*
X58788Y-37510D01*
X58789Y-37293D01*
X58789Y-37958D01*
X58734Y-37958D01*
X58577Y-38023D01*
X58456Y-38143D01*
X58391Y-38300D01*
X58391Y-38470D01*
X58456Y-38627D01*
X58576Y-38748D01*
X58733Y-38813D01*
X58903Y-38813D01*
X59060Y-38748D01*
X59181Y-38628D01*
X59246Y-38471D01*
X59246Y-38301D01*
X59246Y-42980D01*
X59223Y-42980D01*
X59060Y-43143D01*
X59015Y-43250D01*
X59015Y-43365D01*
X59059Y-43472D01*
X59125Y-43538D01*
X58846Y-43538D01*
X58842Y-43527D01*
X58716Y-43402D01*
X58553Y-43334D01*
X58376Y-43334D01*
X58375Y-43334D01*
X58375Y-40246D01*
X58293Y-40046D01*
X58139Y-39892D01*
X57939Y-39809D01*
X57722Y-39809D01*
X57522Y-39892D01*
X57368Y-40045D01*
X57285Y-40245D01*
X57285Y-40462D01*
X57368Y-40662D01*
X57521Y-40816D01*
X57721Y-40899D01*
X57938Y-40899D01*
X58139Y-40816D01*
X58292Y-40663D01*
X58375Y-40463D01*
X58375Y-40246D01*
X58375Y-43334D01*
X58212Y-43402D01*
X58087Y-43527D01*
X58060Y-43592D01*
X56704Y-42236D01*
X56704Y-42155D01*
X56637Y-41992D01*
X56512Y-41867D01*
X56348Y-41799D01*
X56171Y-41799D01*
X56151Y-41807D01*
X56151Y-36309D01*
X56068Y-36109D01*
X55915Y-35955D01*
X55715Y-35872D01*
X55498Y-35872D01*
X55297Y-35955D01*
X55144Y-36108D01*
X55106Y-36200D01*
X55068Y-36109D01*
X54915Y-35955D01*
X54715Y-35872D01*
X54498Y-35872D01*
X54297Y-35955D01*
X54151Y-36101D01*
X54151Y-36088D01*
X54110Y-35989D01*
X54034Y-35913D01*
X53935Y-35872D01*
X53827Y-35872D01*
X53277Y-35872D01*
X53178Y-35913D01*
X53102Y-35989D01*
X53061Y-36088D01*
X53061Y-36195D01*
X53061Y-36745D01*
X53102Y-36845D01*
X53178Y-36921D01*
X53277Y-36962D01*
X53384Y-36962D01*
X53934Y-36962D01*
X54034Y-36921D01*
X54110Y-36845D01*
X54151Y-36746D01*
X54151Y-36732D01*
X54297Y-36879D01*
X54497Y-36962D01*
X54714Y-36962D01*
X54914Y-36879D01*
X55068Y-36726D01*
X55106Y-36634D01*
X55144Y-36725D01*
X55297Y-36879D01*
X55497Y-36962D01*
X55714Y-36962D01*
X55914Y-36879D01*
X56068Y-36726D01*
X56151Y-36526D01*
X56151Y-36309D01*
X56151Y-41807D01*
X56008Y-41866D01*
X55882Y-41991D01*
X55814Y-42155D01*
X55814Y-42332D01*
X55882Y-42495D01*
X56007Y-42621D01*
X56170Y-42689D01*
X56252Y-42689D01*
X57923Y-44360D01*
X58027Y-44429D01*
X58149Y-44453D01*
X59456Y-44453D01*
X59397Y-44596D01*
X59397Y-44773D01*
X59465Y-44936D01*
X59590Y-45062D01*
X59753Y-45129D01*
X59930Y-45130D01*
X60094Y-45062D01*
X60151Y-45005D01*
X61013Y-45005D01*
X60845Y-45184D01*
X60778Y-45184D01*
X60614Y-45252D01*
X60489Y-45377D01*
X60421Y-45541D01*
X60421Y-45718D01*
X60488Y-45881D01*
X60613Y-46006D01*
X60777Y-46074D01*
X60954Y-46074D01*
X61117Y-46007D01*
X61243Y-45882D01*
X61311Y-45718D01*
X61311Y-45623D01*
X61596Y-45320D01*
X62637Y-45320D01*
X62637Y-45319D01*
X62760Y-45295D01*
X62864Y-45226D01*
X64345Y-43745D01*
X68228Y-43745D01*
X68228Y-43745D01*
X68350Y-43720D01*
X68454Y-43651D01*
X68550Y-43555D01*
X68631Y-43555D01*
X68795Y-43487D01*
X68920Y-43362D01*
X68988Y-43199D01*
X68988Y-43022D01*
X68988Y-43527D01*
X68899Y-43527D01*
X68792Y-43572D01*
X68710Y-43653D01*
X68666Y-43760D01*
X68666Y-43991D01*
X68739Y-44063D01*
X69241Y-44063D01*
X69241Y-44083D01*
X68739Y-44083D01*
X68666Y-44156D01*
X68666Y-44387D01*
X68703Y-44474D01*
X68687Y-44513D01*
X68686Y-44621D01*
X68686Y-45133D01*
X68727Y-45232D01*
X68803Y-45308D01*
X68903Y-45349D01*
X69010Y-45349D01*
X69600Y-45349D01*
X69699Y-45308D01*
X69775Y-45232D01*
X69782Y-45215D01*
X69786Y-45219D01*
X69950Y-45287D01*
X70127Y-45287D01*
X70291Y-45219D01*
X70416Y-45094D01*
X70484Y-44931D01*
X70484Y-44754D01*
X70484Y-46959D01*
X69575Y-47868D01*
X58999Y-47868D01*
X59060Y-47842D01*
X59181Y-47722D01*
X59246Y-47565D01*
X59246Y-47395D01*
X59181Y-47238D01*
X59061Y-47118D01*
X58904Y-47052D01*
X58734Y-47052D01*
X58577Y-47117D01*
X58456Y-47237D01*
X58391Y-47394D01*
X58391Y-47564D01*
X58456Y-47722D01*
X58576Y-47842D01*
X58638Y-47868D01*
X57314Y-47868D01*
X57314Y-44618D01*
X57231Y-44418D01*
X57078Y-44264D01*
X56878Y-44181D01*
X56661Y-44181D01*
X56461Y-44264D01*
X56307Y-44417D01*
X56224Y-44617D01*
X56224Y-44834D01*
X56262Y-44926D01*
X56171Y-44888D01*
X55954Y-44888D01*
X55753Y-44971D01*
X55600Y-45124D01*
X55517Y-45324D01*
X55517Y-45541D01*
X55555Y-45633D01*
X55463Y-45596D01*
X55247Y-45595D01*
X55046Y-45678D01*
X54893Y-45831D01*
X54810Y-46032D01*
X54810Y-46239D01*
X54801Y-46230D01*
X54701Y-46189D01*
X54594Y-46189D01*
X54495Y-46230D01*
X54419Y-46306D01*
X54030Y-46694D01*
X53989Y-46794D01*
X53989Y-46901D01*
X54030Y-47000D01*
X54105Y-47076D01*
X54494Y-47465D01*
X54594Y-47506D01*
X54701Y-47507D01*
X54800Y-47465D01*
X54876Y-47390D01*
X55265Y-47001D01*
X55306Y-46902D01*
X55306Y-46794D01*
X55265Y-46695D01*
X55256Y-46685D01*
X55463Y-46686D01*
X55663Y-46603D01*
X55816Y-46450D01*
X55900Y-46249D01*
X55900Y-46033D01*
X55862Y-45940D01*
X55953Y-45978D01*
X56170Y-45978D01*
X56370Y-45896D01*
X56523Y-45742D01*
X56607Y-45542D01*
X56607Y-45325D01*
X56569Y-45233D01*
X56660Y-45271D01*
X56877Y-45271D01*
X57077Y-45189D01*
X57231Y-45035D01*
X57314Y-44835D01*
X57314Y-44618D01*
X57314Y-47868D01*
X56535Y-47868D01*
X56397Y-47895D01*
X56339Y-47934D01*
X56280Y-47973D01*
X54587Y-49666D01*
X54509Y-49783D01*
X54482Y-49921D01*
X54482Y-53270D01*
X53068Y-53270D01*
X52340Y-52541D01*
X52187Y-52439D01*
X52007Y-52404D01*
X50950Y-52404D01*
X50950Y-48849D01*
X52117Y-47682D01*
X52795Y-47682D01*
X52795Y-47682D01*
X52933Y-47655D01*
X52933Y-47655D01*
X53049Y-47577D01*
X56199Y-44427D01*
X56199Y-44427D01*
X56277Y-44310D01*
X56304Y-44173D01*
X56304Y-44173D01*
X56304Y-43419D01*
X56321Y-43402D01*
X56389Y-43238D01*
X56389Y-43061D01*
X56322Y-42897D01*
X56197Y-42772D01*
X56033Y-42704D01*
X55856Y-42704D01*
X55693Y-42772D01*
X55567Y-42897D01*
X55499Y-43060D01*
X55499Y-43237D01*
X55567Y-43401D01*
X55584Y-43418D01*
X55584Y-44024D01*
X54678Y-44930D01*
X54678Y-41549D01*
X54678Y-38549D01*
X54596Y-38349D01*
X54442Y-38195D01*
X54242Y-38112D01*
X54025Y-38112D01*
X53825Y-38195D01*
X53680Y-38339D01*
X53537Y-38195D01*
X53337Y-38112D01*
X53120Y-38112D01*
X52920Y-38195D01*
X52775Y-38339D01*
X52631Y-38195D01*
X52431Y-38112D01*
X52214Y-38112D01*
X52014Y-38195D01*
X51861Y-38348D01*
X51777Y-38548D01*
X51777Y-38765D01*
X51860Y-38965D01*
X52013Y-39119D01*
X52213Y-39202D01*
X52430Y-39202D01*
X52631Y-39119D01*
X52775Y-38975D01*
X52919Y-39119D01*
X53119Y-39202D01*
X53336Y-39202D01*
X53536Y-39119D01*
X53681Y-38975D01*
X53824Y-39119D01*
X54024Y-39202D01*
X54241Y-39202D01*
X54442Y-39119D01*
X54595Y-38966D01*
X54678Y-38766D01*
X54678Y-38549D01*
X54678Y-41549D01*
X54596Y-41349D01*
X54442Y-41195D01*
X54242Y-41112D01*
X54025Y-41112D01*
X53825Y-41195D01*
X53680Y-41339D01*
X53537Y-41195D01*
X53337Y-41112D01*
X53120Y-41112D01*
X52920Y-41195D01*
X52775Y-41339D01*
X52631Y-41195D01*
X52431Y-41112D01*
X52214Y-41112D01*
X52014Y-41195D01*
X51861Y-41348D01*
X51777Y-41548D01*
X51777Y-41765D01*
X51860Y-41965D01*
X52013Y-42119D01*
X52213Y-42202D01*
X52430Y-42202D01*
X52631Y-42119D01*
X52775Y-41975D01*
X52919Y-42119D01*
X53119Y-42202D01*
X53336Y-42202D01*
X53536Y-42119D01*
X53681Y-41975D01*
X53824Y-42119D01*
X54024Y-42202D01*
X54241Y-42202D01*
X54442Y-42119D01*
X54595Y-41966D01*
X54678Y-41766D01*
X54678Y-41549D01*
X54678Y-44930D01*
X52646Y-46962D01*
X51968Y-46962D01*
X51830Y-46990D01*
X51713Y-47068D01*
X51174Y-47607D01*
X51174Y-42926D01*
X51079Y-42696D01*
X50932Y-42549D01*
X51078Y-42404D01*
X51174Y-42174D01*
X51174Y-41926D01*
X51079Y-41696D01*
X50932Y-41549D01*
X51078Y-41404D01*
X51174Y-41174D01*
X51174Y-40926D01*
X51079Y-40696D01*
X50932Y-40549D01*
X51078Y-40404D01*
X51174Y-40174D01*
X51174Y-39926D01*
X51079Y-39696D01*
X50904Y-39521D01*
X50674Y-39425D01*
X50426Y-39425D01*
X50196Y-39520D01*
X50174Y-39542D01*
X50174Y-39426D01*
X50079Y-39196D01*
X49904Y-39021D01*
X49674Y-38925D01*
X49426Y-38925D01*
X49196Y-39020D01*
X49021Y-39195D01*
X48925Y-39425D01*
X48925Y-39673D01*
X49020Y-39903D01*
X49167Y-40050D01*
X49021Y-40195D01*
X48925Y-40425D01*
X48925Y-40673D01*
X49020Y-40903D01*
X49167Y-41050D01*
X49021Y-41195D01*
X48925Y-41425D01*
X48925Y-41673D01*
X49020Y-41903D01*
X49167Y-42050D01*
X49021Y-42195D01*
X48925Y-42425D01*
X48925Y-42673D01*
X48981Y-42808D01*
X48981Y-43012D01*
X47763Y-44230D01*
X47642Y-44230D01*
X47812Y-44060D01*
X47949Y-43729D01*
X47950Y-43371D01*
X47950Y-38871D01*
X47813Y-38540D01*
X47560Y-38287D01*
X47229Y-38150D01*
X46871Y-38149D01*
X46542Y-38285D01*
X46542Y-36599D01*
X46380Y-36205D01*
X46079Y-35904D01*
X45686Y-35741D01*
X45260Y-35740D01*
X44867Y-35903D01*
X44565Y-36204D01*
X44402Y-36597D01*
X44402Y-37022D01*
X44564Y-37416D01*
X44865Y-37717D01*
X45258Y-37880D01*
X45684Y-37881D01*
X46077Y-37718D01*
X46379Y-37417D01*
X46542Y-37024D01*
X46542Y-36599D01*
X46542Y-38285D01*
X46540Y-38286D01*
X46287Y-38539D01*
X46150Y-38870D01*
X46149Y-39228D01*
X46286Y-39559D01*
X46539Y-39812D01*
X46870Y-39949D01*
X47228Y-39950D01*
X47559Y-39813D01*
X47812Y-39560D01*
X47949Y-39229D01*
X47950Y-38871D01*
X47950Y-43371D01*
X47813Y-43040D01*
X47560Y-42787D01*
X47229Y-42650D01*
X46871Y-42649D01*
X46540Y-42786D01*
X46287Y-43039D01*
X46150Y-43370D01*
X46149Y-43728D01*
X46286Y-44059D01*
X46480Y-44253D01*
X46381Y-44273D01*
X46196Y-44396D01*
X46014Y-44579D01*
X45890Y-44764D01*
X45847Y-44982D01*
X45847Y-45488D01*
X45818Y-45445D01*
X45641Y-45327D01*
X45433Y-45285D01*
X45224Y-45327D01*
X45047Y-45445D01*
X44929Y-45622D01*
X44887Y-45831D01*
X44887Y-46294D01*
X44929Y-46503D01*
X45047Y-46680D01*
X45224Y-46798D01*
X45433Y-46840D01*
X45641Y-46798D01*
X45818Y-46680D01*
X45925Y-46521D01*
X46031Y-46680D01*
X46208Y-46798D01*
X46417Y-46840D01*
X46626Y-46798D01*
X46803Y-46680D01*
X46909Y-46521D01*
X47015Y-46680D01*
X47192Y-46798D01*
X47401Y-46840D01*
X47511Y-46818D01*
X47780Y-47086D01*
X47780Y-49291D01*
X47800Y-49391D01*
X47800Y-49400D01*
X47803Y-49408D01*
X47823Y-49509D01*
X47880Y-49594D01*
X47883Y-49602D01*
X47890Y-49608D01*
X47947Y-49694D01*
X48032Y-49751D01*
X48038Y-49757D01*
X48046Y-49760D01*
X48132Y-49817D01*
X48232Y-49837D01*
X48240Y-49841D01*
X48249Y-49841D01*
X48350Y-49861D01*
X48450Y-49841D01*
X48459Y-49841D01*
X48467Y-49838D01*
X48568Y-49817D01*
X48653Y-49761D01*
X48661Y-49757D01*
X48667Y-49751D01*
X48753Y-49694D01*
X48810Y-49609D01*
X48816Y-49603D01*
X48819Y-49595D01*
X48877Y-49509D01*
X48896Y-49409D01*
X48900Y-49401D01*
X48900Y-49392D01*
X48920Y-49291D01*
X48920Y-46850D01*
X48877Y-46632D01*
X48753Y-46447D01*
X47966Y-45659D01*
X47901Y-45617D01*
X47787Y-45445D01*
X47674Y-45370D01*
X48000Y-45370D01*
X48218Y-45326D01*
X48403Y-45203D01*
X49954Y-43651D01*
X49954Y-43651D01*
X50077Y-43466D01*
X50077Y-43466D01*
X50078Y-43461D01*
X50195Y-43578D01*
X50425Y-43674D01*
X50673Y-43674D01*
X50903Y-43579D01*
X51078Y-43404D01*
X51174Y-43174D01*
X51174Y-42926D01*
X51174Y-47607D01*
X50335Y-48446D01*
X50257Y-48563D01*
X50230Y-48700D01*
X50230Y-52583D01*
X50156Y-52694D01*
X50120Y-52874D01*
X50156Y-53053D01*
X50258Y-53206D01*
X50410Y-53308D01*
X50590Y-53344D01*
X51813Y-53344D01*
X52541Y-54072D01*
X52541Y-54072D01*
X52694Y-54174D01*
X52694Y-54174D01*
X52874Y-54210D01*
X52874Y-54210D01*
X54842Y-54210D01*
X55022Y-54174D01*
X55174Y-54072D01*
X55276Y-53920D01*
X55312Y-53740D01*
X55276Y-53560D01*
X55202Y-53449D01*
X55202Y-50070D01*
X56684Y-48588D01*
X69724Y-48588D01*
X69724Y-48588D01*
X69862Y-48560D01*
X69862Y-48560D01*
X69978Y-48482D01*
X71120Y-47341D01*
X71120Y-47341D01*
X71159Y-47282D01*
X71198Y-47224D01*
X71198Y-47224D01*
X71226Y-47086D01*
X71226Y-47086D01*
X71226Y-38161D01*
X71291Y-38096D01*
X71332Y-37996D01*
X71332Y-37991D01*
X71509Y-38064D01*
X71726Y-38064D01*
X71926Y-37981D01*
X72079Y-37828D01*
X72163Y-37628D01*
X72163Y-37411D01*
X72080Y-37211D01*
X71927Y-37057D01*
X71726Y-36974D01*
X71510Y-36974D01*
X71332Y-37048D01*
X71308Y-36991D01*
X71227Y-36909D01*
X71120Y-36865D01*
X71041Y-36865D01*
X71147Y-36821D01*
X71300Y-36669D01*
X71451Y-36821D01*
X71677Y-36914D01*
X71921Y-36915D01*
X72147Y-36821D01*
X72321Y-36648D01*
X72414Y-36422D01*
X72415Y-36178D01*
X72415Y-54237D01*
X72356Y-54237D01*
X72356Y-53273D01*
X72356Y-52722D01*
X72356Y-51501D01*
X72356Y-50950D01*
X72315Y-50851D01*
X72239Y-50775D01*
X72140Y-50733D01*
X72033Y-50733D01*
X71993Y-50733D01*
X71993Y-50685D01*
X71968Y-50562D01*
X71926Y-50499D01*
X71926Y-50285D01*
X71844Y-50085D01*
X71691Y-49931D01*
X71490Y-49848D01*
X71273Y-49848D01*
X71073Y-49931D01*
X70920Y-50084D01*
X70836Y-50284D01*
X70836Y-50501D01*
X70919Y-50702D01*
X71049Y-50832D01*
X71031Y-50850D01*
X70989Y-50949D01*
X70989Y-50959D01*
X68949Y-50959D01*
X68949Y-50293D01*
X68867Y-50084D01*
X68853Y-50063D01*
X68744Y-50044D01*
X68730Y-50058D01*
X68730Y-50030D01*
X68712Y-49921D01*
X68506Y-49831D01*
X68281Y-49826D01*
X68072Y-49907D01*
X68051Y-49921D01*
X68032Y-50030D01*
X68381Y-50379D01*
X68730Y-50030D01*
X68730Y-50058D01*
X68396Y-50393D01*
X68744Y-50742D01*
X68853Y-50724D01*
X68944Y-50518D01*
X68949Y-50293D01*
X68949Y-50959D01*
X68773Y-50959D01*
X68773Y-50950D01*
X68732Y-50851D01*
X68717Y-50835D01*
X68730Y-50756D01*
X68381Y-50407D01*
X68376Y-50413D01*
X68362Y-50399D01*
X68367Y-50393D01*
X68018Y-50044D01*
X67910Y-50063D01*
X67819Y-50268D01*
X67814Y-50493D01*
X67896Y-50703D01*
X67910Y-50724D01*
X67967Y-50733D01*
X67623Y-50733D01*
X67524Y-50774D01*
X67519Y-50779D01*
X67515Y-50775D01*
X67416Y-50733D01*
X67308Y-50733D01*
X67268Y-50733D01*
X67268Y-50685D01*
X67244Y-50562D01*
X67202Y-50499D01*
X67202Y-50285D01*
X67119Y-50085D01*
X66966Y-49931D01*
X66785Y-49856D01*
X66785Y-49394D01*
X66785Y-48844D01*
X66744Y-48745D01*
X66668Y-48669D01*
X66569Y-48628D01*
X66461Y-48628D01*
X65911Y-48628D01*
X65812Y-48669D01*
X65736Y-48745D01*
X65696Y-48840D01*
X65603Y-48824D01*
X65589Y-48838D01*
X65589Y-48810D01*
X65570Y-48701D01*
X65364Y-48610D01*
X65140Y-48605D01*
X64930Y-48687D01*
X64909Y-48701D01*
X64891Y-48810D01*
X65240Y-49159D01*
X65589Y-48810D01*
X65589Y-48838D01*
X65254Y-49173D01*
X65603Y-49522D01*
X65696Y-49506D01*
X65736Y-49600D01*
X65812Y-49676D01*
X65911Y-49718D01*
X66018Y-49718D01*
X66568Y-49718D01*
X66667Y-49677D01*
X66743Y-49601D01*
X66785Y-49502D01*
X66785Y-49394D01*
X66785Y-49856D01*
X66766Y-49848D01*
X66549Y-49848D01*
X66349Y-49931D01*
X66195Y-50084D01*
X66112Y-50284D01*
X66112Y-50501D01*
X66195Y-50702D01*
X66325Y-50832D01*
X66306Y-50850D01*
X66265Y-50949D01*
X66265Y-50959D01*
X65589Y-50959D01*
X65589Y-49536D01*
X65240Y-49187D01*
X65226Y-49201D01*
X65226Y-49173D01*
X64877Y-48824D01*
X64768Y-48842D01*
X64729Y-48930D01*
X64702Y-48864D01*
X64549Y-48711D01*
X64349Y-48628D01*
X64132Y-48628D01*
X63931Y-48710D01*
X63778Y-48864D01*
X63740Y-48956D01*
X63702Y-48864D01*
X63549Y-48711D01*
X63349Y-48628D01*
X63132Y-48628D01*
X62931Y-48710D01*
X62778Y-48864D01*
X62740Y-48956D01*
X62702Y-48864D01*
X62549Y-48711D01*
X62349Y-48628D01*
X62132Y-48628D01*
X61931Y-48710D01*
X61778Y-48864D01*
X61740Y-48956D01*
X61702Y-48864D01*
X61549Y-48711D01*
X61349Y-48628D01*
X61132Y-48628D01*
X60931Y-48710D01*
X60778Y-48864D01*
X60695Y-49064D01*
X60695Y-49281D01*
X60777Y-49481D01*
X60931Y-49634D01*
X61131Y-49718D01*
X61348Y-49718D01*
X61548Y-49635D01*
X61701Y-49482D01*
X61740Y-49390D01*
X61777Y-49481D01*
X61931Y-49634D01*
X62131Y-49718D01*
X62348Y-49718D01*
X62548Y-49635D01*
X62701Y-49482D01*
X62740Y-49390D01*
X62777Y-49481D01*
X62931Y-49634D01*
X63131Y-49718D01*
X63348Y-49718D01*
X63548Y-49635D01*
X63701Y-49482D01*
X63740Y-49390D01*
X63777Y-49481D01*
X63931Y-49634D01*
X64131Y-49718D01*
X64348Y-49718D01*
X64548Y-49635D01*
X64701Y-49482D01*
X64728Y-49417D01*
X64754Y-49482D01*
X64768Y-49503D01*
X64877Y-49522D01*
X65226Y-49173D01*
X65226Y-49201D01*
X64891Y-49536D01*
X64909Y-49645D01*
X65115Y-49735D01*
X65340Y-49740D01*
X65549Y-49659D01*
X65570Y-49645D01*
X65589Y-49536D01*
X65589Y-50959D01*
X64224Y-50959D01*
X64224Y-50293D01*
X64143Y-50084D01*
X64129Y-50063D01*
X64020Y-50044D01*
X64006Y-50058D01*
X64006Y-50030D01*
X63987Y-49921D01*
X63782Y-49831D01*
X63557Y-49826D01*
X63348Y-49907D01*
X63327Y-49921D01*
X63308Y-50030D01*
X63657Y-50379D01*
X64006Y-50030D01*
X64006Y-50058D01*
X63671Y-50393D01*
X64020Y-50742D01*
X64129Y-50724D01*
X64219Y-50518D01*
X64224Y-50293D01*
X64224Y-50959D01*
X64049Y-50959D01*
X64049Y-50950D01*
X64008Y-50851D01*
X63993Y-50835D01*
X64006Y-50756D01*
X63657Y-50407D01*
X63651Y-50413D01*
X63637Y-50399D01*
X63643Y-50393D01*
X63294Y-50044D01*
X63185Y-50063D01*
X63095Y-50268D01*
X63090Y-50493D01*
X63171Y-50703D01*
X63185Y-50724D01*
X63242Y-50733D01*
X62899Y-50733D01*
X62800Y-50774D01*
X62795Y-50779D01*
X62790Y-50775D01*
X62691Y-50733D01*
X62584Y-50733D01*
X62560Y-50733D01*
X62591Y-50702D01*
X62674Y-50502D01*
X62675Y-50285D01*
X62592Y-50085D01*
X62439Y-49931D01*
X62238Y-49848D01*
X62021Y-49848D01*
X61821Y-49931D01*
X61668Y-50084D01*
X61585Y-50284D01*
X61584Y-50501D01*
X61667Y-50702D01*
X61716Y-50750D01*
X61658Y-50774D01*
X61582Y-50850D01*
X61541Y-50949D01*
X61541Y-50959D01*
X59697Y-50959D01*
X59697Y-50293D01*
X59615Y-50084D01*
X59601Y-50063D01*
X59492Y-50044D01*
X59478Y-50058D01*
X59478Y-50030D01*
X59460Y-49921D01*
X59254Y-49831D01*
X59029Y-49826D01*
X58820Y-49907D01*
X58799Y-49921D01*
X58780Y-50030D01*
X59129Y-50379D01*
X59478Y-50030D01*
X59478Y-50058D01*
X59144Y-50393D01*
X59492Y-50742D01*
X59601Y-50724D01*
X59692Y-50518D01*
X59697Y-50293D01*
X59697Y-50959D01*
X59325Y-50959D01*
X59325Y-50950D01*
X59315Y-50927D01*
X59439Y-50879D01*
X59460Y-50865D01*
X59478Y-50756D01*
X59129Y-50407D01*
X59124Y-50413D01*
X59110Y-50399D01*
X59115Y-50393D01*
X58766Y-50044D01*
X58658Y-50063D01*
X58567Y-50268D01*
X58562Y-50493D01*
X58644Y-50703D01*
X58658Y-50724D01*
X58715Y-50733D01*
X58174Y-50733D01*
X58075Y-50774D01*
X57999Y-50850D01*
X57958Y-50949D01*
X57958Y-51057D01*
X57958Y-51608D01*
X57999Y-51707D01*
X58075Y-51783D01*
X58174Y-51825D01*
X58281Y-51825D01*
X59108Y-51825D01*
X59207Y-51784D01*
X59283Y-51708D01*
X59325Y-51609D01*
X59325Y-51599D01*
X61540Y-51599D01*
X61540Y-51608D01*
X61581Y-51707D01*
X61657Y-51783D01*
X61757Y-51825D01*
X61864Y-51825D01*
X62691Y-51825D01*
X62790Y-51784D01*
X62795Y-51779D01*
X62799Y-51783D01*
X62898Y-51825D01*
X63006Y-51825D01*
X63832Y-51825D01*
X63932Y-51784D01*
X64008Y-51708D01*
X64049Y-51609D01*
X64049Y-51599D01*
X66265Y-51599D01*
X66265Y-51608D01*
X66306Y-51707D01*
X66382Y-51783D01*
X66481Y-51825D01*
X66588Y-51825D01*
X67415Y-51825D01*
X67514Y-51784D01*
X67519Y-51779D01*
X67524Y-51783D01*
X67623Y-51825D01*
X67730Y-51825D01*
X68557Y-51825D01*
X68656Y-51784D01*
X68732Y-51708D01*
X68773Y-51609D01*
X68773Y-51599D01*
X70989Y-51599D01*
X70989Y-51608D01*
X71030Y-51707D01*
X71106Y-51783D01*
X71205Y-51825D01*
X71313Y-51825D01*
X72140Y-51825D01*
X72239Y-51784D01*
X72315Y-51708D01*
X72356Y-51609D01*
X72356Y-51501D01*
X72356Y-52722D01*
X72315Y-52622D01*
X72239Y-52546D01*
X72140Y-52505D01*
X72075Y-52505D01*
X72098Y-52451D01*
X72098Y-52274D01*
X72031Y-52110D01*
X71905Y-51985D01*
X71742Y-51917D01*
X71565Y-51917D01*
X71401Y-51984D01*
X71276Y-52109D01*
X71208Y-52273D01*
X71208Y-52450D01*
X71231Y-52505D01*
X71206Y-52505D01*
X71107Y-52546D01*
X71031Y-52622D01*
X70989Y-52721D01*
X70989Y-52829D01*
X70989Y-53380D01*
X71030Y-53479D01*
X71106Y-53555D01*
X71205Y-53596D01*
X71313Y-53596D01*
X72140Y-53596D01*
X72239Y-53555D01*
X72315Y-53479D01*
X72356Y-53380D01*
X72356Y-53273D01*
X72356Y-54237D01*
X68773Y-54237D01*
X68773Y-53273D01*
X68773Y-52722D01*
X68732Y-52622D01*
X68657Y-52546D01*
X68557Y-52505D01*
X68453Y-52505D01*
X68476Y-52451D01*
X68476Y-52274D01*
X68408Y-52110D01*
X68283Y-51985D01*
X68120Y-51917D01*
X67943Y-51917D01*
X67779Y-51984D01*
X67654Y-52109D01*
X67586Y-52273D01*
X67586Y-52450D01*
X67611Y-52510D01*
X67524Y-52546D01*
X67519Y-52551D01*
X67515Y-52546D01*
X67416Y-52505D01*
X67351Y-52505D01*
X67374Y-52451D01*
X67374Y-52274D01*
X67306Y-52110D01*
X67181Y-51985D01*
X67018Y-51917D01*
X66841Y-51917D01*
X66677Y-51984D01*
X66552Y-52109D01*
X66484Y-52273D01*
X66484Y-52450D01*
X66506Y-52505D01*
X66481Y-52505D01*
X66382Y-52546D01*
X66306Y-52622D01*
X66265Y-52721D01*
X66265Y-52829D01*
X66265Y-53380D01*
X66306Y-53479D01*
X66382Y-53555D01*
X66481Y-53596D01*
X66588Y-53596D01*
X67415Y-53596D01*
X67514Y-53555D01*
X67519Y-53551D01*
X67524Y-53555D01*
X67623Y-53596D01*
X67730Y-53596D01*
X68557Y-53596D01*
X68656Y-53555D01*
X68732Y-53479D01*
X68773Y-53380D01*
X68773Y-53273D01*
X68773Y-54237D01*
X64049Y-54237D01*
X64049Y-53273D01*
X64049Y-52722D01*
X64008Y-52622D01*
X63932Y-52546D01*
X63833Y-52505D01*
X63791Y-52505D01*
X63830Y-52411D01*
X63830Y-52234D01*
X63763Y-52071D01*
X63638Y-51945D01*
X63474Y-51877D01*
X63297Y-51877D01*
X63134Y-51945D01*
X63008Y-52070D01*
X62940Y-52233D01*
X62940Y-52410D01*
X62979Y-52505D01*
X62899Y-52505D01*
X62800Y-52546D01*
X62795Y-52551D01*
X62790Y-52546D01*
X62691Y-52505D01*
X62633Y-52505D01*
X62689Y-52372D01*
X62689Y-52195D01*
X62621Y-52031D01*
X62496Y-51906D01*
X62332Y-51838D01*
X62155Y-51838D01*
X61992Y-51905D01*
X61867Y-52031D01*
X61799Y-52194D01*
X61799Y-52371D01*
X61854Y-52505D01*
X61757Y-52505D01*
X61658Y-52546D01*
X61582Y-52622D01*
X61541Y-52721D01*
X61540Y-52829D01*
X61540Y-53380D01*
X61581Y-53479D01*
X61657Y-53555D01*
X61757Y-53596D01*
X61864Y-53596D01*
X62691Y-53596D01*
X62790Y-53555D01*
X62795Y-53551D01*
X62799Y-53555D01*
X62898Y-53596D01*
X63006Y-53596D01*
X63832Y-53596D01*
X63932Y-53555D01*
X64008Y-53479D01*
X64049Y-53380D01*
X64049Y-53273D01*
X64049Y-54237D01*
X59325Y-54237D01*
X59325Y-53273D01*
X59325Y-52722D01*
X59284Y-52622D01*
X59208Y-52546D01*
X59109Y-52505D01*
X59090Y-52505D01*
X59145Y-52372D01*
X59145Y-52195D01*
X59078Y-52031D01*
X58953Y-51906D01*
X58789Y-51838D01*
X58612Y-51838D01*
X58449Y-51905D01*
X58323Y-52031D01*
X58255Y-52194D01*
X58255Y-52371D01*
X58311Y-52505D01*
X58174Y-52505D01*
X58075Y-52546D01*
X57999Y-52622D01*
X57958Y-52721D01*
X57958Y-52829D01*
X57958Y-53380D01*
X57999Y-53479D01*
X58075Y-53555D01*
X58174Y-53596D01*
X58281Y-53596D01*
X59108Y-53596D01*
X59207Y-53555D01*
X59283Y-53479D01*
X59325Y-53380D01*
X59325Y-53273D01*
X59325Y-54237D01*
X57694Y-54237D01*
X57752Y-54179D01*
X57797Y-54073D01*
X57797Y-53957D01*
X57797Y-53522D01*
X57797Y-53407D01*
X57752Y-53300D01*
X57671Y-53219D01*
X57564Y-53175D01*
X57314Y-53175D01*
X57299Y-53190D01*
X57299Y-49541D01*
X57218Y-49332D01*
X57204Y-49311D01*
X57095Y-49292D01*
X57081Y-49306D01*
X57081Y-49278D01*
X57062Y-49169D01*
X56857Y-49079D01*
X56632Y-49074D01*
X56422Y-49155D01*
X56401Y-49169D01*
X56383Y-49278D01*
X56732Y-49627D01*
X57081Y-49278D01*
X57081Y-49306D01*
X56746Y-49641D01*
X57095Y-49990D01*
X57204Y-49972D01*
X57294Y-49766D01*
X57299Y-49541D01*
X57299Y-53190D01*
X57277Y-53212D01*
X57277Y-52533D01*
X57194Y-52333D01*
X57081Y-52219D01*
X57081Y-50004D01*
X56732Y-49655D01*
X56718Y-49670D01*
X56718Y-49641D01*
X56369Y-49292D01*
X56260Y-49311D01*
X56169Y-49516D01*
X56164Y-49741D01*
X56246Y-49951D01*
X56260Y-49972D01*
X56369Y-49990D01*
X56718Y-49641D01*
X56718Y-49670D01*
X56383Y-50004D01*
X56401Y-50113D01*
X56607Y-50204D01*
X56832Y-50209D01*
X57041Y-50127D01*
X57062Y-50113D01*
X57081Y-50004D01*
X57081Y-52219D01*
X57041Y-52179D01*
X56841Y-52096D01*
X56624Y-52096D01*
X56423Y-52179D01*
X56270Y-52332D01*
X56187Y-52532D01*
X56187Y-52749D01*
X56269Y-52950D01*
X56423Y-53103D01*
X56623Y-53186D01*
X56840Y-53186D01*
X57040Y-53104D01*
X57194Y-52950D01*
X57277Y-52750D01*
X57277Y-52533D01*
X57277Y-53212D01*
X57242Y-53247D01*
X57242Y-53730D01*
X57724Y-53730D01*
X57797Y-53657D01*
X57797Y-53522D01*
X57797Y-53957D01*
X57797Y-53822D01*
X57724Y-53750D01*
X57242Y-53750D01*
X57242Y-53758D01*
X57222Y-53758D01*
X57222Y-53750D01*
X57214Y-53750D01*
X57214Y-53730D01*
X57222Y-53730D01*
X57222Y-53247D01*
X57149Y-53175D01*
X56899Y-53175D01*
X56793Y-53219D01*
X56711Y-53300D01*
X56668Y-53405D01*
X56541Y-53278D01*
X56341Y-53195D01*
X56124Y-53195D01*
X55923Y-53277D01*
X55770Y-53431D01*
X55687Y-53631D01*
X55687Y-53848D01*
X55769Y-54048D01*
X55923Y-54201D01*
X56009Y-54237D01*
X48812Y-54237D01*
X48812Y-52305D01*
X48730Y-52105D01*
X48576Y-51951D01*
X48564Y-51946D01*
X48564Y-50403D01*
X48481Y-50203D01*
X48328Y-50050D01*
X48128Y-49966D01*
X47911Y-49966D01*
X47711Y-50049D01*
X47580Y-50180D01*
X47580Y-47726D01*
X47497Y-47526D01*
X47344Y-47372D01*
X47144Y-47289D01*
X46927Y-47289D01*
X46727Y-47372D01*
X46580Y-47518D01*
X46580Y-47506D01*
X46539Y-47406D01*
X46463Y-47330D01*
X46364Y-47289D01*
X46256Y-47289D01*
X45706Y-47289D01*
X45607Y-47330D01*
X45531Y-47406D01*
X45490Y-47505D01*
X45490Y-47613D01*
X45490Y-48163D01*
X45531Y-48262D01*
X45607Y-48338D01*
X45706Y-48379D01*
X45813Y-48379D01*
X46363Y-48379D01*
X46463Y-48338D01*
X46539Y-48262D01*
X46580Y-48163D01*
X46580Y-48150D01*
X46726Y-48296D01*
X46926Y-48379D01*
X47143Y-48379D01*
X47343Y-48296D01*
X47497Y-48143D01*
X47580Y-47943D01*
X47580Y-47726D01*
X47580Y-50180D01*
X47564Y-50195D01*
X47564Y-50183D01*
X47523Y-50084D01*
X47447Y-50008D01*
X47348Y-49966D01*
X47241Y-49966D01*
X46691Y-49966D01*
X46591Y-50007D01*
X46515Y-50083D01*
X46474Y-50182D01*
X46474Y-50290D01*
X46474Y-50840D01*
X46515Y-50939D01*
X46591Y-51015D01*
X46690Y-51056D01*
X46798Y-51056D01*
X47348Y-51056D01*
X47447Y-51015D01*
X47523Y-50939D01*
X47564Y-50840D01*
X47564Y-50827D01*
X47710Y-50973D01*
X47910Y-51056D01*
X48127Y-51056D01*
X48327Y-50974D01*
X48481Y-50820D01*
X48564Y-50620D01*
X48564Y-50403D01*
X48564Y-51946D01*
X48376Y-51868D01*
X48159Y-51868D01*
X47959Y-51951D01*
X47805Y-52104D01*
X47722Y-52304D01*
X47722Y-52521D01*
X47805Y-52721D01*
X47951Y-52868D01*
X47939Y-52868D01*
X47839Y-52909D01*
X47763Y-52985D01*
X47722Y-53084D01*
X47722Y-53191D01*
X47722Y-53741D01*
X47763Y-53841D01*
X47839Y-53917D01*
X47938Y-53958D01*
X48046Y-53958D01*
X48596Y-53958D01*
X48695Y-53917D01*
X48771Y-53841D01*
X48812Y-53742D01*
X48812Y-53634D01*
X48812Y-53084D01*
X48771Y-52985D01*
X48695Y-52909D01*
X48596Y-52868D01*
X48583Y-52868D01*
X48729Y-52722D01*
X48812Y-52522D01*
X48812Y-52305D01*
X48812Y-54237D01*
X46542Y-54237D01*
X46542Y-52740D01*
X46380Y-52347D01*
X46079Y-52046D01*
X45900Y-51971D01*
X45900Y-49517D01*
X45900Y-48957D01*
X45859Y-48858D01*
X45783Y-48782D01*
X45684Y-48741D01*
X45576Y-48741D01*
X45016Y-48741D01*
X44917Y-48782D01*
X44841Y-48858D01*
X44800Y-48957D01*
X44800Y-49064D01*
X44800Y-49624D01*
X44841Y-49724D01*
X44917Y-49800D01*
X45016Y-49841D01*
X45123Y-49841D01*
X45683Y-49841D01*
X45783Y-49800D01*
X45859Y-49724D01*
X45900Y-49625D01*
X45900Y-49517D01*
X45900Y-51971D01*
X45686Y-51882D01*
X45260Y-51882D01*
X44867Y-52045D01*
X44565Y-52345D01*
X44402Y-52738D01*
X44402Y-53164D01*
X44564Y-53558D01*
X44865Y-53859D01*
X45258Y-54022D01*
X45684Y-54022D01*
X46077Y-53860D01*
X46379Y-53559D01*
X46542Y-53166D01*
X46542Y-52740D01*
X46542Y-54237D01*
X44187Y-54237D01*
X44187Y-35525D01*
X75104Y-35525D01*
X75104Y-54237D01*
M02*
